<svg width="21" height="21" viewBox="0 0 21 21" fill="none" xmlns="http://www.w3.org/2000/svg">
<path fill-rule="evenodd" clip-rule="evenodd" d="M10.875 9.125V12.8305H16.4809C16.2393 14.0278 15.5055 15.0427 14.4024 15.7218L17.7689 18.125C19.7386 16.4574 20.875 14.0014 20.875 11.0843C20.875 10.4052 20.8089 9.75191 20.6854 9.125H10.875Z" fill="#3E82F1"/>
<path fill-rule="evenodd" clip-rule="evenodd" d="M10.3174 16.1968C7.63849 16.1968 5.37044 14.4597 4.56145 12.125L1.125 14.6838C2.81751 17.9118 6.29615 20.125 10.3174 20.125C13.0945 20.125 15.4232 19.2406 17.125 17.732L13.8006 15.2542C12.8796 15.8468 11.7013 16.1968 10.3174 16.1968Z" fill="#32A753"/>
<path fill-rule="evenodd" clip-rule="evenodd" d="M0.125 10.375C0.125 11.9917 0.47602 13.5223 1.09082 14.875L4.125 12.2788C3.94337 11.6776 3.84031 11.0353 3.84031 10.375C3.84031 9.71469 3.94337 9.0724 4.125 8.4712L1.09082 5.875C0.47602 7.2277 0.125 8.75829 0.125 10.375Z" fill="#F9BB00"/>
<path fill-rule="evenodd" clip-rule="evenodd" d="M1 6.31615L4.4204 8.875C5.2256 6.5403 7.48248 4.80315 10.1494 4.80315C11.6529 4.80315 13.0022 5.30138 14.0633 6.28009L17 3.44716C15.2268 1.85371 12.9096 0.875 10.1494 0.875C6.14699 0.875 2.6846 3.08819 1 6.31615Z" fill="#E74133"/>
</svg>
