<svg width="22" height="18" viewBox="0 0 22 18" fill="none" xmlns="http://www.w3.org/2000/svg">
<path d="M15.5493 3.72562H14.5493C14.5493 4.2779 14.997 4.72562 15.5493 4.72562V3.72562ZM6.4507 3.72562V4.72562C7.00299 4.72562 7.4507 4.2779 7.4507 3.72562H6.4507ZM13.325 9.69316C13.325 10.9772 12.2841 12.0182 11 12.0182V14.0182C13.3886 14.0182 15.325 12.0818 15.325 9.69316H13.325ZM11 12.0182C9.71594 12.0182 8.675 10.9772 8.675 9.69316H6.675C6.675 12.0818 8.61137 14.0182 11 14.0182V12.0182ZM8.675 9.69316C8.675 8.4091 9.71594 7.36816 11 7.36816V5.36816C8.61137 5.36816 6.675 7.30453 6.675 9.69316H8.675ZM11 7.36816C12.2841 7.36816 13.325 8.4091 13.325 9.69316H15.325C15.325 7.30453 13.3886 5.36816 11 5.36816V7.36816ZM18.8944 2.72562H15.5493V4.72562H18.8944V2.72562ZM16.5493 3.72562V3.19875H14.5493V3.72562H16.5493ZM16.5493 3.19875C16.5493 1.75711 15.3695 0.618164 13.9437 0.618164V2.61816C14.2947 2.61816 14.5493 2.89121 14.5493 3.19875H16.5493ZM13.9437 0.618164H8.05634V2.61816H13.9437V0.618164ZM8.05634 0.618164C6.63048 0.618164 5.4507 1.75711 5.4507 3.19875H7.4507C7.4507 2.89121 7.70529 2.61816 8.05634 2.61816V0.618164ZM5.4507 3.19875V3.72562H7.4507V3.19875H5.4507ZM6.4507 2.72562H3.10563V4.72562H6.4507V2.72562ZM3.10563 2.72562C1.67978 2.72562 0.5 3.86457 0.5 5.30621H2.5C2.5 4.99866 2.75459 4.72562 3.10563 4.72562V2.72562ZM0.5 5.30621V15.2376H2.5V5.30621H0.5ZM0.5 15.2376C0.5 16.6792 1.67978 17.8182 3.10563 17.8182V15.8182C2.75459 15.8182 2.5 15.5451 2.5 15.2376H0.5ZM3.10563 17.8182H18.8944V15.8182H3.10563V17.8182ZM18.8944 17.8182C20.3202 17.8182 21.5 16.6792 21.5 15.2376H19.5C19.5 15.5451 19.2454 15.8182 18.8944 15.8182V17.8182ZM21.5 15.2376V5.30621H19.5V15.2376H21.5ZM21.5 5.30621C21.5 3.86457 20.3202 2.72562 18.8944 2.72562V4.72562C19.2454 4.72562 19.5 4.99866 19.5 5.30621H21.5Z" fill="black"/>
</svg>
