<svg width="160" height="160" viewBox="0 0 160 160" fill="none" xmlns="http://www.w3.org/2000/svg">
<mask id="mask0_1142_144" style="mask-type:alpha" maskUnits="userSpaceOnUse" x="0" y="0" width="160" height="160">
<circle cx="80" cy="80" r="80" fill="#C4C4C4"/>
</mask>
<g mask="url(#mask0_1142_144)">
<path d="M160 0H0V160H160V0Z" fill="#00D378"/>
<path d="M98.1756 23.7035C103.758 26.1355 108.644 29.4455 112.83 33.6395C117.014 37.8315 120.316 42.7255 122.734 48.3135C125.15 53.9035 126.356 59.9015 126.35 66.3095C126.344 72.7175 125.124 78.7135 122.696 84.2975C120.266 89.8815 116.954 94.7655 112.762 98.9495C108.568 103.135 103.674 106.439 98.0876 108.856C92.4976 111.273 86.4996 112.477 80.0916 112.471C73.6856 112.465 67.6876 111.248 62.1056 108.818C56.5196 106.39 51.6376 103.076 47.4516 98.8815C43.2656 94.6895 39.9636 89.7975 37.5476 84.2075C35.1276 78.6175 33.9236 72.6195 33.9296 66.2115C33.9356 59.8055 35.1536 53.8095 37.5836 48.2235C40.0116 42.6415 43.3236 37.7555 47.5176 33.5715C51.7116 29.3855 56.6016 26.0855 62.1916 23.6655C67.7796 21.2495 73.7796 20.0435 80.1856 20.0495C86.5956 20.0555 92.5916 21.2755 98.1756 23.7035Z" fill="black"/>
<path d="M106.414 39.9835H53.8636V92.5335H106.414V39.9835Z" fill="white"/>
<path d="M127.574 160.049C127.576 133.796 106.308 112.498 80.0476 112.47C53.7876 112.442 32.4756 133.698 32.4236 159.952L127.574 160.049Z" fill="#0025FF"/>
<path d="M65.0996 58.8095C68.3603 58.8095 71.0036 56.1662 71.0036 52.9055C71.0036 49.6448 68.3603 47.0015 65.0996 47.0015C61.8389 47.0015 59.1956 49.6448 59.1956 52.9055C59.1956 56.1662 61.8389 58.8095 65.0996 58.8095Z" fill="black"/>
<path d="M95.8016 58.8415C99.0623 58.8415 101.706 56.1982 101.706 52.9375C101.706 49.6768 99.0623 47.0335 95.8016 47.0335C92.5409 47.0335 89.8976 49.6768 89.8976 52.9375C89.8976 56.1982 92.5409 58.8415 95.8016 58.8415Z" fill="black"/>
</g>
</svg>
