<svg width="56" height="32" viewBox="0 0 60 36" fill="none" xmlns="http://www.w3.org/2000/svg">
<path d="M0 18C0 8.05888 8.05888 0 18 0H42C51.9411 0 60 8.05888 60 18C60 27.9411 51.9411 36 42 36H18C8.05888 36 0 27.9411 0 18Z" fill="#DBDBDB"/>
<path d="M28.3812 8.78125L29.381 8.80222L29.381 8.80186L28.3812 8.78125ZM30.0562 6L30.7756 5.30536L30.0863 4.59157L29.3672 5.27527L30.0562 6ZM31.6125 8.85L32.6123 8.87097L32.6123 8.87061L31.6125 8.85ZM29.9625 10.4313L29.9413 11.431L29.9415 11.431L29.9625 10.4313ZM20 27.1572H19C19 27.7095 19.4477 28.1572 20 28.1572V27.1572ZM40 27.1572V28.1572C40.5523 28.1572 41 27.7095 41 27.1572H40ZM41 21.373C41 20.8208 40.5523 20.373 40 20.373C39.4477 20.373 39 20.8208 39 21.373H41ZM21 21.373C21 20.8208 20.5523 20.373 20 20.373C19.4477 20.373 19 20.8208 19 21.373H21ZM29.0003 15.5935C29.0003 16.1458 29.448 16.5935 30.0003 16.5935C30.5526 16.5935 31.0003 16.1458 31.0003 15.5935H29.0003ZM31.0003 12.9998C31.0003 12.4475 30.5526 11.9998 30.0003 11.9998C29.448 11.9998 29.0003 12.4475 29.0003 12.9998H31.0003ZM29.381 8.80186C29.383 8.70619 29.4231 8.53291 29.5486 8.28105C29.669 8.03934 29.8379 7.78487 30.0226 7.54322C30.2052 7.30435 30.3894 7.09591 30.5288 6.94669C30.598 6.87263 30.6548 6.81455 30.6931 6.77612C30.7123 6.75693 30.7267 6.74274 30.7357 6.734C30.7402 6.72963 30.7433 6.72664 30.7449 6.72507C30.7457 6.72429 30.7462 6.72386 30.7462 6.7238C30.7463 6.72377 30.7462 6.72383 30.746 6.72399C30.746 6.72406 30.7459 6.72416 30.7457 6.72429C30.7457 6.72435 30.7455 6.72446 30.7455 6.72449C30.7454 6.7246 30.7453 6.72473 30.0562 6C29.3672 5.27527 29.367 5.27541 29.3669 5.27555C29.3668 5.2756 29.3667 5.27575 29.3666 5.27586C29.3663 5.27608 29.3661 5.27632 29.3658 5.27659C29.3652 5.27712 29.3646 5.27775 29.3638 5.27848C29.3623 5.27994 29.3604 5.28178 29.3581 5.28401C29.3534 5.28845 29.3473 5.29441 29.3397 5.30183C29.3245 5.31666 29.3034 5.33735 29.2774 5.36343C29.2254 5.41553 29.1532 5.48948 29.0672 5.58144C28.8965 5.76424 28.6666 6.02378 28.4336 6.32866C28.2027 6.63076 27.9544 6.99582 27.7584 7.38926C27.5675 7.77256 27.392 8.25006 27.3814 8.76064L29.381 8.80186ZM30.0562 6C29.3369 6.69464 29.3367 6.69452 29.3366 6.6944C29.3366 6.69436 29.3365 6.69425 29.3364 6.69419C29.3363 6.69406 29.3362 6.69395 29.3361 6.69387C29.336 6.69371 29.3359 6.69365 29.3359 6.69368C29.336 6.69374 29.3364 6.69419 29.3372 6.69501C29.3388 6.69664 29.3417 6.69977 29.346 6.70433C29.3546 6.71344 29.3684 6.72824 29.3868 6.74823C29.4234 6.78827 29.4777 6.84873 29.5437 6.92567C29.6766 7.08071 29.8518 7.29683 30.0242 7.54332C30.1985 7.79265 30.3566 8.0542 30.4668 8.30099C30.5816 8.55813 30.6147 8.73331 30.6127 8.82939L32.6123 8.87061C32.6228 8.36044 32.4675 7.87624 32.2929 7.48534C32.1137 7.08408 31.8811 6.70891 31.6633 6.39731C31.4434 6.08285 31.2249 5.81382 31.0621 5.62394C30.9802 5.52842 30.9112 5.45148 30.8615 5.39723C30.8366 5.37007 30.8165 5.34851 30.8019 5.33305C30.7946 5.32531 30.7887 5.3191 30.7843 5.31446C30.7821 5.31214 30.7803 5.31022 30.7788 5.3087C30.7781 5.30794 30.7774 5.30728 30.7769 5.30672C30.7766 5.30645 30.7764 5.30619 30.7762 5.30596C30.7761 5.30585 30.7759 5.3057 30.7759 5.30564C30.7757 5.3055 30.7756 5.30536 30.0562 6ZM30.6127 8.82903C30.6055 9.16984 30.3258 9.43865 29.9834 9.43147L29.9415 11.431C31.3866 11.4613 32.5819 10.3177 32.6123 8.87097L30.6127 8.82903ZM29.9836 9.43147C29.6463 9.42435 29.3739 9.14194 29.381 8.80222L27.3814 8.76028C27.3511 10.2081 28.5037 11.4007 29.9413 11.431L29.9836 9.43147ZM35.625 14.5947H24.375V16.5947H35.625V14.5947ZM24.375 14.5947C21.404 14.5947 19 16.9987 19 19.9697H21C21 18.1033 22.5085 16.5947 24.375 16.5947V14.5947ZM19 19.9697V27.1572H21V19.9697H19ZM20 28.1572H40V26.1572H20V28.1572ZM41 27.1572V19.9697H39V27.1572H41ZM41 19.9697C41 17.0059 38.597 14.5947 35.625 14.5947V16.5947C37.4905 16.5947 39 18.1086 39 19.9697H41ZM39 21.373C39 21.927 38.554 22.373 38 22.373V24.373C39.6585 24.373 41 23.0316 41 21.373H39ZM38 22.373C37.446 22.373 37 21.927 37 21.373H35C35 23.0316 36.3415 24.373 38 24.373V22.373ZM37 21.373C37 19.7145 35.6585 18.373 34 18.373V20.373C34.554 20.373 35 20.8191 35 21.373H37ZM34 18.373C32.3415 18.373 31 19.7145 31 21.373H33C33 20.8191 33.446 20.373 34 20.373V18.373ZM31 21.373C31 21.927 30.554 22.373 30 22.373V24.373C31.6585 24.373 33 23.0316 33 21.373H31ZM30 22.373C29.446 22.373 29 21.927 29 21.373H27C27 23.0316 28.3415 24.373 30 24.373V22.373ZM29 21.373C29 19.7145 27.6585 18.373 26 18.373V20.373C26.554 20.373 27 20.8191 27 21.373H29ZM26 18.373C24.3415 18.373 23 19.7145 23 21.373H25C25 20.8191 25.446 20.373 26 20.373V18.373ZM23 21.373C23 21.927 22.554 22.373 22 22.373V24.373C23.6585 24.373 25 23.0316 25 21.373H23ZM22 22.373C21.446 22.373 21 21.927 21 21.373H19C19 23.0316 20.3415 24.373 22 24.373V22.373ZM31.0003 15.5935V12.9998H29.0003V15.5935H31.0003Z" fill="black"/>
</svg>
