<svg width="56" height="32" viewBox="0 0 56 32" fill="none" xmlns="http://www.w3.org/2000/svg">
<rect width="56" height="32" rx="16" fill="#00D378"/>
<path d="M24.7306 8.84766H36.2729C38.3506 8.84766 40.0309 10.528 40.0309 12.6056V18.4305C40.0309 20.3256 38.6297 21.8824 36.8098 22.1455V26.0001L32.574 22.1884H24.7306C22.653 22.1884 20.9727 20.5081 20.9727 18.4305V12.6056C20.9727 10.5334 22.653 8.84766 24.7306 8.84766Z" stroke="white" stroke-width="2" stroke-miterlimit="10" stroke-linecap="round" stroke-linejoin="round"/>
<path d="M31.27 6H19.7277C17.6501 6 15.9697 7.68035 15.9697 9.75797V15.5828C15.9697 17.4779 17.3709 19.0348 19.1908 19.2978V23.1524L23.4266 19.3408H31.27C33.3476 19.3408 35.028 17.6604 35.028 15.5828V9.75797C35.028 7.68572 33.3476 6 31.27 6Z" fill="#00D378" stroke="white" stroke-width="2" stroke-miterlimit="10" stroke-linecap="round" stroke-linejoin="round"/>
<mask id="path-4-inside-1_3444_12811" fill="white">
<path d="M25.4987 13.7255C26.0917 13.7255 26.5724 13.2448 26.5724 12.6518C26.5724 12.0588 26.0917 11.5781 25.4987 11.5781C24.9057 11.5781 24.425 12.0588 24.425 12.6518C24.425 13.2448 24.9057 13.7255 25.4987 13.7255Z"/>
<path d="M29.2566 13.7696C29.8496 13.7696 30.3303 13.2889 30.3303 12.6959C30.3303 12.1029 29.8496 11.6222 29.2566 11.6222C28.6636 11.6222 28.1829 12.1029 28.1829 12.6959C28.1829 13.2889 28.6636 13.7696 29.2566 13.7696Z"/>
<path d="M21.7407 13.7696C22.3337 13.7696 22.8144 13.2889 22.8144 12.6959C22.8144 12.1029 22.3337 11.6222 21.7407 11.6222C21.1477 11.6222 20.667 12.1029 20.667 12.6959C20.667 13.2889 21.1477 13.7696 21.7407 13.7696Z"/>
</mask>
<path d="M25.4987 13.7255C26.0917 13.7255 26.5724 13.2448 26.5724 12.6518C26.5724 12.0588 26.0917 11.5781 25.4987 11.5781C24.9057 11.5781 24.425 12.0588 24.425 12.6518C24.425 13.2448 24.9057 13.7255 25.4987 13.7255Z" fill="white"/>
<path d="M29.2566 13.7696C29.8496 13.7696 30.3303 13.2889 30.3303 12.6959C30.3303 12.1029 29.8496 11.6222 29.2566 11.6222C28.6636 11.6222 28.1829 12.1029 28.1829 12.6959C28.1829 13.2889 28.6636 13.7696 29.2566 13.7696Z" fill="white"/>
<path d="M21.7407 13.7696C22.3337 13.7696 22.8144 13.2889 22.8144 12.6959C22.8144 12.1029 22.3337 11.6222 21.7407 11.6222C21.1477 11.6222 20.667 12.1029 20.667 12.6959C20.667 13.2889 21.1477 13.7696 21.7407 13.7696Z" fill="white"/>
<path d="M25.5724 12.6518C25.5724 12.6925 25.5394 12.7255 25.4987 12.7255V14.7255C26.644 14.7255 27.5724 13.7971 27.5724 12.6518H25.5724ZM25.4987 12.7255C25.458 12.7255 25.425 12.6925 25.425 12.6518H23.425C23.425 13.7971 24.3535 14.7255 25.4987 14.7255V12.7255ZM25.425 12.6518C25.425 12.6111 25.458 12.5781 25.4987 12.5781V10.5781C24.3535 10.5781 23.425 11.5066 23.425 12.6518H25.425ZM25.4987 12.5781C25.5394 12.5781 25.5724 12.6111 25.5724 12.6518H27.5724C27.5724 11.5066 26.644 10.5781 25.4987 10.5781V12.5781ZM29.3303 12.6959C29.3303 12.7366 29.2973 12.7696 29.2566 12.7696V14.7696C30.4018 14.7696 31.3303 13.8411 31.3303 12.6959H29.3303ZM29.2566 12.7696C29.2159 12.7696 29.1829 12.7366 29.1829 12.6959H27.1829C27.1829 13.8411 28.1113 14.7696 29.2566 14.7696V12.7696ZM29.1829 12.6959C29.1829 12.6552 29.2159 12.6222 29.2566 12.6222V10.6222C28.1113 10.6222 27.1829 11.5506 27.1829 12.6959H29.1829ZM29.2566 12.6222C29.2973 12.6222 29.3303 12.6552 29.3303 12.6959H31.3303C31.3303 11.5506 30.4018 10.6222 29.2566 10.6222V12.6222ZM21.8144 12.6959C21.8144 12.7366 21.7814 12.7696 21.7407 12.7696V14.7696C22.886 14.7696 23.8144 13.8411 23.8144 12.6959H21.8144ZM21.7407 12.7696C21.7 12.7696 21.667 12.7366 21.667 12.6959H19.667C19.667 13.8411 20.5954 14.7696 21.7407 14.7696V12.7696ZM21.667 12.6959C21.667 12.6552 21.7 12.6222 21.7407 12.6222V10.6222C20.5954 10.6222 19.667 11.5506 19.667 12.6959H21.667ZM21.7407 12.6222C21.7814 12.6222 21.8144 12.6552 21.8144 12.6959H23.8144C23.8144 11.5506 22.886 10.6222 21.7407 10.6222V12.6222Z" fill="white" mask="url(#path-4-inside-1_3444_12811)"/>
</svg>
