<svg width="40" height="40" viewBox="0 0 40 40" fill="none" xmlns="http://www.w3.org/2000/svg">
<path d="M27.7874 1.57384C30.2044 2.62136 32.3199 4.05212 34.1339 5.86612C35.9479 7.68012 37.3786 9.79561 38.4262 12.2126C39.4737 14.6295 40 17.2253 40 20C40 22.7747 39.4737 25.3705 38.4262 27.7874C37.3786 30.2044 35.9479 32.3199 34.1339 34.1339C32.3199 35.9479 30.2044 37.3786 27.7874 38.4262C25.3705 39.4737 22.7747 40 20 40C17.2254 40 14.6295 39.4737 12.2126 38.4262C9.79561 37.3786 7.68012 35.9479 5.86612 34.1339C4.05212 32.3199 2.62136 30.2044 1.57383 27.7874C0.526312 25.3705 0 22.7747 0 20C0 17.2253 0.526312 14.6346 1.57383 12.2126C2.62136 9.79561 4.05212 7.68012 5.86612 5.86612C7.68012 4.05212 9.79561 2.62136 12.2126 1.57384C14.6295 0.526316 17.2254 0 20 0C22.7747 0 25.3705 0.526316 27.7874 1.57384Z" fill="#FF00C1"/>
<path d="M31.2417 8.7532H8.75829V31.2366H31.2417V8.7532Z" fill="white"/>
<path fill-rule="evenodd" clip-rule="evenodd" d="M10.9726 12.2367C11.2689 11.94 11.7491 11.94 12.0453 12.2367L13.4955 13.6893L14.9457 12.2367C15.2419 11.94 15.7222 11.94 16.0184 12.2367C16.3146 12.5334 16.3146 13.0144 16.0184 13.3111L14.5682 14.7637L16.0184 16.2163C16.3146 16.513 16.3146 16.994 16.0184 17.2907C15.7222 17.5874 15.2419 17.5874 14.9457 17.2907L13.4955 15.8381L12.0453 17.2907C11.7491 17.5874 11.2689 17.5874 10.9726 17.2907C10.6764 16.994 10.6764 16.513 10.9726 16.2163L12.4228 14.7637L10.9726 13.3111C10.6764 13.0144 10.6764 12.5334 10.9726 12.2367Z" fill="#FF00C1"/>
<path fill-rule="evenodd" clip-rule="evenodd" d="M23.9707 12.2367C24.2669 11.94 24.7472 11.94 25.0434 12.2367L26.4936 13.6893L27.9437 12.2367C28.24 11.94 28.7202 11.94 29.0164 12.2367C29.3126 12.5334 29.3126 13.0144 29.0164 13.3111L27.5662 14.7637L29.0164 16.2163C29.3126 16.513 29.3126 16.994 29.0164 17.2907C28.7202 17.5874 28.24 17.5874 27.9437 17.2907L26.4936 15.8381L25.0434 17.2907C24.7472 17.5874 24.2669 17.5874 23.9707 17.2907C23.6745 16.994 23.6745 16.513 23.9707 16.2163L25.4209 14.7637L23.9707 13.3111C23.6745 13.0144 23.6745 12.5334 23.9707 12.2367Z" fill="#FF00C1"/>
</svg>
