<svg width="24" height="24" viewBox="0 0 24 24" fill="none" xmlns="http://www.w3.org/2000/svg">
<path d="M5.25258 11.3415C4.88889 10.9259 4.25713 10.8837 3.8415 11.2474C3.42586 11.6111 3.38374 12.2429 3.74742 12.6585L5.25258 11.3415ZM20.2526 12.6585C20.6163 12.2429 20.5741 11.6111 20.1585 11.2474C19.7429 10.8837 19.1111 10.9259 18.7474 11.3415L20.2526 12.6585ZM6.76222 13.8817C7.11972 13.4607 7.06828 12.8297 6.64732 12.4722C6.22636 12.1147 5.59529 12.1661 5.23778 12.5871L6.76222 13.8817ZM3.73778 14.3533C3.38028 14.7743 3.43172 15.4053 3.85268 15.7628C4.27364 16.1203 4.90471 16.0689 5.26222 15.6479L3.73778 14.3533ZM18.7375 15.6454C19.0948 16.0665 19.7259 16.1182 20.147 15.7608C20.5681 15.4035 20.6197 14.7724 20.2624 14.3513L18.7375 15.6454ZM18.7654 12.5873C18.408 12.1662 17.777 12.1146 17.3559 12.4719C16.9348 12.8293 16.8831 13.4603 17.2405 13.8814L18.7654 12.5873ZM10.6368 15.0661C10.8071 14.5408 10.5192 13.9768 9.99382 13.8065C9.46844 13.6362 8.9045 13.9241 8.73422 14.4495L10.6368 15.0661ZM8.04872 16.5645C7.87844 17.0899 8.1663 17.6538 8.69168 17.8241C9.21706 17.9944 9.781 17.7065 9.95128 17.1811L8.04872 16.5645ZM15.2461 14.4495C15.0715 13.9255 14.5052 13.6423 13.9812 13.8169C13.4573 13.9915 13.1741 14.5578 13.3486 15.0818L15.2461 14.4495ZM14.0514 17.1908C14.226 17.7147 14.7923 17.9979 15.3162 17.8233C15.8402 17.6488 16.1234 17.0825 15.9488 16.5585L14.0514 17.1908ZM4.5 12C3.74742 12.6585 3.74773 12.6589 3.74805 12.6592C3.74817 12.6594 3.74849 12.6597 3.74873 12.66C3.74921 12.6605 3.74973 12.6611 3.75029 12.6618C3.75141 12.663 3.75269 12.6645 3.75414 12.6661C3.75705 12.6694 3.76061 12.6734 3.76483 12.6781C3.77328 12.6874 3.78437 12.6996 3.79809 12.7144C3.82554 12.7439 3.86355 12.7839 3.91204 12.8328C4.00899 12.9307 4.14812 13.0645 4.32879 13.2222C4.68973 13.5372 5.21922 13.9497 5.91207 14.3603C7.30002 15.1828 9.34924 16 12 16V14C9.77576 14 8.07498 13.3172 6.93168 12.6397C6.35891 12.3003 5.92746 11.9628 5.64386 11.7153C5.50227 11.5918 5.39824 11.4912 5.33258 11.425C5.29978 11.3919 5.27663 11.3674 5.26325 11.353C5.25656 11.3458 5.25231 11.3411 5.25053 11.3391C5.24963 11.3382 5.24936 11.3378 5.2497 11.3382C5.24987 11.3384 5.25019 11.3388 5.25067 11.3393C5.25091 11.3396 5.25119 11.3399 5.25151 11.3403C5.25167 11.3405 5.25193 11.3408 5.25201 11.3409C5.25229 11.3412 5.25258 11.3415 4.5 12ZM12 16C14.6508 16 16.7 15.1828 18.0879 14.3603C18.7808 13.9497 19.3103 13.5372 19.6712 13.2222C19.8519 13.0645 19.991 12.9307 20.088 12.8328C20.1364 12.7839 20.1745 12.7439 20.2019 12.7144C20.2156 12.6996 20.2267 12.6874 20.2352 12.6781C20.2394 12.6734 20.243 12.6694 20.2459 12.6661C20.2473 12.6645 20.2486 12.663 20.2497 12.6618C20.2503 12.6611 20.2508 12.6605 20.2513 12.66C20.2515 12.6597 20.2518 12.6594 20.252 12.6592C20.2523 12.6589 20.2526 12.6585 19.5 12C18.7474 11.3415 18.7477 11.3412 18.748 11.3409C18.7481 11.3408 18.7483 11.3405 18.7485 11.3403C18.7488 11.3399 18.7491 11.3396 18.7493 11.3393C18.7498 11.3388 18.7501 11.3384 18.7503 11.3382C18.7506 11.3378 18.7504 11.3382 18.7495 11.3391C18.7477 11.3411 18.7434 11.3458 18.7368 11.353C18.7234 11.3674 18.7002 11.3919 18.6674 11.425C18.6018 11.4912 18.4977 11.5918 18.3561 11.7153C18.0725 11.9628 17.6411 12.3003 17.0683 12.6397C15.925 13.3172 14.2242 14 12 14V16ZM5.23778 12.5871L3.73778 14.3533L5.26222 15.6479L6.76222 13.8817L5.23778 12.5871ZM20.2624 14.3513L18.7654 12.5873L17.2405 13.8814L18.7375 15.6454L20.2624 14.3513ZM8.73422 14.4495L8.04872 16.5645L9.95128 17.1811L10.6368 15.0661L8.73422 14.4495ZM13.3486 15.0818L14.0514 17.1908L15.9488 16.5585L15.2461 14.4495L13.3486 15.0818Z" fill="black"/>
</svg>
