<svg width="24" height="24" viewBox="0 0 24 24" fill="none" xmlns="http://www.w3.org/2000/svg">
<path d="M4 12.0001L3.12375 11.5182C2.95874 11.8183 2.95875 12.1819 3.12378 12.482L4 12.0001ZM20 12.0001L20.8762 12.482C21.0413 12.1819 21.0413 11.8182 20.8762 11.5181L20 12.0001ZM4 12.0001C3.12378 12.482 3.12398 12.4824 3.12419 12.4827C3.12427 12.4829 3.12449 12.4833 3.12465 12.4836C3.12499 12.4842 3.12536 12.4849 3.12579 12.4856C3.12663 12.4872 3.12765 12.489 3.12884 12.4911C3.13122 12.4954 3.13431 12.5009 3.1381 12.5076C3.14567 12.5209 3.15604 12.5391 3.1692 12.5616C3.19553 12.6067 3.23305 12.6695 3.28169 12.7476C3.3789 12.9036 3.52098 13.1213 3.70731 13.38C4.07886 13.8959 4.63238 14.5834 5.36402 15.2732C6.82042 16.6462 9.05375 18.091 12 18.091V16.091C9.74625 16.091 7.97958 14.9903 6.73598 13.8179C6.11762 13.235 5.64614 12.6498 5.33019 12.2111C5.17277 11.9925 5.05547 11.8124 4.97924 11.6901C4.94117 11.629 4.91346 11.5824 4.89623 11.5529C4.88761 11.5382 4.88163 11.5277 4.87828 11.5218C4.87661 11.5189 4.8756 11.5171 4.87526 11.5164C4.87509 11.5161 4.87508 11.5161 4.87524 11.5164C4.87532 11.5165 4.87544 11.5168 4.8756 11.5171C4.87568 11.5172 4.87584 11.5175 4.87588 11.5176C4.87604 11.5179 4.87622 11.5182 4 12.0001ZM12 18.091C14.9462 18.091 17.1796 16.6462 18.636 15.2732C19.3676 14.5834 19.9211 13.8959 20.2927 13.38C20.479 13.1213 20.6211 12.9036 20.7183 12.7476C20.767 12.6695 20.8045 12.6067 20.8308 12.5616C20.844 12.5391 20.8543 12.5209 20.8619 12.5076C20.8657 12.5009 20.8688 12.4954 20.8712 12.4911C20.8724 12.489 20.8734 12.4872 20.8742 12.4856C20.8746 12.4849 20.875 12.4842 20.8753 12.4836C20.8755 12.4833 20.8757 12.4829 20.8758 12.4827C20.876 12.4824 20.8762 12.482 20 12.0001C19.1238 11.5182 19.124 11.5179 19.1241 11.5176C19.1242 11.5175 19.1243 11.5172 19.1244 11.5171C19.1246 11.5168 19.1247 11.5165 19.1248 11.5164C19.1249 11.5161 19.1249 11.5161 19.1247 11.5164C19.1244 11.5171 19.1234 11.5189 19.1217 11.5218C19.1184 11.5277 19.1124 11.5382 19.1038 11.5529C19.0865 11.5824 19.0588 11.629 19.0208 11.6901C18.9445 11.8124 18.8272 11.9925 18.6698 12.2111C18.3539 12.6498 17.8824 13.235 17.264 13.8179C16.0204 14.9903 14.2538 16.091 12 16.091V18.091ZM20 12.0001C20.8762 11.5181 20.876 11.5177 20.8758 11.5174C20.8757 11.5172 20.8755 11.5168 20.8753 11.5165C20.875 11.5159 20.8746 11.5152 20.8742 11.5145C20.8733 11.513 20.8723 11.5111 20.8711 11.509C20.8687 11.5047 20.8657 11.4992 20.8619 11.4925C20.8543 11.4792 20.8439 11.4611 20.8308 11.4385C20.8044 11.3935 20.7669 11.3306 20.7183 11.2525C20.621 11.0965 20.4789 10.8788 20.2926 10.6202C19.921 10.1043 19.3674 9.41674 18.6357 8.72698C17.1792 7.35397 14.9457 5.90918 11.9995 5.90918V7.90918C14.2533 7.90918 16.0201 9.00985 17.2638 10.1823C17.8822 10.7653 18.3538 11.3504 18.6698 11.7891C18.8272 12.0077 18.9445 12.1878 19.0208 12.3101C19.0589 12.3713 19.0866 12.4178 19.1038 12.4473C19.1124 12.4621 19.1184 12.4725 19.1217 12.4784C19.1234 12.4814 19.1244 12.4832 19.1248 12.4838C19.1249 12.4841 19.125 12.4841 19.1248 12.4838C19.1247 12.4837 19.1246 12.4835 19.1244 12.4832C19.1244 12.483 19.1242 12.4828 19.1242 12.4827C19.124 12.4824 19.1238 12.4821 20 12.0001ZM11.9995 5.90918C9.05325 5.90918 6.82003 7.35399 5.36375 8.72704C4.63216 9.41681 4.0787 10.1044 3.70719 10.6203C3.52089 10.879 3.37883 11.0966 3.28164 11.2526C3.233 11.3307 3.19548 11.3936 3.16916 11.4386C3.156 11.4612 3.14563 11.4793 3.13806 11.4927C3.13427 11.4993 3.13119 11.5048 3.1288 11.5091C3.12761 11.5113 3.12659 11.5131 3.12575 11.5146C3.12533 11.5154 3.12495 11.5161 3.12462 11.5167C3.12445 11.517 3.12423 11.5174 3.12415 11.5175C3.12394 11.5179 3.12375 11.5182 4 12.0001C4.87625 12.4819 4.87608 12.4823 4.87591 12.4826C4.87587 12.4826 4.87572 12.4829 4.87564 12.4831C4.87548 12.4834 4.87535 12.4836 4.87527 12.4837C4.87511 12.484 4.87512 12.484 4.87529 12.4837C4.87564 12.4831 4.87665 12.4813 4.87832 12.4783C4.88166 12.4724 4.88764 12.4619 4.89626 12.4472C4.91349 12.4177 4.94119 12.3712 4.97926 12.31C5.05547 12.1877 5.17275 12.0076 5.33015 11.789C5.64605 11.3503 6.11747 10.7652 6.73576 10.1822C7.97924 9.00983 9.74577 7.90918 11.9995 7.90918V5.90918ZM13.25 12.0001C13.25 12.6905 12.6904 13.2501 12 13.2501V15.2501C13.7949 15.2501 15.25 13.795 15.25 12.0001H13.25ZM12 13.2501C11.3096 13.2501 10.75 12.6905 10.75 12.0001H8.75C8.75 13.795 10.2051 15.2501 12 15.2501V13.2501ZM10.75 12.0001C10.75 11.3098 11.3096 10.7501 12 10.7501V8.75012C10.2051 8.75012 8.75 10.2052 8.75 12.0001H10.75ZM12 10.7501C12.6904 10.7501 13.25 11.3098 13.25 12.0001H15.25C15.25 10.2052 13.7949 8.75012 12 8.75012V10.7501Z" fill="black"/>
</svg>
