<svg width="33" height="32" viewBox="0 0 33 32" fill="none" xmlns="http://www.w3.org/2000/svg">
<path d="M16.9879 32H17.003C25.8357 32 32.9948 24.8396 32.9948 16.0082V16.0006C32.9961 7.16296 25.8331 0 16.9967 0C8.15905 0 0.996094 7.16296 0.996094 15.9994V16.0069C0.996094 24.8396 8.15653 32 16.9879 32Z" fill="black"/>
<path d="M18.5004 26.1531V17.2851H21.4766L21.9217 13.8285H18.4992V11.6216C18.4992 10.6216 18.7766 9.93931 20.2117 9.93931L22.0415 9.93805V6.84713C21.725 6.80552 20.638 6.71094 19.3744 6.71094C16.7362 6.71094 14.929 8.32134 14.929 11.2798V13.8285H11.9453V17.2851H14.929V26.1531H18.5004Z" fill="white"/>
</svg>
