<svg width="32" height="32" viewBox="0 0 32 32" fill="none" xmlns="http://www.w3.org/2000/svg">
<path d="M15.9905 32H16.0057C24.8383 32 31.9975 24.8396 31.9975 16.0082V16.0006C31.9987 7.16296 24.8358 0 15.9994 0C7.16295 0 1.66549e-07 7.16296 1.66549e-07 15.9994V16.0069C-0.00126092 24.8396 7.15918 32 15.9905 32Z" fill="black"/>
<path d="M15.999 9.27613C18.1895 9.27613 18.4493 9.28495 19.3144 9.32405C20.1139 9.36062 20.549 9.49429 20.8377 9.60653C21.2211 9.75534 21.4935 9.93315 21.781 10.2207C22.0686 10.5082 22.2464 10.7806 22.3952 11.164C22.5074 11.4528 22.6411 11.8878 22.6777 12.6874C22.7168 13.5525 22.7256 13.8122 22.7256 16.0027C22.7256 18.1932 22.7168 18.453 22.6777 19.3181C22.6411 20.1177 22.5074 20.5527 22.3952 20.8415C22.2464 21.2249 22.0686 21.4973 21.781 21.7848C21.4935 22.0723 21.2211 22.2502 20.8377 22.399C20.549 22.5112 20.1139 22.6449 19.3144 22.6814C18.4493 22.7205 18.1895 22.7294 15.999 22.7294C13.8085 22.7294 13.5487 22.7205 12.6836 22.6814C11.884 22.6449 11.449 22.5112 11.1602 22.399C10.7768 22.2502 10.5044 22.0723 10.2169 21.7848C9.92938 21.4973 9.75156 21.2249 9.60276 20.8415C9.49052 20.5527 9.35685 20.1177 9.32027 19.3181C9.28118 18.453 9.27235 18.1932 9.27235 16.0027C9.27235 13.8122 9.28118 13.5525 9.32027 12.6874C9.35685 11.8878 9.49052 11.4528 9.60276 11.164C9.75156 10.7806 9.92938 10.5082 10.2169 10.2207C10.5044 9.93315 10.7768 9.75534 11.1602 9.60653C11.449 9.49429 11.884 9.36062 12.6836 9.32405C13.5487 9.28369 13.8072 9.27613 15.999 9.27613ZM15.999 7.79688C13.7706 7.79688 13.4907 7.8057 12.6167 7.84606C11.7428 7.88641 11.1476 8.02513 10.6255 8.2269C10.0857 8.43624 9.62797 8.71747 9.17272 9.17272C8.71621 9.62923 8.43625 10.087 8.22691 10.6255C8.02387 11.1476 7.88515 11.7441 7.84606 12.6167C7.8057 13.4919 7.79688 13.7706 7.79688 15.999C7.79688 18.2273 7.8057 18.5073 7.84606 19.3812C7.88641 20.2551 8.02514 20.8504 8.22691 21.3724C8.43625 21.9122 8.71747 22.37 9.17272 22.8252C9.62923 23.2817 10.087 23.5617 10.6255 23.771C11.1476 23.9741 11.7441 24.1128 12.6167 24.1519C13.4919 24.1922 13.7719 24.2011 15.999 24.2011C18.2273 24.2011 18.5073 24.1922 19.3812 24.1519C20.2551 24.1115 20.8504 23.9728 21.3724 23.771C21.9122 23.5617 22.37 23.2805 22.8252 22.8252C23.2817 22.3687 23.5617 21.9109 23.771 21.3724C23.9741 20.8504 24.1128 20.2539 24.1519 19.3812C24.1922 18.506 24.2011 18.2273 24.2011 15.999C24.2011 13.7706 24.1922 13.4907 24.1519 12.6167C24.1115 11.7428 23.9728 11.1476 23.771 10.6255C23.5617 10.0857 23.2805 9.62797 22.8252 9.17272C22.3687 8.7162 21.9109 8.43624 21.3724 8.2269C20.8504 8.02387 20.2539 7.88515 19.3812 7.84606C18.506 7.80696 18.226 7.79688 15.999 7.79688Z" fill="white"/>
<path d="M15.9984 11.7891C13.6717 11.7891 11.7852 13.6756 11.7852 16.0023C11.7852 18.329 13.6717 20.2156 15.9984 20.2156C18.3251 20.2156 20.2117 18.329 20.2117 16.0023C20.2117 13.6756 18.3251 11.7891 15.9984 11.7891ZM15.9984 18.7364C14.4877 18.7364 13.2632 17.5119 13.2632 16.0011C13.2632 14.4903 14.4877 13.2658 15.9984 13.2658C17.5092 13.2658 18.7337 14.4903 18.7337 16.0011C18.7337 17.5119 17.508 18.7364 15.9984 18.7364Z" fill="white"/>
<path d="M20.3794 12.6104C20.9234 12.6104 21.3643 12.1695 21.3643 11.6255C21.3643 11.0816 20.9234 10.6406 20.3794 10.6406C19.8355 10.6406 19.3945 11.0816 19.3945 11.6255C19.3945 12.1695 19.8355 12.6104 20.3794 12.6104Z" fill="white"/>
</svg>
