<svg width="33" height="32" viewBox="0 0 33 32" fill="none" xmlns="http://www.w3.org/2000/svg">
<path d="M16.9889 32H17.004C25.8366 32 32.9958 24.8396 32.9958 16.0082V16.0006C32.9971 7.16296 25.8341 0 16.9977 0C8.16003 0 0.99707 7.16296 0.99707 15.9994V16.0069C0.99707 24.8396 8.1575 32 16.9889 32Z" fill="black"/>
<path d="M18.3065 22.6968C11.4057 22.6968 7.46967 17.9659 7.30566 10.0938H10.7624C10.8759 15.8717 13.4242 18.3192 15.4427 18.8238V10.0938H18.6977V15.0769C20.6909 14.8625 22.7849 12.5917 23.4914 10.0938H26.7463C26.2038 13.172 23.933 15.4428 22.3182 16.3763C23.933 17.1333 26.5193 19.1139 27.5033 22.6968H23.9204C23.1508 20.2998 21.2334 18.4453 18.6977 18.193V22.6968H18.3065Z" fill="white"/>
</svg>
