<svg width="32" height="32" viewBox="0 0 32 32" fill="none" xmlns="http://www.w3.org/2000/svg">
<path d="M16 32C24.8365 32 32 24.8365 32 16C32 7.16346 24.8365 0 16 0C7.16346 0 0 7.16346 0 16C0 24.8365 7.16346 32 16 32Z" fill="black"/>
<path d="M6.65901 15.8612C6.65901 15.8612 14.659 12.578 17.4335 11.4219C18.4971 10.9595 22.104 9.47968 22.104 9.47968C22.104 9.47968 23.7688 8.83232 23.6301 10.4045C23.5838 11.052 23.2139 13.3178 22.8439 15.7687C22.289 19.2369 21.6878 23.0288 21.6878 23.0288C21.6878 23.0288 21.5954 24.0924 20.8093 24.2774C20.0231 24.4623 18.7283 23.63 18.4971 23.445C18.3121 23.3063 15.0289 21.2254 13.8266 20.208C13.5029 19.9306 13.133 19.3757 13.8728 18.7283C15.5376 17.2022 17.526 15.3063 18.7283 14.104C19.2832 13.5491 19.8381 12.2543 17.526 13.8265C14.2428 16.0924 11.0058 18.2196 11.0058 18.2196C11.0058 18.2196 10.2659 18.682 8.87865 18.2658C7.49133 17.8497 5.87283 17.2947 5.87283 17.2947C5.87283 17.2947 4.76307 16.6011 6.65901 15.8612Z" fill="#DBDBDB"/>
</svg>
