<svg width="170" height="30" viewBox="0 0 170 30" fill="none" xmlns="http://www.w3.org/2000/svg">
<g clip-path="url(#clip0_204_2037)">
<path d="M182.592 -9.14453H-12.5928V30.0002H182.592V-9.14453Z" fill="white"/>
<path d="M16.095 0.845806L23.7969 20.0497L19.5635 20.0465L12.4254 2.25041H12.0924L4.91798 20.0267L0.68457 20.0234L8.42604 0.835938L16.095 0.845806Z" fill="black"/>
<path d="M30.7302 12.5035L30.7269 15.8291L43.9877 15.8423L43.9844 20.066L26.4902 20.0495L26.51 0.855469L44.0305 0.871916L44.0272 5.06928L30.7401 5.05613L30.7368 8.27981L37.0935 8.28968L37.0902 12.5134L30.7302 12.5035Z" fill="black"/>
<path d="M51.3269 12.5269L51.3203 20.0763L47.0869 20.073L47.1067 0.878906L51.3401 0.882196L51.3335 8.30325L56.6187 8.30983L59.6289 0.892064L63.8623 0.895354L60.0048 10.4381L63.8689 20.0894L59.6355 20.0861L56.6154 12.5335L51.3269 12.5269Z" fill="black"/>
<path d="M76.8597 5.1066L76.8432 20.1033L72.6362 20.1L72.6527 5.10331L66.0586 5.09673L66.0619 0.873047L83.4802 0.889494L83.4769 5.11318L76.8597 5.1066Z" fill="black"/>
<path d="M121.162 0.928557L125.369 0.931846L125.35 20.0996L121.143 20.0963L121.149 12.5963L109.633 12.5832L109.626 20.1325H105.393L105.412 0.912109L109.646 0.915399L109.639 8.36277L121.156 8.37592L121.162 0.928557Z" fill="black"/>
<path d="M148.923 20.1747L144.69 20.1715L144.71 2.38528H144.377L137.202 20.1649L128.943 20.155L128.963 0.960938L133.197 0.964227L133.177 18.7504H133.536L140.711 0.970806L148.943 0.980675L148.923 20.1747Z" fill="black"/>
<path d="M156.754 12.6363L156.747 20.1857L152.514 20.1824L152.533 0.988281L156.767 0.991571L156.76 8.41262L162.045 8.4192L165.056 1.00144L169.289 1.00473L165.432 10.5475L169.296 20.1988L165.062 20.1955L162.042 12.6429L156.754 12.6363Z" fill="black"/>
<path d="M96.843 1.68178C98.0035 2.18506 99.0223 2.87256 99.8927 3.74427C100.763 4.61599 101.452 5.63243 101.953 6.79033C102.458 7.95151 102.708 9.19822 102.705 10.5272C102.705 11.8594 102.451 13.1028 101.943 14.264C101.439 15.4252 100.75 16.4384 99.8762 17.3068C99.0025 18.1752 97.9837 18.8627 96.8199 19.3627C95.656 19.866 94.4064 20.116 93.0744 20.1127C91.7424 20.1127 90.4928 19.8594 89.329 19.3528C88.1651 18.8495 87.1496 18.162 86.2792 17.2903C85.4088 16.4186 84.7197 15.4022 84.2186 14.2443C83.7141 13.0831 83.4635 11.8364 83.4668 10.5074C83.4668 9.17848 83.7207 7.93177 84.2284 6.77059C84.7329 5.6127 85.422 4.59625 86.2957 3.72783C87.1694 2.85941 88.1882 2.17191 89.3521 1.67191C90.5159 1.16862 91.7655 0.918618 93.0975 0.921907C94.4328 0.925197 95.6824 1.17849 96.843 1.68178Z" fill="black"/>
<path d="M98.5607 5.0625H87.6211V15.977H98.5607V5.0625Z" fill="white"/>
<path d="M102.966 30.0007C102.966 24.5468 98.5379 20.1257 93.0714 20.1191C87.6049 20.1126 83.1671 24.527 83.1572 29.981L102.966 30.0007Z" fill="#0025FF"/>
<path d="M89.8968 8.97543C90.576 8.97543 91.1266 8.4261 91.1266 7.74846C91.1266 7.07082 90.576 6.52148 89.8968 6.52148C89.2176 6.52148 88.667 7.07082 88.667 7.74846C88.667 8.4261 89.2176 8.97543 89.8968 8.97543Z" fill="black"/>
<path d="M96.2865 8.98129C96.9657 8.98129 97.5163 8.43196 97.5163 7.75432C97.5163 7.07668 96.9657 6.52734 96.2865 6.52734C95.6072 6.52734 95.0566 7.07668 95.0566 7.75432C95.0566 8.43196 95.6072 8.98129 96.2865 8.98129Z" fill="black"/>
</g>
<defs>
<clipPath id="clip0_204_2037">
<rect width="170" height="30" fill="white"/>
</clipPath>
</defs>
</svg>
