<svg width="60" height="36" viewBox="0 0 60 36" fill="none" xmlns="http://www.w3.org/2000/svg">
<rect width="60" height="36" rx="18" fill="#DBDBDB"/>
<path d="M29.1694 24.0877C27.5694 24.0806 26.0213 23.5189 24.7891 22.4982C23.5569 21.4775 22.7167 20.0611 22.4119 18.4904C22.107 16.9197 22.3562 15.2918 23.1172 13.8843C23.8781 12.4768 25.1035 11.3767 26.5847 10.7715C28.0659 10.1663 29.7111 10.0935 31.24 10.5655C32.7688 11.0375 34.0867 12.025 34.9689 13.3599C35.8512 14.6947 36.2433 16.2941 36.0783 17.8856C35.9134 19.4772 35.2016 20.9622 34.0644 22.0877C33.4209 22.7277 32.657 23.2339 31.8169 23.5772C30.9767 23.9204 30.0769 24.094 29.1694 24.0877V24.0877Z" stroke="black" stroke-width="2"/>
<path d="M34.5938 22.5938L38.8138 26.8138" stroke="black" stroke-width="2" stroke-linecap="round" stroke-linejoin="round"/>
</svg>
