<svg width="96" height="96" viewBox="0 0 96 96" fill="none" xmlns="http://www.w3.org/2000/svg">
<path fill-rule="evenodd" clip-rule="evenodd" d="M48 96C74.5097 96 96 74.5097 96 48C96 21.4903 74.5097 0 48 0C21.4903 0 0 21.4903 0 48C0 74.5097 21.4903 96 48 96ZM48 87C69.5391 87 87 69.5391 87 48C87 26.4609 69.5391 9 48 9C26.4609 9 9 26.4609 9 48C9 69.5391 26.4609 87 48 87Z" fill="#B6E9FF"/>
<path d="M96 48C96 74.5097 74.5097 96 48 96C21.4903 96 0 74.5097 0 48C0 21.4903 21.4903 0 48 0C50.4853 0 52.5 2.01472 52.5 4.5C52.5 6.98528 50.4853 9 48 9C26.4609 9 9 26.4609 9 48C9 69.5391 26.4609 87 48 87C69.5391 87 87 69.5391 87 48C87 45.5147 89.0147 43.5 91.5 43.5C93.9853 43.5 96 45.5147 96 48Z" fill="#5FB5FF"/>
</svg>
