<svg width="60" height="36" viewBox="0 0 60 36" fill="none" xmlns="http://www.w3.org/2000/svg">
<path d="M0 18C0 8.05888 8.05888 0 18 0H42C51.9411 0 60 8.05888 60 18C60 27.9411 51.9411 36 42 36H18C8.05888 36 0 27.9411 0 18Z" fill="#DBDBDB"/>
<path d="M37.5 15.2266C37.5 20.8516 30 28.2828 30 28.2828C30 28.2828 22.5 20.8453 22.5 15.2266C22.5 11.0828 25.8562 7.72656 30 7.72656C34.1438 7.72656 37.5 11.0828 37.5 15.2266Z" stroke="black" stroke-width="2" stroke-miterlimit="10" stroke-linecap="round" stroke-linejoin="round"/>
<path d="M29.9996 18.2844C31.6875 18.2844 33.0559 16.916 33.0559 15.2281C33.0559 13.5402 31.6875 12.1719 29.9996 12.1719C28.3117 12.1719 26.9434 13.5402 26.9434 15.2281C26.9434 16.916 28.3117 18.2844 29.9996 18.2844Z" stroke="black" stroke-width="2" stroke-miterlimit="10" stroke-linecap="round" stroke-linejoin="round"/>
</svg>
