<svg width="56" height="32" viewBox="0 0 56 32" fill="none" xmlns="http://www.w3.org/2000/svg">
<rect width="56" height="32" rx="16" fill="#B924FF"/>
<path d="M36 8L36.9383 8.34572C37.0732 7.97972 36.9829 7.56871 36.7071 7.29289C36.4313 7.01708 36.0203 6.92681 35.6543 7.06166L36 8ZM20 13.8951L19.6543 12.9567C19.2801 13.0946 19.0237 13.4415 19.0015 13.8396C18.9794 14.2377 19.1959 14.6109 19.5525 14.7893L20 13.8951ZM30.105 24L29.2107 24.4475C29.3891 24.8041 29.7623 25.0206 30.1604 24.9985C30.5585 24.9763 30.9054 24.7199 31.0433 24.3457L30.105 24ZM35.6543 7.06166L19.6543 12.9567L20.3457 14.8334L36.3457 8.93834L35.6543 7.06166ZM19.5525 14.7893L26.2871 18.1596L27.1822 16.3711L20.4475 13.0008L19.5525 14.7893ZM27.4418 17.9725C27.4608 17.9534 27.4655 17.9487 27.4845 17.9298C27.4916 17.9227 27.4987 17.9156 27.5057 17.9085C27.5128 17.9014 27.5199 17.8943 27.527 17.8872C27.571 17.8432 27.5254 17.8888 27.5694 17.8448C27.5764 17.8378 27.5835 17.8307 27.5905 17.8237C27.5976 17.8166 27.6046 17.8096 27.6116 17.8026C27.649 17.7652 27.6164 17.7978 27.6537 17.7605C27.6607 17.7535 27.6677 17.7465 27.6747 17.7395C27.6817 17.7325 27.6887 17.7255 27.6957 17.7185C27.7699 17.6443 27.7051 17.7091 27.7791 17.6351C27.7861 17.6282 27.793 17.6212 27.7999 17.6143C27.8068 17.6074 27.8137 17.6005 27.8206 17.5936C27.8758 17.5384 27.8069 17.6073 27.862 17.5522C27.9354 17.4788 27.8711 17.5431 27.9443 17.4699C27.9511 17.4631 27.958 17.4563 27.9648 17.4494C27.9716 17.4426 27.9784 17.4358 27.9852 17.429C27.9921 17.4222 27.9989 17.4154 28.0057 17.4086C28.0125 17.4018 28.0193 17.395 28.026 17.3882C28.0328 17.3814 28.0396 17.3746 28.0464 17.3678C28.0532 17.361 28.0599 17.3543 28.0667 17.3475C28.0735 17.3407 28.0802 17.334 28.087 17.3272C28.0937 17.3205 28.1005 17.3137 28.1072 17.307C28.114 17.3002 28.1207 17.2935 28.1275 17.2868C28.1342 17.28 28.1409 17.2733 28.1476 17.2666C28.1544 17.2599 28.1611 17.2531 28.1678 17.2464C28.1745 17.2397 28.1812 17.233 28.1879 17.2263C28.2235 17.1907 28.1924 17.2218 28.228 17.1862C28.2347 17.1795 28.2414 17.1728 28.248 17.1662C28.2547 17.1595 28.2614 17.1529 28.268 17.1462C28.3388 17.0754 28.277 17.1372 28.3476 17.0666C28.3829 17.0313 28.352 17.0622 28.3872 17.027C28.3938 17.0204 28.4004 17.0138 28.407 17.0072C28.4136 17.0007 28.4201 16.9941 28.4267 16.9875C28.497 16.9172 28.4352 16.979 28.5053 16.9089C28.5118 16.9024 28.5184 16.8959 28.5249 16.8893C28.5314 16.8828 28.5379 16.8763 28.5444 16.8698C28.5509 16.8633 28.5574 16.8568 28.5639 16.8503C28.5704 16.8438 28.5769 16.8373 28.5834 16.8308C28.5899 16.8243 28.5964 16.8178 28.6028 16.8114C28.6093 16.8049 28.6158 16.7984 28.6223 16.7919C28.6287 16.7855 28.6352 16.779 28.6417 16.7726C28.6481 16.7661 28.6546 16.7596 28.661 16.7532C28.6675 16.7468 28.6739 16.7403 28.6803 16.7339C28.6868 16.7274 28.6932 16.721 28.6996 16.7146C28.7061 16.7081 28.7125 16.7017 28.7189 16.6953C28.7253 16.6889 28.7318 16.6825 28.7382 16.6761C28.8063 16.6079 28.7468 16.6674 28.8148 16.5994C28.8212 16.593 28.8276 16.5866 28.8339 16.5803C28.8403 16.5739 28.8467 16.5676 28.853 16.5612C28.8594 16.5549 28.8657 16.5485 28.8721 16.5422C28.8784 16.5358 28.8847 16.5295 28.8911 16.5231C28.9248 16.4894 28.8953 16.5189 28.929 16.4852C28.9458 16.4684 28.9501 16.4642 28.9669 16.4474C28.9732 16.4411 28.9794 16.4348 28.9857 16.4285C28.992 16.4222 28.9983 16.4159 29.0046 16.4096C29.0109 16.4034 29.0171 16.3971 29.0234 16.3908C29.0297 16.3845 29.0359 16.3783 29.0422 16.372C29.0584 16.3558 29.0635 16.3507 29.0797 16.3345C29.086 16.3283 29.0922 16.322 29.0984 16.3158C29.1047 16.3095 29.1109 16.3033 29.1171 16.2971C29.1234 16.2909 29.1296 16.2846 29.1358 16.2784C29.142 16.2722 29.1482 16.266 29.1544 16.2598C29.1606 16.2536 29.1669 16.2474 29.1731 16.2412C29.1793 16.235 29.1855 16.2288 29.1916 16.2226C29.2357 16.1786 29.1848 16.2294 29.2287 16.1855C29.2349 16.1793 29.2411 16.1731 29.2473 16.167C29.2534 16.1608 29.2596 16.1546 29.2657 16.1485C29.2986 16.1157 29.3068 16.1074 29.3395 16.0748C29.4047 16.0095 29.3477 16.0665 29.4128 16.0014C29.4345 15.9797 29.4642 15.9501 29.4857 15.9285C29.5501 15.8641 29.5666 15.8476 29.6305 15.7837C29.6625 15.7517 29.7424 15.6718 29.774 15.6402C29.8057 15.6085 29.8135 15.6007 29.8452 15.569C29.8925 15.5217 29.8334 15.5808 29.8807 15.5335C29.8866 15.5276 29.8925 15.5217 29.8984 15.5158C29.9043 15.5099 29.9102 15.504 29.9161 15.4981C29.9592 15.455 30.0142 15.4 30.057 15.3573C30.1192 15.295 30.1348 15.2795 30.1967 15.2175C30.2585 15.1557 30.2044 15.2098 30.2661 15.1481C30.2719 15.1423 30.2777 15.1365 30.2834 15.1308C30.2892 15.125 30.295 15.1192 30.3007 15.1135C30.3065 15.1077 30.3123 15.1019 30.318 15.0962C30.3238 15.0904 30.3296 15.0847 30.3353 15.0789C30.366 15.0482 30.3736 15.0406 30.4042 15.01C30.4209 14.9933 30.4563 14.9579 30.4729 14.9413C30.5343 14.8799 30.5486 14.8656 30.6097 14.8046C30.6702 14.744 30.5832 14.8311 30.6437 14.7705C30.6494 14.7648 30.655 14.7592 30.6607 14.7535C30.6664 14.7479 30.672 14.7422 30.6777 14.7365C30.6878 14.7264 30.7355 14.6787 30.7455 14.6687C30.7512 14.6631 30.7568 14.6574 30.7624 14.6518C30.7681 14.6461 30.7737 14.6405 30.7794 14.6349C30.785 14.6292 30.7906 14.6236 30.7963 14.618C30.8019 14.6123 30.8075 14.6067 30.8132 14.6011C30.8188 14.5954 30.8244 14.5898 30.83 14.5842C30.8357 14.5786 30.8413 14.5729 30.8469 14.5673C30.8525 14.5617 30.8581 14.5561 30.8638 14.5505C30.8694 14.5448 30.875 14.5392 30.8806 14.5336C30.9031 14.5112 30.9255 14.4887 30.9479 14.4663C30.9628 14.4514 30.9666 14.4477 30.9815 14.4328C30.9871 14.4272 30.9926 14.4216 30.9982 14.416C31.0038 14.4104 31.0094 14.4048 31.015 14.3992C31.0206 14.3936 31.0262 14.388 31.0318 14.3825C31.0373 14.3769 31.0429 14.3713 31.0485 14.3657C31.0634 14.3508 31.0671 14.3471 31.082 14.3323C31.1266 14.2876 31.1042 14.31 31.1488 14.2654C31.1784 14.2358 31.1525 14.2617 31.1821 14.2321C31.1877 14.2265 31.1933 14.221 31.1988 14.2154C31.2044 14.2099 31.2099 14.2043 31.2155 14.1988C31.2377 14.1765 31.2265 14.1877 31.2488 14.1655C31.2784 14.1358 31.2524 14.1618 31.282 14.1322C31.3116 14.1027 31.319 14.0953 31.3485 14.0658C31.354 14.0602 31.3595 14.0547 31.3651 14.0492C31.3706 14.0436 31.3761 14.0381 31.3816 14.0326C31.4406 13.9736 31.3558 14.0584 31.4148 13.9994C31.4203 13.9939 31.4258 13.9884 31.4314 13.9829C31.4369 13.9773 31.4424 13.9718 31.4479 13.9663C31.4774 13.9369 31.4516 13.9626 31.481 13.9332C31.5104 13.9038 31.4847 13.9295 31.5141 13.9001C31.5729 13.8413 31.4884 13.9258 31.5472 13.867C31.6206 13.7936 31.5399 13.8744 31.6133 13.801C31.6719 13.7423 31.6207 13.7935 31.6793 13.7349C31.6848 13.7295 31.6903 13.724 31.6958 13.7185C31.7013 13.713 31.7068 13.7075 31.7122 13.702C31.7177 13.6965 31.7232 13.691 31.7287 13.6855C31.7342 13.68 31.7397 13.6745 31.7452 13.669C31.7507 13.6635 31.7562 13.658 31.7617 13.6525C31.7672 13.647 31.7727 13.6415 31.7782 13.636C31.7837 13.6306 31.7892 13.6251 31.7946 13.6196C31.8001 13.6141 31.8056 13.6086 31.8111 13.6031C31.8166 13.5976 31.8221 13.5921 31.8276 13.5866C31.8331 13.5811 31.8386 13.5757 31.8441 13.5702C31.8587 13.5555 31.8623 13.5519 31.877 13.5372C31.8916 13.5226 31.8953 13.519 31.9099 13.5043C31.9154 13.4988 31.9209 13.4933 31.9264 13.4879C31.9318 13.4824 31.9373 13.4769 31.9428 13.4714C31.9866 13.4276 31.9319 13.4823 31.9757 13.4385C31.9812 13.433 31.9867 13.4275 31.9922 13.422C31.9977 13.4166 32.0031 13.4111 32.0086 13.4056C32.0141 13.4001 32.0196 13.3946 32.0251 13.3891C32.0306 13.3837 32.036 13.3782 32.0415 13.3727C32.0562 13.3581 32.0598 13.3544 32.0744 13.3398C32.0799 13.3343 32.0854 13.3288 32.0909 13.3233C32.0964 13.3178 32.1019 13.3124 32.1073 13.3069C32.1128 13.3014 32.1183 13.2959 32.1238 13.2904C32.1293 13.2849 32.1348 13.2795 32.1402 13.274C32.1457 13.2685 32.1512 13.263 32.1567 13.2575C32.1622 13.252 32.1677 13.2466 32.1731 13.2411C32.1786 13.2356 32.1841 13.2301 32.1896 13.2246C32.1951 13.2191 32.2006 13.2136 32.2061 13.2082C32.2499 13.1643 32.1951 13.2191 32.239 13.1753C32.2445 13.1698 32.2499 13.1643 32.2554 13.1588C32.2609 13.1533 32.2664 13.1478 32.2719 13.1423C32.2774 13.1368 32.2829 13.1314 32.2883 13.1259C32.2938 13.1204 32.2993 13.1149 32.3048 13.1094C32.3048 13.1094 32.3377 13.0765 32.3377 13.0765C32.4552 12.959 32.4839 12.9303 32.6017 12.8125C32.6017 12.8125 32.734 12.6803 32.7341 12.6801C32.7396 12.6746 32.7451 12.6691 32.7506 12.6636C32.7562 12.658 32.7617 12.6525 32.7672 12.647C32.7728 12.6415 32.7783 12.6359 32.7838 12.6304C32.7893 12.6249 32.7949 12.6193 32.8004 12.6138C32.8398 12.5745 32.8275 12.5868 32.8668 12.5474C32.8724 12.5418 32.8779 12.5363 32.8835 12.5307C32.889 12.5252 32.8946 12.5197 32.9001 12.5141C32.9057 12.5086 32.9112 12.503 32.9168 12.4975C32.9223 12.4919 32.9278 12.4864 32.9334 12.4808C32.9852 12.429 32.9149 12.4993 32.9667 12.4475C33.0038 12.4104 32.963 12.4512 33.0001 12.4141C33.0048 12.4094 33.0288 12.3854 33.0335 12.3807C33.039 12.3752 33.0446 12.3696 33.0502 12.364C33.0558 12.3585 33.0613 12.3529 33.0669 12.3473C33.0725 12.3417 33.078 12.3362 33.0836 12.3306C33.0892 12.325 33.0948 12.3194 33.1004 12.3139C33.1059 12.3083 33.1115 12.3027 33.1171 12.2971C33.1227 12.2915 33.1283 12.2859 33.1339 12.2804C33.1936 12.2206 33.2083 12.2059 33.2683 12.146C33.3132 12.101 33.257 12.1572 33.302 12.1123C33.3076 12.1066 33.3132 12.101 33.3188 12.0954C33.3245 12.0898 33.3301 12.0841 33.3357 12.0785C33.3413 12.0729 33.347 12.0672 33.3526 12.0616C33.3582 12.056 33.3639 12.0503 33.3695 12.0447C33.3751 12.0391 33.3808 12.0334 33.3864 12.0278C33.3921 12.0222 33.3977 12.0165 33.4033 12.0109C33.4456 11.9686 33.4289 11.9853 33.4712 11.943C33.4787 11.9355 33.4976 11.9166 33.5052 11.909C33.5108 11.9034 33.5165 11.8977 33.5222 11.892C33.5279 11.8864 33.5335 11.8807 33.5392 11.875C33.5493 11.8649 33.5632 11.851 33.5733 11.8409C33.579 11.8352 33.5847 11.8295 33.5904 11.8238C33.5961 11.8182 33.6018 11.8125 33.6075 11.8068C33.6328 11.7815 33.6163 11.7979 33.6417 11.7726C33.6474 11.7669 33.6531 11.7611 33.6588 11.7554C33.6645 11.7497 33.6702 11.744 33.6759 11.7383C33.7966 11.6176 33.8302 11.584 33.9522 11.462C33.983 11.4313 34.0608 11.3534 34.0919 11.3223C34.0981 11.3161 34.1208 11.2935 34.127 11.2872C34.1329 11.2813 34.1387 11.2755 34.1446 11.2696C34.1505 11.2638 34.1563 11.2579 34.1622 11.252C34.1778 11.2364 34.217 11.1972 34.2328 11.1814C34.2642 11.15 34.2721 11.1421 34.3037 11.1105C34.3433 11.0709 34.2996 11.1146 34.3392 11.075C34.3789 11.0353 34.3352 11.079 34.3749 11.0393C34.396 11.0182 34.3894 11.0248 34.4106 11.0036C34.4166 10.9976 34.4226 10.9917 34.4285 10.9857C34.4345 10.9797 34.4405 10.9738 34.4464 10.9678C34.4524 10.9618 34.4584 10.9558 34.4644 10.9498C34.4704 10.9439 34.4763 10.9379 34.4823 10.9319C34.4883 10.9259 34.4943 10.9199 34.5003 10.9139C34.5063 10.9079 34.5123 10.9019 34.5183 10.8959C34.5826 10.8316 34.5261 10.8881 34.5905 10.8237C34.5966 10.8176 34.6026 10.8116 34.6087 10.8056C34.6147 10.7995 34.6207 10.7935 34.6268 10.7874C34.6365 10.7778 34.6534 10.7608 34.6631 10.7511C34.6874 10.7269 34.6753 10.7389 34.6996 10.7147C34.7056 10.7086 34.7117 10.7025 34.7178 10.6964C34.7239 10.6903 34.73 10.6842 34.7361 10.6781C34.8012 10.613 34.7442 10.67 34.8094 10.6048C34.9075 10.5067 34.8586 10.5557 34.9572 10.457C34.9638 10.4504 34.9878 10.4264 34.9944 10.4198C35.0409 10.3733 34.9852 10.429 35.0317 10.3825C35.0589 10.3553 35.0419 10.3723 35.0691 10.3451C35.0754 10.3388 35.0816 10.3326 35.0879 10.3263C35.0941 10.3201 35.1004 10.3138 35.1067 10.3076C35.1267 10.2875 35.1242 10.29 35.1443 10.2699C35.1506 10.2637 35.1568 10.2574 35.1631 10.2511C35.1694 10.2448 35.1757 10.2385 35.182 10.2322C35.1904 10.2238 35.2114 10.2028 35.2198 10.1944C35.2262 10.1881 35.2325 10.1817 35.2388 10.1754C35.2451 10.1691 35.2515 10.1628 35.2578 10.1564C35.269 10.1452 35.3226 10.0916 35.334 10.0802C35.3404 10.0738 35.3468 10.0674 35.3532 10.0611C35.3595 10.0547 35.3659 10.0483 35.3723 10.0419C35.4234 9.99084 35.3596 10.0546 35.4107 10.0035C35.5019 9.91228 35.4736 9.94061 35.5655 9.84875C35.572 9.84226 35.5784 9.83577 35.5849 9.82927C35.5914 9.82277 35.5979 9.81627 35.6045 9.80976C35.6398 9.7744 35.6082 9.80606 35.6436 9.77065C35.6501 9.76412 35.6566 9.75759 35.6632 9.75105C35.6697 9.74451 35.6762 9.73797 35.6828 9.73142C35.7051 9.70915 35.6998 9.71437 35.7222 9.69206C35.7472 9.66702 35.7366 9.67766 35.7616 9.65258C35.8189 9.59533 35.744 9.67026 35.8012 9.61297C35.8284 9.58585 35.8536 9.56066 35.8808 9.53337C35.8875 9.52671 35.8942 9.52005 35.9008 9.51338C35.9075 9.50672 35.9142 9.50005 35.9208 9.49337C35.9275 9.48669 35.9342 9.48001 35.9409 9.47332C35.9476 9.46663 35.9543 9.45994 35.961 9.45324C35.961 9.45322 36.0012 9.41305 36.0012 9.41298C36.008 9.40626 36.0147 9.39953 36.0214 9.3928C36.0281 9.38607 36.0349 9.37933 36.0416 9.37259C36.0757 9.33847 36.1697 9.2445 36.2046 9.20965C36.2371 9.1771 36.3364 9.07778 36.3697 9.04448C36.3767 9.03755 36.3836 9.03061 36.3905 9.02367C36.3975 9.01673 36.4044 9.00978 36.4114 9.00282C36.4774 8.93683 36.3871 9.02707 36.4532 8.96103C36.4602 8.95405 36.4672 8.94706 36.4741 8.94007C36.4811 8.93308 36.4881 8.92608 36.4951 8.91908C36.5021 8.91208 36.5091 8.90507 36.5162 8.89805C36.5232 8.89104 36.5302 8.88402 36.5372 8.87699C36.6081 8.8061 36.5508 8.86344 36.6219 8.79235C36.6289 8.78527 36.636 8.77819 36.6431 8.7711C36.6502 8.76401 36.6573 8.75691 36.6644 8.74981C36.6978 8.71642 36.6737 8.74055 36.7071 8.70711L35.2929 7.29289C35.2669 7.31891 35.2762 7.30963 35.2502 7.33559C35.2347 7.35111 35.2231 7.36267 35.2077 7.37814C35.2006 7.38522 35.1935 7.39229 35.1864 7.39935C35.1794 7.40642 35.1723 7.41348 35.1653 7.42053C35.1326 7.45321 35.1556 7.43014 35.123 7.46277C35.0833 7.50245 35.1205 7.46524 35.0809 7.50487C35.0739 7.51187 35.0669 7.51887 35.0599 7.52586C35.0529 7.53285 35.046 7.53983 35.039 7.54681C35.032 7.55379 35.025 7.56076 35.0181 7.56773C35.0111 7.5747 35.0041 7.58166 34.9972 7.58861C34.9902 7.59556 34.9833 7.60251 34.9763 7.60945C34.9694 7.6164 34.9625 7.62333 34.9555 7.63026C34.9486 7.63719 34.9417 7.64412 34.9348 7.65103C34.9278 7.65795 34.9209 7.66486 34.914 7.67177C34.9129 7.67294 34.8738 7.71202 34.8727 7.71313C34.7947 7.79105 34.8681 7.71771 34.7904 7.79544C34.7451 7.84065 34.6719 7.91389 34.6274 7.95837C34.5912 7.99461 34.5022 8.08363 34.4666 8.11915C34.3657 8.22006 34.4082 8.17762 34.3079 8.27785C34.3014 8.28442 34.2948 8.29098 34.2882 8.29754C34.2817 8.3041 34.2751 8.31066 34.2686 8.3172C34.2032 8.38261 34.2947 8.29108 34.2294 8.35644C34.2158 8.36998 34.1646 8.42116 34.1513 8.43454C34.1448 8.44102 34.1383 8.44751 34.1318 8.45399C34.1253 8.46046 34.1189 8.46694 34.1124 8.4734C34.1059 8.47987 34.0995 8.48634 34.093 8.49279C34.0865 8.49925 34.0801 8.50571 34.0736 8.51215C34.0486 8.53715 34.06 8.52582 34.035 8.55078C33.9814 8.60442 34.0501 8.5357 33.9965 8.5893C33.9901 8.59571 33.9837 8.60211 33.9773 8.60851C33.9709 8.61491 33.9645 8.62131 33.9581 8.6277C33.9517 8.63409 33.9453 8.64047 33.9389 8.64685C33.9326 8.65323 33.9262 8.65961 33.9198 8.66598C33.8745 8.71126 33.8887 8.69708 33.8436 8.74221C33.7998 8.78602 33.8115 8.77432 33.7678 8.81799C33.7615 8.82429 33.7552 8.83058 33.7489 8.83687C33.7426 8.84316 33.7363 8.84944 33.7301 8.85572C33.6816 8.90423 33.7409 8.84487 33.6924 8.89334C33.6479 8.93785 33.587 8.99882 33.543 9.04278C33.4953 9.09047 33.5536 9.03223 33.5059 9.07988C33.4997 9.08606 33.4936 9.09223 33.4874 9.0984C33.4812 9.10456 33.4751 9.11073 33.4689 9.11689C33.4605 9.12525 33.4034 9.18236 33.3952 9.1906C33.3897 9.19609 33.3272 9.25856 33.3219 9.26392C33.2598 9.326 33.3109 9.27493 33.2489 9.33687C33.1952 9.39059 33.2299 9.35586 33.1763 9.40946C33.1548 9.43095 33.1255 9.46031 33.1041 9.48168C33.0748 9.51099 33.0974 9.48839 33.0681 9.51767C33.0442 9.54163 33.0562 9.52963 33.0322 9.55356C33.0262 9.55954 33.0203 9.56551 33.0143 9.57148C33.0083 9.57745 33.0024 9.58341 32.9964 9.58938C32.9858 9.59997 32.9713 9.61453 32.9607 9.6251C32.9547 9.63105 32.9488 9.637 32.9429 9.64294C32.9369 9.64888 32.931 9.65482 32.925 9.66075C32.8656 9.72017 32.9489 9.63693 32.8895 9.69632C32.8579 9.72788 32.85 9.73576 32.8186 9.76721C32.7868 9.79898 32.7091 9.87673 32.6777 9.90809C32.6466 9.93923 32.5687 10.017 32.538 10.0478C32.4823 10.1035 32.5241 10.0617 32.4685 10.1173C32.4608 10.125 32.4416 10.1442 32.4339 10.1519C32.4281 10.1577 32.4224 10.1634 32.4166 10.1692C32.4109 10.1749 32.4051 10.1807 32.3993 10.1864C32.3936 10.1922 32.3878 10.198 32.3821 10.2037C32.3763 10.2095 32.3706 10.2152 32.3648 10.2209C32.3393 10.2465 32.3559 10.2299 32.3304 10.2554C32.3302 10.2555 32.2618 10.324 32.2617 10.3241C32.1403 10.4455 32.1094 10.4764 31.9891 10.5967C31.8886 10.6972 31.9544 10.6314 31.854 10.7317C31.7841 10.8017 31.7893 10.7964 31.7196 10.8661C31.7048 10.881 31.6675 10.9183 31.6527 10.9331C31.623 10.9628 31.6155 10.9703 31.5859 10.9999C31.5599 11.0259 31.5784 11.0073 31.5525 11.0333C31.5118 11.074 31.5599 11.0259 31.5192 11.0666C31.4896 11.0962 31.4822 11.1036 31.4526 11.1332C31.4329 11.1529 31.4059 11.1799 31.3862 11.1996C31.3807 11.2051 31.3751 11.2107 31.3696 11.2162C31.3641 11.2217 31.3585 11.2273 31.353 11.2328C31.3475 11.2383 31.342 11.2438 31.3364 11.2494C31.3309 11.2549 31.3254 11.2604 31.3199 11.2659C31.2611 11.3247 31.2461 11.3397 31.1875 11.3983C31.0697 11.5161 31.041 11.5448 30.9235 11.6623C30.918 11.6677 30.9126 11.6732 30.9071 11.6787C30.9016 11.6842 30.8961 11.6897 30.8906 11.6952C30.8851 11.7007 30.8796 11.7062 30.8741 11.7117C30.8686 11.7171 30.8632 11.7226 30.8577 11.7281C30.821 11.7647 30.8614 11.7244 30.8248 11.761C30.7663 11.8195 30.8503 11.7355 30.7918 11.794C30.7625 11.8232 30.6895 11.8963 30.6602 11.9256C30.6017 11.9841 30.5872 11.9986 30.5286 12.0572C30.5286 12.0572 30.3969 12.1888 30.3969 12.1889C30.3914 12.1944 30.3859 12.1999 30.3804 12.2054C30.3749 12.2108 30.3695 12.2163 30.364 12.2218C30.3585 12.2273 30.353 12.2328 30.3475 12.2383C30.342 12.2438 30.3365 12.2493 30.331 12.2548C30.3255 12.2603 30.32 12.2658 30.3145 12.2713C30.309 12.2768 30.3035 12.2823 30.298 12.2878C30.2925 12.2932 30.287 12.2987 30.2815 12.3042C30.276 12.3097 30.2706 12.3152 30.2651 12.3207C30.2455 12.3403 30.2516 12.3342 30.2321 12.3537C30.2266 12.3592 30.2211 12.3647 30.2156 12.3702C30.2101 12.3757 30.2045 12.3812 30.199 12.3867C30.1844 12.4014 30.1477 12.4381 30.133 12.4528C30.1183 12.4675 30.1146 12.4712 30.0999 12.4859C30.0944 12.4914 30.0889 12.4969 30.0834 12.5024C30.0779 12.5079 30.0723 12.5135 30.0668 12.519C30.0613 12.5245 30.0558 12.53 30.0503 12.5355C30.0448 12.541 30.0392 12.5466 30.0337 12.5521C30.0043 12.5815 30.03 12.5557 30.0006 12.5852C29.971 12.6148 29.9638 12.6219 29.9342 12.6515C29.9047 12.681 29.8974 12.6884 29.8678 12.718C29.7515 12.8343 29.7178 12.868 29.6008 12.985C29.5211 13.0647 29.5463 13.0395 29.4664 13.1194C29.4214 13.1643 29.4777 13.1081 29.4327 13.1531C29.4177 13.1681 29.414 13.1718 29.3989 13.1868C29.3933 13.1925 29.3877 13.1981 29.382 13.2037C29.3764 13.2094 29.3708 13.215 29.3651 13.2206C29.3595 13.2263 29.3539 13.2319 29.3482 13.2376C29.3426 13.2432 29.3369 13.2488 29.3313 13.2545C29.3011 13.2846 29.2937 13.2921 29.2635 13.3223C29.2484 13.3374 29.2446 13.3412 29.2295 13.3563C29.1689 13.4169 29.256 13.3298 29.1954 13.3903C29.1879 13.3979 29.1689 13.4169 29.1613 13.4244C29.1007 13.4851 29.1879 13.3979 29.1272 13.4586C29.1215 13.4643 29.1158 13.47 29.1101 13.4757C29.1044 13.4814 29.0987 13.4871 29.093 13.4928C29.0873 13.4985 29.0816 13.5042 29.0759 13.5099C29.0702 13.5156 29.0644 13.5213 29.0587 13.5271C29.0421 13.5436 29.0067 13.5791 28.99 13.5958C28.9594 13.6264 28.9518 13.634 28.9211 13.6647C28.8905 13.6953 28.8826 13.7032 28.8519 13.7339C28.8314 13.7544 28.8031 13.7827 28.7825 13.8033C28.7767 13.8091 28.7709 13.8149 28.7651 13.8207C28.7592 13.8265 28.7534 13.8323 28.7476 13.8382C28.7418 13.844 28.736 13.8498 28.7302 13.8556C28.7244 13.8614 28.7186 13.8672 28.7127 13.8731C28.7069 13.8789 28.7011 13.8847 28.6953 13.8905C28.6894 13.8964 28.6836 13.9022 28.6778 13.908C28.6719 13.9138 28.6661 13.9197 28.6603 13.9255C28.6544 13.9314 28.6486 13.9372 28.6427 13.943C28.6427 13.943 28.5725 14.0132 28.5725 14.0133C28.5666 14.0192 28.5607 14.0251 28.5548 14.031C28.549 14.0368 28.5431 14.0427 28.5372 14.0486C28.5313 14.0545 28.5254 14.0604 28.5195 14.0662C28.5136 14.0721 28.5078 14.078 28.5019 14.0839C28.4554 14.1303 28.4066 14.1792 28.3598 14.226C28.328 14.2578 28.3558 14.23 28.324 14.2618C28.3181 14.2677 28.3121 14.2737 28.3061 14.2797C28.3002 14.2856 28.2942 14.2916 28.2882 14.2976C28.2643 14.3215 28.2763 14.3095 28.2523 14.3335C28.2443 14.3414 28.2243 14.3615 28.2163 14.3695C28.1842 14.4016 28.1763 14.4095 28.1441 14.4417C28.0797 14.5061 28.136 14.4498 28.0715 14.5143C28.0068 14.579 27.9905 14.5953 27.9252 14.6605C27.9191 14.6667 27.913 14.6728 27.9069 14.6789C27.9007 14.6851 27.8946 14.6912 27.8884 14.6973C27.8557 14.7301 27.8844 14.7014 27.8515 14.7343C27.8186 14.7672 27.8105 14.7753 27.7774 14.8084C27.7712 14.8146 27.765 14.8207 27.7588 14.8269C27.7526 14.8331 27.7464 14.8394 27.7402 14.8456C27.7153 14.8705 27.7278 14.8579 27.7029 14.8829C27.6364 14.9494 27.6946 14.8911 27.628 14.9578C27.5946 14.9912 27.6238 14.962 27.5904 14.9954C27.5841 15.0017 27.5778 15.008 27.5715 15.0143C27.5652 15.0206 27.5589 15.0269 27.5526 15.0331C27.5415 15.0443 27.4882 15.0976 27.4769 15.1089C27.4261 15.1596 27.4895 15.0962 27.4388 15.147C27.4048 15.181 27.4346 15.1512 27.4006 15.1852C27.3943 15.1915 27.3879 15.1979 27.3815 15.2043C27.3751 15.2107 27.3687 15.2171 27.3623 15.2234C27.356 15.2298 27.3496 15.2362 27.3432 15.2426C27.3368 15.249 27.3304 15.2554 27.3239 15.2618C27.2897 15.2961 27.3198 15.266 27.2854 15.3004C27.279 15.3068 27.2726 15.3132 27.2661 15.3197C27.2597 15.3261 27.2533 15.3325 27.2468 15.339C27.2404 15.3454 27.2339 15.3519 27.2274 15.3583C27.221 15.3648 27.2145 15.3713 27.2081 15.3777C27.1735 15.4123 27.2038 15.382 27.1692 15.4166C27.13 15.4558 27.0523 15.5335 27.0125 15.5733C27.0125 15.5733 26.9336 15.6522 26.9334 15.6524C26.9157 15.67 26.8716 15.7142 26.8538 15.732C26.7828 15.803 26.7648 15.821 26.693 15.8928C26.6693 15.9165 26.5546 16.0312 26.5301 16.0557C26.4569 16.1289 26.5212 16.0646 26.4478 16.138C26.4111 16.1747 26.4018 16.184 26.3649 16.2209C26.2163 16.3695 26.1793 16.4065 26.0275 16.5582L27.4418 17.9725ZM35.0617 7.65428L29.1666 23.6543L31.0433 24.3457L36.9383 8.34572L35.0617 7.65428ZM30.9992 23.5525L27.6289 16.8178L25.8404 17.7129L29.2107 24.4475L30.9992 23.5525Z" fill="white"/>
</svg>
