<svg width="56" height="32" viewBox="0 0 56 32" fill="none" xmlns="http://www.w3.org/2000/svg">
<path d="M0 16C0 7.16344 7.16344 0 16 0H40C48.8366 0 56 7.16344 56 16C56 24.8366 48.8366 32 40 32H16C7.16344 32 0 24.8366 0 16Z" fill="#DBDBDB"/>
<path d="M18.5859 8.88235V7.88235C18.0337 7.88235 17.5859 8.33007 17.5859 8.88235H18.5859ZM37.4095 8.88235H38.4095C38.4095 8.33007 37.9618 7.88235 37.4095 7.88235V8.88235ZM37.4095 23V24C37.9618 24 38.4095 23.5523 38.4095 23H37.4095ZM18.5859 23H17.5859C17.5859 23.5523 18.0337 24 18.5859 24V23ZM23.2918 13.5294C22.7395 13.5294 22.2918 13.9771 22.2918 14.5294C22.2918 15.0817 22.7395 15.5294 23.2918 15.5294V13.5294ZM25.1742 15.5294C25.7265 15.5294 26.1742 15.0817 26.1742 14.5294C26.1742 13.9771 25.7265 13.5294 25.1742 13.5294V15.5294ZM23.2918 17.2941C22.7395 17.2941 22.2918 17.7418 22.2918 18.2941C22.2918 18.8464 22.7395 19.2941 23.2918 19.2941V17.2941ZM25.1742 19.2941C25.7265 19.2941 26.1742 18.8464 26.1742 18.2941C26.1742 17.7418 25.7265 17.2941 25.1742 17.2941V19.2941ZM30.8212 13.5294C30.2689 13.5294 29.8212 13.9771 29.8212 14.5294C29.8212 15.0817 30.2689 15.5294 30.8212 15.5294V13.5294ZM32.7036 15.5294C33.2559 15.5294 33.7036 15.0817 33.7036 14.5294C33.7036 13.9771 33.2559 13.5294 32.7036 13.5294V15.5294ZM30.8212 17.2941C30.2689 17.2941 29.8212 17.7418 29.8212 18.2941C29.8212 18.8464 30.2689 19.2941 30.8212 19.2941V17.2941ZM32.7036 19.2941C33.2559 19.2941 33.7036 18.8464 33.7036 18.2941C33.7036 17.7418 33.2559 17.2941 32.7036 17.2941V19.2941ZM24.233 11.7647C24.7853 11.7647 25.233 11.317 25.233 10.7647C25.233 10.2124 24.7853 9.76471 24.233 9.76471V11.7647ZM25.1153 8.88235C25.1153 9.43464 25.5631 9.88235 26.1153 9.88235C26.6676 9.88235 27.1153 9.43464 27.1153 8.88235H25.1153ZM31.7624 11.7647C32.3147 11.7647 32.7624 11.317 32.7624 10.7647C32.7624 10.2124 32.3147 9.76471 31.7624 9.76471V11.7647ZM32.6448 8.88235C32.6448 9.43464 33.0925 9.88235 33.6448 9.88235C34.197 9.88235 34.6448 9.43464 34.6448 8.88235H32.6448ZM18.5859 9.88235H37.4095V7.88235H18.5859V9.88235ZM36.4095 8.88235V23H38.4095V8.88235H36.4095ZM37.4095 22H18.5859V24H37.4095V22ZM19.5859 23V8.88235H17.5859V23H19.5859ZM23.2918 15.5294H25.1742V13.5294H23.2918V15.5294ZM23.2918 19.2941H25.1742V17.2941H23.2918V19.2941ZM30.8212 15.5294H32.7036V13.5294H30.8212V15.5294ZM30.8212 19.2941H32.7036V17.2941H30.8212V19.2941ZM24.233 9.76471C23.7457 9.76471 23.3506 9.36966 23.3506 8.88235H21.3506C21.3506 10.4742 22.6411 11.7647 24.233 11.7647V9.76471ZM23.3506 8.88235C23.3506 8.39504 23.7457 8 24.233 8V6C22.6411 6 21.3506 7.29047 21.3506 8.88235H23.3506ZM24.233 8C24.7203 8 25.1153 8.39504 25.1153 8.88235H27.1153C27.1153 7.29047 25.8249 6 24.233 6V8ZM31.7624 9.76471C31.2751 9.76471 30.8801 9.36966 30.8801 8.88235H28.8801C28.8801 10.4742 30.1705 11.7647 31.7624 11.7647V9.76471ZM30.8801 8.88235C30.8801 8.39504 31.2751 8 31.7624 8V6C30.1705 6 28.8801 7.29047 28.8801 8.88235H30.8801ZM31.7624 8C32.2497 8 32.6448 8.39504 32.6448 8.88235H34.6448C34.6448 7.29047 33.3543 6 31.7624 6V8Z" fill="black"/>
</svg>
