<svg id="Слой_1" data-name="Слой 1" xmlns="http://www.w3.org/2000/svg" xmlns:xlink="http://www.w3.org/1999/xlink" viewBox="0 0 800 800">
  <defs>
    <style>
      .cls-1 {
        fill: #ff0;
      }

      .cls-2 {
        fill: url(#Безымянный_градиент_44);
      }

      .cls-3 {
        fill: #fff;
      }

      .cls-4 {
        fill: #ff00c1;
      }

      .cls-5 {
        fill: #ff92d2;
      }

      .cls-6 {
        fill: none;
        stroke: #000;
        stroke-linecap: round;
        stroke-linejoin: round;
        stroke-width: 15px;
      }
    </style>
    <linearGradient id="Безымянный_градиент_44" data-name="Безымянный градиент 44" x1="400" y1="698.79323" x2="400" y2="100" gradientUnits="userSpaceOnUse">
      <stop offset="0.18056" stop-color="#e400ff"/>
      <stop offset="0.88542"/>
    </linearGradient>
  </defs>
  <title>Обложки для Telegram_Logo_Lectonic</title>
  <rect class="cls-1" width="800" height="800"/>
  <path class="cls-2" d="M689.43405,489.68088a151.96034,151.96034,0,0,0-72.57348-76.72234,225.052,225.052,0,0,0,14.8909-81.6699q.04954-48.04918-18.08156-89.97634A233.60032,233.60032,0,0,0,490.8776,118.267q-41.88237-18.20955-89.93933-18.26686Q352.8891,99.9508,310.96938,118.082A233.598,233.598,0,0,0,187.9242,240.87439q-18.23286,41.89376-18.27443,89.93882a224.8647,224.8647,0,0,0,14.67272,81.56042,152.04606,152.04606,0,0,0-73.63087,77.02147A150.98791,150.98791,0,0,0,110.571,606.673a152.2707,152.2707,0,0,0,80.042,80.20712A145.69848,145.69848,0,0,0,249.23471,698.787c20.82922.02152,280.3402-.02159,301.22065,0a145.71979,145.71979,0,0,0,58.65117-11.7866,152.26975,152.26975,0,0,0,80.207-80.04161,151.04751,151.04751,0,0,0,.12053-117.27794Z"/>
  <g>
    <rect class="cls-3" x="268.54672" y="231.98374" width="262.90656" height="262.90656"/>
    <path class="cls-4" d="M340.7834,349.95374a59.21662,59.21662,0,0,0,118.43319,0Z"/>
    <g>
      <circle class="cls-5" cx="537.36386" cy="363.43702" r="20.63406"/>
      <circle class="cls-5" cx="262.63614" cy="363.43702" r="20.63406"/>
    </g>
    <circle cx="324.55481" cy="296.29674" r="29.52121"/>
    <circle cx="478.06512" cy="296.29674" r="29.52121"/>
    <path class="cls-6" d="M289.39789,264.74841a47.1177,47.1177,0,0,1,35.15692-15.68794"/>
    <path class="cls-6" d="M513.12726,264.74841a47.1177,47.1177,0,0,0-35.15692-15.68794"/>
  </g>
  <path d="M637.87429,800c.01385-131.27293-106.32952-237.76322-237.6298-237.89829C268.943,561.96663,162.382,668.23789,162.12571,799.51057Z"/>
</svg>
