<svg width="290" height="163" viewBox="0 0 290 163" fill="none" xmlns="http://www.w3.org/2000/svg">
<g clip-path="url(#clip0_735_46877)">
<path d="M290.004 0H0.00390625V163H290.004V0Z" fill="#FFE600"/>
<mask id="mask0_735_46877" style="mask-type:alpha" maskUnits="userSpaceOnUse" x="0" y="0" width="291" height="163">
<path d="M290.004 0H0.00390625V163H290.004V0Z" fill="#FFE600"/>
</mask>
<g mask="url(#mask0_735_46877)">
<path d="M156.947 -26.2354C168.812 -21.0687 179.196 -14.033 188.092 -5.11847C196.985 3.79275 204.003 14.1912 209.142 26.067C214.278 37.9494 216.842 50.697 216.828 64.313C216.814 77.9324 214.223 90.6747 209.063 102.543C203.9 114.412 196.861 124.792 187.95 133.685C179.035 142.581 168.637 149.602 156.761 154.738C144.882 159.877 132.134 162.438 118.515 162.424C104.899 162.41 92.1532 159.823 80.288 154.659C68.4162 149.499 58.0388 142.457 49.1426 133.543C40.2464 124.631 33.2288 114.236 28.0931 102.357C22.9508 90.4779 20.3899 77.7303 20.4039 64.111C20.4179 50.4949 23.005 37.7526 28.1718 25.8808C33.3319 14.0156 40.3709 3.63163 49.2854 -5.26127C58.1999 -14.1575 68.5918 -21.1718 80.4742 -26.3141C92.35 -31.4498 105.101 -34.014 118.717 -33.9999C132.336 -33.9859 145.079 -31.3956 156.947 -26.2354Z" fill="#0025FF"/>
<path d="M293.767 44.8548L154.136 24.3737L133.655 164.005L273.286 184.487L293.767 44.8548Z" fill="#00D378"/>
<path d="M142.068 73.0273C132.415 25.5399 86.113 -5.15829 38.6068 4.45211C-8.89973 14.0626 -39.6289 60.3442 -30.0643 107.849L142.068 73.0273Z" fill="#B924FF"/>
<path d="M24.3564 142.804C28.0513 142.804 31.0467 139.809 31.0467 136.114C31.0467 132.419 28.0513 129.423 24.3564 129.423C20.6615 129.423 17.6661 132.419 17.6661 136.114C17.6661 139.809 20.6615 142.804 24.3564 142.804Z" fill="#FF00C1"/>
<path d="M256.982 84.0869C264.115 84.0869 269.897 78.3043 269.897 71.171C269.897 64.0377 264.115 58.255 256.982 58.255C249.848 58.255 244.066 64.0377 244.066 71.171C244.066 78.3043 249.848 84.0869 256.982 84.0869Z" fill="white"/>
<path d="M75.728 29.0271L45.9038 33.9795L50.8561 63.8037L80.6803 58.8513L75.728 29.0271Z" fill="#FFE600"/>
<path d="M182.995 105.515C185.404 106.564 187.513 107.993 189.32 109.803C191.126 111.613 192.551 113.725 193.594 116.137C194.637 118.55 195.158 121.138 195.155 123.904C195.152 126.669 194.626 129.257 193.579 131.667C192.53 134.078 191.1 136.186 189.291 137.992C187.48 139.798 185.369 141.224 182.957 142.267C180.545 143.311 177.956 143.831 175.19 143.828C172.425 143.825 169.836 143.3 167.427 142.251C165.016 141.203 162.908 139.773 161.102 137.963C159.295 136.153 157.87 134.042 156.827 131.63C155.783 129.217 155.263 126.628 155.266 123.863C155.268 121.097 155.794 118.51 156.843 116.099C157.891 113.689 159.32 111.58 161.131 109.774C162.941 107.968 165.052 106.543 167.465 105.499C169.876 104.456 172.466 103.935 175.231 103.938C177.997 103.941 180.585 104.467 182.995 105.515Z" fill="#FF00C1"/>
<path d="M125.138 169.438C125.101 169.438 125.065 169.438 125.028 169.438C111.4 169.423 98.4717 166.797 86.6016 161.631C74.7407 156.476 64.21 149.335 55.3023 140.409C46.4009 131.493 39.2837 120.948 34.1475 109.069C29.0039 97.1865 26.4033 84.252 26.4175 70.624C26.4312 56.9995 29.0586 44.0703 34.2266 32.1948C39.3897 20.3232 46.5288 9.79346 55.4458 0.898438C64.3604 -7.99805 74.9058 -15.1167 86.7891 -20.2598C98.6446 -25.3867 111.542 -27.9863 125.121 -27.9863C125.158 -27.9863 125.193 -27.9863 125.231 -27.9863C138.849 -27.9727 151.778 -25.3467 163.66 -20.1807C175.538 -15.0083 186.069 -7.86768 194.96 1.04199C203.855 9.95557 210.973 20.5 216.114 32.3818C221.256 44.2778 223.855 57.2124 223.841 70.8271C223.827 84.4453 221.201 97.375 216.035 109.256C210.871 121.125 203.732 131.655 194.816 140.553C185.895 149.456 175.349 156.574 163.473 161.71C151.621 166.838 138.723 169.438 125.138 169.438ZM125.121 -26.9863C111.678 -26.9863 98.9165 -24.4146 87.1861 -19.3418C75.4185 -14.249 64.9771 -7.20068 56.1519 1.60645C47.3247 10.4121 40.2564 20.8379 35.1436 32.5938C30.0303 44.3428 27.4312 57.1382 27.4175 70.625C27.4033 84.1147 29.9766 96.916 35.0655 108.672C40.1514 120.436 47.1978 130.876 56.0103 139.703C64.8286 148.54 75.2554 155.609 87.0005 160.714C98.7447 165.825 111.539 168.423 125.029 168.438C138.528 168.434 151.317 165.879 163.076 160.792C174.836 155.707 185.278 148.659 194.11 139.845C202.937 131.037 210.005 120.611 215.118 108.857C220.229 97.1025 222.827 84.3066 222.841 70.8262C222.855 57.3491 220.283 44.5483 215.196 32.7788C210.105 21.0127 203.059 10.5728 194.252 1.74805C185.45 -7.07227 175.023 -14.1416 163.261 -19.2637C151.506 -24.3745 138.71 -26.9727 125.23 -26.9863C125.194 -26.9863 125.157 -26.9863 125.121 -26.9863Z" fill="black"/>
<path d="M280.222 191.567L139.601 170.941L160.227 30.3198L300.848 50.9458L280.222 191.567ZM140.735 170.097L279.377 190.433L299.713 51.7905L161.071 31.4546L140.735 170.097Z" fill="black"/>
<path d="M-23.9424 114.952L-24.041 114.461C-33.643 66.7695 -2.66208 20.1216 45.021 10.4756C92.7036 0.82959 139.381 31.7666 149.071 79.4409L149.171 79.9312L-23.9424 114.952ZM62.5474 9.71387C56.8291 9.71387 51.0347 10.2793 45.2193 11.4561C-1.75974 20.9595 -32.3403 66.793 -23.1582 113.773L147.99 79.1499C139.403 38.0947 103.024 9.71387 62.5474 9.71387Z" fill="black"/>
</g>
</g>
<defs>
<clipPath id="clip0_735_46877">
<rect width="290" height="163" fill="white"/>
</clipPath>
</defs>
</svg>
