<svg width="290" height="163" viewBox="0 0 290 163" fill="none" xmlns="http://www.w3.org/2000/svg">
<path d="M290 0H0V163H290V0Z" fill="white"/>
<mask id="mask0_735_49554" style="mask-type:alpha" maskUnits="userSpaceOnUse" x="0" y="0" width="290" height="163">
<path d="M290 0H0V163H290V0Z" fill="white"/>
</mask>
<g mask="url(#mask0_735_49554)">
<path d="M88.4088 94.2129C87.2614 94.2129 86.1222 94.17 84.9894 94.085C71.6598 93.0752 59.6217 86.0508 51.9625 74.8125C48.7394 70.084 47.3068 65.7149 47.5831 61.4561C47.965 55.5752 51.6334 49.793 58.486 44.2686C65.2785 38.794 73.7531 33.7959 84.3947 28.9903C92.6618 25.2578 104.695 29.0703 113.026 32.2637C120.173 35.0039 130.021 40.6084 136.353 51.7452C137.203 53.2403 138.117 55.0528 138.458 57.1592C139.183 61.6436 137.155 66.1446 135.325 69.1309C132.452 73.8204 128.326 78.0772 122.71 82.1455C111.873 89.9942 99.8209 94.2129 88.4088 94.2129ZM59.1139 45.0479C52.4874 50.3887 48.944 55.9307 48.5812 61.5205C48.3195 65.5479 49.6959 69.712 52.7887 74.25C60.276 85.2354 72.0402 92.1016 85.0646 93.087C97.2257 94.0079 110.388 89.836 122.123 81.335C127.631 77.3457 131.67 73.1836 134.473 68.6094C136.214 65.7666 138.147 61.501 137.471 57.3194C137.155 55.3692 136.289 53.6563 135.484 52.2393C129.298 41.3604 119.663 35.8789 112.669 33.1973C104.504 30.0684 92.7326 26.3213 84.8058 29.9024C74.2433 34.6719 65.839 39.626 59.1139 45.0479Z" fill="black"/>
<path d="M82.9342 86.376C79.4572 86.376 75.9933 86.2696 72.569 86.1143C72.3644 86.1055 72.1862 85.9727 72.1193 85.7793C68.3698 74.9766 65.0304 63.878 62.1935 52.793C62.1251 52.5254 62.2863 52.253 62.5538 52.1846C62.8214 52.1172 63.0944 52.2784 63.1622 52.545C65.9645 63.4942 69.2575 74.4551 72.9528 85.1309C88.4518 85.8164 104.755 85.4737 119.144 78.6329C120.956 77.7705 122.881 76.6377 123.416 74.7705C123.727 73.6827 123.506 72.4502 123.312 71.3633L120.766 57.1426C119.486 49.9971 118.165 42.6123 115.853 35.6075C108.201 38.4561 99.9425 39.6914 91.9503 40.8877C81.9655 42.3809 71.6412 43.9258 62.6505 48.6475C62.4044 48.7764 62.1041 48.6817 61.9752 48.4375C61.8468 48.1934 61.941 47.8907 62.1857 47.7627C71.3258 42.962 81.7355 41.4043 91.8024 39.8985C99.9122 38.6846 108.298 37.4307 115.984 34.4893C116.111 34.4405 116.253 34.4454 116.376 34.5039C116.499 34.5616 116.593 34.667 116.636 34.7959C119.074 42.0176 120.435 49.6172 121.75 56.9668L124.297 71.1875C124.51 72.3819 124.753 73.7344 124.377 75.0459C123.73 77.3086 121.47 78.6338 119.573 79.5352C108.079 85 95.4284 86.376 82.9342 86.376Z" fill="black"/>
<path d="M76.5265 62.6192C75.6486 62.6192 74.7404 62.3116 74.0289 61.7432C73.2028 61.083 72.7711 60.1641 72.8449 59.2217C72.903 58.4912 73.2477 57.7911 73.7907 57.3008C73.9952 57.1172 74.3117 57.1319 74.4967 57.337C74.6818 57.542 74.6657 57.8575 74.4606 58.043C74.1056 58.3643 73.88 58.8223 73.8419 59.3008C73.7765 60.1299 74.3224 60.6973 74.6535 60.962C75.3849 61.5489 76.4298 61.7696 77.254 61.5137C78.712 61.0606 79.8746 59.5879 80.3639 57.5752C80.5704 56.7237 80.4635 55.7637 80.1036 55.2412C79.9323 54.9922 79.7155 54.8545 79.4415 54.8194C78.8615 54.752 78.3639 55.2012 77.7814 55.7266C77.1993 56.252 76.5402 56.8477 75.6754 56.9444C75.3991 56.9766 75.1539 56.7784 75.1227 56.503C75.0919 56.2286 75.2897 55.9815 75.5641 55.9502C76.109 55.8897 76.5958 55.4502 77.111 54.9844C77.7799 54.3809 78.5338 53.6983 79.5675 53.8272C80.1242 53.8985 80.5944 54.1905 80.9274 54.6739C81.5656 55.6006 81.546 56.9434 81.3356 57.8116C80.7628 60.169 79.3478 61.9102 77.5504 62.4688C77.2238 62.5704 76.8776 62.6192 76.5265 62.6192Z" fill="black"/>
<path d="M101.161 58.7998C100.881 58.7998 100.603 58.7745 100.328 58.7217C100.065 58.6709 99.6832 58.5694 99.4074 58.2745C99.1246 57.9727 99.0499 57.5918 99.0118 57.2256C98.6852 54.1153 99.9347 50.9258 102.203 48.7998C101.422 48.9073 100.646 49.0498 99.8785 49.2295C99.608 49.292 99.3405 49.125 99.278 48.8555C99.215 48.587 99.3825 48.3184 99.651 48.2549C100.994 47.9424 102.363 47.7344 103.739 47.6348C103.841 47.5928 103.951 47.5879 104.054 47.6133C104.593 47.5811 105.147 47.543 105.673 47.5655C106.149 47.5655 106.651 47.5889 107.097 47.8731C107.852 48.3506 108.103 49.3116 107.843 50.7286C107.512 52.5411 107.007 54.6162 105.777 56.2715C104.593 57.8653 102.851 58.7998 101.161 58.7998ZM104.046 48.6162C101.279 50.4317 99.6603 53.8262 100.006 57.1221C100.026 57.3047 100.056 57.5039 100.137 57.5909C100.223 57.6827 100.444 57.7256 100.517 57.7393C102.279 58.0821 104.03 56.9473 104.975 55.6758C106.083 54.1846 106.549 52.2471 106.86 50.5489C106.983 49.877 107.031 49.0147 106.561 48.7178C106.335 48.5733 105.988 48.5733 105.648 48.5655C105.114 48.5655 104.58 48.5821 104.046 48.6162Z" fill="black"/>
<path d="M96.2199 83.5284C95.6076 83.5284 95.0187 83.2862 94.4664 83.0157C90.8243 81.2207 87.653 78.5264 85.2951 75.2217C85.1349 74.9971 85.1871 74.6856 85.4118 74.5245C85.6368 74.3643 85.9493 74.417 86.1095 74.6416C88.3717 77.8116 91.4142 80.3965 94.9083 82.1182C95.3878 82.3536 95.9401 82.5987 96.4342 82.5098C97.2042 82.3711 97.6886 81.4961 98.0978 80.5704L104.104 66.9854C104.216 66.7334 104.51 66.6192 104.763 66.7305C105.016 66.8418 105.13 67.1368 105.019 67.3897L99.0128 80.9746C98.6871 81.711 98.0099 83.2432 96.611 83.4942C96.4796 83.5176 96.3493 83.5284 96.2199 83.5284Z" fill="black"/>
<path d="M73.8009 133.5C73.235 133.5 72.6705 133.458 72.1085 133.363C69.9108 132.991 68.2423 131.981 67.1495 130.361C65.0656 127.273 65.5089 122.61 66.2482 119.244C68.0211 111.172 72.5734 103.902 79.066 98.7764C86.9606 92.543 97.6779 89.7012 107.733 91.1612C115.833 92.3409 123.125 96.0225 130.501 100.016C138.1 104.129 145.822 108.777 149.449 116.344C149.569 116.593 149.464 116.891 149.215 117.011C149.036 117.097 148.832 117.065 148.686 116.95C146.995 116.614 131.117 120.324 125.862 121.548C124.308 121.91 123.175 122.174 122.722 122.27C113.819 124.151 104.816 126.18 95.9616 128.298C91.6212 129.336 87.233 130.416 82.9186 131.507C82.1661 131.697 81.3898 131.928 80.5988 132.161C78.3659 132.822 76.0714 133.5 73.8009 133.5ZM102.464 91.7832C94.2697 91.7832 86.0387 94.545 79.6862 99.5616C73.3737 104.545 68.9484 111.611 67.2247 119.459C66.5275 122.634 66.0924 127.006 67.9786 129.802C68.9122 131.187 70.358 132.053 72.2755 132.377C74.859 132.815 77.6344 131.994 80.3151 131.202C81.1193 130.965 81.9083 130.731 82.6735 130.538C86.9918 129.445 91.3844 128.364 95.7291 127.325C104.592 125.205 113.604 123.175 122.515 121.291C122.965 121.195 124.091 120.934 125.636 120.574C140.688 117.071 146.105 116.065 148.135 115.963C144.48 109.138 137.198 104.778 130.025 100.895C122.731 96.9463 115.527 93.3067 107.589 92.1514C105.894 91.9043 104.179 91.7832 102.464 91.7832Z" fill="black"/>
<path d="M78.2399 89.0879C78.2111 89.0879 78.1823 89.086 78.153 89.0801C76.486 88.7881 74.8165 88.4454 73.1578 88.0537C73.1881 88.1475 73.2184 88.2412 73.2487 88.335C73.3097 88.5245 73.2521 88.7334 73.1022 88.8643C72.9518 88.9971 72.7369 89.0274 72.5577 88.9395C71.3722 88.376 70.2467 87.7325 69.1759 87.0186C68.965 86.958 68.7535 86.8975 68.5431 86.835C66.7057 86.2969 64.5939 85.6192 62.7785 84.3936C61.0538 83.2295 59.6867 81.626 58.5768 80.211C55.1803 75.878 52.4777 71.0987 50.5231 65.9756C50.4371 65.9912 50.3453 65.9864 50.2575 65.9541C50.0118 65.8653 49.8766 65.6016 49.9469 65.3496C49.9962 65.1729 50.0465 64.9971 50.0973 64.8204C49.9518 64.4112 49.8107 64 49.674 63.586C49.588 63.3252 49.7286 63.044 49.9889 62.9561C50.2243 62.8789 50.4796 62.9834 50.5919 63.1973C51.2775 61.0518 52.0812 58.9483 52.9982 56.8955L48.195 63.7686C48.047 63.9825 47.7604 64.0479 47.5348 63.9151C47.3102 63.7852 47.2223 63.5049 47.3326 63.2696C47.9083 62.044 48.5392 60.8477 49.2233 59.6836C49.1432 59.6729 49.0641 59.6416 48.9948 59.5899C48.7853 59.4346 48.7306 59.1455 48.8683 58.9239C50.4791 56.3399 52.3776 53.9239 54.5104 51.7442C54.7042 51.5459 55.0206 51.544 55.2174 51.7364C55.2526 51.7705 55.2814 51.8086 55.3038 51.8496L56.8258 49.6719C56.9806 49.4502 57.2843 49.3916 57.5104 49.5401C57.6002 49.5996 57.6647 49.6827 57.7013 49.7764C57.8576 49.627 58.0988 49.5918 58.2955 49.7041C58.5309 49.8389 58.6154 50.1377 58.486 50.376C57.485 52.2227 56.504 54.0909 55.547 55.9746C54.7462 57.7637 54.0504 59.5967 53.462 61.4698C54.0993 60.4454 54.7033 59.4014 55.2726 58.3389C56.1876 55.6485 57.3419 53.0401 58.714 50.5801C58.8405 50.3536 59.1183 50.2608 59.3571 50.3682C59.5939 50.4756 59.7086 50.7461 59.6217 50.9912C59.5343 51.2354 59.4459 51.4786 59.3556 51.7217C59.4684 51.5118 59.7194 51.4073 59.9508 51.4825C60.2116 51.5674 60.3551 51.8457 60.2731 52.1075C60.1305 52.5635 59.985 53.0196 59.837 53.4737C58.6598 57.3868 58.027 61.5166 57.9743 65.6123C58.2618 64.6885 58.5153 63.75 58.7345 62.8037C58.9454 60.127 59.2438 57.4561 59.6281 54.8077C59.63 54.7246 59.6315 54.6426 59.6329 54.5606C59.6349 54.4727 59.6588 54.3916 59.6998 54.3204C59.716 54.212 59.7326 54.1026 59.7492 53.9942C59.7882 53.7354 60.025 53.5498 60.2809 53.5704C60.5421 53.5909 60.7433 53.8077 60.7433 54.0694C60.7428 54.7315 60.7262 55.3916 60.6935 56.0498C60.7501 57.8955 60.7394 59.7442 60.6618 61.5889C61.818 63.8975 62.9176 66.2442 63.9567 68.6192C62.9039 64.8741 61.9147 61.1123 60.9952 57.3555C60.9332 57.1006 61.0783 56.8409 61.3283 56.7608C61.5778 56.6797 61.8473 56.8077 61.945 57.0498C65.8746 66.8409 69.5221 76.8897 72.796 86.9395C74.6305 87.3848 76.4791 87.7715 78.3258 88.0957C78.5978 88.1436 78.7794 88.4024 78.7321 88.6739C78.6891 88.917 78.4782 89.0879 78.2399 89.0879ZM69.6051 86.1006C70.2838 86.293 70.966 86.4766 71.651 86.6534C69.2911 79.4424 66.7399 72.2364 64.0309 65.127C65.5245 70.6475 67.1603 76.1446 68.9181 81.5479C69.0031 81.8096 68.8605 82.0909 68.5988 82.1768C68.3351 82.2657 68.0548 82.1202 67.9679 81.8594C66.1964 76.5176 64.1071 71.2422 61.7355 66.1211C62.5123 69.4668 63.1456 72.8526 63.6266 76.2373C63.6613 76.4815 63.5128 76.7139 63.2775 76.7862C63.0407 76.8575 62.7882 76.7471 62.6818 76.5254C61.3527 73.7852 60.5763 70.8692 60.1325 67.9082C59.9235 69.5674 59.6603 71.2207 59.3424 72.8633C59.2936 73.1162 59.0631 73.2842 58.8043 73.2666C58.7628 73.2627 58.7233 73.2539 58.6852 73.2403C59.1373 73.669 59.5841 74.0996 60.0187 74.5362C63.0289 77.5577 65.5812 81.0235 68.026 84.4297C68.2926 84.7305 68.5319 85.0567 68.7316 85.4209C68.7482 85.4512 68.7614 85.4825 68.7711 85.5147C69.0455 85.7149 69.3234 85.9102 69.6051 86.1006ZM52.776 68.7696C54.5314 72.6172 56.736 76.2412 59.3639 79.5938C60.4254 80.9473 61.7282 82.4786 63.338 83.5655C64.3991 84.2813 65.589 84.8028 66.7633 85.2198C65.5914 84.251 64.4869 83.1905 63.4401 82.0547C60.0289 79.2149 57.5104 75.462 55.4855 71.6006C54.5407 70.6934 53.6168 69.7608 52.776 68.7696ZM64.1437 81.3389C64.4401 81.584 64.7448 81.8233 65.0553 82.0528C63.4039 79.8418 61.6666 77.6709 59.7506 75.6895C61.1124 77.7207 62.5636 79.6211 64.1437 81.3389ZM57.5402 72.1651C57.5714 72.1944 57.6032 72.2237 57.6349 72.253C57.8873 72.4893 58.1393 72.7256 58.3903 72.962C58.3654 72.9024 58.3517 72.8379 58.3517 72.7696C58.3478 70.9571 58.3839 69.1397 58.4606 67.3223C58.3121 67.7412 58.1559 68.1592 57.9928 68.5743C57.9064 68.793 57.6764 68.9258 57.4469 68.8848C57.215 68.8477 57.0402 68.6524 57.028 68.417C56.8932 65.7979 56.9967 63.1416 57.3292 60.5127C56.4909 62.6748 55.5968 64.8155 54.651 66.9248C55.5861 68.7188 56.5426 70.4727 57.5402 72.1651ZM61.2472 68.5332C61.3673 69.2364 61.5079 69.9346 61.672 70.627C61.5368 69.9278 61.3951 69.2305 61.2472 68.5332ZM53.8659 68.4981C53.9313 68.5733 53.9982 68.6475 54.0646 68.7217C54.0206 68.627 53.9767 68.5332 53.9332 68.4385C53.9122 68.461 53.8898 68.4805 53.8659 68.4981ZM51.2828 64.8135C51.7877 65.8057 52.4166 66.7334 53.1227 67.6162C53.1544 67.3672 53.1881 67.1172 53.2238 66.8692C52.9215 66.1856 52.63 65.5098 52.3468 64.8457C52.2145 64.9121 52.0558 64.918 51.9152 64.8545C51.6959 64.7549 51.5792 64.5137 51.6368 64.2793C51.6798 64.1055 51.7238 63.9317 51.7682 63.7588C51.6056 64.1104 51.4435 64.461 51.2828 64.8135ZM53.0939 63.8721C53.2506 64.1846 53.4083 64.4981 53.566 64.8096C53.7238 63.9776 53.9044 63.1485 54.1071 62.3233C53.778 62.8448 53.4401 63.3614 53.0939 63.8721ZM56.1925 58.7393C55.566 60.5918 55.0548 62.4864 54.6661 64.3975C56.2374 60.7227 57.6495 56.9649 58.8829 53.1748C59.0099 52.753 59.1432 52.333 59.2824 51.917C58.4015 54.2579 57.3698 56.5362 56.1925 58.7393Z" fill="black"/>
<path d="M55.5236 51.4668C55.4415 51.4668 55.3595 51.4463 55.2843 51.4063C55.1027 51.3067 55.0006 51.1065 55.028 50.9014C55.6681 46.0635 60.1349 42.9307 64.8668 40.2657C69.34 37.7461 73.965 35.1407 78.9542 33.503C88.151 30.4834 97.8839 30.9766 105.336 31.7422C105.584 31.7676 105.776 31.9727 105.784 32.2217C105.791 32.4151 105.687 32.5889 105.526 32.6778C107.512 32.9385 109.519 33.2862 111.536 33.7217C111.56 33.7266 111.583 33.7334 111.606 33.7412C111.957 33.7432 112.309 33.7461 112.66 33.751C112.937 33.7549 113.157 33.9815 113.154 34.2579C113.151 34.5313 112.927 34.751 112.654 34.751H112.648C111.475 34.7354 110.302 34.7373 109.132 34.752C109.107 34.9454 108.969 35.1133 108.771 35.168L60.798 48.5489C60.5328 48.6231 60.256 48.4678 60.1823 48.2022C60.1705 48.1592 60.1642 48.1172 60.1637 48.0752C58.6754 49.0811 57.234 50.169 55.8473 51.3477C55.755 51.4268 55.6398 51.4668 55.5236 51.4668ZM92.6168 32.21C88.2492 32.378 83.6876 33.001 79.2658 34.4522C74.3702 36.0596 69.7887 38.6407 65.358 41.1368C61.3395 43.4004 57.5245 45.9952 56.3326 49.6524C57.2614 48.9121 58.216 48.2071 59.1915 47.5381C59.1954 47.4414 59.2282 47.3448 59.2897 47.2618C61.0607 44.876 63.3239 43.0371 65.7623 41.585C73.0358 36.0498 82.3375 32.8633 92.6168 32.21ZM71.7765 42.0196C68.0914 43.4942 64.528 45.2539 61.1827 47.4034L65.2579 46.2666C65.2267 46.2315 65.1998 46.1914 65.1788 46.1475C65.069 45.9151 65.1535 45.6377 65.3732 45.5049C67.4533 44.2549 69.591 43.0918 71.7765 42.0196ZM95.9923 37.6944C87.2516 39.6504 78.5983 42.0635 70.1193 44.9112L95.9923 37.6944ZM65.8287 42.7159C64.9015 43.293 64.0055 43.9297 63.1608 44.6348C64.756 43.6573 66.3932 42.7588 68.0631 41.9327C67.3497 42.1797 66.6368 42.4327 65.9264 42.6914C65.8942 42.7032 65.8615 42.711 65.8287 42.7159ZM84.9992 37.8653C80.1041 39.3643 75.338 41.2969 70.796 43.6309C81.8673 39.9639 93.2311 37.0313 104.69 34.8868C101.344 35.044 98.0133 35.3291 94.7018 35.7403C91.4992 36.3741 88.2467 37.0606 84.9992 37.8653ZM78.632 37.6797C77.7506 37.9161 76.8722 38.1651 75.9952 38.4268C75.9279 38.4463 75.86 38.4668 75.7921 38.4873C76.4777 38.2979 77.1647 38.1143 77.8527 37.9366C78.1119 37.8496 78.3722 37.7637 78.632 37.6797ZM96.6115 33.084C87.7814 33.084 79.567 34.9161 72.6095 38.4688C73.671 38.0957 74.712 37.7657 75.7091 37.4678C81.463 35.751 87.3146 34.5733 93.2243 33.9405C94.6891 33.6426 96.15 33.3604 97.6012 33.0918C97.2701 33.087 96.9406 33.084 96.6115 33.084ZM102.04 33.3096C101.844 33.3438 101.648 33.3789 101.452 33.4131C101.956 33.4024 102.46 33.3955 102.964 33.3926C102.656 33.3623 102.347 33.335 102.04 33.3096Z" fill="black"/>
<path d="M84.6647 91.1875C83.4894 91.1875 82.3517 91.0811 81.2716 90.835C81.0739 90.7901 80.9235 90.6309 80.8893 90.4307C80.8556 90.2315 80.9454 90.0313 81.1168 89.9239C84.569 87.7618 88.6979 87.7383 92.6915 87.7149C94.5011 87.7051 96.3419 87.6944 98.13 87.4834C99.0285 87.2286 99.8942 86.9893 100.714 86.7803C101.414 86.6016 102.124 86.4248 102.841 86.2471C102.906 86.2168 102.97 86.1875 103.034 86.1563C107.752 83.8799 111.464 79.7588 114.572 76.0752C114.997 75.5723 115.565 74.8116 116.223 73.9307C119.599 69.4112 122.56 65.7217 124.672 66.4239C124.71 66.4366 124.748 66.4502 124.785 66.4649C123.526 57.5459 121.545 49.0186 118.875 41.0284C117.755 40.0821 116.724 39.0352 115.877 37.8106C115.733 37.6026 115.767 37.3204 115.957 37.1524C116.146 36.9834 116.431 36.9854 116.621 37.1524C117.119 37.5967 117.601 38.0567 118.066 38.5323C118.087 38.3487 118.209 38.1827 118.395 38.1172C118.657 38.0215 118.942 38.1602 119.034 38.4209C119.262 39.0635 119.486 39.709 119.705 40.3594C119.758 40.4239 119.812 40.4893 119.864 40.5547C121.04 41.5088 122.329 42.375 123.654 43.2666C123.769 43.3428 123.883 43.42 123.998 43.4971L122.552 41.0313C122.427 40.8184 122.476 40.5459 122.668 40.3907C122.859 40.2344 123.136 40.2412 123.318 40.4073C126.984 43.7237 130.558 47.334 132.887 51.5704C133.008 51.6114 133.113 51.6983 133.174 51.8194C133.422 52.3096 133.616 52.8145 133.764 53.333C134.345 54.6368 134.804 55.9981 135.111 57.4268C135.535 59.3975 135.52 61.5948 134.884 63.461L135.875 62.3516C136.046 62.1602 136.331 62.1289 136.539 62.2774C136.746 62.4258 136.809 62.7061 136.685 62.9287L129.255 76.2041C129.121 76.4434 128.821 76.5293 128.58 76.3995C128.34 76.2696 128.249 75.9698 128.376 75.7276L132.461 67.9346C131.538 69.1827 130.529 70.3682 129.443 71.4756C129.409 71.5108 129.37 71.5411 129.328 71.5635C128.482 72.4512 127.594 73.2998 126.669 74.1094C126.554 74.21 126.402 74.2481 126.261 74.2266C124.646 77.2383 122.778 80.1006 119.701 81.7305C114.834 84.3077 109.134 85.7188 103.622 87.084C103.472 87.1211 103.322 87.1582 103.172 87.1954C101.622 87.8955 99.986 88.2686 98.317 88.4698C98.0368 88.5489 97.7535 88.6299 97.4674 88.711C93.3341 89.8887 88.7716 91.1875 84.6647 91.1875ZM82.9039 90.0948C86.2174 90.461 90.0436 89.6866 93.7452 88.708C93.3951 88.711 93.0455 88.7129 92.6969 88.7149C89.1798 88.7354 85.8331 88.7549 82.9039 90.0948ZM124.106 67.334C122.399 67.334 118.931 71.9766 117.024 74.5293C116.357 75.4229 115.78 76.1944 115.337 76.7198C112.823 79.6983 109.92 82.959 106.391 85.3594C110.872 84.2139 115.346 82.9053 119.233 80.8467C122.302 79.2217 124.127 76.1621 125.766 73.0215C125.343 73.4483 124.91 73.8653 124.467 74.2696L124.465 74.2715C124.261 74.4571 123.946 74.4424 123.759 74.2403C123.573 74.0362 123.587 73.7198 123.79 73.5332C124.351 73.0196 124.951 72.4112 125.567 71.7266C125.479 71.6475 125.419 71.5362 125.404 71.4102C125.289 70.3584 125.164 69.3096 125.029 68.2686C124.8 67.6182 124.522 67.4268 124.358 67.3731C124.279 67.3467 124.195 67.334 124.106 67.334ZM126.003 68.0059C126.231 68.6993 126.359 69.6153 126.393 70.7715C126.545 70.5889 126.697 70.4024 126.849 70.2129L126.909 66.503C126.71 65.6934 126.521 64.8799 126.343 64.0645C126.258 64.6358 126.156 65.2051 126.037 65.7725C126.002 65.9356 125.891 66.0645 125.747 66.128C125.836 66.752 125.922 67.378 126.003 68.0059ZM131.157 66.9776C130.993 67.2627 130.833 67.5459 130.683 67.8291C130.91 67.6065 131.141 67.3868 131.374 67.169C131.284 67.128 131.209 67.0616 131.157 66.9776ZM128.78 67.0371C128.778 67.1709 128.777 67.3047 128.774 67.4375C128.815 67.3623 128.856 67.2862 128.897 67.21C128.847 67.1621 128.807 67.1036 128.78 67.0371ZM131.804 65.8702C131.818 65.9102 131.832 65.9493 131.845 65.9893C133.915 64.626 134.576 61.7373 134.349 59.0811C134.183 59.5948 134.004 60.1065 133.81 60.6153C133.751 61.0245 133.672 61.4297 133.572 61.8291C133.613 61.8819 133.653 61.9356 133.694 61.9883C133.815 62.1436 133.833 62.3555 133.741 62.5293C133.653 62.6963 133.491 62.8145 133.29 62.795C133.177 63.127 133.05 63.4551 132.907 63.7764C132.589 64.4961 132.199 65.1934 131.804 65.8702ZM129.573 61.8125C129.599 62.1719 129.623 62.5313 129.643 62.8916L129.629 61.8399C129.61 61.8311 129.591 61.8213 129.573 61.8125ZM120.669 43.3321C122.371 48.8037 123.759 54.5118 124.825 60.4102L124.444 51.4248C123.6 48.5596 122.328 45.8194 120.669 43.3321ZM130.867 59.167C130.872 59.2911 130.88 59.4151 130.892 59.5391C130.907 59.4668 130.922 59.3946 130.936 59.3213C130.913 59.2705 130.89 59.2188 130.867 59.167ZM132.92 57.7325C132.841 58.3125 132.748 58.8858 132.64 59.4522C132.762 58.9854 132.862 58.5215 132.939 58.0616C132.934 57.9522 132.927 57.8418 132.92 57.7325ZM129.034 56.9893C129.123 57.5811 129.204 58.1739 129.276 58.7686C129.291 58.7334 129.306 58.6983 129.322 58.6641C129.232 58.0977 129.138 57.5391 129.034 56.9893ZM133.947 58.4102C133.986 58.4161 134.025 58.4258 134.063 58.4414C134.166 58.4815 134.248 58.5518 134.303 58.6397C134.26 58.2979 134.204 57.9629 134.134 57.6377C134.111 57.5332 134.089 57.4297 134.064 57.3262C134.034 57.628 133.993 57.9317 133.943 58.2364C133.944 58.294 133.945 58.3526 133.947 58.4102ZM130.682 55.1065C130.785 55.7139 130.926 56.3164 131.102 56.9092C131.068 56.4795 130.994 56.0518 130.868 55.6338C130.815 55.4561 130.752 55.2803 130.682 55.1065ZM127.299 47.1504L130.526 52.6524C131.02 53.4952 131.53 54.3662 131.825 55.3448C131.937 55.7159 132.014 56.0909 132.062 56.4659C132.135 55.7344 132.186 54.9903 132.213 54.2354C131.475 52.0303 130.197 49.9297 128.442 48.1914C128.077 47.8301 127.694 47.4844 127.299 47.1504ZM127.427 51.9981C127.752 53.376 127.909 54.7891 127.979 56.1885C128.053 56.0245 128.213 55.9063 128.403 55.8946C128.591 55.8731 128.763 55.9766 128.859 56.128C128.535 54.6446 128.104 53.2471 127.427 51.9981ZM125.964 48.7764C126.087 48.7764 126.209 48.8213 126.305 48.9112C128.004 50.4981 128.934 52.5166 129.532 54.6934L129.521 53.8672C129.518 53.6651 129.636 53.4883 129.809 53.4073C129.76 53.3243 129.712 53.2412 129.663 53.1582L125.19 45.5303C124.498 45.0381 123.793 44.5645 123.097 44.0967C122.658 43.8008 122.217 43.5049 121.777 43.2032C122.755 44.7237 123.594 46.3301 124.288 47.9981C124.271 47.5743 124.257 47.1504 124.246 46.7256C124.239 46.4512 124.454 46.2227 124.729 46.2129C125.004 46.211 125.234 46.417 125.245 46.6914L125.372 49.6758C125.406 50.2715 125.447 50.8672 125.494 51.4629C125.705 52.21 125.889 52.9649 126.044 53.7256C126.04 52.7901 126.052 51.8526 126.082 50.917C125.92 50.4317 125.731 49.9551 125.511 49.4903C125.409 49.2735 125.475 49.0137 125.669 48.8721C125.757 48.8077 125.86 48.7764 125.964 48.7764ZM125.945 44.8409C126.601 45.3106 127.246 45.7998 127.865 46.3194C127.004 45.3496 126.094 44.4121 125.158 43.4991L125.945 44.8409Z" fill="black"/>
<path d="M299.255 48.1264C299.238 48.1264 299.22 48.1254 299.203 48.1234C279.645 46.0775 260.21 42.0561 241.44 36.1703C241.436 36.1693 241.433 36.1684 241.429 36.1674C241.166 36.0844 241.019 35.8041 241.102 35.5404C241.179 35.2943 241.427 35.1459 241.676 35.1996C242.718 34.9057 246.87 28.4301 253.849 14.5473C256.82 8.63906 259.695 2.14785 262.92 -5.9293L263.218 -6.68125C265.262 -11.8404 267.194 -16.7184 274.035 -15.4166C278.624 -14.5465 283.111 -12.1158 287.45 -9.76426C289.379 -8.71934 291.201 -7.73203 293.009 -6.88926C300.195 -3.5377 307.567 -0.326761 314.92 2.65273C315.119 2.73379 315.244 2.93203 315.232 3.1459C315.077 5.80898 313.422 7.97207 311.82 10.0639L311.453 10.5453C303.522 20.9916 299.258 34.5004 299.754 47.6078C299.76 47.7523 299.702 47.892 299.597 47.9916C299.504 48.0785 299.381 48.1264 299.255 48.1264ZM242.802 35.5473C260.997 41.1762 279.806 45.0512 298.736 47.0687C298.363 33.7348 302.585 20.5707 310.656 9.93984L311.026 9.45547C312.46 7.5834 313.94 5.6498 314.202 3.44082C306.947 0.493551 299.677 -2.67637 292.586 -5.98301C290.751 -6.83848 288.916 -7.83262 286.974 -8.88535C282.702 -11.1998 278.285 -13.5924 273.848 -14.4342C267.819 -15.5758 266.198 -11.4898 264.148 -6.31309L263.848 -5.55821C260.613 2.54531 257.727 9.06191 254.766 14.9506C247.55 29.3031 244.337 34.0414 242.802 35.5473Z" fill="black"/>
<path d="M266.721 92.2104C265.61 92.2104 264.496 92.1381 263.387 91.9936C261.761 91.7807 259.454 91.2904 258.186 89.4984C257.596 88.6654 257.269 87.5795 257.213 86.2709C256.975 80.601 261.444 76.1146 265.651 72.3539C265.856 72.1713 266.173 72.1879 266.357 72.3939C266.541 72.6 266.523 72.9154 266.317 73.1C262.281 76.7074 257.993 80.9955 258.212 86.2289C258.259 87.3412 258.525 88.2475 259.002 88.9203C259.795 90.0414 261.23 90.7025 263.517 91.0014C269.178 91.7445 274.975 90.4945 279.831 87.4896C281.986 86.1557 283.335 84.8129 284.075 83.2621C284.792 81.7611 284.921 80.0385 284.953 78.5502C285.037 74.6859 284.488 70.8578 283.322 67.1742C283.092 66.4477 282.825 65.6957 282.317 65.1654C281.879 64.7094 281.222 64.3822 280.362 64.1928C276.65 63.3754 272.881 65.5893 269.639 67.726C263.093 72.0443 256.567 76.5805 250.241 81.2104C250.017 81.3734 249.705 81.3246 249.543 81.102C249.379 80.8793 249.428 80.5668 249.65 80.4037C255.989 75.7641 262.529 71.2182 269.088 66.892C272.501 64.641 276.483 62.3178 280.577 63.2162C281.633 63.4486 282.462 63.8715 283.039 64.474C283.696 65.1586 284.022 66.0707 284.275 66.8725C285.475 70.6615 286.039 74.598 285.953 78.5717C285.919 80.1664 285.776 82.0209 284.977 83.6937C284.15 85.4242 282.683 86.9008 280.358 88.3393C276.256 90.8773 271.513 92.2094 266.721 92.2104Z" fill="black"/>
<path d="M14.5406 25.5668C4.06161 25.5668 -8.32119 21.2426 -12.8559 8.98965C-13.9091 6.14394 -15.6181 -2.06993 -14.1464 -5.06504C-12.5258 -8.36192 -4.00527 -9.93125 2.21592 -11.0768C4.08066 -11.4205 5.6915 -11.7174 6.73838 -11.9957C9.32432 -12.6822 12.2555 -13.4645 15.1197 -12.7652C17.13 -12.276 18.8761 -11.1002 20.4918 -9.93711C26.1275 -5.87657 31.38 -1.24278 36.1041 3.83535C36.9483 4.74355 37.7306 5.65468 38.024 6.82558C38.506 8.74746 37.4806 10.642 36.4811 12.267C33.7643 16.6879 30.9742 20.8471 26.7281 23.1605C23.1905 25.0863 19.1334 25.4496 15.6314 25.5512C15.2716 25.5609 14.9059 25.5668 14.5406 25.5668ZM12.7428 -12.0367C10.7848 -12.0367 8.80186 -11.5094 6.99521 -11.0289C5.91074 -10.7408 4.28232 -10.441 2.39707 -10.0934C-3.27627 -9.04844 -11.85 -7.46934 -13.2489 -4.62364C-14.4486 -2.18321 -13.1024 5.44179 -11.9184 8.64199C-7.40859 20.8275 5.24863 24.8568 15.6026 24.5512C18.9869 24.4535 22.8976 24.1068 26.2496 22.2816C30.2794 20.0863 32.9859 16.0443 35.6295 11.7436C36.5626 10.225 37.4415 8.61367 37.0543 7.06875C36.8185 6.12832 36.1241 5.32461 35.3717 4.51699C30.6925 -0.513285 25.4898 -5.10313 19.9073 -9.12559C18.3717 -10.2301 16.7188 -11.3473 14.8834 -11.7945C14.1798 -11.9654 13.463 -12.0367 12.7428 -12.0367Z" fill="black"/>
<path d="M-2.71328 187.969C-2.93839 187.969 -3.14102 187.817 -3.19766 187.591C-3.70693 185.567 -4.25625 183.475 -4.81777 181.337C-7.83682 169.842 -11.2582 156.813 -10.6854 145.393C-10.1688 135.105 0.201757 134.918 8.53477 134.768C10.8692 134.726 13.0743 134.686 14.9449 134.447C17.2047 134.158 36.2594 130.093 37.7452 129.496C37.7823 129.463 37.8253 129.435 37.8731 129.413C38.1256 129.301 38.4215 129.415 38.5333 129.666L38.5338 129.667C44.6847 143.478 51.7247 157.067 59.4581 170.056C59.5333 170.182 59.5489 170.335 59.5011 170.474C59.4537 170.614 59.3468 170.724 59.2101 170.778C39.2687 178.549 18.463 184.331 -2.62783 187.962C-2.65664 187.967 -2.68496 187.969 -2.71328 187.969ZM37.7945 130.465C33.8634 131.791 15.2711 135.413 15.0719 135.439C13.1471 135.685 10.9156 135.725 8.55283 135.768C0.223242 135.918 -9.21719 136.088 -9.68643 145.444C-10.2519 156.709 -6.85098 169.658 -3.85049 181.082C-3.32949 183.067 -2.81924 185.01 -2.34121 186.898C18.3331 183.307 38.7301 177.644 58.297 170.06C50.735 157.313 43.8399 143.997 37.7945 130.465Z" fill="black"/>
<path d="M124.277 198.832C119.864 198.832 117.487 196.662 116.21 194.444C110.025 183.694 119.942 156.109 128.57 148.975C138.2 141.016 152.904 144.642 160.593 153.025C166.076 159.002 168.744 168.633 159.79 177.738C156.753 180.826 153.1 183.26 149.566 185.615C148.117 186.58 146.619 187.579 145.188 188.606C144.229 189.295 143.28 190.01 142.331 190.725C138.984 193.248 135.524 195.857 131.518 197.334C128.64 198.396 126.254 198.832 124.277 198.832ZM141.376 145.534C137.035 145.534 132.757 146.811 129.207 149.746C121.008 156.525 111.218 183.762 117.077 193.945C119.487 198.132 124.23 198.957 131.172 196.397C135.04 194.97 138.441 192.407 141.73 189.927C142.685 189.206 143.639 188.488 144.605 187.793C146.05 186.756 147.556 185.752 149.012 184.782C152.503 182.456 156.112 180.051 159.077 177.037C166.264 169.728 166.556 161.005 159.857 153.702C155.327 148.763 148.273 145.534 141.376 145.534Z" fill="black"/>
<path d="M169.102 27.6C169.014 27.6 168.925 27.5766 168.847 27.5297C159.898 22.2103 150.187 18.4643 139.983 16.3959H139.982C139.711 16.3412 139.536 16.0766 139.59 15.8061C139.632 15.601 139.794 15.4506 139.988 15.4144C141.024 14.6176 145.883 5.69179 147.727 2.3041C148.419 1.03261 148.931 0.0931597 149.126 -0.232036C149.728 -1.24278 150.316 -2.30625 150.912 -3.38438C152.707 -6.6295 154.562 -9.98496 157.131 -12.5279C163.717 -19.0455 174.401 -14.0621 181.47 -10.7652L181.754 -10.6334C181.915 -10.5582 182.024 -10.4029 182.04 -10.2262C182.056 -10.0484 181.977 -9.87657 181.832 -9.77305C176.747 -6.14805 174.459 0.239645 173.034 5.3998C171.079 12.4779 169.924 19.7865 169.602 27.1225C169.594 27.2973 169.495 27.4564 169.34 27.5394C169.266 27.5805 169.184 27.6 169.102 27.6ZM141.134 15.6146C150.83 17.684 160.076 21.2582 168.643 26.2494C169.017 19.1176 170.169 12.018 172.07 5.13418C173.476 0.0443325 175.707 -6.2125 180.576 -10.0787C173.762 -13.2516 163.788 -17.7086 157.835 -11.817C155.368 -9.37559 153.547 -6.0836 151.787 -2.9C151.186 -1.81211 150.592 -0.739847 149.984 0.279684C149.792 0.60195 149.288 1.52871 148.606 2.78261C144.133 10.9965 142.157 14.3139 141.134 15.6146Z" fill="black"/>
<path d="M2.07041 118.63C1.95127 118.63 1.83213 118.588 1.73691 118.502C1.53623 118.324 1.51377 118.017 1.68613 117.811L26.2062 88.3354C24.0709 89.0795 22.0133 90.0033 20.027 91.0619L-0.475977 107.014C-0.687403 107.18 -0.990626 107.147 -1.16397 106.944C-1.33731 106.74 -1.31924 106.435 -1.12295 106.252C4.9664 100.609 11.6686 94.3979 19.4859 90.2162L35.2457 77.9545C34.087 78.1391 32.9254 78.3549 31.7628 78.602C19.7799 88.5961 5.59531 96.0111 -9.44912 100.124C-9.67666 100.186 -9.91397 100.082 -10.0229 99.8754C-10.1322 99.6684 -10.0834 99.4135 -9.90518 99.2611C3.2125 88.0766 17.3502 80.6898 31.3111 77.6762C31.5079 77.5111 31.7037 77.3451 31.899 77.1791C19.2218 80.393 7.30771 85.7406 -3.54189 93.0902C-3.77041 93.2436 -4.08145 93.185 -4.23623 92.9564C-4.39102 92.7279 -4.33145 92.4174 -4.10244 92.2621C7.41758 84.4584 20.1271 78.892 33.6725 75.7172C33.898 75.6664 34.1256 75.7719 34.2311 75.975C34.336 76.1781 34.2896 76.4271 34.1178 76.5795C33.8556 76.8109 33.5929 77.0414 33.3282 77.2709C34.5475 77.0443 35.7652 76.851 36.9801 76.6918C37.2018 76.6605 37.419 76.7865 37.5064 76.9955C37.5934 77.2035 37.5299 77.4437 37.3521 77.5824L23.6607 88.2348C24.9283 87.7104 26.2242 87.2455 27.5514 86.848C27.7613 86.7875 27.9903 86.8686 28.1114 87.0521C28.233 87.2357 28.2198 87.4779 28.0787 87.6469L11.1603 107.986L19.3062 99.5395C19.4669 99.3725 19.7218 99.3383 19.922 99.4564C20.1212 99.5746 20.213 99.8158 20.1427 100.037C18.7794 104.353 16.712 108.378 13.9977 112C13.8321 112.221 13.5191 112.267 13.2979 112.101C13.0768 111.935 13.0318 111.621 13.1979 111.401C15.3912 108.473 17.1515 105.276 18.4469 101.871L2.43027 118.477C2.33262 118.579 2.20176 118.63 2.07041 118.63ZM29.5709 79.1029C17.044 82.1732 4.4083 88.7855 -7.45449 98.515C5.97178 94.5238 18.6437 87.8744 29.5709 79.1029Z" fill="black"/>
<path d="M161.622 105.719L154.316 100.463L210.97 21.7266C211.937 20.3817 213.812 20.0759 215.157 21.0436L217.592 22.7958C218.937 23.7635 219.243 25.6382 218.275 26.9831L161.622 105.719Z" fill="#0025FF"/>
<path d="M148.626 116.079C148.402 115.917 148.351 115.605 148.512 115.381L150.848 112.134C151.01 111.91 151.322 111.859 151.546 112.02C151.77 112.181 151.821 112.494 151.66 112.718L149.324 115.965C149.163 116.189 148.85 116.24 148.626 116.079Z" fill="#000A45"/>
<path d="M149.21 115.267L154.318 100.463L161.624 105.719L149.21 115.267Z" fill="#000A45"/>
<path d="M320.066 205.558L222.647 62.1728L174.511 94.8778L271.93 238.263L320.066 205.558Z" fill="#B924FF"/>
<path d="M179.031 58.3088C190.187 50.7478 213.275 50.6527 222.213 63.8083L188.089 86.9253C188.099 86.9402 188.109 86.955 188.118 86.9677L176.16 95.0362C169.378 85.0226 166.546 75.1062 169.844 72.8875C170.615 72.3668 171.653 72.313 172.879 72.6609C171.91 67.0246 173.451 62.0879 179.031 58.3088Z" fill="white"/>
<path d="M178.319 57.3339C178.334 57.3239 178.334 57.3239 178.347 57.3153C189.396 49.8296 213.673 48.9642 223.316 63.1578C223.713 63.7413 223.561 64.5458 222.975 64.9436C222.39 65.3415 221.586 65.1862 221.189 64.6028C212.369 51.6205 189.981 52.5225 179.78 59.4527C179.766 59.4628 179.766 59.4628 179.753 59.4714C175.03 62.6802 173.207 66.9501 174.172 72.5177C174.251 72.9487 174.086 73.3918 173.762 73.6889C173.439 73.9858 172.98 74.0841 172.552 73.9674C171.949 73.7934 171.104 73.6689 170.599 74.0122C170.254 74.2463 170.015 74.6993 169.893 75.3476C169.299 78.3931 171.362 85.6644 177.271 94.3615C177.669 94.9471 177.515 95.753 176.93 96.1509C176.346 96.5473 175.54 96.3934 175.143 95.8079C169.549 87.5759 166.501 79.3421 167.369 74.8657C167.625 73.5237 168.222 72.5154 169.152 71.8834C169.152 71.8834 169.152 71.8834 169.167 71.8734C169.805 71.4396 170.553 71.2253 171.421 71.2163C170.952 65.4324 173.265 60.7682 178.319 57.3339Z" fill="black"/>
<path d="M148.626 116.079C148.402 115.917 148.351 115.605 148.512 115.381L150.848 112.134C151.01 111.91 151.322 111.859 151.546 112.02C151.77 112.181 151.821 112.494 151.66 112.718L149.324 115.965C149.163 116.189 148.85 116.24 148.626 116.079Z" fill="#000A45"/>
<path d="M149.21 115.267L154.318 100.463L161.624 105.719L149.21 115.267Z" fill="#000A45"/>
<mask id="mask1_735_49554" style="mask-type:alpha" maskUnits="userSpaceOnUse" x="167" y="6" width="68" height="79">
<path d="M185.5 84.5L167.5 67L204.5 6L234.5 16L185.5 84.5Z" fill="white"/>
</mask>
<g mask="url(#mask1_735_49554)">
<path d="M161.622 105.719L154.316 100.463L210.97 21.7266C211.937 20.3817 213.812 20.0759 215.157 21.0436L217.592 22.7958C218.937 23.7635 219.243 25.6382 218.275 26.9831L161.622 105.719Z" fill="#0025FF"/>
</g>
</g>
</svg>
