<svg id="Слой_1" data-name="Слой 1" xmlns="http://www.w3.org/2000/svg" xmlns:xlink="http://www.w3.org/1999/xlink" viewBox="0 0 800 800">
  <defs>
    <style>
      .cls-1, .cls-7, .cls-9 {
        fill: none;
      }

      .cls-2 {
        fill: #fff;
      }

      .cls-3 {
        fill: #b6e9ff;
      }

      .cls-4 {
        fill: #0025ff;
      }

      .cls-5 {
        clip-path: url(#clip-path);
      }

      .cls-6 {
        clip-path: url(#clip-path-2);
      }

      .cls-7, .cls-9 {
        stroke: #000;
      }

      .cls-7 {
        stroke-miterlimit: 10;
        stroke-width: 3px;
      }

      .cls-8 {
        fill: #ff00c1;
      }

      .cls-9 {
        stroke-linecap: round;
        stroke-linejoin: round;
        stroke-width: 15px;
      }

      .cls-10 {
        fill: #ff92d2;
      }
    </style>
    <clipPath id="clip-path">
      <path class="cls-1" d="M497.42705,189.76449C503.34964,99.9993,464.55329,24.35481,410.7319,20.77383,356.91,17.19281,308.43456,87.03072,302.41261,176.78929Z"/>
    </clipPath>
    <clipPath id="clip-path-2">
      <path class="cls-1" d="M637.8745,841.64656C637.7533,710.37365,531.30039,603.99278,400,603.99278c-131.30158,0-237.7533,106.38087-237.8745,237.65378Z"/>
    </clipPath>
  </defs>
  <title>Обложки для Telegram_Logo_Lectonic</title>
  <rect class="cls-2" width="800" height="800"/>
  <g>
    <path d="M490.17645,164.0785a233.59877,233.59877,0,0,1,122.9189,122.9189q18.16639,41.91261,18.17412,89.958,0,48.06089-18.17412,89.958a233.59877,233.59877,0,0,1-122.9189,122.9189q-41.901,18.178-89.958,18.17412-48.04927,0-89.95028-18.17412a233.59877,233.59877,0,0,1-122.9189-122.9189q-18.18958-41.901-18.18185-89.958,0-48.04926,18.18185-89.958a233.59877,233.59877,0,0,1,122.9189-122.9189q41.8894-18.16638,89.95028-18.17412Q448.27931,145.90438,490.17645,164.0785Z"/>
    <path class="cls-3" d="M637.8745,841.64656C637.7533,710.37365,531.30039,603.99278,400,603.99278c-131.30158,0-237.7533,106.38087-237.8745,237.65378Z"/>
    <rect class="cls-2" x="268.76514" y="245.50212" width="262.90659" height="262.90659"/>
    <g>
      <circle class="cls-4" cx="412.90149" cy="-0.06758" r="45.75657"/>
      <path class="cls-3" d="M497.42705,189.76449C503.34964,99.9993,464.55329,24.35481,410.7319,20.77383,356.91,17.19281,308.43456,87.03072,302.41261,176.78929Z"/>
      <g class="cls-5">
        <rect class="cls-4" x="377.2489" y="-15.44767" width="57.38959" height="216.37428" transform="translate(286.45914 491.63085) rotate(-86.19346)"/>
      </g>
    </g>
    <g class="cls-6">
      <g>
        <polyline class="cls-7" points="764.881 709.653 719.271 630.654 673.66 709.653 628.05 630.654 582.44 709.653 536.83 630.654 491.22 709.653 445.61 630.654 400 709.653 354.39 630.654 308.78 709.653 263.17 630.654 217.56 709.653 171.95 630.654 126.34 709.653 80.729 630.654 35.119 709.653"/>
        <polyline class="cls-7" points="764.881 772.852 719.271 693.853 673.66 772.852 628.05 693.853 582.44 772.852 536.83 693.853 491.22 772.852 445.61 693.853 400 772.852 354.39 693.853 308.78 772.852 263.17 693.853 217.56 772.852 171.95 693.853 126.34 772.852 80.729 693.853 35.119 772.852"/>
        <polyline class="cls-7" points="764.881 836.052 719.271 757.053 673.66 836.052 628.05 757.053 582.44 836.052 536.83 757.053 491.22 836.052 445.61 757.053 400 836.052 354.39 757.053 308.78 836.052 263.17 757.053 217.56 836.052 171.95 757.053 126.34 836.052 80.729 757.053 35.119 836.052"/>
      </g>
    </g>
    <path class="cls-8" d="M333.62858,391.7093a66.58989,66.58989,0,0,0,133.17972,0Z"/>
    <rect x="385.8577" y="603.94978" width="28.2846" height="238.05022"/>
    <path class="cls-4" d="M289.47788,583.20622H540.36853a51.51236,51.51236,0,0,1,51.51236,51.51236v22.33067a51.51236,51.51236,0,0,1-51.51236,51.51236H289.47787a51.51236,51.51236,0,0,1-51.51236-51.51236V634.71859A51.51237,51.51237,0,0,1,289.47788,583.20622Z" transform="translate(-52.69113 37.06199) rotate(-4.80942)"/>
    <circle cx="324.77324" cy="309.81512" r="29.52122"/>
    <circle cx="478.28357" cy="309.81512" r="29.52122"/>
    <path class="cls-9" d="M289.61632,278.26679a47.11771,47.11771,0,0,1,35.15692-15.68795"/>
    <path class="cls-9" d="M513.34571,278.26679a47.11771,47.11771,0,0,0-35.15692-15.68795"/>
    <g>
      <rect class="cls-10" x="280.82027" y="347.36078" width="66.20096" height="23.37639" rx="9.60607"/>
      <rect class="cls-10" x="453.41564" y="347.36078" width="66.20096" height="23.37639" rx="9.60607"/>
    </g>
  </g>
</svg>
