<svg width="290" height="163" viewBox="0 0 290 163" fill="none" xmlns="http://www.w3.org/2000/svg">
<g clip-path="url(#clip0_764_43610)">
<path d="M290 0.00195312H0V163.002H290V0.00195312Z" fill="#E9F8FF"/>
<mask id="mask0_764_43610" style="mask-type:alpha" maskUnits="userSpaceOnUse" x="0" y="0" width="290" height="164">
<path d="M290 0.00195312H0V163.002H290V0.00195312Z" fill="#B924FF"/>
</mask>
<g mask="url(#mask0_764_43610)">
<path d="M107.202 69.7039C111.708 71.6663 115.652 74.3386 119.031 77.7245C122.409 81.1092 125.074 85.0587 127.026 89.5694C128.977 94.0825 129.951 98.9243 129.945 104.096C129.94 109.269 128.956 114.109 126.996 118.617C125.035 123.124 122.362 127.067 118.977 130.445C115.591 133.824 111.641 136.49 107.131 138.441C102.619 140.393 97.7771 141.366 92.6042 141.36C87.4326 141.355 82.5916 140.372 78.0849 138.411C73.5758 136.451 69.6343 133.777 66.2553 130.391C62.8764 127.006 60.2109 123.058 58.2603 118.546C56.3072 114.034 55.3345 109.192 55.3398 104.019C55.3451 98.8476 56.3278 94.0078 58.2902 89.4987C60.2501 84.992 62.9236 81.048 66.3095 77.6703C69.6954 74.2914 73.6425 71.6272 78.1556 69.674C82.6663 67.7234 87.5093 66.7495 92.681 66.7548C97.8539 66.7601 102.694 67.744 107.202 69.7039Z" fill="#0025FF"/>
<path d="M228.366 13.0662C233.433 15.2729 237.868 18.2778 241.668 22.0852C245.466 25.8911 248.463 30.3323 250.658 35.4044C252.851 40.4793 253.947 45.9237 253.941 51.7391C253.935 57.5559 252.828 62.9981 250.624 68.0671C248.419 73.136 245.413 77.5696 241.607 81.3677C237.799 85.1672 233.358 88.1658 228.286 90.3593C223.213 92.5541 217.768 93.6479 211.951 93.6419C206.136 93.6359 200.693 92.531 195.625 90.3257C190.555 88.1218 186.122 85.1141 182.323 81.3067C178.523 77.5008 175.526 73.0611 173.333 67.9875C171.136 62.914 170.043 57.4696 170.049 51.6528C170.055 45.8374 171.16 40.3953 173.366 35.3249C175.57 30.2573 178.577 25.8223 182.384 22.0242C186.191 18.2247 190.63 15.2289 195.704 13.0326C200.777 10.8392 206.222 9.74404 212.038 9.75002C217.855 9.75601 223.297 10.8623 228.366 13.0662Z" fill="#0025FF"/>
<path d="M142.522 23.5143L92.8601 37.2822L106.628 86.9444L156.29 73.1764L142.522 23.5143Z" fill="#B6E9FF"/>
<path d="M293.813 86.2524L264.084 80.6792L258.51 110.408L288.239 115.981L293.813 86.2524Z" fill="#B6E9FF"/>
<path d="M88.9906 159.276C79.7712 137.612 54.7411 127.509 33.0637 136.71C11.386 145.911 1.26609 170.935 10.4455 192.616L88.9906 159.276Z" fill="#B6E9FF"/>
<path d="M24.355 30.8029C28.0499 30.8029 31.0452 27.8076 31.0452 24.1126C31.0452 20.4177 28.0499 17.4223 24.355 17.4223C20.66 17.4223 17.6647 20.4177 17.6647 24.1126C17.6647 27.8076 20.66 30.8029 24.355 30.8029Z" fill="#FF00C1"/>
<path d="M67.9801 57.086C75.1134 57.086 80.8961 51.3033 80.8961 44.17C80.8961 37.0367 75.1134 31.254 67.9801 31.254C60.8468 31.254 55.0641 37.0367 55.0641 44.17C55.0641 51.3033 60.8468 57.086 67.9801 57.086Z" fill="white"/>
<path d="M250.937 140.999C256.941 140.999 261.809 136.131 261.809 130.127C261.809 124.122 256.941 119.254 250.937 119.254C244.932 119.254 240.064 124.122 240.064 130.127C240.064 136.131 244.932 140.999 250.937 140.999Z" fill="#0025FF"/>
<path d="M204.968 21.6957L201.572 51.7368L231.613 55.1333L235.009 25.0921L204.968 21.6957Z" fill="#FFE600"/>
<path d="M49.8706 63.3539L12.3601 83.2059L32.2121 120.716L69.7227 100.864L49.8706 63.3539Z" fill="#FFE600"/>
<path d="M98.646 147.86C98.6314 147.86 98.6177 147.86 98.6036 147.86C93.3843 147.855 88.4327 146.849 83.8853 144.87C79.3448 142.896 75.313 140.162 71.9014 136.744C68.4927 133.329 65.7676 129.292 63.8013 124.744C61.8311 120.192 60.8345 115.237 60.8399 110.019C60.8453 104.8 61.8521 99.8482 63.8316 95.2989C65.8082 90.7544 68.542 86.7227 71.9566 83.3164C75.3707 79.9092 79.4083 77.1836 83.9571 75.2149C88.4986 73.251 93.4385 72.2549 98.6392 72.2549C98.6539 72.2549 98.6675 72.2549 98.6817 72.2549C103.897 72.2603 108.849 73.2666 113.401 75.2456C117.949 77.2261 121.981 79.96 125.385 83.3716C128.792 86.7857 131.517 90.8228 133.485 95.3706C135.455 99.9283 136.451 104.883 136.445 110.096C136.44 115.312 135.434 120.264 133.455 124.816C131.479 129.359 128.745 133.39 125.33 136.799C121.914 140.208 117.876 142.934 113.329 144.9C108.789 146.864 103.848 147.86 98.646 147.86ZM98.6392 73.2549C93.5757 73.2549 88.7701 74.2232 84.3541 76.1329C79.921 78.0513 75.9874 80.7066 72.6627 84.0245C69.3375 87.3413 66.6749 91.2691 64.7486 95.6978C62.8238 100.121 61.8453 104.939 61.8399 110.02C61.8345 115.101 62.8033 119.921 64.7193 124.347C66.6353 128.779 69.2901 132.712 72.6094 136.038C75.9317 139.366 79.8594 142.029 84.2842 143.953C88.7051 145.877 93.523 146.855 98.6045 146.86C98.6182 146.86 98.6324 146.86 98.646 146.86C103.711 146.86 108.518 145.892 112.932 143.982C117.363 142.066 121.296 139.411 124.624 136.091C127.949 132.772 130.612 128.844 132.538 124.418C134.462 119.991 135.44 115.173 135.445 110.095C135.451 105.02 134.482 100.199 132.567 95.7676C130.649 91.3355 127.995 87.4024 124.677 84.0777C121.362 80.7559 117.435 78.0928 113.002 76.1626C108.576 74.2383 103.758 73.2603 98.6807 73.2549C98.667 73.2549 98.6529 73.2549 98.6392 73.2549Z" fill="black"/>
<path d="M217.998 100.142C217.981 100.142 217.967 100.142 217.951 100.142C212.091 100.136 206.531 99.0059 201.425 96.7842C196.326 94.5674 191.799 91.4976 187.969 87.6597C184.142 83.8262 181.081 79.2925 178.874 74.1856C176.661 69.0752 175.543 63.5122 175.549 57.6524C175.555 51.7935 176.685 46.2329 178.908 41.125C181.127 36.022 184.197 31.4952 188.031 27.67C191.864 23.8448 196.398 20.7842 201.506 18.5738C206.606 16.3682 212.153 15.25 217.992 15.25C218.007 15.25 218.023 15.25 218.038 15.25C223.894 15.2559 229.455 16.3858 234.565 18.6079C239.67 20.8311 244.198 23.9009 248.022 27.732C251.847 31.565 254.906 36.0982 257.117 41.2056C259.328 46.3218 260.446 51.8843 260.44 57.7398C260.435 63.5952 259.305 69.1553 257.083 74.2661C254.863 79.3682 251.794 83.8951 247.96 87.7217C244.123 91.5503 239.589 94.6109 234.484 96.8184C229.387 99.024 223.839 100.142 217.998 100.142ZM217.992 16.25C212.29 16.25 206.877 17.3404 201.903 19.4917C196.911 21.6519 192.481 24.6416 188.737 28.378C184.993 32.1138 181.994 36.5367 179.825 41.524C177.657 46.5059 176.555 51.9327 176.549 57.6534C176.543 63.3755 177.633 68.8042 179.792 73.7886C181.949 78.7798 184.939 83.209 188.677 86.9536C192.418 90.7017 196.841 93.7007 201.824 95.8672C206.804 98.0342 212.23 99.1358 217.952 99.1421C217.967 99.1421 217.982 99.1421 217.998 99.1421C223.702 99.1421 229.115 98.0518 234.087 95.9004C239.076 93.7432 243.506 90.7534 247.254 87.0137C250.998 83.2764 253.997 78.8535 256.166 73.8672C258.333 68.8828 259.435 63.4566 259.44 57.7388C259.446 52.021 258.356 46.5923 256.199 41.6026C254.039 36.6109 251.049 32.1817 247.314 28.438C243.58 24.6963 239.156 21.6978 234.166 19.5249C229.182 17.3575 223.755 16.2559 218.037 16.25C218.023 16.25 218.007 16.25 217.992 16.25Z" fill="black"/>
<path d="M112.28 93.5596L98.2447 42.9341L148.87 28.899L162.905 79.5245L112.28 93.5596ZM99.4752 43.6304L112.976 92.3291L161.675 78.8282L148.174 30.1294L99.4752 43.6304Z" fill="black"/>
<path d="M294.639 122.565L263.927 116.808L269.684 86.0957L300.396 91.8531L294.639 122.565ZM265.094 116.009L293.84 121.398L299.229 92.6519L270.483 87.2627L265.094 116.009Z" fill="black"/>
<path d="M16.1802 199.272L15.9849 198.811C6.71441 176.914 16.98 151.541 38.8682 142.25C60.7579 132.958 86.1397 143.201 95.4507 165.081L95.647 165.541L16.1802 199.272ZM55.6695 139.821C50.1846 139.821 44.6158 140.897 39.2588 143.17C18.0318 152.181 7.99566 176.676 16.7134 197.96L94.3321 165.013C87.4136 149.271 71.919 139.821 55.6695 139.821Z" fill="black"/>
<path d="M55.4546 70.7055L74.3711 106.448L38.6282 125.365L19.7117 89.622L55.4546 70.7055ZM55.8706 69.3539L18.3601 89.2059L38.2121 126.716L75.7227 106.864L55.8706 69.3539Z" fill="black"/>
<path d="M220.535 118.544C224.741 100.655 213.66 82.7378 195.771 78.5143C177.883 74.2907 159.958 85.3598 155.719 103.241L220.535 118.544Z" fill="#E9F8FF"/>
<path d="M182.993 105.514C185.403 106.563 187.512 107.992 189.318 109.803C191.124 111.612 192.549 113.724 193.593 116.136C194.636 118.549 195.157 121.138 195.154 123.903C195.151 126.669 194.625 129.256 193.577 131.666C192.528 134.077 191.099 136.185 189.289 137.991C187.479 139.797 185.367 141.223 182.955 142.266C180.543 143.31 177.954 143.83 175.188 143.827C172.423 143.824 169.835 143.299 167.425 142.25C165.014 141.202 162.907 139.772 161.1 137.962C159.294 136.152 157.869 134.041 156.826 131.629C155.781 129.216 155.261 126.627 155.264 123.862C155.267 121.096 155.792 118.509 156.842 116.098C157.89 113.688 159.319 111.58 161.129 109.774C162.94 107.967 165.05 106.542 167.463 105.498C169.875 104.455 172.464 103.934 175.23 103.937C177.995 103.94 180.583 104.466 182.993 105.514Z" fill="#FF00C1"/>
<path d="M181.211 150.327C181.203 150.327 181.196 150.327 181.188 150.327C178.365 150.324 175.687 149.78 173.226 148.709C170.772 147.642 168.592 146.164 166.747 144.315C164.903 142.468 163.429 140.285 162.367 137.827C161.3 135.364 160.761 132.684 160.764 129.861C160.767 127.039 161.312 124.36 162.383 121.898C163.452 119.441 164.93 117.261 166.776 115.419C168.622 113.578 170.805 112.104 173.265 111.039C175.722 109.977 178.395 109.438 181.207 109.438C181.214 109.438 181.222 109.438 181.23 109.438C184.05 109.44 186.729 109.984 189.192 111.056C191.651 112.126 193.832 113.605 195.672 115.45C197.514 117.295 198.988 119.479 200.052 121.937C201.118 124.404 201.657 127.084 201.654 129.903C201.651 132.724 201.106 135.403 200.036 137.866C198.966 140.323 197.488 142.502 195.642 144.345C193.795 146.188 191.612 147.662 189.154 148.725C186.696 149.788 184.023 150.327 181.211 150.327ZM181.207 110.438C178.532 110.438 175.993 110.949 173.662 111.957C171.318 112.971 169.239 114.375 167.482 116.127C165.726 117.88 164.319 119.956 163.3 122.297C162.284 124.633 161.767 127.178 161.764 129.862C161.761 132.547 162.273 135.093 163.285 137.43C164.297 139.772 165.7 141.851 167.455 143.609C169.21 145.368 171.286 146.775 173.625 147.792C175.96 148.808 178.504 149.324 181.189 149.327C183.858 149.287 186.419 148.818 188.757 147.807C191.1 146.794 193.178 145.391 194.936 143.637C196.693 141.884 198.1 139.808 199.119 137.467C200.134 135.131 200.651 132.585 200.654 129.902C200.657 127.221 200.145 124.674 199.134 122.334C198.12 119.991 196.717 117.913 194.964 116.156C193.212 114.4 191.136 112.993 188.794 111.973C186.456 110.957 183.911 110.44 181.229 110.438C181.222 110.438 181.214 110.438 181.207 110.438Z" fill="black"/>
</g>
</g>
<defs>
<clipPath id="clip0_764_43610">
<rect width="290" height="163" fill="white"/>
</clipPath>
</defs>
</svg>
