<svg id="Слой_1" data-name="Слой 1" xmlns="http://www.w3.org/2000/svg" xmlns:xlink="http://www.w3.org/1999/xlink" viewBox="0 0 800 800">
  <defs>
    <style>
      .cls-1, .cls-7, .cls-8 {
        fill: none;
      }

      .cls-2 {
        fill: #b6e9ff;
      }

      .cls-3 {
        fill: #0025ff;
      }

      .cls-4 {
        fill: #fff;
      }

      .cls-5 {
        fill: #ff00c1;
      }

      .cls-6 {
        fill: #ff92d2;
      }

      .cls-7, .cls-8 {
        stroke: #000;
        stroke-linecap: round;
        stroke-linejoin: round;
      }

      .cls-7 {
        stroke-width: 15px;
      }

      .cls-8 {
        stroke-width: 5px;
      }

      .cls-9 {
        clip-path: url(#clip-path);
      }
    </style>
    <clipPath id="clip-path">
      <path class="cls-1" d="M639.33029,800.25C639.20835,668.17369,532.104,561.14177,400,561.14177c-132.10515,0-239.20835,107.03192-239.33029,239.10823Z"/>
    </clipPath>
  </defs>
  <title>Обложки для Telegram_Logo_Lectonic</title>
  <rect class="cls-2" width="800" height="800"/>
  <g>
    <path class="cls-3" d="M639.33029,800.25C639.20835,668.17369,532.104,561.14177,400,561.14177c-132.10515,0-239.20835,107.03192-239.33029,239.10823Z"/>
    <g>
      <circle cx="400.21978" cy="707.07655" r="14.87368"/>
      <circle cx="400.21978" cy="759.44387" r="14.87368"/>
      <circle cx="400.21978" cy="654.70923" r="14.87368"/>
    </g>
    <path d="M489.958,117.21389A233.59876,233.59876,0,0,1,612.87689,240.13277q18.16638,41.91261,18.17411,89.958,0,48.06087-18.17411,89.958A233.59873,233.59873,0,0,1,489.958,542.96766q-41.901,18.178-89.958,18.17411-48.04926,0-89.95027-18.17411A233.59876,233.59876,0,0,1,187.13085,420.04877q-18.18959-41.901-18.18185-89.958,0-48.04926,18.18185-89.958A233.59879,233.59879,0,0,1,310.04973,117.21389Q351.93914,99.04751,400,99.03977,448.06087,99.03977,489.958,117.21389Z"/>
    <g>
      <rect class="cls-4" x="268.54672" y="231.02342" width="262.90655" height="262.90655"/>
      <path class="cls-5" d="M317.08478,371.51213a82.91526,82.91526,0,0,0,165.83044,0Z"/>
      <g>
        <circle class="cls-6" cx="537.36386" cy="362.4767" r="20.63406"/>
        <circle class="cls-6" cx="262.63614" cy="362.4767" r="20.63406"/>
      </g>
      <circle cx="324.55481" cy="295.33641" r="29.52121"/>
      <circle cx="478.06512" cy="295.33641" r="29.52121"/>
      <path class="cls-7" d="M289.39789,263.78809a47.11768,47.11768,0,0,1,35.15692-15.68795"/>
      <path class="cls-7" d="M513.12726,263.78809a47.11768,47.11768,0,0,0-35.15692-15.68795"/>
      <g>
        <circle class="cls-8" cx="317.91348" cy="299.10045" r="47.9324"/>
        <circle class="cls-8" cx="483.33026" cy="299.10045" r="47.9324"/>
        <path class="cls-8" d="M437.12707,282.46265a47.93636,47.93636,0,0,0-74.25414,0"/>
      </g>
    </g>
    <g>
      <path class="cls-3" d="M343.734,53.35045H456.266A106.234,106.234,0,0,1,562.5,159.58449v32.766a0,0,0,0,1,0,0h-325a0,0,0,0,1,0,0v-32.766A106.234,106.234,0,0,1,343.734,53.35045Z"/>
      <path d="M562.81114,192.35045H237.5l27.48961-14.14906a188.07636,188.07636,0,0,1,86.07193-20.85094H585.33393c11.55557,0,15.31627,15.524,5.04179,20.81235Z"/>
    </g>
    <g class="cls-9">
      <g>
        <g>
          <rect x="196.78189" y="445" width="5.56762" height="471.39177"/>
          <rect x="209.773" y="445" width="5.56762" height="471.39177"/>
          <rect x="222.76412" y="445" width="5.56762" height="471.39177"/>
          <rect x="290.50349" y="445" width="5.56762" height="471.39177"/>
          <rect x="303.4946" y="445" width="5.56762" height="471.39177"/>
          <rect x="316.48571" y="445" width="5.56762" height="471.39177"/>
          <rect x="384.22508" y="445" width="5.56762" height="471.39177"/>
          <rect x="397.21619" y="445" width="5.56762" height="471.39177"/>
          <rect x="410.2073" y="445" width="5.56762" height="471.39177"/>
          <rect x="477.94667" y="445" width="5.56762" height="471.39177"/>
          <rect x="490.93778" y="445" width="5.56762" height="471.39177"/>
          <rect x="503.92889" y="445" width="5.56762" height="471.39177"/>
          <rect x="571.66826" y="445" width="5.56762" height="471.39177"/>
          <rect x="584.65938" y="445" width="5.56762" height="471.39177"/>
          <rect x="597.65049" y="445" width="5.56762" height="471.39177"/>
        </g>
        <g>
          <rect x="397.21619" y="215.3357" width="5.56762" height="529.85178" transform="translate(880.26159 80.26159) rotate(90)"/>
          <rect x="397.21619" y="228.32681" width="5.56762" height="529.85178" transform="translate(893.2527 93.2527) rotate(90)"/>
          <rect x="397.21619" y="241.31792" width="5.56762" height="529.85178" transform="translate(906.24381 106.24381) rotate(90)"/>
          <rect x="397.21619" y="309.05729" width="5.56762" height="529.85178" transform="translate(973.98318 173.98318) rotate(90)"/>
          <rect x="397.21619" y="322.04841" width="5.56762" height="529.85178" transform="translate(986.97429 186.97429) rotate(90)"/>
          <rect x="397.21619" y="335.03952" width="5.56762" height="529.85178" transform="translate(999.96541 199.96541) rotate(90)"/>
          <rect x="397.21619" y="402.77889" width="5.56762" height="529.85178" transform="translate(1067.70477 267.70477) rotate(90)"/>
          <rect x="397.21619" y="415.77" width="5.56762" height="529.85178" transform="translate(1080.69589 280.69589) rotate(90)"/>
          <rect x="397.21619" y="428.76111" width="5.56762" height="529.85178" transform="translate(1093.687 293.687) rotate(90)"/>
          <rect x="397.21619" y="496.50048" width="5.56762" height="529.85178" transform="translate(1161.42637 361.42637) rotate(90)"/>
          <rect x="397.21619" y="509.49159" width="5.56762" height="529.85178" transform="translate(1174.41748 374.41748) rotate(90)"/>
          <rect x="397.21619" y="522.4827" width="5.56762" height="529.85178" transform="translate(1187.40859 387.40859) rotate(90)"/>
        </g>
      </g>
    </g>
  </g>
</svg>
