<svg width="290" height="163" viewBox="0 0 290 163" fill="none" xmlns="http://www.w3.org/2000/svg">
<path d="M290 0H0V163H290V0Z" fill="#00D378"/>
<mask id="mask0_735_46980" style="mask-type:alpha" maskUnits="userSpaceOnUse" x="0" y="0" width="290" height="163">
<path d="M290 0H0V163H290V0Z" fill="#00D378"/>
</mask>
<g mask="url(#mask0_735_46980)">
<path d="M95.5361 157.544C101.279 133.12 86.1492 108.656 61.7251 102.889C37.3008 97.1227 12.8268 112.236 7.03882 136.65L95.5361 157.544Z" fill="#B924FF"/>
<path d="M259.288 10.2353L194.346 28.2392L212.35 93.1808L277.292 75.1768L259.288 10.2353Z" fill="#0025FF"/>
<path d="M220.002 90.7958L219.869 90.3144L201.731 24.8911L267.636 6.62006L267.769 7.1015L285.907 72.5248L220.002 90.7958ZM202.961 25.5873L220.699 89.5654L284.676 71.8286L266.939 7.85053L202.961 25.5873Z" fill="black"/>
<path d="M103.908 155.146L14.4371 134.021L14.5523 133.535C20.3931 108.895 45.191 93.5834 69.8404 99.4028C94.484 105.222 109.819 130.009 104.022 154.659L103.908 155.146ZM15.6431 133.279L103.161 153.942C108.517 129.99 93.5562 106.03 69.6099 100.376C45.6646 94.7187 21.565 109.459 15.6431 133.279Z" fill="black"/>
<path d="M18.9948 154.515C21.4044 155.564 23.5132 156.993 25.3198 158.803C27.1258 160.613 28.5509 162.724 29.5945 165.136C30.6375 167.549 31.1582 170.138 31.1554 172.903C31.1525 175.669 30.6265 178.257 29.5785 180.667C28.53 183.077 27.1005 185.185 25.2908 186.991C23.4804 188.798 21.3687 190.224 18.957 191.267C16.5446 192.31 13.9558 192.83 11.19 192.827C8.42483 192.825 5.83646 192.299 3.42688 191.251C1.01596 190.203 -1.09148 188.773 -2.89812 186.962C-4.70476 185.152 -6.12989 183.041 -7.17285 180.629C-8.21715 178.217 -8.73721 175.628 -8.73436 172.862C-8.73152 170.097 -8.20613 167.509 -7.15687 165.098C-6.10895 162.689 -4.67948 160.58 -2.86912 158.774C-1.05876 156.967 1.05161 155.543 3.46469 154.499C5.87642 153.456 8.46587 152.935 11.231 152.938C13.9968 152.941 16.5845 153.467 18.9948 154.515Z" fill="#FF00C1"/>
<path d="M19.2125 190.328C19.2047 190.328 19.1978 190.328 19.189 190.328C16.3668 190.325 13.6881 189.78 11.2281 188.709C8.77302 187.642 6.59333 186.164 4.7486 184.315C2.90388 182.468 1.43024 180.285 0.367744 177.827C-0.697685 175.366 -1.23675 172.685 -1.23479 169.862C-1.23186 167.039 -0.686943 164.36 0.385323 161.898C1.45271 159.442 2.93122 157.263 4.77692 155.42C6.6236 153.578 8.80622 152.104 11.2662 151.039C13.7242 149.977 16.3961 149.438 19.2086 149.438C19.2164 149.438 19.2232 149.438 19.232 149.438C22.0513 149.44 24.73 149.985 27.1939 151.056C29.6529 152.126 31.8326 153.604 33.6734 155.45C35.5172 157.297 36.9898 159.48 38.0533 161.938C39.1187 164.403 39.6578 167.083 39.6558 169.904C39.6529 172.724 39.108 175.403 38.0377 177.866C36.9683 180.322 35.4898 182.502 33.6441 184.345C31.7955 186.189 29.6129 187.663 27.1549 188.726C24.6978 189.789 22.025 190.328 19.2125 190.328ZM19.2086 150.438C16.5328 150.438 13.9947 150.949 11.6627 151.957C9.31989 152.972 7.24079 154.375 5.48396 156.128C3.72712 157.881 2.31989 159.957 1.30231 162.297C0.284737 164.633 -0.231865 167.178 -0.234795 169.863C-0.236748 172.549 0.274971 175.095 1.28571 177.43C2.29841 179.772 3.70075 181.851 5.45564 183.609C7.21149 185.368 9.28767 186.775 11.6265 187.792C13.9605 188.808 16.5054 189.325 19.191 189.328C19.1978 189.328 19.2056 189.328 19.2125 189.328C21.8883 189.328 24.4263 188.816 26.7584 187.808C29.1002 186.795 31.1793 185.392 32.9371 183.637C34.6949 181.883 36.1021 179.808 37.1207 177.467C38.1363 175.13 38.6529 172.585 38.6558 169.903C38.6578 167.22 38.1461 164.673 37.1353 162.334C36.1226 159.993 34.7193 157.914 32.9664 156.156C31.2134 154.4 29.1373 152.993 26.7955 151.973C24.4576 150.957 21.9127 150.44 19.231 150.438C19.2232 150.438 19.2154 150.438 19.2086 150.438Z" fill="black"/>
<path d="M298.367 105.067C303.435 107.273 307.87 110.278 311.669 114.086C315.467 117.892 318.465 122.333 320.659 127.405C322.853 132.48 323.948 137.924 323.942 143.74C323.936 149.556 322.83 154.998 320.626 160.067C318.421 165.136 315.414 169.57 311.608 173.368C307.801 177.168 303.36 180.166 298.288 182.36C293.214 184.555 287.77 185.648 281.953 185.642C276.138 185.636 270.694 184.531 265.626 182.326C260.556 180.122 256.124 177.114 252.324 173.307C248.525 169.501 245.528 165.061 243.334 159.988C241.138 154.914 240.044 149.47 240.05 143.653C240.056 137.838 241.161 132.396 243.368 127.325C245.572 122.258 248.578 117.823 252.385 114.025C256.193 110.225 260.631 107.229 265.706 105.033C270.778 102.84 276.224 101.744 282.039 101.75C287.856 101.756 293.298 102.863 298.367 105.067Z" fill="#FFE600"/>
<path d="M289.992 98.7504L290.038 99.7504C295.688 99.7562 301.047 100.844 305.968 102.983C310.9 105.131 315.272 108.095 318.961 111.792C322.652 115.491 325.607 119.868 327.742 124.801C329.871 129.729 330.948 135.091 330.942 140.738C330.936 146.388 329.848 151.747 327.709 156.669C325.565 161.597 322.602 165.968 318.902 169.66C315.2 173.355 310.823 176.309 305.891 178.442C300.982 180.566 295.635 181.642 289.954 181.642C284.301 181.636 278.942 180.549 274.025 178.409C269.1 176.268 264.729 173.305 261.032 169.601C257.339 165.901 254.385 161.524 252.252 156.591C250.122 151.669 249.044 146.308 249.05 140.654C249.056 135.002 250.144 129.643 252.285 124.724C254.429 119.794 257.392 115.423 261.092 111.732C264.791 108.041 269.169 105.086 274.103 102.951C279.013 100.827 284.359 99.7505 289.992 99.7504V98.7504ZM289.992 98.7504C284.195 98.7505 278.764 99.8456 273.706 102.033C268.631 104.229 264.193 107.225 260.385 111.025C256.578 114.823 253.572 119.258 251.368 124.325C249.161 129.396 248.056 134.838 248.05 140.653C248.044 146.47 249.138 151.914 251.334 156.988C253.528 162.061 256.525 166.501 260.324 170.307C264.124 174.114 268.556 177.122 273.626 179.326C278.694 181.531 284.138 182.636 289.953 182.642C289.969 182.642 289.984 182.642 290 182.642C295.799 182.642 301.228 181.549 306.288 179.36C311.36 177.166 315.801 174.168 319.608 170.368C323.414 166.57 326.421 162.136 328.626 157.067C330.83 151.998 331.936 146.556 331.942 140.74C331.948 134.924 330.853 129.48 328.659 124.405C326.465 119.333 323.467 114.892 319.669 111.086C315.87 107.278 311.435 104.273 306.367 102.067C301.298 99.8627 295.856 98.7564 290.039 98.7504C290.023 98.7504 290.008 98.7504 289.992 98.7504Z" fill="black"/>
<path d="M261.938 171.999C267.943 171.999 272.811 167.132 272.811 161.127C272.811 155.122 267.943 150.254 261.938 150.254C255.933 150.254 251.066 155.122 251.066 161.127C251.066 167.132 255.933 171.999 261.938 171.999Z" fill="#0025FF"/>
<path d="M62.0234 8.60742L5.77205 16.156L13.3207 72.4073L69.572 64.8587L62.0234 8.60742Z" fill="#FFE600"/>
<path d="M69.1653 6.73153L76.4479 61.0006L22.1787 68.2832L14.8961 14.0141L69.1653 6.73153ZM70.0234 5.60742L13.772 13.156L21.3206 69.4074L77.572 61.8587L70.0234 5.60742Z" fill="black"/>
<path d="M37.3564 46.8033C41.0514 46.8033 44.0467 43.808 44.0467 40.113C44.0467 36.4181 41.0514 33.4227 37.3564 33.4227C33.6615 33.4227 30.6662 36.4181 30.6662 40.113C30.6662 43.808 33.6615 46.8033 37.3564 46.8033Z" fill="#FF00C1"/>
<path d="M145 197.5C209.065 197.5 261 145.565 261 81.5C261 17.435 209.065 -34.5 145 -34.5C80.935 -34.5 29 17.435 29 81.5C29 145.565 80.935 197.5 145 197.5Z" fill="#E9F8FF"/>
<path d="M144.999 174.944C196.607 174.944 238.445 133.108 238.445 81.5002C238.445 29.8923 196.607 -11.9442 144.999 -11.9442C93.3919 -11.9442 51.5554 29.8923 51.5554 81.5002C51.5554 133.108 93.3919 174.944 144.999 174.944Z" fill="#B6E9FF"/>
<path d="M145.001 152.389C184.151 152.389 215.889 120.65 215.889 81.4998C215.889 42.3489 184.151 10.6109 145.001 10.6109C105.849 10.6109 74.1113 42.349 74.1113 81.4998C74.1113 120.65 105.849 152.389 145.001 152.389Z" fill="#5FB5FF"/>
<path d="M133.738 115.752L98.9145 80.9287C96.3618 78.3765 96.3618 74.2391 98.9145 71.6869C101.465 69.1352 105.604 69.1352 108.156 71.6869L133.738 97.2686L181.844 49.1616C184.396 46.6099 188.535 46.6099 191.085 49.1616C193.638 51.7138 193.638 55.8512 191.086 58.4034L133.738 115.752Z" fill="#E9F8FF"/>
</g>
</svg>
