<svg width="290" height="163" viewBox="0 0 290 163" fill="none" xmlns="http://www.w3.org/2000/svg">
<path d="M290 0H0V163H290V0Z" fill="#00D378"/>
<mask id="mask0_842_44961" style="mask-type:alpha" maskUnits="userSpaceOnUse" x="0" y="0" width="290" height="163">
<path d="M290 0H0V163H290V0Z" fill="#00D378"/>
</mask>
<g mask="url(#mask0_842_44961)">
<path d="M240.523 137.11C250.065 134.187 255.432 124.082 252.509 114.539C249.586 104.997 239.481 99.6301 229.938 102.553C220.396 105.476 215.029 115.581 217.952 125.123C220.875 134.666 230.98 140.032 240.523 137.11Z" fill="#E9F8FF"/>
<path d="M239.494 133.75C247.181 131.396 251.504 123.255 249.149 115.568C246.795 107.881 238.654 103.558 230.967 105.913C223.28 108.267 218.957 116.407 221.312 124.094C223.666 131.781 231.807 136.104 239.494 133.75Z" fill="#B6E9FF"/>
<path d="M238.465 130.39C244.296 128.604 247.576 122.429 245.79 116.597C244.003 110.766 237.828 107.486 231.997 109.272C226.165 111.058 222.885 117.234 224.672 123.065C226.458 128.897 232.633 132.176 238.465 130.39Z" fill="#5FB5FF"/>
<path d="M235.116 125.447L228.34 121.849C227.843 121.585 227.655 120.969 227.918 120.472C228.182 119.976 228.798 119.787 229.295 120.05L234.272 122.694L239.243 113.334C239.507 112.837 240.123 112.648 240.62 112.912C241.116 113.176 241.305 113.792 241.041 114.288L235.116 125.447Z" fill="#E9F8FF"/>
<path d="M18.3879 116.459C25.7734 119.189 33.9736 115.415 36.7038 108.029C39.4338 100.644 35.6599 92.4436 28.2744 89.7135C20.889 86.9834 12.6887 90.7573 9.95856 98.1428C7.22845 105.528 11.0024 113.729 18.3879 116.459Z" fill="#E9F8FF"/>
<path d="M19.349 113.858C25.2984 116.058 31.9043 113.018 34.1035 107.068C36.3028 101.119 33.2626 94.5129 27.3132 92.3137C21.3638 90.1145 14.758 93.1546 12.5588 99.104C10.3595 105.053 13.3996 111.659 19.349 113.858Z" fill="#B6E9FF"/>
<path d="M20.3103 111.258C24.8236 112.927 29.8349 110.62 31.5033 106.107C33.1717 101.594 30.8654 96.5823 26.3521 94.9139C21.8387 93.2455 16.8274 95.5518 15.159 100.065C13.4907 104.578 15.7969 109.59 20.3103 111.258Z" fill="#5FB5FF"/>
<path d="M20.5732 106.555L18.0427 101.056C17.8572 100.653 18.0335 100.176 18.4366 99.9909C18.8393 99.8054 19.3164 99.9818 19.502 100.385L21.3608 104.424L28.9566 100.928C29.3596 100.743 29.8367 100.919 30.022 101.322C30.2075 101.725 30.0312 102.202 29.6283 102.387L20.5732 106.555Z" fill="#E9F8FF"/>
<path d="M106.339 251.919C134.808 262.443 166.418 247.896 176.941 219.427C187.465 190.958 172.918 159.349 144.449 148.825C115.98 138.301 84.3707 152.849 73.847 181.317C63.3233 209.786 77.8707 241.396 106.339 251.919Z" fill="#E9F8FF"/>
<path d="M110.044 241.896C132.977 250.373 158.441 238.655 166.918 215.722C175.396 192.789 163.677 167.325 140.744 158.848C117.811 150.371 92.3474 162.089 83.87 185.022C75.3926 207.956 87.1113 233.419 110.044 241.896Z" fill="#B6E9FF"/>
<path d="M206.123 13.8683C223.22 16.2171 238.983 4.26186 241.332 -12.8346C243.681 -29.931 231.725 -45.6945 214.629 -48.0433C197.533 -50.3922 181.769 -38.4368 179.42 -21.3404C177.071 -4.24393 189.027 11.5195 206.123 13.8683Z" fill="#E9F8FF"/>
<path d="M206.95 7.84907C220.722 9.74117 233.421 0.110603 235.313 -13.6615C237.205 -27.4336 227.574 -40.132 213.802 -42.0241C200.03 -43.9162 187.331 -34.2855 185.439 -20.5134C183.547 -6.7413 193.178 5.95699 206.95 7.84907Z" fill="#B6E9FF"/>
<path d="M207.777 1.83003C218.225 3.2654 227.858 -4.04082 229.293 -14.4886C230.729 -24.9364 223.423 -34.5696 212.975 -36.005C202.527 -37.4404 192.894 -30.1344 191.459 -19.6865C190.023 -9.23879 197.329 0.39463 207.777 1.83003Z" fill="#5FB5FF"/>
<path d="M124.095 114.493C141.075 118.319 157.941 107.656 161.767 90.6764C165.593 73.6967 154.93 56.8305 137.95 53.0046C120.971 49.1787 104.104 59.842 100.278 76.8216C96.4526 93.8013 107.116 110.667 124.095 114.493Z" fill="#E9F8FF"/>
<path d="M125.442 108.515C139.12 111.597 152.707 103.007 155.789 89.3294C158.871 75.6514 150.281 62.0647 136.603 58.9827C122.925 55.9008 109.338 64.4906 106.257 78.1686C103.175 91.8467 111.764 105.433 125.442 108.515Z" fill="#B6E9FF"/>
<path d="M126.79 102.537C137.166 104.875 147.473 98.3587 149.811 87.9823C152.149 77.6059 145.633 67.2988 135.256 64.9607C124.88 62.6227 114.573 69.1391 112.235 79.5156C109.897 89.8919 116.413 100.199 126.79 102.537Z" fill="#5FB5FF"/>
<path d="M125.992 92.1545L118.843 80.8454C118.318 80.0165 118.566 78.92 119.395 78.396C120.223 77.872 121.32 78.1191 121.844 78.9479L127.096 87.2557L142.719 77.3783C143.548 76.8545 144.645 77.1016 145.168 77.9303C145.693 78.7591 145.445 79.8557 144.617 80.3797L125.992 92.1545Z" fill="#E9F8FF"/>
<path d="M95.5322 157.545C101.275 133.121 86.1453 108.657 61.7212 102.89C37.2969 97.1237 12.8229 112.237 7.03492 136.651L95.5322 157.545Z" fill="#B924FF"/>
<path d="M259.284 10.2363L194.342 28.2402L212.346 93.1818L277.288 75.1779L259.284 10.2363Z" fill="#0025FF"/>
<path d="M218.998 99.7969L218.865 99.3154L200.727 33.8921L266.632 15.6211L266.765 16.1025L284.903 81.5259L218.998 99.7969ZM201.958 34.5884L219.695 98.5664L283.672 80.8296L265.935 16.8516L201.958 34.5884Z" fill="black"/>
<path d="M102.904 164.147L13.4332 143.022L13.5484 142.536C19.3892 117.896 44.1871 102.584 68.8365 108.404C93.48 114.223 108.815 139.01 103.018 163.66L102.904 164.147ZM14.6392 142.28L102.157 162.943C107.513 138.991 92.5523 115.031 68.606 109.377C44.6607 103.72 20.5611 118.46 14.6392 142.28Z" fill="black"/>
<path d="M151.011 35.785C162.179 13.3171 153.034 -13.9552 130.572 -25.146C108.109 -36.337 80.831 -27.2108 69.6218 -4.76352L151.011 35.785Z" fill="#FF00C1"/>
<path d="M158.235 42.4556L75.9511 1.46103L76.1744 1.01339C87.4866 -21.6414 115.125 -30.8871 137.795 -19.5935C160.459 -8.30167 169.73 19.3325 158.458 42.0073L158.235 42.4556ZM77.2948 1.01334L157.783 41.1132C168.467 19.0162 159.371 -7.72626 137.348 -18.6982C115.327 -29.6737 88.4987 -20.8247 77.2948 1.01334Z" fill="black"/>
<path d="M18.9909 154.516C21.4005 155.565 23.5092 156.994 25.3159 158.804C27.1219 160.614 28.547 162.725 29.5906 165.137C30.6336 167.55 31.1543 170.139 31.1515 172.904C31.1486 175.67 30.6226 178.258 29.5746 180.668C28.526 183.078 27.0966 185.186 25.2869 186.992C23.4765 188.799 21.3648 190.225 18.9531 191.268C16.5407 192.311 13.9519 192.831 11.1861 192.828C8.42093 192.826 5.83256 192.3 3.42297 191.252C1.01205 190.204 -1.09539 188.774 -2.90203 186.963C-4.70866 185.154 -6.1338 183.042 -7.17676 180.63C-8.22106 178.218 -8.74112 175.629 -8.73827 172.863C-8.73542 170.098 -8.21004 167.51 -7.16078 165.099C-6.11286 162.69 -4.68338 160.581 -2.87303 158.775C-1.06267 156.968 1.04771 155.544 3.46078 154.5C5.87252 153.457 8.46196 152.936 11.2271 152.939C13.9929 152.942 16.5806 153.468 18.9909 154.516Z" fill="#FF00C1"/>
<path d="M18.2086 199.329C18.2008 199.329 18.1939 199.329 18.1851 199.329C15.3629 199.326 12.6842 198.781 10.2242 197.71C7.76911 196.643 5.58942 195.165 3.7447 193.316C1.89997 191.469 0.426338 189.286 -0.636162 186.828C-1.70159 184.367 -2.24065 181.687 -2.2387 178.863C-2.23577 176.041 -1.69085 173.361 -0.618584 170.899C0.448799 168.443 1.92731 166.264 3.77302 164.421C5.6197 162.579 7.80231 161.105 10.2623 160.041C12.7203 158.978 15.3922 158.439 18.2047 158.439C18.2125 158.439 18.2193 158.439 18.2281 158.439C21.0474 158.441 23.7261 158.986 26.19 160.057C28.649 161.127 30.8287 162.605 32.6695 164.451C34.5133 166.298 35.9859 168.481 37.0494 170.939C38.1148 173.404 38.6539 176.084 38.6519 178.905C38.649 181.725 38.1041 184.404 37.0338 186.867C35.9644 189.323 34.4859 191.503 32.6402 193.346C30.7916 195.19 28.609 196.664 26.1509 197.727C23.6939 198.79 21.0211 199.329 18.2086 199.329ZM18.2047 159.439C15.5289 159.439 12.9908 159.95 10.6588 160.958C8.31599 161.973 6.23689 163.376 4.48005 165.129C2.72321 166.882 1.31599 168.958 0.298409 171.298C-0.71917 173.634 -1.23577 176.179 -1.2387 178.864C-1.24065 181.55 -0.728935 184.096 0.281807 186.431C1.2945 188.773 2.69685 190.852 4.45173 192.61C6.20759 194.369 8.28376 195.776 10.6226 196.793C12.9566 197.809 15.5015 198.326 18.1871 198.329C18.1939 198.329 18.2017 198.329 18.2086 198.329C20.8843 198.329 23.4224 197.817 25.7545 196.809C28.0963 195.796 30.1754 194.393 31.9332 192.638C33.691 190.884 35.0982 188.809 36.1168 186.468C37.1324 184.131 37.649 181.586 37.6519 178.904C37.6539 176.221 37.1422 173.674 36.1314 171.335C35.1187 168.994 33.7154 166.915 31.9625 165.157C30.2095 163.401 28.1334 161.994 25.7916 160.974C23.4537 159.958 20.9088 159.441 18.2271 159.439C18.2193 159.439 18.2115 159.439 18.2047 159.439Z" fill="black"/>
<path d="M193.991 113.516C196.4 114.565 198.509 115.994 200.316 117.804C202.122 119.614 203.547 121.725 204.591 124.137C205.634 126.55 206.154 129.139 206.151 131.904C206.149 134.67 205.623 137.258 204.575 139.668C203.526 142.078 202.097 144.186 200.287 145.992C198.477 147.799 196.365 149.225 193.953 150.268C191.541 151.311 188.952 151.831 186.186 151.828C183.421 151.826 180.833 151.3 178.423 150.252C176.012 149.204 173.905 147.774 172.098 145.963C170.291 144.154 168.866 142.042 167.823 139.63C166.779 137.218 166.259 134.629 166.262 131.863C166.265 129.098 166.79 126.51 167.839 124.099C168.887 121.69 170.317 119.581 172.127 117.775C173.937 115.968 176.048 114.544 178.461 113.5C180.873 112.457 183.462 111.936 186.227 111.939C188.993 111.942 191.581 112.468 193.991 113.516Z" fill="#0025FF"/>
<path d="M193.209 158.329C193.201 158.329 193.194 158.329 193.185 158.329C190.363 158.326 187.684 157.781 185.224 156.71C182.769 155.643 180.589 154.165 178.745 152.316C176.9 150.469 175.426 148.286 174.364 145.828C173.298 143.367 172.759 140.687 172.761 137.863C172.764 135.041 173.309 132.361 174.381 129.899C175.449 127.443 176.927 125.264 178.773 123.421C180.62 121.579 182.802 120.105 185.262 119.041C187.72 117.978 190.392 117.439 193.205 117.439C193.212 117.439 193.219 117.439 193.228 117.439C196.047 117.441 198.726 117.986 201.19 119.057C203.649 120.127 205.829 121.605 207.669 123.451C209.513 125.298 210.986 127.481 212.049 129.939C213.115 132.404 213.654 135.084 213.652 137.905C213.649 140.725 213.104 143.404 212.034 145.867C210.964 148.323 209.486 150.503 207.64 152.346C205.792 154.19 203.609 155.664 201.151 156.727C198.694 157.79 196.021 158.329 193.209 158.329ZM193.205 118.439C190.529 118.439 187.991 118.95 185.659 119.958C183.316 120.973 181.237 122.376 179.48 124.129C177.723 125.882 176.316 127.958 175.298 130.298C174.281 132.634 173.764 135.179 173.761 137.864C173.759 140.55 174.271 143.096 175.282 145.431C176.294 147.773 177.697 149.852 179.452 151.61C181.208 153.369 183.284 154.776 185.623 155.793C187.957 156.809 190.502 157.326 193.187 157.329C193.194 157.329 193.202 157.329 193.209 157.329C195.884 157.329 198.422 156.817 200.754 155.809C203.096 154.796 205.175 153.393 206.933 151.638C208.691 149.884 210.098 147.809 211.117 145.468C212.132 143.131 212.649 140.586 212.652 137.904C212.654 135.221 212.142 132.674 211.131 130.335C210.119 127.994 208.715 125.915 206.962 124.157C205.21 122.401 203.133 120.994 200.792 119.974C198.454 118.958 195.909 118.441 193.227 118.439C193.219 118.439 193.211 118.439 193.205 118.439Z" fill="black"/>
<path d="M298.363 105.068C303.431 107.274 307.866 110.279 311.665 114.087C315.464 117.893 318.461 122.334 320.656 127.406C322.849 132.481 323.944 137.925 323.938 143.741C323.932 149.557 322.826 154.999 320.622 160.068C318.417 165.137 315.41 169.571 311.604 173.369C307.797 177.169 303.356 180.167 298.284 182.361C293.21 184.556 287.766 185.649 281.949 185.643C276.134 185.637 270.69 184.532 265.623 182.327C260.552 180.123 256.12 177.116 252.32 173.308C248.521 169.502 245.524 165.062 243.33 159.989C241.134 154.915 240.04 149.471 240.046 143.654C240.052 137.839 241.157 132.397 243.364 127.326C245.568 122.259 248.574 117.824 252.381 114.026C256.189 110.226 260.627 107.23 265.702 105.034C270.774 102.841 276.22 101.745 282.035 101.751C287.852 101.757 293.294 102.864 298.363 105.068Z" fill="#FFE600"/>
<path d="M288.988 107.751L289.034 108.751C294.684 108.757 300.043 109.845 304.964 111.985C309.896 114.132 314.268 117.096 317.958 120.793C321.648 124.492 324.603 128.869 326.738 133.803C328.867 138.73 329.944 144.092 329.938 149.74C329.932 155.389 328.845 160.748 326.705 165.67C324.561 170.598 321.598 174.969 317.898 178.661C314.196 182.356 309.819 185.31 304.887 187.443C299.978 189.567 294.632 190.643 288.95 190.643C283.297 190.638 277.938 189.55 273.021 187.41C268.096 185.269 263.725 182.306 260.028 178.602C256.335 174.902 253.381 170.525 251.248 165.592C249.118 160.67 248.04 155.309 248.046 149.655C248.052 144.003 249.14 138.644 251.281 133.725C253.425 128.795 256.388 124.424 260.088 120.733C263.787 117.042 268.165 114.087 273.099 111.952C278.01 109.828 283.355 108.752 288.988 108.751V107.751ZM288.988 107.751C283.191 107.752 277.76 108.847 272.702 111.034C267.627 113.23 263.189 116.226 259.381 120.026C255.574 123.824 252.568 128.259 250.364 133.326C248.157 138.397 247.052 143.839 247.046 149.654C247.04 155.471 248.134 160.915 250.33 165.989C252.524 171.062 255.521 175.502 259.32 179.308C263.12 183.116 267.552 186.123 272.622 188.327C277.69 190.532 283.134 191.637 288.949 191.643C288.965 191.643 288.981 191.643 288.997 191.643C294.795 191.643 300.224 190.55 305.284 188.361C310.356 186.167 314.797 183.169 318.604 179.369C322.41 175.571 325.417 171.137 327.622 166.069C329.826 161 330.932 155.557 330.938 149.741C330.944 143.925 329.849 138.481 327.656 133.406C325.461 128.334 322.464 123.893 318.665 120.087C314.866 116.279 310.431 113.274 305.363 111.068C300.294 108.864 294.852 107.757 289.035 107.751C289.019 107.751 289.004 107.751 288.988 107.751Z" fill="black"/>
<path d="M261.934 172C267.939 172 272.807 167.133 272.807 161.128C272.807 155.123 267.939 150.255 261.934 150.255C255.929 150.255 251.062 155.123 251.062 161.128C251.062 167.133 255.929 172 261.934 172Z" fill="#0025FF"/>
<path d="M62.0195 8.60846L5.76814 16.1571L13.3167 72.4084L69.5681 64.8598L62.0195 8.60846Z" fill="#FFE600"/>
<path d="M68.1614 15.7326L75.444 70.0017L21.1748 77.2843L13.8922 23.0152L68.1614 15.7326ZM69.0195 14.6085L12.7681 22.1571L20.3167 78.4084L76.5681 70.8598L69.0195 14.6085Z" fill="black"/>
<path d="M37.3525 46.8044C41.0475 46.8044 44.0428 43.809 44.0428 40.1141C44.0428 36.4191 41.0475 33.4238 37.3525 33.4238C33.6576 33.4238 30.6623 36.4191 30.6623 40.1141C30.6623 43.809 33.6576 46.8044 37.3525 46.8044Z" fill="#FF00C1"/>
</g>
</svg>
