<svg id="Слой_1" data-name="Слой 1" xmlns="http://www.w3.org/2000/svg" xmlns:xlink="http://www.w3.org/1999/xlink" viewBox="0 0 800 800">
  <defs>
    <style>
      .cls-1, .cls-15 {
        fill: none;
      }

      .cls-2 {
        fill: #000c3f;
      }

      .cls-3 {
        opacity: 0.6;
      }

      .cls-4 {
        fill: #fff;
      }

      .cls-5 {
        opacity: 0.53889;
      }

      .cls-6 {
        opacity: 0.47778;
      }

      .cls-7 {
        opacity: 0.41667;
      }

      .cls-8 {
        opacity: 0.35556;
      }

      .cls-9 {
        opacity: 0.29444;
      }

      .cls-10 {
        opacity: 0.23333;
      }

      .cls-11 {
        opacity: 0.17222;
      }

      .cls-12 {
        opacity: 0.11111;
      }

      .cls-13 {
        opacity: 0.05;
      }

      .cls-14 {
        fill: #ff92d2;
      }

      .cls-15 {
        stroke: #000;
        stroke-linecap: round;
        stroke-linejoin: round;
        stroke-width: 15px;
      }

      .cls-16 {
        clip-path: url(#clip-path);
      }

      .cls-17 {
        fill: #ff00c1;
      }
    </style>
    <clipPath id="clip-path">
      <path class="cls-1" d="M531,1262.6468c-.06675-72.29338-24.21621-130.87845-131-130.87845s-130.93325,58.58507-131,130.87845Z"/>
    </clipPath>
  </defs>
  <title>Обложки для Telegram_Logo_Lectonic</title>
  <rect class="cls-2" width="800" height="800"/>
  <g>
    <g class="cls-3">
      <path class="cls-4" d="M6.2832,5.46888h28.81l22.369,40.29826L79.91844,5.46888h27.76522v64.7568H87.66487V25.40044L62.16261,70.22568H51.28292L25.78066,25.40044V70.22568H6.2832Z"/>
      <path class="cls-4" d="M142.67293,70.22568H123.26271V23.39814h19.23574V31.667a19.93937,19.93937,0,0,1,2.0454-2.52363,20.6059,20.6059,0,0,1,3.69874-3.09016,22.86143,22.86143,0,0,1,5.5276-2.61088,24.42408,24.42408,0,0,1,7.70229-1.08786H162.43a22.02076,22.02076,0,0,1,8.704,1.5661,15.1636,15.1636,0,0,1,5.91861,4.35251,18.277,18.277,0,0,1,3.35083,6.61442,30.50229,30.50229,0,0,1,1.08892,8.35606v2.69811H162.779a17.37192,17.37192,0,0,0-.52239-4.30836,9.69219,9.69219,0,0,0-1.69749-3.56841,8.39917,8.39917,0,0,0-3.09016-2.43744,10.633,10.633,0,0,0-4.61317-.91339h-.08619a9.688,9.688,0,0,0-4.30836.91339,9.51343,9.51343,0,0,0-3.1774,2.48054,10.63189,10.63189,0,0,0-1.95816,3.61255,14.09136,14.09136,0,0,0-.65272,4.30836Z"/>
      <path class="cls-4" d="M195.85318,70.22568H174.87685V54.90625h20.97633Z"/>
      <path class="cls-4" d="M264.00285,19.13392V29.66571h31.68258a11.80769,11.80769,0,0,0,3.48117-.43515,5.53062,5.53062,0,0,0,2.17677-1.1751,3.97885,3.97885,0,0,0,1.08787-1.69749,6.3193,6.3193,0,0,0,.30376-1.91506v-.17343a6.19488,6.19488,0,0,0-.30376-1.9592A3.73177,3.73177,0,0,0,301.34337,20.7a5.92033,5.92033,0,0,0-2.17677-1.131,11.84284,11.84284,0,0,0-3.48117-.43515Zm-20.27946-13.665H299.1666a45.74992,45.74992,0,0,1,11.5324,1.2182,20.416,20.416,0,0,1,7.26819,3.30774,11.62386,11.62386,0,0,1,3.786,4.7435,14.44535,14.44535,0,0,1,1.08786,5.52656v1.21925a11.56244,11.56244,0,0,1-1.1751,5.39622,13.16785,13.16785,0,0,1-6.17928,6.04895,24.1733,24.1733,0,0,1-2.91568,1.1751,32.42533,32.42533,0,0,1,4.04769,1.43577,17.26425,17.26425,0,0,1,4.569,2.87259,16.60417,16.60417,0,0,1,3.74288,4.78765,15.027,15.027,0,0,1,1.56611,7.1799v1.21925a21.23753,21.23753,0,0,1-1.2182,7.22405,13.49142,13.49142,0,0,1-4.30836,5.91861,22.88532,22.88532,0,0,1-8.26882,4.00354A48.21684,48.21684,0,0,1,299.689,70.22568H243.72339ZM264.00285,43.418V56.12549H297.426a11.45948,11.45948,0,0,0,4.09079-.60962,6.30606,6.30606,0,0,0,2.43745-1.56715,5.04435,5.04435,0,0,0,1.1751-2.08849,8.12135,8.12135,0,0,0,.30481-2.08849v-.349a7.93444,7.93444,0,0,0-.30481-2.13158,4.175,4.175,0,0,0-1.1751-1.91506,6.9425,6.9425,0,0,0-2.43745-1.39268A12.27915,12.27915,0,0,0,297.426,43.418Z"/>
      <path class="cls-4" d="M379.93864,47.94392l-18.53993,2.87154a19.028,19.028,0,0,0-5.39623,1.47991,2.99846,2.99846,0,0,0-1.65334,2.87259v.08724a5.01886,5.01886,0,0,0,.391,1.914,4.00936,4.00936,0,0,0,1.39268,1.69749,8.33192,8.33192,0,0,0,2.61192,1.2182,14.76163,14.76163,0,0,0,4.13388.47929,24.07531,24.07531,0,0,0,7.05062-.95753,18.69055,18.69055,0,0,0,5.35208-2.52364,12.10322,12.10322,0,0,0,3.43807-3.56945,7.77777,7.77777,0,0,0,1.21925-4.09079ZM380.46,63.78469a14.7951,14.7951,0,0,1-2.34915,2.17572,21.02729,21.02729,0,0,1-4.13494,2.3933,30.199,30.199,0,0,1-6.26651,1.95921,43.80033,43.80033,0,0,1-8.92154.783h-1.132a34.78361,34.78361,0,0,1-10.05249-1.26234,19.57891,19.57891,0,0,1-6.7458-3.39393,12.81042,12.81042,0,0,1-3.786-4.87489,14.53945,14.53945,0,0,1-1.1751-5.78827V55.168q0-6.44046,4.57008-9.74873,4.569-3.30615,15.10081-4.26421l21.41147-2.0023a4.27914,4.27914,0,0,0,2.30711-.74,2.12378,2.12378,0,0,0,.65272-1.69749,3.28446,3.28446,0,0,0-.30482-1.30543,2.89624,2.89624,0,0,0-1.523-1.26235,13.83078,13.83078,0,0,0-3.65565-.91338,50.20384,50.20384,0,0,0-6.70271-.34791h-.43514a29.49061,29.49061,0,0,0-6.7889.60858,11.17831,11.17831,0,0,0-3.6115,1.43682A3.73921,3.73921,0,0,0,355.437,36.628a8.07139,8.07139,0,0,0-.39205,1.47992H337.02846v-.17343a23.32008,23.32008,0,0,1,.26066-3.35188,10.99767,10.99767,0,0,1,1.17511-3.52426,11.93567,11.93567,0,0,1,2.74225-3.35083,17.31944,17.31944,0,0,1,4.91694-2.87259,35.54887,35.54887,0,0,1,7.70333-2.0023,71.81364,71.81364,0,0,1,11.14036-.74h4.78765a71.9253,71.9253,0,0,1,15.9711,1.38637,23.31723,23.31723,0,0,1,8.66087,3.59468,9.20341,9.20341,0,0,1,3.5684,4.89276A20.70563,20.70563,0,0,1,398.652,37.163v17.842a2.77815,2.77815,0,0,0,.47824,1.69013,2.33529,2.33529,0,0,0,1.95816.64851h2.52468v12.882H387.8585a7.71221,7.71221,0,0,1-4.83075-1.56715A7.2638,7.2638,0,0,1,380.46,63.78469Z"/>
      <path class="cls-4" d="M445.21572,71.53112q-10.00993,0-16.36316-2.30712a27.483,27.483,0,0,1-9.96525-5.83137,18.74553,18.74553,0,0,1-4.96108-7.78952,27.05789,27.05789,0,0,1-1.34958-8.18158V45.681a26.24694,26.24694,0,0,1,1.34958-8.09539,18.38453,18.38453,0,0,1,4.91694-7.615,26.88416,26.88416,0,0,1,9.9232-5.65794q6.35219-2.21988,16.36316-2.21988h4.96108a63.11029,63.11029,0,0,1,12.57717,1.08787,39.5107,39.5107,0,0,1,8.92154,2.82949,21.74534,21.74534,0,0,1,5.9186,3.96046,18.99433,18.99433,0,0,1,3.48117,4.48179,15.06913,15.06913,0,0,1,1.61025,4.3956,20.92793,20.92793,0,0,1,.39205,3.69873v.26172H463.05878a17.58519,17.58519,0,0,0-.74-2.08954,7.99547,7.99547,0,0,0-2.17572-2.82844,13.66,13.66,0,0,0-4.61318-2.48054,24.8597,24.8597,0,0,0-7.964-1.04477h-.26067a22.41381,22.41381,0,0,0-7.09371.95753,12.22617,12.22617,0,0,0-4.57008,2.61192,9.49421,9.49421,0,0,0-2.48054,3.74183,12.70082,12.70082,0,0,0-.7389,4.26527v.60962a14.76506,14.76506,0,0,0,.7389,4.61318,9.97192,9.97192,0,0,0,2.48054,4.00354,12.84824,12.84824,0,0,0,4.61318,2.82845,19.98443,19.98443,0,0,0,7.05061,1.08786h.26067a23.58613,23.58613,0,0,0,7.87782-1.08786A14.77964,14.77964,0,0,0,460.1,55.47278a7.70762,7.70762,0,0,0,2.21882-2.87259,19.32786,19.32786,0,0,0,.74-2.13264h19.93261V50.642a24.69825,24.69825,0,0,1-.349,3.82907,15.15957,15.15957,0,0,1-1.523,4.48284,18.78207,18.78207,0,0,1-3.39392,4.569A21.06617,21.06617,0,0,1,471.85,67.57066a37.84774,37.84774,0,0,1-9.00877,2.87259,65.49665,65.49665,0,0,1-12.83784,1.08787Z"/>
      <path class="cls-4" d="M495.2627,70.22568V5.46888h19.40917V42.1115l18.97508-18.71336h21.49871l-22.10834,21.1508,24.80645,25.67674H535.03962L514.67187,48.727V70.22568Z"/>
      <path class="cls-4" d="M594.57362,32.97239q-7.31076,0-10.87969,2.08954a9.91874,9.91874,0,0,0-4.70041,5.83137H610.3282a9.19553,9.19553,0,0,0-4.61317-5.83137q-3.65617-2.089-11.05417-2.08954Zm35.07651,20.8029a16.68888,16.68888,0,0,1-1.08786,5.43932,13.43771,13.43771,0,0,1-4.48284,5.83242,28.26073,28.26073,0,0,1-9.74768,4.61212q-6.35533,1.87145-16.7983,1.872h-4.96213a52.64921,52.64921,0,0,1-15.71043-2.0023,28.11385,28.11385,0,0,1-10.13973-5.35208,19.32583,19.32583,0,0,1-5.48347-7.66025,24.68056,24.68056,0,0,1-1.65334-8.92153V45.681a25.56957,25.56957,0,0,1,1.523-8.7481,18.44166,18.44166,0,0,1,5.2228-7.52886,27.19,27.19,0,0,1,9.96525-5.309A52.59717,52.59717,0,0,1,592.05,22.0927h5.309q10.26849,0,16.668,2.35021a26.00361,26.00361,0,0,1,9.92216,6.00585,18.72026,18.72026,0,0,1,4.7435,8.13848,33.2772,33.2772,0,0,1,1.21925,8.74705v3.2205H578.64562a10.41443,10.41443,0,0,0,4.70041,6.67854q3.828,2.54781,11.83722,2.54781h.08724a30.73691,30.73691,0,0,0,7.74643-.79462,17.88957,17.88957,0,0,0,4.61212-1.811,5.68521,5.68521,0,0,0,2.87259-3.48747h19.1485Z"/>
      <path class="cls-4" d="M642.35764,23.39814h19.23574v8.00815q.86873-.86872,2.655-2.3933a24.88145,24.88145,0,0,1,4.61212-3.00293,34.39,34.39,0,0,1,6.79-2.56778,34.81185,34.81185,0,0,1,9.1822-1.08786h.60962a30.96186,30.96186,0,0,1,10.44454,1.5661,19.90773,19.90773,0,0,1,7.09371,4.178,16.09158,16.09158,0,0,1,4.00355,5.87552,18.35331,18.35331,0,0,1,1.26235,6.65856V70.22568h-19.5847V46.958q0-5.42355-3.046-8.57258-3.0476-3.15007-9.487-3.15007-6.52717,0-10.44454,3.50008a11.83037,11.83037,0,0,0-3.91736,9.27154v22.2187H642.35764Z"/>
      <path class="cls-4" d="M774.22039,46.55124a9.24075,9.24075,0,0,0-1.17511-4.43974,12.19336,12.19336,0,0,0-3.39392-3.87322,17.23164,17.23164,0,0,0-5.5707-2.69811,26.65721,26.65721,0,0,0-7.6161-1.00062h-.43515a24.49525,24.49525,0,0,0-7.61609,1.00062,12.23645,12.23645,0,0,0-4.74351,2.69811,9.741,9.741,0,0,0-2.48054,3.87322,13.691,13.691,0,0,0-.74,4.43974v.34791a11.43672,11.43672,0,0,0,.87029,4.26527,10.79977,10.79977,0,0,0,2.74226,3.9163,14.07943,14.07943,0,0,0,4.87384,2.82845,21.4013,21.4013,0,0,0,7.26819,1.08786h.43515a25.06379,25.06379,0,0,0,7.6161-1.04371,17.97192,17.97192,0,0,0,5.48346-2.74226,11.67256,11.67256,0,0,0,3.35083-3.87322,9.52219,9.52219,0,0,0,1.131-4.43869ZM793.7168,5.46888v64.7568H774.39487V63.08782a15.3707,15.3707,0,0,1-2.08954,2.0454,21.35858,21.35858,0,0,1-4.35146,2.74225,34.58308,34.58308,0,0,1-6.91923,2.43745,40.38085,40.38085,0,0,1-9.79183,1.04372h-1.132a41.45282,41.45282,0,0,1-13.40437-1.91506,25.319,25.319,0,0,1-9.138-5.22175,20.47066,20.47066,0,0,1-5.26589-7.65919,25.39326,25.39326,0,0,1-1.69749-9.31359V45.59371a26.06331,26.06331,0,0,1,1.523-8.92153,18.87112,18.87112,0,0,1,4.96108-7.44162,24.365,24.365,0,0,1,8.92153-5.09246,41.533,41.533,0,0,1,13.31713-1.87092h1.39268a45.88313,45.88313,0,0,1,9.53011.87029,37.5993,37.5993,0,0,1,6.87613,2.08849,24.26344,24.26344,0,0,1,4.57008,2.48159q1.739,1.26129,2.52364,1.95816V5.46888Z"/>
    </g>
    <g class="cls-5">
      <polygon class="cls-4" points="6.283 85.802 35.093 85.802 57.462 126.1 79.918 85.802 107.684 85.802 107.684 150.559 87.665 150.559 87.665 105.734 62.163 150.559 51.283 150.559 25.781 105.734 25.781 150.559 6.283 150.559 6.283 85.802"/>
      <path class="cls-4" d="M142.67293,150.559H123.26271V103.73147h19.23574v8.26882a19.93932,19.93932,0,0,1,2.0454-2.52364,20.60631,20.60631,0,0,1,3.69874-3.09016,22.86106,22.86106,0,0,1,5.5276-2.61087,24.42406,24.42406,0,0,1,7.70229-1.08787H162.43a22.02058,22.02058,0,0,1,8.704,1.56611,15.16358,15.16358,0,0,1,5.91861,4.3525,18.277,18.277,0,0,1,3.35083,6.61443,30.50216,30.50216,0,0,1,1.08892,8.35605V126.275H162.779a17.372,17.372,0,0,0-.52239-4.30836,9.69222,9.69222,0,0,0-1.69749-3.5684,8.3992,8.3992,0,0,0-3.09016-2.43745,10.633,10.633,0,0,0-4.61317-.91338h-.08619a9.688,9.688,0,0,0-4.30836.91338,9.51355,9.51355,0,0,0-3.1774,2.48054,10.632,10.632,0,0,0-1.95816,3.61255,14.09145,14.09145,0,0,0-.65272,4.30836Z"/>
      <rect class="cls-4" x="174.87685" y="135.23958" width="20.97632" height="15.31943"/>
      <path class="cls-4" d="M264.00285,99.46726V109.999h31.68258a11.80769,11.80769,0,0,0,3.48117-.43515,5.53037,5.53037,0,0,0,2.17677-1.1751,3.97873,3.97873,0,0,0,1.08787-1.69749,6.31925,6.31925,0,0,0,.30376-1.91506v-.17342a6.19489,6.19489,0,0,0-.30376-1.95921,3.73189,3.73189,0,0,0-1.08787-1.61025,5.92048,5.92048,0,0,0-2.17677-1.131,11.84321,11.84321,0,0,0-3.48117-.43514Zm-20.27946-13.665H299.1666a45.74946,45.74946,0,0,1,11.5324,1.2182,20.41617,20.41617,0,0,1,7.26819,3.30773,11.624,11.624,0,0,1,3.786,4.74351,14.44531,14.44531,0,0,1,1.08786,5.52656v1.21924a11.56251,11.56251,0,0,1-1.1751,5.39623,13.16789,13.16789,0,0,1-6.17928,6.04894,24.17,24.17,0,0,1-2.91568,1.1751,32.42533,32.42533,0,0,1,4.04769,1.43577,17.26476,17.26476,0,0,1,4.569,2.87259,16.60422,16.60422,0,0,1,3.74288,4.78766,15.027,15.027,0,0,1,1.56611,7.1799v1.21924a21.23753,21.23753,0,0,1-1.2182,7.22405,13.49131,13.49131,0,0,1-4.30836,5.91861,22.88549,22.88549,0,0,1-8.26882,4.00355A48.21688,48.21688,0,0,1,299.689,150.559H243.72339Zm20.27946,37.9491v12.70751H297.426a11.45946,11.45946,0,0,0,4.09079-.60963,6.30584,6.30584,0,0,0,2.43745-1.56715,5.04429,5.04429,0,0,0,1.1751-2.08849,8.12129,8.12129,0,0,0,.30481-2.08849v-.349a7.93451,7.93451,0,0,0-.30481-2.13159,4.17507,4.17507,0,0,0-1.1751-1.91506,6.9425,6.9425,0,0,0-2.43745-1.39267,12.27889,12.27889,0,0,0-4.09079-.56548Z"/>
      <path class="cls-4" d="M379.93864,128.27725l-18.53993,2.87154a19.02793,19.02793,0,0,0-5.39623,1.47992,2.99844,2.99844,0,0,0-1.65334,2.87259v.08724a5.01894,5.01894,0,0,0,.391,1.914A4.00939,4.00939,0,0,0,356.13282,139.2a8.33169,8.33169,0,0,0,2.61192,1.2182,14.76163,14.76163,0,0,0,4.13388.47929,24.075,24.075,0,0,0,7.05062-.95753,18.69054,18.69054,0,0,0,5.35208-2.52363,12.10325,12.10325,0,0,0,3.43807-3.56946,7.77774,7.77774,0,0,0,1.21925-4.09078ZM380.46,144.118a14.79509,14.79509,0,0,1-2.34915,2.17573,21.02779,21.02779,0,0,1-4.13494,2.3933,30.19905,30.19905,0,0,1-6.26651,1.9592,43.79962,43.79962,0,0,1-8.92154.78305h-1.132a34.78361,34.78361,0,0,1-10.05249-1.26234,19.57908,19.57908,0,0,1-6.7458-3.39392,12.8105,12.8105,0,0,1-3.786-4.87489,14.5395,14.5395,0,0,1-1.1751-5.78828v-.60857q0-6.44047,4.57008-9.74873,4.569-3.30617,15.10081-4.26422l21.41147-2.0023a4.27914,4.27914,0,0,0,2.30711-.74,2.12377,2.12377,0,0,0,.65272-1.69748,3.2845,3.2845,0,0,0-.30482-1.30544,2.89628,2.89628,0,0,0-1.523-1.26234,13.83033,13.83033,0,0,0-3.65565-.91339,50.20584,50.20584,0,0,0-6.70271-.3479h-.43514a29.49127,29.49127,0,0,0-6.7889.60857,11.17876,11.17876,0,0,0-3.6115,1.43682,3.73923,3.73923,0,0,0-1.47992,1.69644,8.07132,8.07132,0,0,0-.39205,1.47991H337.02846v-.17342a23.32022,23.32022,0,0,1,.26066-3.35189,10.99761,10.99761,0,0,1,1.17511-3.52425,11.93553,11.93553,0,0,1,2.74225-3.35083,17.31968,17.31968,0,0,1,4.91694-2.8726,35.54887,35.54887,0,0,1,7.70333-2.0023,71.81377,71.81377,0,0,1,11.14036-.73995h4.78765a71.9247,71.9247,0,0,1,15.9711,1.38637,23.31689,23.31689,0,0,1,8.66087,3.59468,9.20334,9.20334,0,0,1,3.5684,4.89276,20.70557,20.70557,0,0,1,.69686,5.19652v17.842a2.77813,2.77813,0,0,0,.47824,1.69013,2.33529,2.33529,0,0,0,1.95816.64852h2.52468v12.882H387.8585a7.71215,7.71215,0,0,1-4.83075-1.56715A7.26378,7.26378,0,0,1,380.46,144.118Z"/>
      <path class="cls-4" d="M445.21572,151.86445q-10.00993,0-16.36316-2.30711a27.48332,27.48332,0,0,1-9.96525-5.83137,18.74563,18.74563,0,0,1-4.96108-7.78953,27.05788,27.05788,0,0,1-1.34958-8.18157v-1.74058a26.24684,26.24684,0,0,1,1.34958-8.09539,18.38462,18.38462,0,0,1,4.91694-7.615,26.88416,26.88416,0,0,1,9.9232-5.65794q6.35219-2.21988,16.36316-2.21987h4.96108a63.11036,63.11036,0,0,1,12.57717,1.08786,39.51017,39.51017,0,0,1,8.92154,2.8295,21.74555,21.74555,0,0,1,5.9186,3.96045,18.99474,18.99474,0,0,1,3.48117,4.48179,15.06934,15.06934,0,0,1,1.61025,4.3956,20.92812,20.92812,0,0,1,.39205,3.69874v.26171H463.05878a17.58519,17.58519,0,0,0-.74-2.08953,7.9955,7.9955,0,0,0-2.17572-2.82845,13.66,13.66,0,0,0-4.61318-2.48054,24.86,24.86,0,0,0-7.964-1.04477h-.26067a22.4141,22.4141,0,0,0-7.09371.95753,12.22632,12.22632,0,0,0-4.57008,2.61193,9.49407,9.49407,0,0,0-2.48054,3.74183,12.70076,12.70076,0,0,0-.7389,4.26526v.60963a14.765,14.765,0,0,0,.7389,4.61317,9.972,9.972,0,0,0,2.48054,4.00355,12.84823,12.84823,0,0,0,4.61318,2.82844,19.98419,19.98419,0,0,0,7.05061,1.08787h.26067a23.58585,23.58585,0,0,0,7.87782-1.08787A14.77964,14.77964,0,0,0,460.1,135.80611a7.70762,7.70762,0,0,0,2.21882-2.87259,19.32787,19.32787,0,0,0,.74-2.13263h19.93261v.17447a24.69825,24.69825,0,0,1-.349,3.82907,15.15957,15.15957,0,0,1-1.523,4.48284,18.78169,18.78169,0,0,1-3.39392,4.569A21.066,21.066,0,0,1,471.85,147.904a37.84865,37.84865,0,0,1-9.00877,2.87259,65.49672,65.49672,0,0,1-12.83784,1.08786Z"/>
      <polygon class="cls-4" points="495.263 150.559 495.263 85.802 514.672 85.802 514.672 122.445 533.647 103.731 555.146 103.731 533.037 124.882 557.844 150.559 535.04 150.559 514.672 129.06 514.672 150.559 495.263 150.559"/>
      <path class="cls-4" d="M594.57362,113.30572q-7.31076,0-10.87969,2.08954a9.91874,9.91874,0,0,0-4.70041,5.83137H610.3282a9.19553,9.19553,0,0,0-4.61317-5.83137q-3.65617-2.089-11.05417-2.08954Zm35.07651,20.8029a16.68883,16.68883,0,0,1-1.08786,5.43932,13.43771,13.43771,0,0,1-4.48284,5.83242,28.26054,28.26054,0,0,1-9.74768,4.61212q-6.35533,1.87144-16.7983,1.872h-4.96213a52.64888,52.64888,0,0,1-15.71043-2.0023,28.1137,28.1137,0,0,1-10.13973-5.35208,19.32587,19.32587,0,0,1-5.48347-7.66024,24.68062,24.68062,0,0,1-1.65334-8.92154v-1.914a25.56962,25.56962,0,0,1,1.523-8.74811,18.44166,18.44166,0,0,1,5.2228-7.52886,27.19,27.19,0,0,1,9.96525-5.309A52.59684,52.59684,0,0,1,592.05,102.426h5.309q10.26849,0,16.668,2.3502a26.00386,26.00386,0,0,1,9.92216,6.00585,18.72032,18.72032,0,0,1,4.7435,8.13848,33.27728,33.27728,0,0,1,1.21925,8.74706v3.2205H578.64562a10.41443,10.41443,0,0,0,4.70041,6.67853q3.828,2.54781,11.83722,2.54781h.08724a30.73744,30.73744,0,0,0,7.74643-.79461,17.88954,17.88954,0,0,0,4.61212-1.811,5.68521,5.68521,0,0,0,2.87259-3.48747h19.1485Z"/>
      <path class="cls-4" d="M642.35764,103.73147h19.23574v8.00815q.86873-.86871,2.655-2.3933a24.88145,24.88145,0,0,1,4.61212-3.00292,34.38942,34.38942,0,0,1,6.79-2.56778,34.81183,34.81183,0,0,1,9.1822-1.08787h.60962a30.96159,30.96159,0,0,1,10.44454,1.56611,19.90758,19.90758,0,0,1,7.09371,4.178,16.09155,16.09155,0,0,1,4.00355,5.87551,18.35336,18.35336,0,0,1,1.26235,6.65857v29.593h-19.5847V127.29134q0-5.42355-3.046-8.57257-3.0476-3.15008-9.487-3.15008-6.52717,0-10.44454,3.50008a11.8304,11.8304,0,0,0-3.91736,9.27155V150.559H642.35764Z"/>
      <path class="cls-4" d="M774.22039,126.88458a9.24079,9.24079,0,0,0-1.17511-4.43975,12.19333,12.19333,0,0,0-3.39392-3.87321,17.23185,17.23185,0,0,0-5.5707-2.69812,26.65721,26.65721,0,0,0-7.6161-1.00062h-.43515a24.49525,24.49525,0,0,0-7.61609,1.00062,12.23659,12.23659,0,0,0-4.74351,2.69812,9.741,9.741,0,0,0-2.48054,3.87321,13.691,13.691,0,0,0-.74,4.43975v.3479a11.43668,11.43668,0,0,0,.87029,4.26527,10.79989,10.79989,0,0,0,2.74226,3.91631,14.07942,14.07942,0,0,0,4.87384,2.82844,21.401,21.401,0,0,0,7.26819,1.08787h.43515a25.06377,25.06377,0,0,0,7.6161-1.04372,17.97169,17.97169,0,0,0,5.48346-2.74226,11.67262,11.67262,0,0,0,3.35083-3.87321,9.52223,9.52223,0,0,0,1.131-4.4387ZM793.7168,85.80222V150.559H774.39487v-7.13785a15.3714,15.3714,0,0,1-2.08954,2.04539,21.35857,21.35857,0,0,1-4.35146,2.74226,34.58311,34.58311,0,0,1-6.91923,2.43744,40.38035,40.38035,0,0,1-9.79183,1.04372h-1.132a41.45255,41.45255,0,0,1-13.40437-1.91506,25.3189,25.3189,0,0,1-9.138-5.22175,20.47058,20.47058,0,0,1-5.26589-7.65919,25.39321,25.39321,0,0,1-1.69749-9.31358v-1.65334a26.06337,26.06337,0,0,1,1.523-8.92154,18.87112,18.87112,0,0,1,4.96108-7.44162,24.36514,24.36514,0,0,1,8.92153-5.09246,41.533,41.533,0,0,1,13.31713-1.87091h1.39268a45.88245,45.88245,0,0,1,9.53011.87029,37.59856,37.59856,0,0,1,6.87613,2.08848,24.26341,24.26341,0,0,1,4.57008,2.4816q1.739,1.26129,2.52364,1.95815V85.80222Z"/>
    </g>
    <g class="cls-6">
      <polygon class="cls-4" points="6.283 166.136 35.093 166.136 57.462 206.434 79.918 166.136 107.684 166.136 107.684 230.892 87.665 230.892 87.665 186.067 62.163 230.892 51.283 230.892 25.781 186.067 25.781 230.892 6.283 230.892 6.283 166.136"/>
      <path class="cls-4" d="M142.67293,230.89235H123.26271V184.06481h19.23574v8.26881a19.93937,19.93937,0,0,1,2.0454-2.52363,20.60633,20.60633,0,0,1,3.69874-3.09017,22.86181,22.86181,0,0,1,5.5276-2.61087,24.42408,24.42408,0,0,1,7.70229-1.08786H162.43a22.02058,22.02058,0,0,1,8.704,1.5661,15.1636,15.1636,0,0,1,5.91861,4.35251,18.277,18.277,0,0,1,3.35083,6.61442,30.50221,30.50221,0,0,1,1.08892,8.356v2.69812H162.779a17.37206,17.37206,0,0,0-.52239-4.30837,9.69222,9.69222,0,0,0-1.69749-3.5684,8.39907,8.39907,0,0,0-3.09016-2.43744,10.63287,10.63287,0,0,0-4.61317-.91339h-.08619a9.68782,9.68782,0,0,0-4.30836.91339,9.51343,9.51343,0,0,0-3.1774,2.48054,10.63194,10.63194,0,0,0-1.95816,3.61254,14.09145,14.09145,0,0,0-.65272,4.30836Z"/>
      <rect class="cls-4" x="174.87685" y="215.57291" width="20.97632" height="15.31943"/>
      <path class="cls-4" d="M264.00285,179.80059v10.53178h31.68258a11.80772,11.80772,0,0,0,3.48117-.43514,5.5305,5.5305,0,0,0,2.17677-1.17511,3.97876,3.97876,0,0,0,1.08787-1.69748,6.31935,6.31935,0,0,0,.30376-1.91506v-.17343a6.195,6.195,0,0,0-.30376-1.95921,3.73189,3.73189,0,0,0-1.08787-1.61025,5.92033,5.92033,0,0,0-2.17677-1.131,11.84284,11.84284,0,0,0-3.48117-.43515Zm-20.27946-13.665H299.1666a45.74992,45.74992,0,0,1,11.5324,1.2182,20.41617,20.41617,0,0,1,7.26819,3.30773,11.624,11.624,0,0,1,3.786,4.74351,14.44531,14.44531,0,0,1,1.08786,5.52656v1.21925a11.56244,11.56244,0,0,1-1.1751,5.39622,13.16789,13.16789,0,0,1-6.17928,6.04894,24.172,24.172,0,0,1-2.91568,1.17511,32.4237,32.4237,0,0,1,4.04769,1.43577,17.26425,17.26425,0,0,1,4.569,2.87259,16.60417,16.60417,0,0,1,3.74288,4.78765,15.027,15.027,0,0,1,1.56611,7.1799v1.21925a21.23747,21.23747,0,0,1-1.2182,7.224,13.49131,13.49131,0,0,1-4.30836,5.91861,22.88533,22.88533,0,0,1-8.26882,4.00355,48.21684,48.21684,0,0,1-13.01232,1.47992H243.72339Zm20.27946,37.9491v12.70751H297.426a11.45971,11.45971,0,0,0,4.09079-.60962,6.306,6.306,0,0,0,2.43745-1.56716,5.04422,5.04422,0,0,0,1.1751-2.08849,8.12128,8.12128,0,0,0,.30481-2.08848v-.349a7.93444,7.93444,0,0,0-.30481-2.13158,4.175,4.175,0,0,0-1.1751-1.91506,6.94235,6.94235,0,0,0-2.43745-1.39268,12.27889,12.27889,0,0,0-4.09079-.56548Z"/>
      <path class="cls-4" d="M379.93864,208.61059l-18.53993,2.87154a19.028,19.028,0,0,0-5.39623,1.47991,2.99845,2.99845,0,0,0-1.65334,2.87259v.08724a5.0189,5.0189,0,0,0,.391,1.914,4.00942,4.00942,0,0,0,1.39268,1.69749,8.33191,8.33191,0,0,0,2.61192,1.21819,14.76159,14.76159,0,0,0,4.13388.4793,24.07531,24.07531,0,0,0,7.05062-.95753,18.69082,18.69082,0,0,0,5.35208-2.52364,12.10322,12.10322,0,0,0,3.43807-3.56945,7.77777,7.77777,0,0,0,1.21925-4.09079Zm.52133,15.84076a14.79462,14.79462,0,0,1-2.34915,2.17573,21.02779,21.02779,0,0,1-4.13494,2.3933,30.19962,30.19962,0,0,1-6.26651,1.95921,43.80033,43.80033,0,0,1-8.92154.78305h-1.132a34.78361,34.78361,0,0,1-10.05249-1.26234,19.57909,19.57909,0,0,1-6.7458-3.39393,12.8105,12.8105,0,0,1-3.786-4.87489,14.53947,14.53947,0,0,1-1.1751-5.78828v-.60857q0-6.44046,4.57008-9.74873,4.569-3.30617,15.10081-4.26421l21.41147-2.0023a4.27914,4.27914,0,0,0,2.30711-.74,2.1238,2.1238,0,0,0,.65272-1.69749,3.28454,3.28454,0,0,0-.30482-1.30544,2.89628,2.89628,0,0,0-1.523-1.26234,13.83039,13.83039,0,0,0-3.65565-.91338,50.20384,50.20384,0,0,0-6.70271-.34791h-.43514a29.49127,29.49127,0,0,0-6.7889.60857,11.17876,11.17876,0,0,0-3.6115,1.43682,3.73928,3.73928,0,0,0-1.47992,1.69644,8.07139,8.07139,0,0,0-.39205,1.47992H337.02846v-.17343a23.32008,23.32008,0,0,1,.26066-3.35188,10.99767,10.99767,0,0,1,1.17511-3.52426,11.93567,11.93567,0,0,1,2.74225-3.35083,17.31944,17.31944,0,0,1,4.91694-2.87259,35.54829,35.54829,0,0,1,7.70333-2.0023,71.8124,71.8124,0,0,1,11.14036-.74h4.78765a71.9247,71.9247,0,0,1,15.9711,1.38637,23.31706,23.31706,0,0,1,8.66087,3.59468,9.20341,9.20341,0,0,1,3.5684,4.89276,20.70557,20.70557,0,0,1,.69686,5.19652v17.842a2.77813,2.77813,0,0,0,.47824,1.69013,2.33526,2.33526,0,0,0,1.95816.64852h2.52468v12.882H387.8585a7.71216,7.71216,0,0,1-4.83075-1.56716A7.26378,7.26378,0,0,1,380.46,224.45135Z"/>
      <path class="cls-4" d="M445.21572,232.19778q-10.00993,0-16.36316-2.30711a27.483,27.483,0,0,1-9.96525-5.83137,18.74553,18.74553,0,0,1-4.96108-7.78952,27.05794,27.05794,0,0,1-1.34958-8.18158v-1.74058a26.24684,26.24684,0,0,1,1.34958-8.09539,18.38462,18.38462,0,0,1,4.91694-7.615,26.88444,26.88444,0,0,1,9.9232-5.65794q6.35219-2.21987,16.36316-2.21987h4.96108a63.11036,63.11036,0,0,1,12.57717,1.08786,39.51067,39.51067,0,0,1,8.92154,2.8295,21.74555,21.74555,0,0,1,5.9186,3.96045,18.99474,18.99474,0,0,1,3.48117,4.48179,15.06934,15.06934,0,0,1,1.61025,4.3956,20.92812,20.92812,0,0,1,.39205,3.69874v.26172H463.05878a17.58456,17.58456,0,0,0-.74-2.08954,7.9955,7.9955,0,0,0-2.17572-2.82845,13.66015,13.66015,0,0,0-4.61318-2.48054,24.86,24.86,0,0,0-7.964-1.04477h-.26067a22.4141,22.4141,0,0,0-7.09371.95753,12.22632,12.22632,0,0,0-4.57008,2.61193,9.49414,9.49414,0,0,0-2.48054,3.74183,12.70077,12.70077,0,0,0-.7389,4.26527v.60962a14.765,14.765,0,0,0,.7389,4.61317,9.972,9.972,0,0,0,2.48054,4.00355,12.84838,12.84838,0,0,0,4.61318,2.82845,19.98443,19.98443,0,0,0,7.05061,1.08786h.26067a23.58613,23.58613,0,0,0,7.87782-1.08786A14.77984,14.77984,0,0,0,460.1,216.13944a7.70762,7.70762,0,0,0,2.21882-2.87259,19.32715,19.32715,0,0,0,.74-2.13263h19.93261v.17448a24.69836,24.69836,0,0,1-.349,3.82907,15.15977,15.15977,0,0,1-1.523,4.48284,18.78184,18.78184,0,0,1-3.39392,4.569,21.066,21.066,0,0,1-5.87552,4.0477,37.84774,37.84774,0,0,1-9.00877,2.87259,65.49672,65.49672,0,0,1-12.83784,1.08786Z"/>
      <polygon class="cls-4" points="495.263 230.892 495.263 166.136 514.672 166.136 514.672 202.778 533.647 184.065 555.146 184.065 533.037 205.216 557.844 230.892 535.04 230.892 514.672 209.394 514.672 230.892 495.263 230.892"/>
      <path class="cls-4" d="M594.57362,193.63906q-7.31076,0-10.87969,2.08954a9.91868,9.91868,0,0,0-4.70041,5.83137H610.3282a9.19548,9.19548,0,0,0-4.61317-5.83137q-3.65617-2.089-11.05417-2.08954Zm35.07651,20.8029a16.68878,16.68878,0,0,1-1.08786,5.43931,13.43771,13.43771,0,0,1-4.48284,5.83242,28.26054,28.26054,0,0,1-9.74768,4.61213q-6.35533,1.87143-16.7983,1.872h-4.96213a52.64888,52.64888,0,0,1-15.71043-2.0023,28.11355,28.11355,0,0,1-10.13973-5.35208,19.3258,19.3258,0,0,1-5.48347-7.66024,24.68056,24.68056,0,0,1-1.65334-8.92153v-1.914a25.56967,25.56967,0,0,1,1.523-8.74811,18.44166,18.44166,0,0,1,5.2228-7.52886,27.19011,27.19011,0,0,1,9.96525-5.309,52.59684,52.59684,0,0,1,15.75458-2.0023h5.309q10.26849,0,16.668,2.35021a26.00372,26.00372,0,0,1,9.92216,6.00584,18.72035,18.72035,0,0,1,4.7435,8.13849,33.2772,33.2772,0,0,1,1.21925,8.74705v3.2205H578.64562A10.41443,10.41443,0,0,0,583.346,217.9q3.828,2.5478,11.83722,2.5478h.08724a30.73744,30.73744,0,0,0,7.74643-.79461,17.88957,17.88957,0,0,0,4.61212-1.811,5.68521,5.68521,0,0,0,2.87259-3.48747h19.1485Z"/>
      <path class="cls-4" d="M642.35764,184.06481h19.23574V192.073q.86873-.86871,2.655-2.3933a24.882,24.882,0,0,1,4.61212-3.00292,34.39,34.39,0,0,1,6.79-2.56778,34.81185,34.81185,0,0,1,9.1822-1.08786h.60962a30.96161,30.96161,0,0,1,10.44454,1.5661,19.90773,19.90773,0,0,1,7.09371,4.178,16.09163,16.09163,0,0,1,4.00355,5.87551,18.35336,18.35336,0,0,1,1.26235,6.65857v29.59305h-19.5847V207.62468q0-5.42356-3.046-8.57258-3.0476-3.15007-9.487-3.15008-6.52717,0-10.44454,3.50009a11.83037,11.83037,0,0,0-3.91736,9.27154v22.2187H642.35764Z"/>
      <path class="cls-4" d="M774.22039,207.21791a9.24082,9.24082,0,0,0-1.17511-4.43975,12.19344,12.19344,0,0,0-3.39392-3.87321,17.23164,17.23164,0,0,0-5.5707-2.69811,26.65685,26.65685,0,0,0-7.6161-1.00063h-.43515a24.49493,24.49493,0,0,0-7.61609,1.00063,12.23645,12.23645,0,0,0-4.74351,2.69811,9.741,9.741,0,0,0-2.48054,3.87321,13.69107,13.69107,0,0,0-.74,4.43975v.34791a11.43663,11.43663,0,0,0,.87029,4.26526,10.79981,10.79981,0,0,0,2.74226,3.91631,14.07943,14.07943,0,0,0,4.87384,2.82845,21.4013,21.4013,0,0,0,7.26819,1.08786h.43515a25.06377,25.06377,0,0,0,7.6161-1.04372,17.97191,17.97191,0,0,0,5.48346-2.74225,11.67256,11.67256,0,0,0,3.35083-3.87322,9.52219,9.52219,0,0,0,1.131-4.43869Zm19.49641-41.08236v64.7568H774.39487v-7.13786a15.37079,15.37079,0,0,1-2.08954,2.04539,21.35814,21.35814,0,0,1-4.35146,2.74226,34.5837,34.5837,0,0,1-6.91923,2.43745,40.38088,40.38088,0,0,1-9.79183,1.04371h-1.132a41.45255,41.45255,0,0,1-13.40437-1.91506,25.31888,25.31888,0,0,1-9.138-5.22174,20.47066,20.47066,0,0,1-5.26589-7.65919,25.39326,25.39326,0,0,1-1.69749-9.31359v-1.65334a26.06331,26.06331,0,0,1,1.523-8.92153,18.87112,18.87112,0,0,1,4.96108-7.44162,24.365,24.365,0,0,1,8.92153-5.09247,41.53331,41.53331,0,0,1,13.31713-1.87091h1.39268a45.88313,45.88313,0,0,1,9.53011.87029,37.59852,37.59852,0,0,1,6.87613,2.08849,24.26344,24.26344,0,0,1,4.57008,2.48159q1.739,1.26129,2.52364,1.95815V166.13555Z"/>
    </g>
    <g class="cls-7">
      <polygon class="cls-4" points="6.283 246.469 35.093 246.469 57.462 286.767 79.918 246.469 107.684 246.469 107.684 311.226 87.665 311.226 87.665 266.4 62.163 311.226 51.283 311.226 25.781 266.4 25.781 311.226 6.283 311.226 6.283 246.469"/>
      <path class="cls-4" d="M142.67293,311.22568H123.26271V264.39814h19.23574V272.667a19.93937,19.93937,0,0,1,2.0454-2.52363,20.6059,20.6059,0,0,1,3.69874-3.09016,22.86143,22.86143,0,0,1,5.5276-2.61088,24.42408,24.42408,0,0,1,7.70229-1.08786H162.43a22.02076,22.02076,0,0,1,8.704,1.5661,15.1636,15.1636,0,0,1,5.91861,4.35251,18.277,18.277,0,0,1,3.35083,6.61442,30.50229,30.50229,0,0,1,1.08892,8.35606v2.69811H162.779a17.37192,17.37192,0,0,0-.52239-4.30836,9.69219,9.69219,0,0,0-1.69749-3.56841,8.39917,8.39917,0,0,0-3.09016-2.43744,10.633,10.633,0,0,0-4.61317-.91339h-.08619a9.688,9.688,0,0,0-4.30836.91339,9.51343,9.51343,0,0,0-3.1774,2.48054,10.63189,10.63189,0,0,0-1.95816,3.61255,14.09136,14.09136,0,0,0-.65272,4.30836Z"/>
      <rect class="cls-4" x="174.87685" y="295.90625" width="20.97632" height="15.31943"/>
      <path class="cls-4" d="M264.00285,260.13392v10.53179h31.68258a11.80769,11.80769,0,0,0,3.48117-.43515,5.53062,5.53062,0,0,0,2.17677-1.1751,3.97885,3.97885,0,0,0,1.08787-1.69749,6.3193,6.3193,0,0,0,.30376-1.91506v-.17343a6.19488,6.19488,0,0,0-.30376-1.9592A3.73177,3.73177,0,0,0,301.34337,261.7a5.92033,5.92033,0,0,0-2.17677-1.131,11.84284,11.84284,0,0,0-3.48117-.43515Zm-20.27946-13.665H299.1666a45.74992,45.74992,0,0,1,11.5324,1.2182,20.416,20.416,0,0,1,7.26819,3.30774,11.62386,11.62386,0,0,1,3.786,4.7435,14.44535,14.44535,0,0,1,1.08786,5.52656v1.21925a11.56244,11.56244,0,0,1-1.1751,5.39622,13.16785,13.16785,0,0,1-6.17928,6.04895,24.1733,24.1733,0,0,1-2.91568,1.1751,32.42533,32.42533,0,0,1,4.04769,1.43577,17.26425,17.26425,0,0,1,4.569,2.87259,16.60417,16.60417,0,0,1,3.74288,4.78765,15.027,15.027,0,0,1,1.56611,7.1799v1.21925a21.23753,21.23753,0,0,1-1.2182,7.224,13.49142,13.49142,0,0,1-4.30836,5.91861,22.88532,22.88532,0,0,1-8.26882,4.00354,48.21643,48.21643,0,0,1-13.01232,1.47992H243.72339ZM264.00285,284.418v12.7075H297.426a11.45948,11.45948,0,0,0,4.09079-.60962,6.306,6.306,0,0,0,2.43745-1.56715,5.04435,5.04435,0,0,0,1.1751-2.08849,8.12135,8.12135,0,0,0,.30481-2.08849v-.349a7.93444,7.93444,0,0,0-.30481-2.13158,4.175,4.175,0,0,0-1.1751-1.91506,6.9425,6.9425,0,0,0-2.43745-1.39268,12.27917,12.27917,0,0,0-4.09079-.56547Z"/>
      <path class="cls-4" d="M379.93864,288.94392l-18.53993,2.87154a19.028,19.028,0,0,0-5.39623,1.47991,2.99846,2.99846,0,0,0-1.65334,2.87259v.08724a5.01886,5.01886,0,0,0,.391,1.914,4.00936,4.00936,0,0,0,1.39268,1.69749,8.33192,8.33192,0,0,0,2.61192,1.2182,14.76163,14.76163,0,0,0,4.13388.47929,24.07531,24.07531,0,0,0,7.05062-.95753,18.69055,18.69055,0,0,0,5.35208-2.52364,12.1031,12.1031,0,0,0,3.43807-3.56945,7.77775,7.77775,0,0,0,1.21925-4.09079Zm.52133,15.84077a14.7951,14.7951,0,0,1-2.34915,2.17572,21.02729,21.02729,0,0,1-4.13494,2.3933,30.199,30.199,0,0,1-6.26651,1.95921,43.80033,43.80033,0,0,1-8.92154.78305h-1.132a34.78361,34.78361,0,0,1-10.05249-1.26234,19.57891,19.57891,0,0,1-6.7458-3.39393,12.81042,12.81042,0,0,1-3.786-4.87489,14.53945,14.53945,0,0,1-1.1751-5.78827V296.168q0-6.44046,4.57008-9.74873,4.569-3.30615,15.10081-4.26421l21.41147-2.0023a4.27914,4.27914,0,0,0,2.30711-.74,2.12378,2.12378,0,0,0,.65272-1.69749,3.28446,3.28446,0,0,0-.30482-1.30543,2.89624,2.89624,0,0,0-1.523-1.26235,13.83078,13.83078,0,0,0-3.65565-.91338,50.20384,50.20384,0,0,0-6.70271-.34791h-.43514a29.49061,29.49061,0,0,0-6.7889.60858,11.17831,11.17831,0,0,0-3.6115,1.43682A3.73921,3.73921,0,0,0,355.437,277.628a8.07139,8.07139,0,0,0-.39205,1.47992H337.02846v-.17343a23.32008,23.32008,0,0,1,.26066-3.35188,10.99767,10.99767,0,0,1,1.17511-3.52426,11.93567,11.93567,0,0,1,2.74225-3.35083,17.31944,17.31944,0,0,1,4.91694-2.87259,35.54887,35.54887,0,0,1,7.70333-2.0023,71.81364,71.81364,0,0,1,11.14036-.74h4.78765a71.9253,71.9253,0,0,1,15.9711,1.38637,23.31723,23.31723,0,0,1,8.66087,3.59468,9.20341,9.20341,0,0,1,3.5684,4.89276,20.70563,20.70563,0,0,1,.69686,5.19652v17.842a2.77815,2.77815,0,0,0,.47824,1.69013,2.33529,2.33529,0,0,0,1.95816.64851h2.52468v12.882H387.8585a7.71221,7.71221,0,0,1-4.83075-1.56715A7.2638,7.2638,0,0,1,380.46,304.78469Z"/>
      <path class="cls-4" d="M445.21572,312.53112q-10.00993,0-16.36316-2.30712a27.483,27.483,0,0,1-9.96525-5.83137,18.74553,18.74553,0,0,1-4.96108-7.78952,27.05789,27.05789,0,0,1-1.34958-8.18158V286.681a26.24694,26.24694,0,0,1,1.34958-8.09539,18.38453,18.38453,0,0,1,4.91694-7.615,26.88416,26.88416,0,0,1,9.9232-5.65794q6.35219-2.21988,16.36316-2.21988h4.96108a63.11029,63.11029,0,0,1,12.57717,1.08787,39.5107,39.5107,0,0,1,8.92154,2.82949,21.74534,21.74534,0,0,1,5.9186,3.96046,18.99433,18.99433,0,0,1,3.48117,4.48179,15.06913,15.06913,0,0,1,1.61025,4.3956,20.92793,20.92793,0,0,1,.39205,3.69873v.26172H463.05878a17.58519,17.58519,0,0,0-.74-2.08954,7.99547,7.99547,0,0,0-2.17572-2.82844,13.66,13.66,0,0,0-4.61318-2.48054,24.8597,24.8597,0,0,0-7.964-1.04477h-.26067a22.41381,22.41381,0,0,0-7.09371.95753,12.22617,12.22617,0,0,0-4.57008,2.61192,9.49421,9.49421,0,0,0-2.48054,3.74183,12.70082,12.70082,0,0,0-.7389,4.26527v.60962a14.76506,14.76506,0,0,0,.7389,4.61318,9.97192,9.97192,0,0,0,2.48054,4.00354,12.84824,12.84824,0,0,0,4.61318,2.82845,19.98443,19.98443,0,0,0,7.05061,1.08786h.26067a23.58613,23.58613,0,0,0,7.87782-1.08786A14.77964,14.77964,0,0,0,460.1,296.47278a7.70762,7.70762,0,0,0,2.21882-2.87259,19.32714,19.32714,0,0,0,.74-2.13264h19.93261v.17448a24.69825,24.69825,0,0,1-.349,3.82907,15.15957,15.15957,0,0,1-1.523,4.48284,18.78207,18.78207,0,0,1-3.39392,4.569,21.06617,21.06617,0,0,1-5.87552,4.04769,37.84774,37.84774,0,0,1-9.00877,2.87259,65.49665,65.49665,0,0,1-12.83784,1.08787Z"/>
      <polygon class="cls-4" points="495.263 311.226 495.263 246.469 514.672 246.469 514.672 283.111 533.647 264.398 555.146 264.398 533.037 285.549 557.844 311.226 535.04 311.226 514.672 289.727 514.672 311.226 495.263 311.226"/>
      <path class="cls-4" d="M594.57362,273.97239q-7.31076,0-10.87969,2.08954a9.91874,9.91874,0,0,0-4.70041,5.83137H610.3282a9.19553,9.19553,0,0,0-4.61317-5.83137q-3.65617-2.089-11.05417-2.08954Zm35.07651,20.8029a16.68888,16.68888,0,0,1-1.08786,5.43932,13.43771,13.43771,0,0,1-4.48284,5.83242,28.26073,28.26073,0,0,1-9.74768,4.61212q-6.35533,1.87145-16.7983,1.872h-4.96213a52.64921,52.64921,0,0,1-15.71043-2.0023,28.11385,28.11385,0,0,1-10.13973-5.35208,19.32583,19.32583,0,0,1-5.48347-7.66025,24.68052,24.68052,0,0,1-1.65334-8.92153v-1.914a25.56957,25.56957,0,0,1,1.523-8.7481,18.44166,18.44166,0,0,1,5.2228-7.52886,27.19,27.19,0,0,1,9.96525-5.309A52.59717,52.59717,0,0,1,592.05,263.0927h5.309q10.26849,0,16.668,2.35021a26.00361,26.00361,0,0,1,9.92216,6.00585,18.72026,18.72026,0,0,1,4.7435,8.13848,33.2772,33.2772,0,0,1,1.21925,8.74705v3.2205H578.64562a10.41443,10.41443,0,0,0,4.70041,6.67854q3.828,2.54781,11.83722,2.54781h.08724a30.73691,30.73691,0,0,0,7.74643-.79462,17.88957,17.88957,0,0,0,4.61212-1.811,5.68521,5.68521,0,0,0,2.87259-3.48747h19.1485Z"/>
      <path class="cls-4" d="M642.35764,264.39814h19.23574v8.00815q.86873-.86871,2.655-2.3933a24.88145,24.88145,0,0,1,4.61212-3.00293,34.39,34.39,0,0,1,6.79-2.56778,34.81185,34.81185,0,0,1,9.1822-1.08786h.60962a30.96186,30.96186,0,0,1,10.44454,1.5661,19.90773,19.90773,0,0,1,7.09371,4.178,16.09158,16.09158,0,0,1,4.00355,5.87552,18.35331,18.35331,0,0,1,1.26235,6.65856v29.59305h-19.5847V287.958q0-5.42355-3.046-8.57258-3.0476-3.15008-9.487-3.15007-6.52717,0-10.44454,3.50008a11.83037,11.83037,0,0,0-3.91736,9.27154v22.2187H642.35764Z"/>
      <path class="cls-4" d="M774.22039,287.55124a9.24075,9.24075,0,0,0-1.17511-4.43974,12.19336,12.19336,0,0,0-3.39392-3.87322,17.23164,17.23164,0,0,0-5.5707-2.69811,26.65721,26.65721,0,0,0-7.6161-1.00062h-.43515a24.49525,24.49525,0,0,0-7.61609,1.00062,12.23645,12.23645,0,0,0-4.74351,2.69811,9.741,9.741,0,0,0-2.48054,3.87322,13.691,13.691,0,0,0-.74,4.43974v.34791a11.43672,11.43672,0,0,0,.87029,4.26527,10.79977,10.79977,0,0,0,2.74226,3.9163,14.07943,14.07943,0,0,0,4.87384,2.82845,21.4013,21.4013,0,0,0,7.26819,1.08786h.43515a25.06379,25.06379,0,0,0,7.6161-1.04371,17.97192,17.97192,0,0,0,5.48346-2.74226,11.67256,11.67256,0,0,0,3.35083-3.87322,9.52219,9.52219,0,0,0,1.131-4.43869Zm19.49641-41.08236v64.7568H774.39487v-7.13786a15.3707,15.3707,0,0,1-2.08954,2.0454,21.35858,21.35858,0,0,1-4.35146,2.74225,34.58308,34.58308,0,0,1-6.91923,2.43745,40.38085,40.38085,0,0,1-9.79183,1.04372h-1.132a41.45282,41.45282,0,0,1-13.40437-1.91506,25.319,25.319,0,0,1-9.138-5.22175,20.47066,20.47066,0,0,1-5.26589-7.65919,25.39325,25.39325,0,0,1-1.69749-9.31358v-1.65335a26.06331,26.06331,0,0,1,1.523-8.92153,18.87112,18.87112,0,0,1,4.96108-7.44162,24.365,24.365,0,0,1,8.92153-5.09246,41.533,41.533,0,0,1,13.31713-1.87092h1.39268a45.88313,45.88313,0,0,1,9.53011.87029,37.5993,37.5993,0,0,1,6.87613,2.08849,24.26344,24.26344,0,0,1,4.57008,2.48159q1.739,1.26129,2.52364,1.95816V246.46888Z"/>
    </g>
    <g class="cls-8">
      <polygon class="cls-4" points="6.283 326.802 35.093 326.802 57.462 367.1 79.918 326.802 107.684 326.802 107.684 391.559 87.665 391.559 87.665 346.734 62.163 391.559 51.283 391.559 25.781 346.734 25.781 391.559 6.283 391.559 6.283 326.802"/>
      <path class="cls-4" d="M142.67293,391.559H123.26271V344.73147h19.23574v8.26882a19.93861,19.93861,0,0,1,2.0454-2.52364,20.6059,20.6059,0,0,1,3.69874-3.09016,22.86106,22.86106,0,0,1,5.5276-2.61087,24.42406,24.42406,0,0,1,7.70229-1.08787H162.43a22.02058,22.02058,0,0,1,8.704,1.56611,15.16358,15.16358,0,0,1,5.91861,4.3525,18.27694,18.27694,0,0,1,3.35083,6.61443,30.50216,30.50216,0,0,1,1.08892,8.356V367.275H162.779a17.372,17.372,0,0,0-.52239-4.30836,9.69222,9.69222,0,0,0-1.69749-3.5684,8.3992,8.3992,0,0,0-3.09016-2.43745,10.633,10.633,0,0,0-4.61317-.91338h-.08619a9.688,9.688,0,0,0-4.30836.91338,9.51355,9.51355,0,0,0-3.1774,2.48054,10.63189,10.63189,0,0,0-1.95816,3.61255,14.09145,14.09145,0,0,0-.65272,4.30836Z"/>
      <rect class="cls-4" x="174.87685" y="376.23958" width="20.97632" height="15.31943"/>
      <path class="cls-4" d="M264.00285,340.46726V350.999h31.68258a11.80769,11.80769,0,0,0,3.48117-.43515,5.53037,5.53037,0,0,0,2.17677-1.1751,3.97873,3.97873,0,0,0,1.08787-1.69749,6.31925,6.31925,0,0,0,.30376-1.91506v-.17343a6.19488,6.19488,0,0,0-.30376-1.9592,3.73189,3.73189,0,0,0-1.08787-1.61025,5.92048,5.92048,0,0,0-2.17677-1.131,11.84321,11.84321,0,0,0-3.48117-.43514Zm-20.27946-13.665H299.1666a45.75,45.75,0,0,1,11.5324,1.21819,20.41634,20.41634,0,0,1,7.26819,3.30774,11.624,11.624,0,0,1,3.786,4.74351,14.44531,14.44531,0,0,1,1.08786,5.52656v1.21924a11.56251,11.56251,0,0,1-1.1751,5.39623,13.16789,13.16789,0,0,1-6.17928,6.04894,24.17,24.17,0,0,1-2.91568,1.1751,32.42533,32.42533,0,0,1,4.04769,1.43577,17.26476,17.26476,0,0,1,4.569,2.87259,16.60422,16.60422,0,0,1,3.74288,4.78766,15.027,15.027,0,0,1,1.56611,7.1799v1.21924a21.23753,21.23753,0,0,1-1.2182,7.22405,13.49131,13.49131,0,0,1-4.30836,5.91861,22.88549,22.88549,0,0,1-8.26882,4.00355A48.21688,48.21688,0,0,1,299.689,391.559H243.72339Zm20.27946,37.9491v12.70751H297.426a11.45946,11.45946,0,0,0,4.09079-.60963,6.306,6.306,0,0,0,2.43745-1.56715,5.04429,5.04429,0,0,0,1.1751-2.08849,8.12129,8.12129,0,0,0,.30481-2.08849v-.349a7.93451,7.93451,0,0,0-.30481-2.13159,4.17507,4.17507,0,0,0-1.1751-1.91506,6.94234,6.94234,0,0,0-2.43745-1.39267,12.27889,12.27889,0,0,0-4.09079-.56548Z"/>
      <path class="cls-4" d="M379.93864,369.27725l-18.53993,2.87154a19.02793,19.02793,0,0,0-5.39623,1.47992,2.99844,2.99844,0,0,0-1.65334,2.87259v.08724a5.01894,5.01894,0,0,0,.391,1.914A4.00939,4.00939,0,0,0,356.13282,380.2a8.33169,8.33169,0,0,0,2.61192,1.2182,14.76163,14.76163,0,0,0,4.13388.47929,24.075,24.075,0,0,0,7.05062-.95753,18.69054,18.69054,0,0,0,5.35208-2.52363,12.10325,12.10325,0,0,0,3.43807-3.56946,7.77774,7.77774,0,0,0,1.21925-4.09078ZM380.46,385.118a14.79509,14.79509,0,0,1-2.34915,2.17573,21.02829,21.02829,0,0,1-4.13494,2.3933,30.19905,30.19905,0,0,1-6.26651,1.9592,43.79962,43.79962,0,0,1-8.92154.78305h-1.132a34.78361,34.78361,0,0,1-10.05249-1.26234,19.57908,19.57908,0,0,1-6.7458-3.39392,12.8105,12.8105,0,0,1-3.786-4.87489,14.5395,14.5395,0,0,1-1.1751-5.78828v-.60857q0-6.44047,4.57008-9.74873,4.569-3.30617,15.10081-4.26422l21.41147-2.0023a4.27914,4.27914,0,0,0,2.30711-.74,2.12377,2.12377,0,0,0,.65272-1.69748,3.2845,3.2845,0,0,0-.30482-1.30544,2.89623,2.89623,0,0,0-1.523-1.26234,13.83033,13.83033,0,0,0-3.65565-.91339,50.20584,50.20584,0,0,0-6.70271-.3479h-.43514a29.4907,29.4907,0,0,0-6.7889.60857,11.17876,11.17876,0,0,0-3.6115,1.43682,3.73923,3.73923,0,0,0-1.47992,1.69644,8.07132,8.07132,0,0,0-.39205,1.47991H337.02846v-.17343a23.32008,23.32008,0,0,1,.26066-3.35188,10.99775,10.99775,0,0,1,1.17511-3.52426,11.93581,11.93581,0,0,1,2.74225-3.35083,17.31991,17.31991,0,0,1,4.91694-2.87259,35.54887,35.54887,0,0,1,7.70333-2.0023,71.81377,71.81377,0,0,1,11.14036-.74h4.78765a71.9247,71.9247,0,0,1,15.9711,1.38637,23.31689,23.31689,0,0,1,8.66087,3.59468,9.20335,9.20335,0,0,1,3.5684,4.89275,20.70569,20.70569,0,0,1,.69686,5.19652v17.842a2.77813,2.77813,0,0,0,.47824,1.69013,2.33529,2.33529,0,0,0,1.95816.64851h2.52468v12.882H387.8585a7.71215,7.71215,0,0,1-4.83075-1.56715A7.26378,7.26378,0,0,1,380.46,385.118Z"/>
      <path class="cls-4" d="M445.21572,392.86445q-10.00993,0-16.36316-2.30711a27.48332,27.48332,0,0,1-9.96525-5.83137,18.74563,18.74563,0,0,1-4.96108-7.78953,27.05788,27.05788,0,0,1-1.34958-8.18157v-1.74059a26.24683,26.24683,0,0,1,1.34958-8.09538,18.38462,18.38462,0,0,1,4.91694-7.615,26.88416,26.88416,0,0,1,9.9232-5.65794q6.35219-2.21988,16.36316-2.21987h4.96108a63.11036,63.11036,0,0,1,12.57717,1.08786,39.51017,39.51017,0,0,1,8.92154,2.8295,21.74555,21.74555,0,0,1,5.9186,3.96045,18.99474,18.99474,0,0,1,3.48117,4.48179,15.06913,15.06913,0,0,1,1.61025,4.3956,20.92812,20.92812,0,0,1,.39205,3.69874v.26171H463.05878a17.58582,17.58582,0,0,0-.74-2.08954,7.99556,7.99556,0,0,0-2.17572-2.82844,13.66,13.66,0,0,0-4.61318-2.48054,24.86,24.86,0,0,0-7.964-1.04477h-.26067a22.4141,22.4141,0,0,0-7.09371.95753,12.22631,12.22631,0,0,0-4.57008,2.61192,9.49417,9.49417,0,0,0-2.48054,3.74184,12.70076,12.70076,0,0,0-.7389,4.26526v.60963a14.765,14.765,0,0,0,.7389,4.61317,9.972,9.972,0,0,0,2.48054,4.00355,12.84823,12.84823,0,0,0,4.61318,2.82844,19.98419,19.98419,0,0,0,7.05061,1.08787h.26067a23.58585,23.58585,0,0,0,7.87782-1.08787A14.77964,14.77964,0,0,0,460.1,376.80611a7.70762,7.70762,0,0,0,2.21882-2.87259,19.32787,19.32787,0,0,0,.74-2.13263h19.93261v.17447a24.69825,24.69825,0,0,1-.349,3.82907,15.15957,15.15957,0,0,1-1.523,4.48284,18.78169,18.78169,0,0,1-3.39392,4.569A21.06575,21.06575,0,0,1,471.85,388.904a37.84817,37.84817,0,0,1-9.00877,2.8726,65.49672,65.49672,0,0,1-12.83784,1.08786Z"/>
      <polygon class="cls-4" points="495.263 391.559 495.263 326.802 514.672 326.802 514.672 363.445 533.647 344.731 555.146 344.731 533.037 365.882 557.844 391.559 535.04 391.559 514.672 370.06 514.672 391.559 495.263 391.559"/>
      <path class="cls-4" d="M594.57362,354.30572q-7.31076,0-10.87969,2.08954a9.91874,9.91874,0,0,0-4.70041,5.83137H610.3282a9.19553,9.19553,0,0,0-4.61317-5.83137q-3.65617-2.089-11.05417-2.08954Zm35.07651,20.8029a16.68888,16.68888,0,0,1-1.08786,5.43932,13.43771,13.43771,0,0,1-4.48284,5.83242,28.26054,28.26054,0,0,1-9.74768,4.61212q-6.35533,1.87144-16.7983,1.872h-4.96213a52.64888,52.64888,0,0,1-15.71043-2.0023,28.1137,28.1137,0,0,1-10.13973-5.35208,19.32587,19.32587,0,0,1-5.48347-7.66024,24.68062,24.68062,0,0,1-1.65334-8.92154v-1.914a25.56961,25.56961,0,0,1,1.523-8.7481,18.44166,18.44166,0,0,1,5.2228-7.52886,27.18982,27.18982,0,0,1,9.96525-5.309A52.59684,52.59684,0,0,1,592.05,343.426h5.309q10.26849,0,16.668,2.3502a26.00386,26.00386,0,0,1,9.92216,6.00585,18.72032,18.72032,0,0,1,4.7435,8.13848,33.27728,33.27728,0,0,1,1.21925,8.74706v3.22049H578.64562a10.41443,10.41443,0,0,0,4.70041,6.67854q3.828,2.54781,11.83722,2.54781h.08724a30.73744,30.73744,0,0,0,7.74643-.79461,17.88954,17.88954,0,0,0,4.61212-1.811,5.68521,5.68521,0,0,0,2.87259-3.48747h19.1485Z"/>
      <path class="cls-4" d="M642.35764,344.73147h19.23574v8.00815q.86873-.86871,2.655-2.3933a24.88145,24.88145,0,0,1,4.61212-3.00292,34.38942,34.38942,0,0,1,6.79-2.56778,34.81183,34.81183,0,0,1,9.1822-1.08787h.60962a30.96159,30.96159,0,0,1,10.44454,1.56611,19.90771,19.90771,0,0,1,7.09371,4.178,16.09167,16.09167,0,0,1,4.00355,5.87552,18.35336,18.35336,0,0,1,1.26235,6.65857v29.593h-19.5847V368.29134q0-5.42355-3.046-8.57257-3.0476-3.15008-9.487-3.15008-6.52717,0-10.44454,3.50008a11.8304,11.8304,0,0,0-3.91736,9.27155V391.559H642.35764Z"/>
      <path class="cls-4" d="M774.22039,367.88458a9.24079,9.24079,0,0,0-1.17511-4.43975,12.19333,12.19333,0,0,0-3.39392-3.87321,17.23185,17.23185,0,0,0-5.5707-2.69812,26.65721,26.65721,0,0,0-7.6161-1.00062h-.43515a24.49525,24.49525,0,0,0-7.61609,1.00062,12.23659,12.23659,0,0,0-4.74351,2.69812,9.741,9.741,0,0,0-2.48054,3.87321,13.691,13.691,0,0,0-.74,4.43975v.3479a11.43668,11.43668,0,0,0,.87029,4.26527,10.79989,10.79989,0,0,0,2.74226,3.91631,14.07942,14.07942,0,0,0,4.87384,2.82844,21.401,21.401,0,0,0,7.26819,1.08787h.43515a25.06377,25.06377,0,0,0,7.6161-1.04372,17.97169,17.97169,0,0,0,5.48346-2.74226,11.67262,11.67262,0,0,0,3.35083-3.87321,9.52223,9.52223,0,0,0,1.131-4.4387Zm19.49641-41.08236V391.559H774.39487v-7.13785a15.3714,15.3714,0,0,1-2.08954,2.04539,21.35857,21.35857,0,0,1-4.35146,2.74226,34.58311,34.58311,0,0,1-6.91923,2.43744,40.38085,40.38085,0,0,1-9.79183,1.04372h-1.132a41.45255,41.45255,0,0,1-13.40437-1.91506,25.319,25.319,0,0,1-9.138-5.22175,20.47058,20.47058,0,0,1-5.26589-7.65919,25.39325,25.39325,0,0,1-1.69749-9.31358v-1.65334a26.06337,26.06337,0,0,1,1.523-8.92154,18.87112,18.87112,0,0,1,4.96108-7.44162,24.36514,24.36514,0,0,1,8.92153-5.09246,41.533,41.533,0,0,1,13.31713-1.87092h1.39268a45.88239,45.88239,0,0,1,9.53011.8703,37.59856,37.59856,0,0,1,6.87613,2.08848,24.264,24.264,0,0,1,4.57008,2.48159q1.739,1.2613,2.52364,1.95816V326.80222Z"/>
    </g>
    <g class="cls-9">
      <polygon class="cls-4" points="6.283 407.136 35.093 407.136 57.462 447.434 79.918 407.136 107.684 407.136 107.684 471.892 87.665 471.892 87.665 427.067 62.163 471.892 51.283 471.892 25.781 427.067 25.781 471.892 6.283 471.892 6.283 407.136"/>
      <path class="cls-4" d="M142.67293,471.89235H123.26271V425.06481h19.23574v8.26881a19.93937,19.93937,0,0,1,2.0454-2.52363,20.60592,20.60592,0,0,1,3.69874-3.09017,22.86143,22.86143,0,0,1,5.5276-2.61087,24.42408,24.42408,0,0,1,7.70229-1.08786H162.43a22.02058,22.02058,0,0,1,8.704,1.5661,15.1636,15.1636,0,0,1,5.91861,4.35251,18.277,18.277,0,0,1,3.35083,6.61442,30.50216,30.50216,0,0,1,1.08892,8.356v2.69812H162.779a17.37206,17.37206,0,0,0-.52239-4.30837,9.69222,9.69222,0,0,0-1.69749-3.5684,8.39907,8.39907,0,0,0-3.09016-2.43744,10.63287,10.63287,0,0,0-4.61317-.91339h-.08619a9.68782,9.68782,0,0,0-4.30836.91339,9.51343,9.51343,0,0,0-3.1774,2.48054,10.63184,10.63184,0,0,0-1.95816,3.61254,14.09145,14.09145,0,0,0-.65272,4.30836Z"/>
      <rect class="cls-4" x="174.87685" y="456.57291" width="20.97632" height="15.31943"/>
      <path class="cls-4" d="M264.00285,420.80059v10.53178h31.68258a11.80805,11.80805,0,0,0,3.48117-.43514,5.5305,5.5305,0,0,0,2.17677-1.17511,3.97876,3.97876,0,0,0,1.08787-1.69748,6.31935,6.31935,0,0,0,.30376-1.91506v-.17343a6.19494,6.19494,0,0,0-.30376-1.95921,3.73189,3.73189,0,0,0-1.08787-1.61025,5.92033,5.92033,0,0,0-2.17677-1.13095,11.84284,11.84284,0,0,0-3.48117-.43515Zm-20.27946-13.665H299.1666a45.74992,45.74992,0,0,1,11.5324,1.2182,20.41617,20.41617,0,0,1,7.26819,3.30773,11.624,11.624,0,0,1,3.786,4.74351,14.44531,14.44531,0,0,1,1.08786,5.52656v1.21925a11.56247,11.56247,0,0,1-1.1751,5.39622,13.16789,13.16789,0,0,1-6.17928,6.04894,24.172,24.172,0,0,1-2.91568,1.17511,32.42208,32.42208,0,0,1,4.04769,1.43577,17.26425,17.26425,0,0,1,4.569,2.87259,16.60417,16.60417,0,0,1,3.74288,4.78765,15.027,15.027,0,0,1,1.56611,7.1799v1.21925a21.23747,21.23747,0,0,1-1.2182,7.224,13.49131,13.49131,0,0,1-4.30836,5.91861,22.88533,22.88533,0,0,1-8.26882,4.00355,48.21684,48.21684,0,0,1-13.01232,1.47992H243.72339Zm20.27946,37.9491v12.70751H297.426a11.45971,11.45971,0,0,0,4.09079-.60962,6.306,6.306,0,0,0,2.43745-1.56716,5.04422,5.04422,0,0,0,1.1751-2.08849,8.12128,8.12128,0,0,0,.30481-2.08848v-.349a7.93444,7.93444,0,0,0-.30481-2.13158,4.175,4.175,0,0,0-1.1751-1.91506,6.94235,6.94235,0,0,0-2.43745-1.39268,12.27889,12.27889,0,0,0-4.09079-.56548Z"/>
      <path class="cls-4" d="M379.93864,449.61058l-18.53993,2.87154a19.02827,19.02827,0,0,0-5.39623,1.47992,2.99844,2.99844,0,0,0-1.65334,2.87259v.08724a5.0189,5.0189,0,0,0,.391,1.914,4.00948,4.00948,0,0,0,1.39268,1.69749,8.33191,8.33191,0,0,0,2.61192,1.21819,14.76159,14.76159,0,0,0,4.13388.4793,24.075,24.075,0,0,0,7.05062-.95754,18.69054,18.69054,0,0,0,5.35208-2.52363,12.10334,12.10334,0,0,0,3.43807-3.56945,7.7778,7.7778,0,0,0,1.21925-4.09079Zm.52133,15.84077a14.79462,14.79462,0,0,1-2.34915,2.17573,21.02779,21.02779,0,0,1-4.13494,2.3933,30.19962,30.19962,0,0,1-6.26651,1.95921,43.80033,43.80033,0,0,1-8.92154.78305h-1.132a34.78323,34.78323,0,0,1-10.05249-1.26235,19.5789,19.5789,0,0,1-6.7458-3.39392,12.8105,12.8105,0,0,1-3.786-4.87489,14.5395,14.5395,0,0,1-1.1751-5.78828v-.60857q0-6.44048,4.57008-9.74873,4.569-3.30616,15.10081-4.26422l21.41147-2.0023a4.27914,4.27914,0,0,0,2.30711-.74,2.1238,2.1238,0,0,0,.65272-1.69749,3.28454,3.28454,0,0,0-.30482-1.30544,2.89628,2.89628,0,0,0-1.523-1.26234,13.83039,13.83039,0,0,0-3.65565-.91338,50.20384,50.20384,0,0,0-6.70271-.34791h-.43514a29.49127,29.49127,0,0,0-6.7889.60857,11.17876,11.17876,0,0,0-3.6115,1.43682,3.73928,3.73928,0,0,0-1.47992,1.69644,8.07139,8.07139,0,0,0-.39205,1.47992H337.02846v-.17343a23.32008,23.32008,0,0,1,.26066-3.35188,10.99767,10.99767,0,0,1,1.17511-3.52426,11.93567,11.93567,0,0,1,2.74225-3.35083,17.31944,17.31944,0,0,1,4.91694-2.87259,35.54829,35.54829,0,0,1,7.70333-2.0023,71.8124,71.8124,0,0,1,11.14036-.74h4.78765a71.9247,71.9247,0,0,1,15.9711,1.38637,23.31706,23.31706,0,0,1,8.66087,3.59468,9.20341,9.20341,0,0,1,3.5684,4.89276,20.70557,20.70557,0,0,1,.69686,5.19652v17.842a2.77813,2.77813,0,0,0,.47824,1.69013,2.33526,2.33526,0,0,0,1.95816.64852h2.52468v12.882H387.8585a7.71216,7.71216,0,0,1-4.83075-1.56716A7.26378,7.26378,0,0,1,380.46,465.45135Z"/>
      <path class="cls-4" d="M445.21572,473.19778q-10.00993,0-16.36316-2.30711a27.483,27.483,0,0,1-9.96525-5.83137,18.7456,18.7456,0,0,1-4.96108-7.78952,27.05794,27.05794,0,0,1-1.34958-8.18158v-1.74058a26.24684,26.24684,0,0,1,1.34958-8.09539,18.38462,18.38462,0,0,1,4.91694-7.615,26.88444,26.88444,0,0,1,9.9232-5.65794q6.35219-2.21987,16.36316-2.21987h4.96108a63.11036,63.11036,0,0,1,12.57717,1.08786,39.51067,39.51067,0,0,1,8.92154,2.8295,21.74555,21.74555,0,0,1,5.9186,3.96045,18.99474,18.99474,0,0,1,3.48117,4.48179,15.06934,15.06934,0,0,1,1.61025,4.3956,20.92812,20.92812,0,0,1,.39205,3.69874v.26172H463.05878a17.58456,17.58456,0,0,0-.74-2.08954,7.9955,7.9955,0,0,0-2.17572-2.82845,13.66015,13.66015,0,0,0-4.61318-2.48054,24.86,24.86,0,0,0-7.964-1.04477h-.26067a22.4141,22.4141,0,0,0-7.09371.95753,12.22632,12.22632,0,0,0-4.57008,2.61193,9.49414,9.49414,0,0,0-2.48054,3.74183,12.70077,12.70077,0,0,0-.7389,4.26527v.60962a14.765,14.765,0,0,0,.7389,4.61317,9.972,9.972,0,0,0,2.48054,4.00355,12.84838,12.84838,0,0,0,4.61318,2.82845,19.98443,19.98443,0,0,0,7.05061,1.08786h.26067a23.58613,23.58613,0,0,0,7.87782-1.08786A14.77984,14.77984,0,0,0,460.1,457.13944a7.70762,7.70762,0,0,0,2.21882-2.87259,19.32715,19.32715,0,0,0,.74-2.13263h19.93261v.17448a24.69836,24.69836,0,0,1-.349,3.82907,15.15977,15.15977,0,0,1-1.523,4.48284,18.78184,18.78184,0,0,1-3.39392,4.569,21.066,21.066,0,0,1-5.87552,4.0477,37.84774,37.84774,0,0,1-9.00877,2.87259,65.49672,65.49672,0,0,1-12.83784,1.08786Z"/>
      <polygon class="cls-4" points="495.263 471.892 495.263 407.136 514.672 407.136 514.672 443.778 533.647 425.065 555.146 425.065 533.037 446.216 557.844 471.892 535.04 471.892 514.672 450.394 514.672 471.892 495.263 471.892"/>
      <path class="cls-4" d="M594.57362,434.63906q-7.31076,0-10.87969,2.08954a9.91868,9.91868,0,0,0-4.70041,5.83137H610.3282a9.19548,9.19548,0,0,0-4.61317-5.83137q-3.65617-2.089-11.05417-2.08954ZM629.65013,455.442a16.68878,16.68878,0,0,1-1.08786,5.43932,13.43771,13.43771,0,0,1-4.48284,5.83242,28.26054,28.26054,0,0,1-9.74768,4.61213q-6.35533,1.87143-16.7983,1.872h-4.96213a52.64888,52.64888,0,0,1-15.71043-2.0023,28.11355,28.11355,0,0,1-10.13973-5.35208,19.3258,19.3258,0,0,1-5.48347-7.66024,24.68056,24.68056,0,0,1-1.65334-8.92153v-1.914a25.56962,25.56962,0,0,1,1.523-8.74811,18.44166,18.44166,0,0,1,5.2228-7.52886,27.19011,27.19011,0,0,1,9.96525-5.309,52.59684,52.59684,0,0,1,15.75458-2.0023h5.309q10.26849,0,16.668,2.35021a26.00372,26.00372,0,0,1,9.92216,6.00584,18.72035,18.72035,0,0,1,4.7435,8.13849,33.2772,33.2772,0,0,1,1.21925,8.74705v3.2205H578.64562A10.41443,10.41443,0,0,0,583.346,458.9q3.828,2.5478,11.83722,2.5478h.08724a30.73744,30.73744,0,0,0,7.74643-.79461,17.88957,17.88957,0,0,0,4.61212-1.811,5.68521,5.68521,0,0,0,2.87259-3.48747h19.1485Z"/>
      <path class="cls-4" d="M642.35764,425.06481h19.23574V433.073q.86873-.86871,2.655-2.3933a24.88145,24.88145,0,0,1,4.61212-3.00292,34.38942,34.38942,0,0,1,6.79-2.56778,34.81185,34.81185,0,0,1,9.1822-1.08786h.60962a30.96161,30.96161,0,0,1,10.44454,1.5661,19.90773,19.90773,0,0,1,7.09371,4.178,16.09163,16.09163,0,0,1,4.00355,5.87551,18.35336,18.35336,0,0,1,1.26235,6.65857v29.59305h-19.5847V448.62468q0-5.42357-3.046-8.57258-3.0476-3.15008-9.487-3.15008-6.52717,0-10.44454,3.50009a11.83037,11.83037,0,0,0-3.91736,9.27154v22.2187H642.35764Z"/>
      <path class="cls-4" d="M774.22039,448.21791a9.24079,9.24079,0,0,0-1.17511-4.43975,12.19344,12.19344,0,0,0-3.39392-3.87321,17.23164,17.23164,0,0,0-5.5707-2.69811,26.65685,26.65685,0,0,0-7.6161-1.00063h-.43515a24.49493,24.49493,0,0,0-7.61609,1.00063,12.23645,12.23645,0,0,0-4.74351,2.69811,9.741,9.741,0,0,0-2.48054,3.87321,13.691,13.691,0,0,0-.74,4.43975v.34791a11.43663,11.43663,0,0,0,.87029,4.26526,10.79981,10.79981,0,0,0,2.74226,3.91631,14.07943,14.07943,0,0,0,4.87384,2.82845,21.4013,21.4013,0,0,0,7.26819,1.08786h.43515a25.06377,25.06377,0,0,0,7.6161-1.04372,17.97169,17.97169,0,0,0,5.48346-2.74226,11.67243,11.67243,0,0,0,3.35083-3.87321,9.52219,9.52219,0,0,0,1.131-4.43869Zm19.49641-41.08236v64.7568H774.39487v-7.13786a15.37079,15.37079,0,0,1-2.08954,2.04539,21.35857,21.35857,0,0,1-4.35146,2.74226,34.5837,34.5837,0,0,1-6.91923,2.43745,40.38088,40.38088,0,0,1-9.79183,1.04371h-1.132a41.45255,41.45255,0,0,1-13.40437-1.91506,25.31888,25.31888,0,0,1-9.138-5.22174,20.47066,20.47066,0,0,1-5.26589-7.65919,25.39326,25.39326,0,0,1-1.69749-9.31359v-1.65334a26.06331,26.06331,0,0,1,1.523-8.92153,18.87105,18.87105,0,0,1,4.96108-7.44162,24.365,24.365,0,0,1,8.92153-5.09247,41.53331,41.53331,0,0,1,13.31713-1.87091h1.39268a45.88313,45.88313,0,0,1,9.53011.87029,37.59852,37.59852,0,0,1,6.87613,2.08849,24.26344,24.26344,0,0,1,4.57008,2.48159q1.739,1.26129,2.52364,1.95815V407.13555Z"/>
    </g>
    <g class="cls-10">
      <polygon class="cls-4" points="6.283 487.469 35.093 487.469 57.462 527.767 79.918 487.469 107.684 487.469 107.684 552.226 87.665 552.226 87.665 507.4 62.163 552.226 51.283 552.226 25.781 507.4 25.781 552.226 6.283 552.226 6.283 487.469"/>
      <path class="cls-4" d="M142.67293,552.22568H123.26271V505.39814h19.23574V513.667a19.93937,19.93937,0,0,1,2.0454-2.52363,20.6059,20.6059,0,0,1,3.69874-3.09016,22.86143,22.86143,0,0,1,5.5276-2.61088,24.42408,24.42408,0,0,1,7.70229-1.08786H162.43a22.02076,22.02076,0,0,1,8.704,1.5661,15.1636,15.1636,0,0,1,5.91861,4.35251,18.277,18.277,0,0,1,3.35083,6.61442,30.50229,30.50229,0,0,1,1.08892,8.35606v2.69811H162.779a17.37192,17.37192,0,0,0-.52239-4.30836,9.69219,9.69219,0,0,0-1.69749-3.56841,8.39917,8.39917,0,0,0-3.09016-2.43744,10.63287,10.63287,0,0,0-4.61317-.91339h-.08619a9.68782,9.68782,0,0,0-4.30836.91339,9.51343,9.51343,0,0,0-3.1774,2.48054,10.63189,10.63189,0,0,0-1.95816,3.61255,14.09136,14.09136,0,0,0-.65272,4.30836Z"/>
      <rect class="cls-4" x="174.87685" y="536.90625" width="20.97632" height="15.31943"/>
      <path class="cls-4" d="M264.00285,501.13392v10.53179h31.68258a11.80769,11.80769,0,0,0,3.48117-.43515,5.53062,5.53062,0,0,0,2.17677-1.1751,3.97885,3.97885,0,0,0,1.08787-1.69749,6.3193,6.3193,0,0,0,.30376-1.91506v-.17343a6.19488,6.19488,0,0,0-.30376-1.9592A3.73177,3.73177,0,0,0,301.34337,502.7a5.92033,5.92033,0,0,0-2.17677-1.131,11.84284,11.84284,0,0,0-3.48117-.43515Zm-20.27946-13.665H299.1666a45.74992,45.74992,0,0,1,11.5324,1.2182,20.416,20.416,0,0,1,7.26819,3.30774,11.62386,11.62386,0,0,1,3.786,4.7435,14.44535,14.44535,0,0,1,1.08786,5.52656v1.21925a11.56244,11.56244,0,0,1-1.1751,5.39622,13.16785,13.16785,0,0,1-6.17928,6.04895,24.1733,24.1733,0,0,1-2.91568,1.1751,32.42533,32.42533,0,0,1,4.04769,1.43577,17.26425,17.26425,0,0,1,4.569,2.87259,16.60417,16.60417,0,0,1,3.74288,4.78765,15.027,15.027,0,0,1,1.56611,7.1799v1.21925a21.23753,21.23753,0,0,1-1.2182,7.22405,13.49142,13.49142,0,0,1-4.30836,5.91861,22.88548,22.88548,0,0,1-8.26882,4.00354,48.21684,48.21684,0,0,1-13.01232,1.47992H243.72339Zm20.27946,37.9491v12.70751H297.426a11.45948,11.45948,0,0,0,4.09079-.60962,6.30606,6.30606,0,0,0,2.43745-1.56715,5.04435,5.04435,0,0,0,1.1751-2.08849,8.12135,8.12135,0,0,0,.30481-2.08849v-.349a7.93444,7.93444,0,0,0-.30481-2.13158,4.175,4.175,0,0,0-1.1751-1.91506,6.9425,6.9425,0,0,0-2.43745-1.39268,12.27915,12.27915,0,0,0-4.09079-.56548Z"/>
      <path class="cls-4" d="M379.93864,529.94392l-18.53993,2.87154a19.028,19.028,0,0,0-5.39623,1.47991,2.99846,2.99846,0,0,0-1.65334,2.87259v.08724a5.01886,5.01886,0,0,0,.391,1.914,4.00936,4.00936,0,0,0,1.39268,1.69749,8.33192,8.33192,0,0,0,2.61192,1.2182,14.76163,14.76163,0,0,0,4.13388.47929,24.07531,24.07531,0,0,0,7.05062-.95753,18.69082,18.69082,0,0,0,5.35208-2.52364,12.10322,12.10322,0,0,0,3.43807-3.56945,7.77777,7.77777,0,0,0,1.21925-4.09079Zm.52133,15.84077a14.7951,14.7951,0,0,1-2.34915,2.17572,21.02729,21.02729,0,0,1-4.13494,2.3933,30.199,30.199,0,0,1-6.26651,1.95921,43.80033,43.80033,0,0,1-8.92154.78305h-1.132a34.78361,34.78361,0,0,1-10.05249-1.26234,19.57891,19.57891,0,0,1-6.7458-3.39393,12.81042,12.81042,0,0,1-3.786-4.87489,14.53945,14.53945,0,0,1-1.1751-5.78827V537.168q0-6.44046,4.57008-9.74873,4.569-3.30615,15.10081-4.26421l21.41147-2.0023a4.27914,4.27914,0,0,0,2.30711-.74,2.12378,2.12378,0,0,0,.65272-1.69749,3.28446,3.28446,0,0,0-.30482-1.30543,2.89624,2.89624,0,0,0-1.523-1.26235,13.83078,13.83078,0,0,0-3.65565-.91338,50.20384,50.20384,0,0,0-6.70271-.34791h-.43514a29.49061,29.49061,0,0,0-6.7889.60858,11.17831,11.17831,0,0,0-3.6115,1.43682A3.73921,3.73921,0,0,0,355.437,518.628a8.07139,8.07139,0,0,0-.39205,1.47992H337.02846v-.17343a23.32008,23.32008,0,0,1,.26066-3.35188,10.99767,10.99767,0,0,1,1.17511-3.52426,11.93567,11.93567,0,0,1,2.74225-3.35083,17.31944,17.31944,0,0,1,4.91694-2.87259,35.54887,35.54887,0,0,1,7.70333-2.0023,71.81364,71.81364,0,0,1,11.14036-.74h4.78765a71.9253,71.9253,0,0,1,15.9711,1.38637,23.31723,23.31723,0,0,1,8.66087,3.59468,9.20341,9.20341,0,0,1,3.5684,4.89276,20.70563,20.70563,0,0,1,.69686,5.19652v17.842a2.77815,2.77815,0,0,0,.47824,1.69013,2.33529,2.33529,0,0,0,1.95816.64851h2.52468v12.882H387.8585a7.71216,7.71216,0,0,1-4.83075-1.56716A7.26375,7.26375,0,0,1,380.46,545.78469Z"/>
      <path class="cls-4" d="M445.21572,553.53112q-10.00993,0-16.36316-2.30712a27.483,27.483,0,0,1-9.96525-5.83137,18.74553,18.74553,0,0,1-4.96108-7.78952,27.05789,27.05789,0,0,1-1.34958-8.18158V527.681a26.24694,26.24694,0,0,1,1.34958-8.09539,18.38453,18.38453,0,0,1,4.91694-7.615,26.88416,26.88416,0,0,1,9.9232-5.65794q6.35219-2.21988,16.36316-2.21988h4.96108a63.10954,63.10954,0,0,1,12.57717,1.08787,39.5107,39.5107,0,0,1,8.92154,2.82949,21.74534,21.74534,0,0,1,5.9186,3.96046,18.99433,18.99433,0,0,1,3.48117,4.48179,15.06913,15.06913,0,0,1,1.61025,4.3956,20.92793,20.92793,0,0,1,.39205,3.69873v.26172H463.05878a17.58519,17.58519,0,0,0-.74-2.08954,7.99547,7.99547,0,0,0-2.17572-2.82844,13.66,13.66,0,0,0-4.61318-2.48054,24.8597,24.8597,0,0,0-7.964-1.04477h-.26067a22.41381,22.41381,0,0,0-7.09371.95753,12.22617,12.22617,0,0,0-4.57008,2.61192,9.49421,9.49421,0,0,0-2.48054,3.74183,12.70082,12.70082,0,0,0-.7389,4.26527v.60962a14.76506,14.76506,0,0,0,.7389,4.61318,9.97192,9.97192,0,0,0,2.48054,4.00354,12.84824,12.84824,0,0,0,4.61318,2.82845,19.98443,19.98443,0,0,0,7.05061,1.08786h.26067a23.58613,23.58613,0,0,0,7.87782-1.08786A14.77964,14.77964,0,0,0,460.1,537.47278a7.70756,7.70756,0,0,0,2.21882-2.8726,19.32715,19.32715,0,0,0,.74-2.13263h19.93261v.17448a24.69825,24.69825,0,0,1-.349,3.82907,15.15957,15.15957,0,0,1-1.523,4.48284,18.78207,18.78207,0,0,1-3.39392,4.569,21.06617,21.06617,0,0,1-5.87552,4.04769,37.84774,37.84774,0,0,1-9.00877,2.87259,65.49665,65.49665,0,0,1-12.83784,1.08787Z"/>
      <polygon class="cls-4" points="495.263 552.226 495.263 487.469 514.672 487.469 514.672 524.111 533.647 505.398 555.146 505.398 533.037 526.549 557.844 552.226 535.04 552.226 514.672 530.727 514.672 552.226 495.263 552.226"/>
      <path class="cls-4" d="M594.57362,514.97239q-7.31076,0-10.87969,2.08954a9.91874,9.91874,0,0,0-4.70041,5.83137H610.3282a9.19553,9.19553,0,0,0-4.61317-5.83137q-3.65617-2.089-11.05417-2.08954Zm35.07651,20.8029a16.68888,16.68888,0,0,1-1.08786,5.43932,13.43771,13.43771,0,0,1-4.48284,5.83242,28.26073,28.26073,0,0,1-9.74768,4.61212q-6.35533,1.87145-16.7983,1.872h-4.96213a52.64921,52.64921,0,0,1-15.71043-2.0023,28.11385,28.11385,0,0,1-10.13973-5.35208,19.32583,19.32583,0,0,1-5.48347-7.66025,24.68056,24.68056,0,0,1-1.65334-8.92153v-1.914a25.56957,25.56957,0,0,1,1.523-8.7481,18.4416,18.4416,0,0,1,5.2228-7.52886,27.19,27.19,0,0,1,9.96525-5.309A52.59717,52.59717,0,0,1,592.05,504.0927h5.309q10.26849,0,16.668,2.35021a26.00361,26.00361,0,0,1,9.92216,6.00585,18.72026,18.72026,0,0,1,4.7435,8.13848,33.2772,33.2772,0,0,1,1.21925,8.74705v3.2205H578.64562a10.41443,10.41443,0,0,0,4.70041,6.67854q3.828,2.54781,11.83722,2.54781h.08724a30.73691,30.73691,0,0,0,7.74643-.79462,17.88957,17.88957,0,0,0,4.61212-1.811,5.68521,5.68521,0,0,0,2.87259-3.48747h19.1485Z"/>
      <path class="cls-4" d="M642.35764,505.39814h19.23574v8.00815q.86873-.86873,2.655-2.3933a24.88145,24.88145,0,0,1,4.61212-3.00293,34.39,34.39,0,0,1,6.79-2.56778,34.81185,34.81185,0,0,1,9.1822-1.08786h.60962a30.96186,30.96186,0,0,1,10.44454,1.5661,19.90773,19.90773,0,0,1,7.09371,4.178,16.09158,16.09158,0,0,1,4.00355,5.87552,18.35331,18.35331,0,0,1,1.26235,6.65856v29.59305h-19.5847V528.958q0-5.42355-3.046-8.57258-3.0476-3.15008-9.487-3.15007-6.52717,0-10.44454,3.50008a11.83037,11.83037,0,0,0-3.91736,9.27154v22.2187H642.35764Z"/>
      <path class="cls-4" d="M774.22039,528.55124a9.24075,9.24075,0,0,0-1.17511-4.43974,12.19336,12.19336,0,0,0-3.39392-3.87322,17.23164,17.23164,0,0,0-5.5707-2.69811,26.65721,26.65721,0,0,0-7.6161-1.00062h-.43515a24.49525,24.49525,0,0,0-7.61609,1.00062,12.23645,12.23645,0,0,0-4.74351,2.69811,9.741,9.741,0,0,0-2.48054,3.87322,13.691,13.691,0,0,0-.74,4.43974v.34791a11.43672,11.43672,0,0,0,.87029,4.26527,10.79977,10.79977,0,0,0,2.74226,3.9163,14.07943,14.07943,0,0,0,4.87384,2.82845,21.4013,21.4013,0,0,0,7.26819,1.08786h.43515a25.06379,25.06379,0,0,0,7.6161-1.04371,17.97192,17.97192,0,0,0,5.48346-2.74226,11.67256,11.67256,0,0,0,3.35083-3.87322,9.52219,9.52219,0,0,0,1.131-4.43869Zm19.49641-41.08236v64.7568H774.39487v-7.13786a15.3707,15.3707,0,0,1-2.08954,2.0454,21.35858,21.35858,0,0,1-4.35146,2.74225,34.58308,34.58308,0,0,1-6.91923,2.43745,40.38085,40.38085,0,0,1-9.79183,1.04372h-1.132a41.45282,41.45282,0,0,1-13.40437-1.91506,25.319,25.319,0,0,1-9.138-5.22175,20.47066,20.47066,0,0,1-5.26589-7.65919A25.39326,25.39326,0,0,1,720.605,529.247v-1.65334a26.06331,26.06331,0,0,1,1.523-8.92153,18.87112,18.87112,0,0,1,4.96108-7.44162,24.36486,24.36486,0,0,1,8.92153-5.09246,41.533,41.533,0,0,1,13.31713-1.87092h1.39268a45.88313,45.88313,0,0,1,9.53011.87029,37.5993,37.5993,0,0,1,6.87613,2.08849,24.26344,24.26344,0,0,1,4.57008,2.48159q1.739,1.26129,2.52364,1.95816V487.46888Z"/>
    </g>
    <g class="cls-11">
      <polygon class="cls-4" points="6.283 567.802 35.093 567.802 57.462 608.1 79.918 567.802 107.684 567.802 107.684 632.559 87.665 632.559 87.665 587.734 62.163 632.559 51.283 632.559 25.781 587.734 25.781 632.559 6.283 632.559 6.283 567.802"/>
      <path class="cls-4" d="M142.67293,632.559H123.26271V585.73147h19.23574v8.26882a19.93861,19.93861,0,0,1,2.0454-2.52364,20.6059,20.6059,0,0,1,3.69874-3.09016,22.86106,22.86106,0,0,1,5.5276-2.61087,24.42378,24.42378,0,0,1,7.70229-1.08787H162.43a22.02058,22.02058,0,0,1,8.704,1.56611,15.16358,15.16358,0,0,1,5.91861,4.3525,18.277,18.277,0,0,1,3.35083,6.61442,30.50229,30.50229,0,0,1,1.08892,8.35606V608.275H162.779a17.372,17.372,0,0,0-.52239-4.30836,9.69215,9.69215,0,0,0-1.69749-3.5684,8.3992,8.3992,0,0,0-3.09016-2.43745,10.633,10.633,0,0,0-4.61317-.91338h-.08619a9.688,9.688,0,0,0-4.30836.91338,9.51355,9.51355,0,0,0-3.1774,2.48054,10.63189,10.63189,0,0,0-1.95816,3.61255,14.09145,14.09145,0,0,0-.65272,4.30836Z"/>
      <rect class="cls-4" x="174.87685" y="617.23958" width="20.97632" height="15.31943"/>
      <path class="cls-4" d="M264.00285,581.46726V591.999h31.68258a11.80769,11.80769,0,0,0,3.48117-.43515,5.5305,5.5305,0,0,0,2.17677-1.1751,3.97873,3.97873,0,0,0,1.08787-1.69749,6.31925,6.31925,0,0,0,.30376-1.91506v-.17343a6.19488,6.19488,0,0,0-.30376-1.9592,3.73189,3.73189,0,0,0-1.08787-1.61025,5.92048,5.92048,0,0,0-2.17677-1.131,11.84321,11.84321,0,0,0-3.48117-.43514Zm-20.27946-13.665H299.1666a45.75,45.75,0,0,1,11.5324,1.21819,20.41617,20.41617,0,0,1,7.26819,3.30774,11.624,11.624,0,0,1,3.786,4.74351,14.4453,14.4453,0,0,1,1.08786,5.52655v1.21925a11.56251,11.56251,0,0,1-1.1751,5.39623,13.16789,13.16789,0,0,1-6.17928,6.04894,24.17163,24.17163,0,0,1-2.91568,1.1751,32.42533,32.42533,0,0,1,4.04769,1.43577,17.26476,17.26476,0,0,1,4.569,2.87259,16.60422,16.60422,0,0,1,3.74288,4.78766,15.027,15.027,0,0,1,1.56611,7.1799v1.21924a21.23753,21.23753,0,0,1-1.2182,7.224,13.49131,13.49131,0,0,1-4.30836,5.91861,22.88549,22.88549,0,0,1-8.26882,4.00355A48.21688,48.21688,0,0,1,299.689,632.559H243.72339Zm20.27946,37.9491v12.70751H297.426a11.45946,11.45946,0,0,0,4.09079-.60963,6.306,6.306,0,0,0,2.43745-1.56715,5.04429,5.04429,0,0,0,1.1751-2.08849,8.12129,8.12129,0,0,0,.30481-2.08849v-.34895a7.93451,7.93451,0,0,0-.30481-2.13159,4.17507,4.17507,0,0,0-1.1751-1.91506,6.94234,6.94234,0,0,0-2.43745-1.39267,12.27889,12.27889,0,0,0-4.09079-.56548Z"/>
      <path class="cls-4" d="M379.93864,610.27725l-18.53993,2.87154a19.02793,19.02793,0,0,0-5.39623,1.47992,2.99844,2.99844,0,0,0-1.65334,2.87259v.08724a5.01894,5.01894,0,0,0,.391,1.914A4.00939,4.00939,0,0,0,356.13282,621.2a8.33169,8.33169,0,0,0,2.61192,1.2182,14.76163,14.76163,0,0,0,4.13388.47929,24.075,24.075,0,0,0,7.05062-.95753,18.69054,18.69054,0,0,0,5.35208-2.52363,12.10325,12.10325,0,0,0,3.43807-3.56946,7.77774,7.77774,0,0,0,1.21925-4.09078ZM380.46,626.118a14.79509,14.79509,0,0,1-2.34915,2.17573,21.02829,21.02829,0,0,1-4.13494,2.3933,30.19905,30.19905,0,0,1-6.26651,1.9592,43.79962,43.79962,0,0,1-8.92154.78305h-1.132a34.78361,34.78361,0,0,1-10.05249-1.26234,19.57908,19.57908,0,0,1-6.7458-3.39392,12.8105,12.8105,0,0,1-3.786-4.87489,14.53954,14.53954,0,0,1-1.1751-5.78828v-.60857q0-6.44048,4.57008-9.74873,4.569-3.30617,15.10081-4.26422l21.41147-2.0023a4.27914,4.27914,0,0,0,2.30711-.74,2.12377,2.12377,0,0,0,.65272-1.69748,3.2845,3.2845,0,0,0-.30482-1.30544,2.89619,2.89619,0,0,0-1.523-1.26234,13.83033,13.83033,0,0,0-3.65565-.91339,50.20584,50.20584,0,0,0-6.70271-.3479h-.43514a29.4907,29.4907,0,0,0-6.7889.60857,11.17876,11.17876,0,0,0-3.6115,1.43682,3.73918,3.73918,0,0,0-1.47992,1.69644,8.07132,8.07132,0,0,0-.39205,1.47991H337.02846v-.17343a23.32008,23.32008,0,0,1,.26066-3.35188,10.99775,10.99775,0,0,1,1.17511-3.52426,11.93581,11.93581,0,0,1,2.74225-3.35083,17.31991,17.31991,0,0,1,4.91694-2.87259,35.54887,35.54887,0,0,1,7.70333-2.0023,71.81377,71.81377,0,0,1,11.14036-.74h4.78765a71.9247,71.9247,0,0,1,15.9711,1.38637,23.31689,23.31689,0,0,1,8.66087,3.59468,9.20335,9.20335,0,0,1,3.5684,4.89275,20.70569,20.70569,0,0,1,.69686,5.19652v17.842a2.77813,2.77813,0,0,0,.47824,1.69013,2.33529,2.33529,0,0,0,1.95816.64851h2.52468v12.882H387.8585a7.71215,7.71215,0,0,1-4.83075-1.56715A7.26378,7.26378,0,0,1,380.46,626.118Z"/>
      <path class="cls-4" d="M445.21572,633.86445q-10.00993,0-16.36316-2.30711a27.48332,27.48332,0,0,1-9.96525-5.83137,18.74563,18.74563,0,0,1-4.96108-7.78953,27.05788,27.05788,0,0,1-1.34958-8.18157v-1.74059a26.24683,26.24683,0,0,1,1.34958-8.09538,18.38462,18.38462,0,0,1,4.91694-7.615,26.88416,26.88416,0,0,1,9.9232-5.65794q6.35219-2.21988,16.36316-2.21987h4.96108a63.11036,63.11036,0,0,1,12.57717,1.08786,39.51017,39.51017,0,0,1,8.92154,2.8295,21.74555,21.74555,0,0,1,5.9186,3.96045,18.99433,18.99433,0,0,1,3.48117,4.48179,15.06913,15.06913,0,0,1,1.61025,4.3956,20.928,20.928,0,0,1,.39205,3.69874v.26171H463.05878a17.58582,17.58582,0,0,0-.74-2.08954,7.99556,7.99556,0,0,0-2.17572-2.82844,13.66,13.66,0,0,0-4.61318-2.48054,24.86,24.86,0,0,0-7.964-1.04477h-.26067a22.4141,22.4141,0,0,0-7.09371.95753,12.22631,12.22631,0,0,0-4.57008,2.61192,9.49421,9.49421,0,0,0-2.48054,3.74183,12.70086,12.70086,0,0,0-.7389,4.26527v.60963a14.765,14.765,0,0,0,.7389,4.61317,9.972,9.972,0,0,0,2.48054,4.00355,12.84823,12.84823,0,0,0,4.61318,2.82844,19.98419,19.98419,0,0,0,7.05061,1.08787h.26067a23.58585,23.58585,0,0,0,7.87782-1.08787A14.77964,14.77964,0,0,0,460.1,617.80611a7.70762,7.70762,0,0,0,2.21882-2.87259,19.32714,19.32714,0,0,0,.74-2.13264h19.93261v.17448a24.69825,24.69825,0,0,1-.349,3.82907,15.15957,15.15957,0,0,1-1.523,4.48284,18.78169,18.78169,0,0,1-3.39392,4.569A21.06575,21.06575,0,0,1,471.85,629.904a37.84817,37.84817,0,0,1-9.00877,2.8726,65.49672,65.49672,0,0,1-12.83784,1.08786Z"/>
      <polygon class="cls-4" points="495.263 632.559 495.263 567.802 514.672 567.802 514.672 604.445 533.647 585.731 555.146 585.731 533.037 606.882 557.844 632.559 535.04 632.559 514.672 611.06 514.672 632.559 495.263 632.559"/>
      <path class="cls-4" d="M594.57362,595.30572q-7.31076,0-10.87969,2.08954a9.91874,9.91874,0,0,0-4.70041,5.83137H610.3282a9.19553,9.19553,0,0,0-4.61317-5.83137q-3.65617-2.089-11.05417-2.08954Zm35.07651,20.8029a16.68888,16.68888,0,0,1-1.08786,5.43932,13.43771,13.43771,0,0,1-4.48284,5.83242,28.26054,28.26054,0,0,1-9.74768,4.61212q-6.35533,1.87144-16.7983,1.872h-4.96213a52.64888,52.64888,0,0,1-15.71043-2.0023,28.1137,28.1137,0,0,1-10.13973-5.35208,19.32587,19.32587,0,0,1-5.48347-7.66024,24.68062,24.68062,0,0,1-1.65334-8.92154v-1.914a25.56961,25.56961,0,0,1,1.523-8.7481,18.44166,18.44166,0,0,1,5.2228-7.52886,27.18982,27.18982,0,0,1,9.96525-5.309A52.59684,52.59684,0,0,1,592.05,584.426h5.309q10.26849,0,16.668,2.3502a26.00373,26.00373,0,0,1,9.92216,6.00585,18.72032,18.72032,0,0,1,4.7435,8.13848,33.27728,33.27728,0,0,1,1.21925,8.74706v3.22049H578.64562a10.41443,10.41443,0,0,0,4.70041,6.67854q3.828,2.54781,11.83722,2.54781h.08724a30.73744,30.73744,0,0,0,7.74643-.79461,17.88954,17.88954,0,0,0,4.61212-1.811,5.68521,5.68521,0,0,0,2.87259-3.48747h19.1485Z"/>
      <path class="cls-4" d="M642.35764,585.73147h19.23574v8.00815q.86873-.86871,2.655-2.3933a24.88145,24.88145,0,0,1,4.61212-3.00292,34.38942,34.38942,0,0,1,6.79-2.56778,34.81141,34.81141,0,0,1,9.1822-1.08787h.60962a30.96159,30.96159,0,0,1,10.44454,1.56611,19.90771,19.90771,0,0,1,7.09371,4.178,16.09167,16.09167,0,0,1,4.00355,5.87552,18.35336,18.35336,0,0,1,1.26235,6.65857v29.593h-19.5847V609.29134q0-5.42355-3.046-8.57257-3.0476-3.15007-9.487-3.15008-6.52717,0-10.44454,3.50008a11.8304,11.8304,0,0,0-3.91736,9.27155V632.559H642.35764Z"/>
      <path class="cls-4" d="M774.22039,608.88458a9.24079,9.24079,0,0,0-1.17511-4.43975,12.19347,12.19347,0,0,0-3.39392-3.87322,17.232,17.232,0,0,0-5.5707-2.69811,26.65721,26.65721,0,0,0-7.6161-1.00062h-.43515a24.49525,24.49525,0,0,0-7.61609,1.00062,12.23671,12.23671,0,0,0-4.74351,2.69811,9.74106,9.74106,0,0,0-2.48054,3.87322,13.691,13.691,0,0,0-.74,4.43975v.3479a11.43668,11.43668,0,0,0,.87029,4.26527,10.79989,10.79989,0,0,0,2.74226,3.91631,14.07942,14.07942,0,0,0,4.87384,2.82844,21.401,21.401,0,0,0,7.26819,1.08787h.43515a25.06377,25.06377,0,0,0,7.6161-1.04372,17.97169,17.97169,0,0,0,5.48346-2.74226,11.67262,11.67262,0,0,0,3.35083-3.87321,9.52223,9.52223,0,0,0,1.131-4.4387Zm19.49641-41.08236V632.559H774.39487v-7.13786a15.3707,15.3707,0,0,1-2.08954,2.0454,21.35857,21.35857,0,0,1-4.35146,2.74226,34.58311,34.58311,0,0,1-6.91923,2.43744,40.38085,40.38085,0,0,1-9.79183,1.04372h-1.132a41.45255,41.45255,0,0,1-13.40437-1.91506,25.319,25.319,0,0,1-9.138-5.22175,20.47058,20.47058,0,0,1-5.26589-7.65919,25.39325,25.39325,0,0,1-1.69749-9.31358v-1.65334a26.06337,26.06337,0,0,1,1.523-8.92154,18.87112,18.87112,0,0,1,4.96108-7.44162,24.36514,24.36514,0,0,1,8.92153-5.09246,41.533,41.533,0,0,1,13.31713-1.87092h1.39268a45.88239,45.88239,0,0,1,9.53011.8703,37.59856,37.59856,0,0,1,6.87613,2.08848,24.264,24.264,0,0,1,4.57008,2.48159q1.739,1.26129,2.52364,1.95816V567.80222Z"/>
    </g>
    <g class="cls-12">
      <polygon class="cls-4" points="6.283 648.136 35.093 648.136 57.462 688.434 79.918 648.136 107.684 648.136 107.684 712.892 87.665 712.892 87.665 668.067 62.163 712.892 51.283 712.892 25.781 668.067 25.781 712.892 6.283 712.892 6.283 648.136"/>
      <path class="cls-4" d="M142.67293,712.89235H123.26271V666.06481h19.23574v8.26881a19.93937,19.93937,0,0,1,2.0454-2.52363,20.60592,20.60592,0,0,1,3.69874-3.09017,22.86143,22.86143,0,0,1,5.5276-2.61087,24.42408,24.42408,0,0,1,7.70229-1.08786H162.43a22.02058,22.02058,0,0,1,8.704,1.5661,15.1636,15.1636,0,0,1,5.91861,4.35251,18.277,18.277,0,0,1,3.35083,6.61442,30.50216,30.50216,0,0,1,1.08892,8.356v2.69811H162.779a17.372,17.372,0,0,0-.52239-4.30836,9.69222,9.69222,0,0,0-1.69749-3.5684,8.39907,8.39907,0,0,0-3.09016-2.43744,10.63287,10.63287,0,0,0-4.61317-.91339h-.08619a9.68782,9.68782,0,0,0-4.30836.91339,9.51353,9.51353,0,0,0-3.1774,2.48053,10.632,10.632,0,0,0-1.95816,3.61255,14.09145,14.09145,0,0,0-.65272,4.30836Z"/>
      <rect class="cls-4" x="174.87685" y="697.57291" width="20.97632" height="15.31943"/>
      <path class="cls-4" d="M264.00285,661.80059v10.53178h31.68258a11.80805,11.80805,0,0,0,3.48117-.43514,5.5305,5.5305,0,0,0,2.17677-1.17511,3.97876,3.97876,0,0,0,1.08787-1.69748,6.31936,6.31936,0,0,0,.30376-1.91507v-.17342a6.19494,6.19494,0,0,0-.30376-1.95921,3.73189,3.73189,0,0,0-1.08787-1.61025,5.92033,5.92033,0,0,0-2.17677-1.13095,11.84284,11.84284,0,0,0-3.48117-.43515Zm-20.27946-13.665H299.1666a45.74992,45.74992,0,0,1,11.5324,1.2182,20.41617,20.41617,0,0,1,7.26819,3.30773,11.624,11.624,0,0,1,3.786,4.74351,14.44531,14.44531,0,0,1,1.08786,5.52656v1.21925a11.56247,11.56247,0,0,1-1.1751,5.39622,13.16789,13.16789,0,0,1-6.17928,6.04894,24.172,24.172,0,0,1-2.91568,1.17511,32.42208,32.42208,0,0,1,4.04769,1.43577,17.26425,17.26425,0,0,1,4.569,2.87259,16.60417,16.60417,0,0,1,3.74288,4.78765,15.027,15.027,0,0,1,1.56611,7.1799v1.21925a21.23747,21.23747,0,0,1-1.2182,7.224,13.49131,13.49131,0,0,1-4.30836,5.91861,22.88533,22.88533,0,0,1-8.26882,4.00355,48.21684,48.21684,0,0,1-13.01232,1.47992H243.72339Zm20.27946,37.9491v12.70751H297.426a11.45971,11.45971,0,0,0,4.09079-.60962,6.306,6.306,0,0,0,2.43745-1.56716,5.04422,5.04422,0,0,0,1.1751-2.08849,8.12128,8.12128,0,0,0,.30481-2.08848v-.349a7.93444,7.93444,0,0,0-.30481-2.13158,4.175,4.175,0,0,0-1.1751-1.91506,6.94235,6.94235,0,0,0-2.43745-1.39268,12.27889,12.27889,0,0,0-4.09079-.56548Z"/>
      <path class="cls-4" d="M379.93864,690.61058l-18.53993,2.87154a19.02827,19.02827,0,0,0-5.39623,1.47992,2.99844,2.99844,0,0,0-1.65334,2.87259v.08724a5.0189,5.0189,0,0,0,.391,1.914,4.00948,4.00948,0,0,0,1.39268,1.69749,8.33191,8.33191,0,0,0,2.61192,1.21819,14.76163,14.76163,0,0,0,4.13388.47929,24.075,24.075,0,0,0,7.05062-.95753,18.69054,18.69054,0,0,0,5.35208-2.52363,12.10334,12.10334,0,0,0,3.43807-3.56945,7.7778,7.7778,0,0,0,1.21925-4.09079Zm.52133,15.84077a14.79462,14.79462,0,0,1-2.34915,2.17573,21.02779,21.02779,0,0,1-4.13494,2.3933,30.19905,30.19905,0,0,1-6.26651,1.9592,43.79955,43.79955,0,0,1-8.92154.78306h-1.132a34.78323,34.78323,0,0,1-10.05249-1.26235,19.5789,19.5789,0,0,1-6.7458-3.39392,12.8105,12.8105,0,0,1-3.786-4.87489,14.5395,14.5395,0,0,1-1.1751-5.78828v-.60857q0-6.44047,4.57008-9.74873,4.569-3.30616,15.10081-4.26422l21.41147-2.0023a4.27914,4.27914,0,0,0,2.30711-.74,2.1238,2.1238,0,0,0,.65272-1.69749,3.2845,3.2845,0,0,0-.30482-1.30544,2.89628,2.89628,0,0,0-1.523-1.26234,13.83,13.83,0,0,0-3.65565-.91338,50.20384,50.20384,0,0,0-6.70271-.34791h-.43514a29.49127,29.49127,0,0,0-6.7889.60857,11.17876,11.17876,0,0,0-3.6115,1.43682,3.73928,3.73928,0,0,0-1.47992,1.69644,8.07132,8.07132,0,0,0-.39205,1.47991H337.02846v-.17342a23.32,23.32,0,0,1,.26066-3.35188,10.99767,10.99767,0,0,1,1.17511-3.52426,11.93567,11.93567,0,0,1,2.74225-3.35083,17.31944,17.31944,0,0,1,4.91694-2.87259,35.54829,35.54829,0,0,1,7.70333-2.0023,71.8124,71.8124,0,0,1,11.14036-.74h4.78765a71.9247,71.9247,0,0,1,15.9711,1.38637,23.31706,23.31706,0,0,1,8.66087,3.59468,9.20337,9.20337,0,0,1,3.5684,4.89276,20.70557,20.70557,0,0,1,.69686,5.19652v17.842a2.77813,2.77813,0,0,0,.47824,1.69013,2.33526,2.33526,0,0,0,1.95816.64852h2.52468v12.882H387.8585a7.71216,7.71216,0,0,1-4.83075-1.56716A7.26378,7.26378,0,0,1,380.46,706.45135Z"/>
      <path class="cls-4" d="M445.21572,714.19778q-10.00993,0-16.36316-2.30711a27.483,27.483,0,0,1-9.96525-5.83137,18.7456,18.7456,0,0,1-4.96108-7.78952,27.05794,27.05794,0,0,1-1.34958-8.18158v-1.74058a26.24684,26.24684,0,0,1,1.34958-8.09539,18.38462,18.38462,0,0,1,4.91694-7.61505,26.88444,26.88444,0,0,1,9.9232-5.65794q6.35219-2.21987,16.36316-2.21987h4.96108a63.11036,63.11036,0,0,1,12.57717,1.08786,39.51067,39.51067,0,0,1,8.92154,2.8295,21.74555,21.74555,0,0,1,5.9186,3.96045,18.99474,18.99474,0,0,1,3.48117,4.48179,15.06934,15.06934,0,0,1,1.61025,4.3956,20.92812,20.92812,0,0,1,.39205,3.69874v.26172H463.05878a17.58456,17.58456,0,0,0-.74-2.08954,7.9955,7.9955,0,0,0-2.17572-2.82845,13.66015,13.66015,0,0,0-4.61318-2.48054,24.86,24.86,0,0,0-7.964-1.04477h-.26067a22.4141,22.4141,0,0,0-7.09371.95753,12.22632,12.22632,0,0,0-4.57008,2.61193,9.49414,9.49414,0,0,0-2.48054,3.74183,12.70076,12.70076,0,0,0-.7389,4.26526v.60963a14.765,14.765,0,0,0,.7389,4.61317,9.972,9.972,0,0,0,2.48054,4.00355,12.84838,12.84838,0,0,0,4.61318,2.82845,19.98443,19.98443,0,0,0,7.05061,1.08786h.26067a23.58613,23.58613,0,0,0,7.87782-1.08786A14.77984,14.77984,0,0,0,460.1,698.13944a7.70762,7.70762,0,0,0,2.21882-2.87259,19.32787,19.32787,0,0,0,.74-2.13263h19.93261v.17448a24.69836,24.69836,0,0,1-.349,3.82907,15.15977,15.15977,0,0,1-1.523,4.48284,18.78184,18.78184,0,0,1-3.39392,4.569,21.066,21.066,0,0,1-5.87552,4.0477,37.84774,37.84774,0,0,1-9.00877,2.87259,65.49672,65.49672,0,0,1-12.83784,1.08786Z"/>
      <polygon class="cls-4" points="495.263 712.892 495.263 648.136 514.672 648.136 514.672 684.778 533.647 666.065 555.146 666.065 533.037 687.216 557.844 712.892 535.04 712.892 514.672 691.394 514.672 712.892 495.263 712.892"/>
      <path class="cls-4" d="M594.57362,675.63906q-7.31076,0-10.87969,2.08954a9.91868,9.91868,0,0,0-4.70041,5.83137H610.3282a9.19548,9.19548,0,0,0-4.61317-5.83137q-3.65617-2.089-11.05417-2.08954ZM629.65013,696.442a16.68883,16.68883,0,0,1-1.08786,5.43932,13.43771,13.43771,0,0,1-4.48284,5.83242,28.26054,28.26054,0,0,1-9.74768,4.61213q-6.35533,1.87143-16.7983,1.872h-4.96213a52.64888,52.64888,0,0,1-15.71043-2.0023,28.11355,28.11355,0,0,1-10.13973-5.35208,19.3258,19.3258,0,0,1-5.48347-7.66024,24.68056,24.68056,0,0,1-1.65334-8.92153v-1.914a25.56962,25.56962,0,0,1,1.523-8.74811,18.44166,18.44166,0,0,1,5.2228-7.52886,27.19011,27.19011,0,0,1,9.96525-5.309,52.59684,52.59684,0,0,1,15.75458-2.0023h5.309q10.26849,0,16.668,2.3502a26.00386,26.00386,0,0,1,9.92216,6.00585,18.72035,18.72035,0,0,1,4.7435,8.13849,33.2772,33.2772,0,0,1,1.21925,8.747v3.2205H578.64562A10.41439,10.41439,0,0,0,583.346,699.9q3.828,2.54781,11.83722,2.54781h.08724a30.73744,30.73744,0,0,0,7.74643-.79461,17.88957,17.88957,0,0,0,4.61212-1.811,5.68518,5.68518,0,0,0,2.87259-3.48748h19.1485Z"/>
      <path class="cls-4" d="M642.35764,666.06481h19.23574V674.073q.86873-.86871,2.655-2.3933a24.88145,24.88145,0,0,1,4.61212-3.00292,34.38942,34.38942,0,0,1,6.79-2.56778,34.81185,34.81185,0,0,1,9.1822-1.08786h.60962a30.96161,30.96161,0,0,1,10.44454,1.5661,19.90773,19.90773,0,0,1,7.09371,4.178,16.09163,16.09163,0,0,1,4.00355,5.87551,18.35336,18.35336,0,0,1,1.26235,6.65857v29.593h-19.5847V689.62468q0-5.42357-3.046-8.57258-3.0476-3.15008-9.487-3.15008-6.52717,0-10.44454,3.50009a11.83037,11.83037,0,0,0-3.91736,9.27154v22.2187H642.35764Z"/>
      <path class="cls-4" d="M774.22039,689.21791a9.24079,9.24079,0,0,0-1.17511-4.43975,12.19344,12.19344,0,0,0-3.39392-3.87321,17.23164,17.23164,0,0,0-5.5707-2.69811,26.65685,26.65685,0,0,0-7.6161-1.00063h-.43515a24.49493,24.49493,0,0,0-7.61609,1.00063,12.23645,12.23645,0,0,0-4.74351,2.69811,9.741,9.741,0,0,0-2.48054,3.87321,13.691,13.691,0,0,0-.74,4.43975v.3479a11.43665,11.43665,0,0,0,.87029,4.26527,10.79981,10.79981,0,0,0,2.74226,3.91631,14.07943,14.07943,0,0,0,4.87384,2.82845,21.4013,21.4013,0,0,0,7.26819,1.08786h.43515a25.06377,25.06377,0,0,0,7.6161-1.04372,17.97169,17.97169,0,0,0,5.48346-2.74226,11.67253,11.67253,0,0,0,3.35083-3.87321,9.5222,9.5222,0,0,0,1.131-4.4387Zm19.49641-41.08236v64.7568H774.39487v-7.13786a15.3714,15.3714,0,0,1-2.08954,2.04539,21.35857,21.35857,0,0,1-4.35146,2.74226,34.58311,34.58311,0,0,1-6.91923,2.43744,40.38035,40.38035,0,0,1-9.79183,1.04372h-1.132a41.45255,41.45255,0,0,1-13.40437-1.91506,25.31888,25.31888,0,0,1-9.138-5.22174,20.47066,20.47066,0,0,1-5.26589-7.65919,25.39326,25.39326,0,0,1-1.69749-9.31359v-1.65334a26.06341,26.06341,0,0,1,1.523-8.92154,18.871,18.871,0,0,1,4.96108-7.44161,24.365,24.365,0,0,1,8.92153-5.09247,41.53331,41.53331,0,0,1,13.31713-1.87091h1.39268a45.88313,45.88313,0,0,1,9.53011.87029,37.59852,37.59852,0,0,1,6.87613,2.08849,24.26344,24.26344,0,0,1,4.57008,2.48159q1.739,1.26129,2.52364,1.95815V648.13555Z"/>
    </g>
    <g class="cls-13">
      <path class="cls-4" d="M6.2832,728.46888h28.81l22.369,40.29826,22.45624-40.29826h27.76522v64.7568H87.66487V748.40044L62.16261,793.22568H51.28292L25.78066,748.40044v44.82524H6.2832Z"/>
      <path class="cls-4" d="M142.67293,793.22568H123.26271V746.39814h19.23574V754.667a19.93937,19.93937,0,0,1,2.0454-2.52363,20.6059,20.6059,0,0,1,3.69874-3.09016,22.86143,22.86143,0,0,1,5.5276-2.61088,24.42408,24.42408,0,0,1,7.70229-1.08786H162.43a22.02076,22.02076,0,0,1,8.704,1.5661,15.1636,15.1636,0,0,1,5.91861,4.35251,18.277,18.277,0,0,1,3.35083,6.61442,30.50229,30.50229,0,0,1,1.08892,8.35606v2.69811H162.779a17.37192,17.37192,0,0,0-.52239-4.30836,9.69219,9.69219,0,0,0-1.69749-3.56841,8.39917,8.39917,0,0,0-3.09016-2.43744,10.633,10.633,0,0,0-4.61317-.91339h-.08619a9.688,9.688,0,0,0-4.30836.91339,9.51343,9.51343,0,0,0-3.1774,2.48054,10.63189,10.63189,0,0,0-1.95816,3.61255,14.09136,14.09136,0,0,0-.65272,4.30836Z"/>
      <path class="cls-4" d="M195.85318,793.22568H174.87685V777.90625h20.97633Z"/>
      <path class="cls-4" d="M264.00285,742.13392v10.53179h31.68258a11.80769,11.80769,0,0,0,3.48117-.43515,5.53062,5.53062,0,0,0,2.17677-1.1751,3.97885,3.97885,0,0,0,1.08787-1.69749,6.3193,6.3193,0,0,0,.30376-1.91506v-.17343a6.19488,6.19488,0,0,0-.30376-1.9592A3.73177,3.73177,0,0,0,301.34337,743.7a5.92033,5.92033,0,0,0-2.17677-1.131,11.84284,11.84284,0,0,0-3.48117-.43515Zm-20.27946-13.665H299.1666a45.74992,45.74992,0,0,1,11.5324,1.2182,20.416,20.416,0,0,1,7.26819,3.30774,11.62386,11.62386,0,0,1,3.786,4.7435,14.44535,14.44535,0,0,1,1.08786,5.52656v1.21925a11.56244,11.56244,0,0,1-1.1751,5.39622,13.16785,13.16785,0,0,1-6.17928,6.04895,24.1733,24.1733,0,0,1-2.91568,1.1751,32.42533,32.42533,0,0,1,4.04769,1.43577,17.26425,17.26425,0,0,1,4.569,2.87259,16.60417,16.60417,0,0,1,3.74288,4.78765,15.027,15.027,0,0,1,1.56611,7.1799v1.21925a21.23753,21.23753,0,0,1-1.2182,7.22405,13.49142,13.49142,0,0,1-4.30836,5.91861,22.88532,22.88532,0,0,1-8.26882,4.00354,48.21684,48.21684,0,0,1-13.01232,1.47992H243.72339Zm20.27946,37.9491v12.70751H297.426a11.45948,11.45948,0,0,0,4.09079-.60962,6.30606,6.30606,0,0,0,2.43745-1.56715,5.04435,5.04435,0,0,0,1.1751-2.08849,8.12135,8.12135,0,0,0,.30481-2.08849v-.349a7.93444,7.93444,0,0,0-.30481-2.13158,4.175,4.175,0,0,0-1.1751-1.91506,6.9425,6.9425,0,0,0-2.43745-1.39268,12.27915,12.27915,0,0,0-4.09079-.56548Z"/>
      <path class="cls-4" d="M379.93864,770.94392l-18.53993,2.87154a19.028,19.028,0,0,0-5.39623,1.47991,2.99846,2.99846,0,0,0-1.65334,2.87259v.08724a5.01886,5.01886,0,0,0,.391,1.914,4.00936,4.00936,0,0,0,1.39268,1.69749,8.33192,8.33192,0,0,0,2.61192,1.2182,14.76163,14.76163,0,0,0,4.13388.47929,24.07531,24.07531,0,0,0,7.05062-.95753,18.69055,18.69055,0,0,0,5.35208-2.52364,12.10322,12.10322,0,0,0,3.43807-3.56945,7.77777,7.77777,0,0,0,1.21925-4.09079Zm.52133,15.84077a14.7951,14.7951,0,0,1-2.34915,2.17572,21.02729,21.02729,0,0,1-4.13494,2.3933,30.199,30.199,0,0,1-6.26651,1.95921,43.80033,43.80033,0,0,1-8.92154.78305h-1.132a34.78361,34.78361,0,0,1-10.05249-1.26234,19.57891,19.57891,0,0,1-6.7458-3.39393,12.81042,12.81042,0,0,1-3.786-4.87489,14.53945,14.53945,0,0,1-1.1751-5.78827V778.168q0-6.44046,4.57008-9.74873,4.569-3.30615,15.10081-4.26421l21.41147-2.0023a4.27914,4.27914,0,0,0,2.30711-.74,2.12378,2.12378,0,0,0,.65272-1.69749,3.28446,3.28446,0,0,0-.30482-1.30543,2.89624,2.89624,0,0,0-1.523-1.26235,13.83078,13.83078,0,0,0-3.65565-.91338,50.20384,50.20384,0,0,0-6.70271-.34791h-.43514a29.49061,29.49061,0,0,0-6.7889.60858,11.17831,11.17831,0,0,0-3.6115,1.43682A3.73921,3.73921,0,0,0,355.437,759.628a8.07139,8.07139,0,0,0-.39205,1.47992H337.02846v-.17343a23.32008,23.32008,0,0,1,.26066-3.35188,10.99767,10.99767,0,0,1,1.17511-3.52426,11.93567,11.93567,0,0,1,2.74225-3.35083,17.31944,17.31944,0,0,1,4.91694-2.87259,35.54887,35.54887,0,0,1,7.70333-2.0023,71.81364,71.81364,0,0,1,11.14036-.74h4.78765a71.9253,71.9253,0,0,1,15.9711,1.38637,23.31723,23.31723,0,0,1,8.66087,3.59468,9.20341,9.20341,0,0,1,3.5684,4.89276,20.70563,20.70563,0,0,1,.69686,5.19652v17.842a2.77815,2.77815,0,0,0,.47824,1.69013,2.33529,2.33529,0,0,0,1.95816.64851h2.52468v12.882H387.8585a7.71221,7.71221,0,0,1-4.83075-1.56715A7.2638,7.2638,0,0,1,380.46,786.78469Z"/>
      <path class="cls-4" d="M445.21572,794.53112q-10.00993,0-16.36316-2.30712a27.483,27.483,0,0,1-9.96525-5.83137,18.74553,18.74553,0,0,1-4.96108-7.78952,27.05789,27.05789,0,0,1-1.34958-8.18158V768.681a26.24694,26.24694,0,0,1,1.34958-8.09539,18.38453,18.38453,0,0,1,4.91694-7.615,26.88416,26.88416,0,0,1,9.9232-5.65794q6.35219-2.21988,16.36316-2.21988h4.96108a63.11029,63.11029,0,0,1,12.57717,1.08787,39.5107,39.5107,0,0,1,8.92154,2.82949,21.74534,21.74534,0,0,1,5.9186,3.96046,18.99433,18.99433,0,0,1,3.48117,4.48179,15.06913,15.06913,0,0,1,1.61025,4.3956,20.92793,20.92793,0,0,1,.39205,3.69873v.26172H463.05878a17.58519,17.58519,0,0,0-.74-2.08954,7.99547,7.99547,0,0,0-2.17572-2.82844,13.66,13.66,0,0,0-4.61318-2.48054,24.8597,24.8597,0,0,0-7.964-1.04477h-.26067a22.41381,22.41381,0,0,0-7.09371.95753,12.22617,12.22617,0,0,0-4.57008,2.61192,9.49421,9.49421,0,0,0-2.48054,3.74183,12.70082,12.70082,0,0,0-.7389,4.26527v.60962a14.76506,14.76506,0,0,0,.7389,4.61318,9.97192,9.97192,0,0,0,2.48054,4.00354,12.84824,12.84824,0,0,0,4.61318,2.82845,19.98443,19.98443,0,0,0,7.05061,1.08786h.26067a23.58613,23.58613,0,0,0,7.87782-1.08786A14.77964,14.77964,0,0,0,460.1,778.47278a7.70762,7.70762,0,0,0,2.21882-2.87259,19.32786,19.32786,0,0,0,.74-2.13264h19.93261v.17448a24.69825,24.69825,0,0,1-.349,3.82907,15.15957,15.15957,0,0,1-1.523,4.48284,18.78207,18.78207,0,0,1-3.39392,4.569,21.06617,21.06617,0,0,1-5.87552,4.04769,37.84774,37.84774,0,0,1-9.00877,2.87259,65.49665,65.49665,0,0,1-12.83784,1.08787Z"/>
      <path class="cls-4" d="M495.2627,793.22568v-64.7568h19.40917V765.1115l18.97508-18.71336h21.49871l-22.10834,21.1508,24.80645,25.67674H535.03962L514.67187,771.727v21.49871Z"/>
      <path class="cls-4" d="M594.57362,755.97239q-7.31076,0-10.87969,2.08954a9.91874,9.91874,0,0,0-4.70041,5.83137H610.3282a9.19553,9.19553,0,0,0-4.61317-5.83137q-3.65617-2.089-11.05417-2.08954Zm35.07651,20.8029a16.68888,16.68888,0,0,1-1.08786,5.43932,13.43771,13.43771,0,0,1-4.48284,5.83242,28.26073,28.26073,0,0,1-9.74768,4.61212q-6.35533,1.87145-16.7983,1.872h-4.96213a52.64921,52.64921,0,0,1-15.71043-2.0023,28.11385,28.11385,0,0,1-10.13973-5.35208,19.32583,19.32583,0,0,1-5.48347-7.66025,24.68056,24.68056,0,0,1-1.65334-8.92153v-1.914a25.56957,25.56957,0,0,1,1.523-8.7481,18.44166,18.44166,0,0,1,5.2228-7.52886,27.19,27.19,0,0,1,9.96525-5.309A52.59717,52.59717,0,0,1,592.05,745.0927h5.309q10.26849,0,16.668,2.35021a26.00361,26.00361,0,0,1,9.92216,6.00585,18.72026,18.72026,0,0,1,4.7435,8.13848,33.2772,33.2772,0,0,1,1.21925,8.74705v3.2205H578.64562a10.41443,10.41443,0,0,0,4.70041,6.67854q3.828,2.54781,11.83722,2.54781h.08724a30.73691,30.73691,0,0,0,7.74643-.79462,17.88957,17.88957,0,0,0,4.61212-1.811,5.68521,5.68521,0,0,0,2.87259-3.48747h19.1485Z"/>
      <path class="cls-4" d="M642.35764,746.39814h19.23574v8.00815q.86873-.86873,2.655-2.3933a24.88145,24.88145,0,0,1,4.61212-3.00293,34.39,34.39,0,0,1,6.79-2.56778,34.81185,34.81185,0,0,1,9.1822-1.08786h.60962a30.96186,30.96186,0,0,1,10.44454,1.5661,19.90773,19.90773,0,0,1,7.09371,4.178,16.09158,16.09158,0,0,1,4.00355,5.87552,18.35331,18.35331,0,0,1,1.26235,6.65856v29.59305h-19.5847V769.958q0-5.42355-3.046-8.57258-3.0476-3.15008-9.487-3.15007-6.52717,0-10.44454,3.50008a11.83037,11.83037,0,0,0-3.91736,9.27154v22.2187H642.35764Z"/>
      <path class="cls-4" d="M774.22039,769.55124a9.24075,9.24075,0,0,0-1.17511-4.43974,12.19336,12.19336,0,0,0-3.39392-3.87322,17.23164,17.23164,0,0,0-5.5707-2.69811,26.65721,26.65721,0,0,0-7.6161-1.00062h-.43515a24.49525,24.49525,0,0,0-7.61609,1.00062,12.23645,12.23645,0,0,0-4.74351,2.69811,9.741,9.741,0,0,0-2.48054,3.87322,13.691,13.691,0,0,0-.74,4.43974v.34791a11.43672,11.43672,0,0,0,.87029,4.26527,10.79977,10.79977,0,0,0,2.74226,3.9163,14.07943,14.07943,0,0,0,4.87384,2.82845,21.4013,21.4013,0,0,0,7.26819,1.08786h.43515a25.06379,25.06379,0,0,0,7.6161-1.04371,17.97192,17.97192,0,0,0,5.48346-2.74226,11.67256,11.67256,0,0,0,3.35083-3.87322,9.52219,9.52219,0,0,0,1.131-4.43869Zm19.49641-41.08236v64.7568H774.39487v-7.13786a15.3707,15.3707,0,0,1-2.08954,2.0454,21.35858,21.35858,0,0,1-4.35146,2.74225,34.58308,34.58308,0,0,1-6.91923,2.43745,40.38085,40.38085,0,0,1-9.79183,1.04372h-1.132a41.45282,41.45282,0,0,1-13.40437-1.91506,25.319,25.319,0,0,1-9.138-5.22175,20.47066,20.47066,0,0,1-5.26589-7.65919A25.39326,25.39326,0,0,1,720.605,770.247v-1.65334a26.06331,26.06331,0,0,1,1.523-8.92153,18.87112,18.87112,0,0,1,4.96108-7.44162,24.365,24.365,0,0,1,8.92153-5.09246,41.533,41.533,0,0,1,13.31713-1.87092h1.39268a45.88313,45.88313,0,0,1,9.53011.87029,37.5993,37.5993,0,0,1,6.87613,2.08849,24.26344,24.26344,0,0,1,4.57008,2.48159q1.739,1.26129,2.52364,1.95816V728.46888Z"/>
    </g>
  </g>
  <path d="M639.33029,800.25C639.20835,668.17369,532.104,561.14177,400,561.14177c-132.10515,0-239.20835,107.03192-239.33029,239.10823Z"/>
  <path d="M489.958,117.21389A233.59876,233.59876,0,0,1,612.87689,240.13277q18.16638,41.91261,18.17411,89.958,0,48.06087-18.17411,89.958A233.59873,233.59873,0,0,1,489.958,542.96766q-41.901,18.178-89.958,18.17411-48.04926,0-89.95027-18.17411A233.59876,233.59876,0,0,1,187.13085,420.04877q-18.18959-41.901-18.18185-89.958,0-48.04926,18.18185-89.958A233.59879,233.59879,0,0,1,310.04973,117.21389Q351.93914,99.04751,400,99.03977,448.06087,99.03977,489.958,117.21389Z"/>
  <rect class="cls-4" x="268.54672" y="231.02342" width="262.90655" height="262.90655"/>
  <g>
    <circle class="cls-14" cx="537.36386" cy="362.4767" r="20.63406"/>
    <circle class="cls-14" cx="262.63614" cy="362.4767" r="20.63406"/>
  </g>
  <circle cx="324.55481" cy="295.33641" r="29.52121"/>
  <circle cx="478.06512" cy="295.33641" r="29.52121"/>
  <path class="cls-15" d="M289.39789,263.78809a47.11768,47.11768,0,0,1,35.15692-15.68795"/>
  <path class="cls-15" d="M513.12726,263.78809a47.11768,47.11768,0,0,0-35.15692-15.68795"/>
  <g>
    <g>
      <path d="M256,265.81219s15.37245-10.24829,32.02593-10.24829,102.483,19.21555,102.483,19.21555S378.97957,328.583,359.764,336.26924s-76.86223,1.281-85.82949-8.96726S256,265.81219,256,265.81219Z"/>
      <path d="M543,265.81219s-15.37245-10.24829-32.02593-10.24829-102.483,19.21555-102.483,19.21555,11.52934,53.80357,30.7449,61.48979,76.86223,1.281,85.82949-8.96726S543,265.81219,543,265.81219Z"/>
    </g>
    <rect x="381.5625" y="274.59422" width="35.875" height="11.95833"/>
  </g>
  <polygon class="cls-4" points="400.124 800 322.247 561 478 561 400.124 800"/>
  <g>
    <polygon points="399.99 561.191 440.004 800 359.976 800 399.99 561.191"/>
    <rect x="374.58791" y="571.65786" width="51.4607" height="51.4607" transform="translate(539.66776 -108.0968) rotate(45)"/>
  </g>
  <g class="cls-16">
    <g>
      <polygon points="31.455 812.239 39.737 803.957 31.455 803.957 31.455 803.817 31.455 795.535 23.173 803.817 14.891 803.817 -1.673 820.38 6.609 820.38 14.891 812.098 14.891 820.38 23.173 820.38 14.891 828.662 14.891 836.944 31.455 820.38 31.455 812.239"/>
      <polygon points="48.019 812.098 48.019 820.38 56.3 820.38 48.019 828.662 48.019 836.944 64.582 820.38 64.582 812.239 72.864 803.957 64.582 803.957 64.582 803.817 64.582 795.535 56.3 803.817 48.019 803.817 31.455 820.38 39.737 820.38 48.019 812.098"/>
      <polygon points="81.146 812.098 81.146 820.38 89.428 820.38 81.146 828.662 81.146 836.944 97.71 820.38 97.71 812.239 105.992 803.957 97.71 803.957 97.71 803.817 97.71 795.535 89.428 803.817 81.146 803.817 64.582 820.38 72.864 820.38 81.146 812.098"/>
      <polygon points="114.274 812.098 114.274 820.38 122.556 820.38 114.274 828.662 114.274 836.944 130.838 820.38 130.838 812.239 139.12 803.957 130.838 803.957 130.838 803.817 130.838 795.535 122.556 803.817 114.274 803.817 97.71 820.38 105.992 820.38 114.274 812.098"/>
      <polygon points="147.402 812.098 147.402 820.38 155.683 820.38 147.402 828.662 147.402 836.944 163.965 820.38 163.965 812.239 172.247 803.957 163.965 803.957 163.965 803.817 163.965 795.535 155.683 803.817 147.402 803.817 130.838 820.38 139.12 820.38 147.402 812.098"/>
      <polygon points="180.529 812.098 180.529 820.38 188.811 820.38 180.529 828.662 180.529 836.944 197.093 820.38 197.093 812.239 205.375 803.957 197.093 803.957 197.093 803.817 197.093 795.535 188.811 803.817 180.529 803.817 163.965 820.38 172.247 820.38 180.529 812.098"/>
      <polygon points="213.657 812.098 213.657 820.38 221.939 820.38 213.657 828.662 213.657 836.944 230.221 820.38 230.221 812.239 238.503 803.957 230.221 803.957 230.221 803.817 230.221 795.535 221.939 803.817 213.657 803.817 197.093 820.38 205.375 820.38 213.657 812.098"/>
      <polygon points="246.785 812.098 246.785 820.38 255.066 820.38 246.785 828.662 246.785 836.944 263.348 820.38 263.348 812.239 271.63 803.957 263.348 803.957 263.348 803.817 263.348 795.535 255.066 803.817 246.785 803.817 230.221 820.38 238.503 820.38 246.785 812.098"/>
      <polygon points="279.912 812.098 279.912 820.38 288.194 820.38 279.912 828.662 279.912 836.944 296.476 820.38 296.476 812.239 304.758 803.957 296.476 803.957 296.476 803.817 296.476 795.535 288.194 803.817 279.912 803.817 263.348 820.38 271.63 820.38 279.912 812.098"/>
      <polygon points="313.04 812.098 313.04 820.38 321.322 820.38 313.04 828.662 313.04 836.944 329.604 820.38 329.604 812.239 337.886 803.957 329.604 803.957 329.604 803.817 329.604 795.535 321.322 803.817 313.04 803.817 296.476 820.38 304.758 820.38 313.04 812.098"/>
      <polygon points="346.168 812.098 346.168 820.38 354.449 820.38 346.168 828.662 346.168 836.944 362.731 820.38 362.731 812.239 371.013 803.957 362.731 803.957 362.731 803.817 362.731 795.535 354.449 803.817 346.168 803.817 329.604 820.38 337.886 820.38 346.168 812.098"/>
      <polygon points="379.295 812.098 379.295 820.38 387.577 820.38 379.295 828.662 379.295 836.944 395.859 820.38 395.859 812.239 404.141 803.957 395.859 803.957 395.859 803.817 395.859 795.535 387.577 803.817 379.295 803.817 362.731 820.38 371.013 820.38 379.295 812.098"/>
      <polygon points="412.423 812.098 412.423 820.38 420.705 820.38 412.423 828.662 412.423 836.944 428.987 820.38 428.987 812.239 437.269 803.957 428.987 803.957 428.987 803.817 428.987 795.535 420.705 803.817 412.423 803.817 395.859 820.38 404.141 820.38 412.423 812.098"/>
      <polygon points="445.551 812.098 445.551 820.38 453.832 820.38 445.551 828.662 445.551 836.944 462.114 820.38 462.114 812.239 470.396 803.957 462.114 803.957 462.114 803.817 462.114 795.535 453.832 803.817 445.551 803.817 428.987 820.38 437.269 820.38 445.551 812.098"/>
      <polygon points="478.678 812.098 478.678 820.38 486.96 820.38 478.678 828.662 478.678 836.944 495.242 820.38 495.242 812.239 503.524 803.957 495.242 803.957 495.242 803.817 495.242 795.535 486.96 803.817 478.678 803.817 462.114 820.38 470.396 820.38 478.678 812.098"/>
      <polygon points="511.806 812.098 511.806 820.38 520.088 820.38 511.806 828.662 511.806 836.944 528.37 820.38 528.37 812.239 536.652 803.957 528.37 803.957 528.37 803.817 528.37 795.535 520.088 803.817 511.806 803.817 495.242 820.38 503.524 820.38 511.806 812.098"/>
      <polygon points="544.934 812.098 544.934 820.38 553.215 820.38 544.934 828.662 544.934 836.944 561.497 820.38 561.497 812.239 569.779 803.957 561.497 803.957 561.497 803.817 561.497 795.535 553.215 803.817 544.934 803.817 528.37 820.38 536.652 820.38 544.934 812.098"/>
      <polygon points="578.061 812.098 578.061 820.38 586.343 820.38 578.061 828.662 578.061 836.944 594.625 820.38 594.625 812.239 602.907 803.957 594.625 803.957 594.625 803.817 594.625 795.535 586.343 803.817 578.061 803.817 561.497 820.38 569.779 820.38 578.061 812.098"/>
      <polygon points="611.189 812.098 611.189 820.38 619.471 820.38 611.189 828.662 611.189 836.944 627.753 820.38 627.753 812.239 636.035 803.957 627.753 803.957 627.753 803.817 627.753 795.535 619.471 803.817 611.189 803.817 594.625 820.38 602.907 820.38 611.189 812.098"/>
      <polygon points="644.317 812.098 644.317 820.38 652.598 820.38 644.317 828.662 644.317 836.944 660.88 820.38 660.88 812.239 669.162 803.957 660.88 803.957 660.88 803.817 660.88 795.535 652.598 803.817 644.317 803.817 627.753 820.38 636.035 820.38 644.317 812.098"/>
      <polygon points="677.444 812.098 677.444 820.38 685.726 820.38 677.444 828.662 677.444 836.944 694.008 820.38 694.008 812.239 702.29 803.957 694.008 803.957 694.008 803.817 694.008 795.535 685.726 803.817 677.444 803.817 660.88 820.38 669.162 820.38 677.444 812.098"/>
      <polygon points="710.572 812.098 710.572 820.38 718.854 820.38 710.572 828.662 710.572 836.944 727.136 820.38 727.136 812.239 735.418 803.957 727.136 803.957 727.136 803.817 727.136 795.535 718.854 803.817 710.572 803.817 694.008 820.38 702.29 820.38 710.572 812.098"/>
      <polygon points="743.7 812.098 743.7 820.38 751.981 820.38 743.7 828.662 743.7 836.944 760.263 820.38 760.263 812.239 768.545 803.957 760.263 803.957 760.263 803.817 760.263 795.535 751.981 803.817 743.7 803.817 727.136 820.38 735.418 820.38 743.7 812.098"/>
      <polygon points="776.827 812.098 776.827 820.38 785.109 820.38 776.827 828.662 776.827 836.944 793.391 820.38 793.391 812.239 801.673 803.957 793.391 803.957 793.391 803.817 793.391 795.535 785.109 803.817 776.827 803.817 760.263 820.38 768.545 820.38 776.827 812.098"/>
    </g>
  </g>
  <path class="cls-17" d="M381.67955,393.01157a42.81481,42.81481,0,0,0,83.256-20.02147Z"/>
</svg>
