<svg width="290" height="163" viewBox="0 0 290 163" fill="none" xmlns="http://www.w3.org/2000/svg">
<g clip-path="url(#clip0_735_47043)">
<path d="M290 0H0V67H290V0Z" fill="#F1D0C7"/>
<path d="M290 67H0V163H290V67Z" fill="#000A45"/>
<path d="M98.1732 104.015C98.1743 93.3287 89.5174 84.6598 78.8289 84.6488C68.1403 84.6378 59.4656 93.2888 59.4448 103.975L98.1732 104.015Z" fill="#B6E9FF"/>
<path d="M102.427 78.7535C101.786 77.2709 100.91 75.9728 99.7997 74.8603C98.8439 73.9025 97.7501 73.119 96.5196 72.5078C97.3241 70.4279 97.7294 68.2123 97.7318 65.8595C97.7345 63.2518 97.2434 60.8105 96.2599 58.5349C95.2757 56.2605 93.9318 54.2691 92.2287 52.5625C90.5249 50.8553 88.5363 49.5079 86.2639 48.5184C83.991 47.5301 81.5507 47.034 78.9424 47.0314C76.3348 47.0287 73.8928 47.5198 71.6184 48.5033C69.3428 49.4881 67.3527 50.8315 65.6454 52.5352C63.9382 54.2383 62.5901 56.2269 61.6019 58.4993C60.6124 60.7729 60.117 63.2131 60.1143 65.8208C60.1119 68.1693 60.5106 70.382 61.3087 72.4602C60.0465 73.0739 58.9274 73.8676 57.9505 74.8425C56.8377 75.9527 55.9589 77.249 55.3148 78.7302C54.6698 80.2122 54.3468 81.8029 54.345 83.5028C54.3433 85.2029 54.663 86.7943 55.3049 88.2772C55.9461 89.7602 56.8221 91.0579 57.9327 92.1704C59.0433 93.2832 60.3387 94.1624 61.8208 94.8065C63.302 95.4511 64.8931 95.7741 66.5929 95.7758C68.2885 95.7776 89.4141 95.7741 91.1139 95.7758C92.8141 95.7776 94.4055 95.4579 95.8884 94.8163C97.3709 94.1752 98.6691 93.2988 99.7819 92.1882C100.894 91.078 101.773 89.7821 102.418 88.3005C103.062 86.8189 103.385 85.2281 103.387 83.5279C103.389 81.8282 103.069 80.2368 102.427 78.7535Z" fill="black"/>
<path d="M39.0157 48.5184C41.2881 49.5078 43.2767 50.8553 44.9804 52.5625C46.6835 54.2691 48.0275 56.2605 49.0117 58.5349C49.9952 60.8105 50.4863 63.2518 50.4836 65.8594C50.4809 68.4677 49.9848 70.908 48.9966 73.181C48.0077 75.4539 46.6597 77.4419 44.9531 79.145C43.2459 80.8488 41.2544 82.1933 38.9801 83.1769C36.7051 84.1611 34.2638 84.6515 31.6555 84.6488C29.0479 84.6461 26.607 84.1507 24.3346 83.1618C22.061 82.1736 20.0737 80.8249 18.3699 79.1177C16.6662 77.4111 15.3223 75.4203 14.3387 73.1453C13.3539 70.8703 12.8635 68.429 12.8661 65.8207C12.8688 63.2131 13.3643 60.7728 14.3538 58.4992C15.342 56.2269 16.69 54.2382 18.3973 52.5351C20.1045 50.8314 22.0947 49.4881 24.3703 48.5033C26.6446 47.5197 29.0866 47.0287 31.6942 47.0314C34.3025 47.034 36.7428 47.5301 39.0157 48.5184Z" fill="black"/>
<path d="M50.982 104.015C50.9832 93.3287 42.3263 84.6598 31.6377 84.6488C20.9491 84.6378 12.2745 93.2888 12.2536 103.975L50.982 104.015Z" fill="#0025FF"/>
<path d="M-8.1754 48.5184C-5.90308 49.5078 -3.91442 50.8553 -2.2107 52.5625C-0.507603 54.2691 0.836349 56.2605 1.82053 58.5349C2.80408 60.8105 3.29514 63.2518 3.29246 65.8594C3.28978 68.4677 2.79369 70.908 1.80546 73.181C0.816601 75.4539 -0.531441 77.4419 -2.23804 79.145C-3.94528 80.8488 -5.9367 82.1933 -8.21106 83.1769C-10.486 84.1611 -12.9274 84.6515 -15.5356 84.6488C-18.1433 84.6461 -20.5842 84.1507 -22.8565 83.1618C-25.1301 82.1736 -27.1175 80.8249 -28.8212 79.1177C-30.5249 77.4111 -31.8689 75.4203 -32.8524 73.1453C-33.8373 70.8703 -34.3277 68.429 -34.325 65.8207C-34.3223 63.2131 -33.8269 60.7728 -32.8374 58.4992C-31.8491 56.2269 -30.5011 54.2382 -28.7939 52.5351C-27.0866 50.8314 -25.0965 49.4881 -22.8209 48.5033C-20.5465 47.5197 -18.1046 47.0287 -15.4969 47.0314C-12.8887 47.034 -10.4484 47.5301 -8.1754 48.5184Z" fill="black"/>
<path d="M3.79089 104.015C3.79202 93.3287 -4.86488 84.6598 -15.5534 84.6488C-26.242 84.6378 -34.9166 93.2888 -34.9375 103.975L3.79089 104.015Z" fill="#B924FF"/>
<path d="M133.398 48.5184C135.67 49.5078 137.659 50.8553 139.363 52.5625C141.066 54.2691 142.41 56.2605 143.394 58.5349C144.378 60.8105 144.869 63.2518 144.866 65.8594C144.863 68.4677 144.367 70.908 143.379 73.181C142.39 75.4539 141.042 77.4419 139.335 79.145C137.628 80.8488 135.637 82.1933 133.362 83.1769C131.087 84.1611 128.646 84.6515 126.038 84.6488C123.43 84.6461 120.989 84.1507 118.717 83.1618C116.443 82.1736 114.456 80.8249 112.752 79.1177C111.048 77.4111 109.705 75.4203 108.721 73.1453C107.736 70.8703 107.246 68.429 107.248 65.8207C107.251 63.2131 107.747 60.7728 108.736 58.4992C109.724 56.2269 111.072 54.2382 112.78 52.5351C114.487 50.8314 116.477 49.4881 118.753 48.5033C121.027 47.5197 123.469 47.0287 126.077 47.0314C128.685 47.034 131.125 47.5301 133.398 48.5184Z" fill="black"/>
<path d="M145.364 104.015C145.365 93.3287 136.709 84.6598 126.02 84.6488C115.331 84.6378 106.657 93.2888 106.636 103.975L145.364 104.015Z" fill="#B924FF"/>
<path d="M180.589 48.5184C182.861 49.5078 184.85 50.8553 186.554 52.5625C188.257 54.2691 189.601 56.2605 190.585 58.5349C191.569 60.8105 192.06 63.2518 192.057 65.8594C192.054 68.4677 191.558 70.908 190.57 73.181C189.581 75.4539 188.233 77.4419 186.527 79.145C184.819 80.8488 182.828 82.1933 180.553 83.1769C178.279 84.1611 175.837 84.6515 173.229 84.6488C170.621 84.6461 168.18 84.1507 165.908 83.1618C163.634 82.1736 161.647 80.8249 159.943 79.1177C158.24 77.4111 156.896 75.4203 155.912 73.1453C154.927 70.8703 154.437 68.429 154.44 65.8207C154.442 63.2131 154.938 60.7728 155.927 58.4992C156.915 56.2269 158.263 54.2382 159.971 52.5351C161.678 50.8314 163.668 49.4881 165.944 48.5033C168.218 47.5197 170.66 47.0287 173.268 47.0314C175.876 47.034 178.316 47.5301 180.589 48.5184Z" fill="#0025FF"/>
<path d="M192.555 104.015C192.557 93.3287 183.9 84.6598 173.211 84.6488C162.523 84.6378 153.848 93.2888 153.827 103.975L192.555 104.015Z" fill="#00D378"/>
<path d="M274.971 48.5184C277.244 49.5078 279.232 50.8553 280.936 52.5625C282.639 54.2691 283.983 56.2605 284.967 58.5349C285.951 60.8105 286.442 63.2518 286.439 65.8594C286.437 68.4677 285.941 70.908 284.952 73.181C283.963 75.4539 282.615 77.4419 280.909 79.145C279.202 80.8488 277.21 82.1933 274.936 83.1769C272.661 84.1611 270.219 84.6515 267.611 84.6488C265.004 84.6461 262.563 84.1507 260.29 83.1618C258.017 82.1736 256.029 80.8249 254.326 79.1177C252.622 77.4111 251.278 75.4203 250.294 73.1453C249.31 70.8703 248.819 68.429 248.822 65.8207C248.825 63.2131 249.32 60.7728 250.309 58.4992C251.298 56.2269 252.646 54.2382 254.353 52.5351C256.06 50.8314 258.05 49.4881 260.326 48.5033C262.6 47.5197 265.042 47.0287 267.65 47.0314C270.258 47.034 272.698 47.5301 274.971 48.5184Z" fill="#B924FF"/>
<path d="M286.938 104.015C286.939 93.3287 278.282 84.6598 267.593 84.6488C256.905 84.6378 248.23 93.2888 248.209 103.975L286.938 104.015Z" fill="#B6E9FF"/>
<path d="M239.745 104.015C239.746 93.3287 231.089 84.6598 220.4 84.6488C209.712 84.6378 201.037 93.2889 201.016 103.975L239.745 104.015Z" fill="#0025FF"/>
<path d="M243.942 78.7534C243.3 77.2708 242.424 75.9727 241.314 74.8603C240.358 73.9025 239.264 73.1189 238.034 72.5078C238.838 70.4279 239.244 68.2122 239.246 65.8594C239.249 63.2518 238.758 60.8104 237.774 58.5348C236.79 56.2605 235.446 54.269 233.743 52.5624C232.039 50.8552 230.051 49.5078 227.778 48.5183C225.505 47.53 223.065 47.0339 220.457 47.0313C217.849 47.0286 215.407 47.5197 213.133 48.5032C210.857 49.488 208.867 50.8314 207.16 52.5351C205.453 54.2382 204.104 56.2269 203.116 58.4992C202.127 60.7728 201.631 63.2131 201.629 65.8207C201.626 68.1692 202.025 70.3819 202.823 72.4602C201.561 73.0738 200.442 73.8676 199.465 74.8424C198.352 75.9526 197.473 77.2489 196.829 78.7301C196.184 80.2122 195.861 81.8029 195.859 83.5027C195.858 85.2029 196.177 86.7942 196.819 88.2772C197.46 89.7601 198.336 91.0578 199.447 92.1703C200.558 93.2831 201.853 94.1623 203.335 94.8065C204.816 95.4511 206.407 95.774 208.107 95.7758C209.803 95.7775 230.928 95.774 232.628 95.7758C234.328 95.7775 235.92 95.4578 237.403 94.8163C238.885 94.1752 240.183 93.2987 241.296 92.1881C242.409 91.078 243.287 89.7821 243.932 88.3004C244.576 86.8188 244.9 85.2281 244.901 83.5279C244.903 81.8281 244.583 80.2367 243.942 78.7534Z" fill="url(#paint0_linear_735_47043)"/>
<path d="M105.052 91.5054C107.99 92.7851 110.562 94.5277 112.766 96.7357C114.968 98.9428 116.706 101.518 117.979 104.46C119.251 107.403 119.886 110.56 119.883 113.933C119.879 117.306 119.238 120.462 117.96 123.401C116.681 126.341 114.937 128.912 112.73 131.115C110.522 133.318 107.947 135.057 105.005 136.329C102.063 137.602 98.9058 138.236 95.5326 138.233C92.1601 138.229 89.0033 137.589 86.0645 136.31C83.1241 135.032 80.5538 133.287 78.3504 131.079C76.147 128.872 74.4088 126.298 73.1368 123.355C71.8632 120.413 71.2289 117.256 71.2324 113.882C71.2358 110.51 71.8766 107.354 73.1563 104.414C74.4344 101.475 76.1778 98.9029 78.3857 96.7003C80.5937 94.4969 83.1676 92.7596 86.1106 91.4859C89.052 90.2139 92.2102 89.5788 95.5826 89.5823C98.9559 89.5857 102.112 90.2273 105.052 91.5054Z" fill="#FFDC97"/>
<path d="M120.527 163.279C120.529 149.458 109.333 138.247 95.5096 138.233C81.686 138.219 70.4672 149.407 70.4402 163.227L120.527 163.279Z" fill="black"/>
<path d="M227.116 91.5054C230.055 92.7851 232.626 94.5277 234.83 96.7357C237.032 98.9428 238.771 101.518 240.043 104.46C241.315 107.403 241.951 110.56 241.947 113.933C241.944 117.306 241.302 120.462 240.024 123.401C238.745 126.341 237.002 128.912 234.794 131.115C232.587 133.318 230.011 135.057 227.07 136.329C224.127 137.602 220.97 138.236 217.597 138.233C214.224 138.229 211.068 137.589 208.129 136.31C205.188 135.032 202.618 133.287 200.415 131.079C198.211 128.872 196.473 126.298 195.201 123.355C193.927 120.413 193.293 117.256 193.297 113.882C193.3 110.51 193.941 107.354 195.221 104.414C196.499 101.475 198.242 98.9029 200.45 96.7003C202.658 94.4969 205.232 92.7596 208.175 91.4859C211.116 90.2139 214.274 89.5788 217.647 89.5823C221.02 89.5857 224.176 90.2273 227.116 91.5054Z" fill="black"/>
<path d="M242.592 163.279C242.593 149.458 231.397 138.247 217.574 138.233C203.75 138.219 192.531 149.407 192.504 163.227L242.592 163.279Z" fill="#FFDC97"/>
<path d="M288.148 91.5054C291.087 92.7851 293.659 94.5277 295.862 96.7357C298.065 98.9428 299.803 101.518 301.076 104.46C302.348 107.403 302.983 110.56 302.979 113.933C302.976 117.306 302.334 120.462 301.056 123.401C299.777 126.341 298.034 128.912 295.827 131.115C293.619 133.318 291.043 135.057 288.102 136.329C285.159 137.602 282.002 138.236 278.629 138.233C275.256 138.229 272.1 137.589 269.161 136.31C266.22 135.032 263.65 133.287 261.447 131.079C259.243 128.872 257.505 126.298 256.233 123.355C254.959 120.413 254.325 117.256 254.329 113.882C254.332 110.51 254.973 107.354 256.253 104.414C257.531 101.475 259.274 98.9029 261.482 96.7003C263.69 94.4969 266.264 92.7596 269.207 91.4859C272.148 90.2139 275.306 89.5788 278.679 89.5823C282.052 89.5857 285.208 90.2273 288.148 91.5054Z" fill="black"/>
<path d="M303.624 163.279C303.625 149.458 292.429 138.247 278.606 138.233C264.782 138.219 253.563 149.407 253.537 163.227L303.624 163.279Z" fill="#00D378"/>
<path d="M181.56 163.279C181.561 149.458 170.365 138.247 156.542 138.233C142.718 138.219 131.499 149.407 131.472 163.227L181.56 163.279Z" fill="#B924FF"/>
<path d="M165.829 91.6977C168.77 92.9744 171.343 94.7143 173.549 96.92C175.754 99.1249 177.495 101.699 178.771 104.639C180.046 107.58 180.684 110.737 180.684 114.11C180.684 117.483 180.046 120.64 178.771 123.581C177.495 126.521 175.754 129.094 173.549 131.299C171.343 133.505 168.77 135.246 165.829 136.522C162.889 137.797 159.732 138.435 156.359 138.435C152.986 138.435 149.829 137.797 146.889 136.522C143.947 135.246 141.375 133.505 139.169 131.299C136.963 129.094 135.223 126.521 133.947 123.581C132.671 120.64 132.033 117.483 132.033 114.11C132.033 110.737 132.671 107.58 133.947 104.639C135.223 101.699 136.963 99.1249 139.169 96.92C141.375 94.7143 143.947 92.9744 146.889 91.6977C149.829 90.4226 152.986 89.7843 156.359 89.7843C159.732 89.7843 162.889 90.4226 165.829 91.6977Z" fill="black"/>
<path d="M166.702 131.359H173.484C173.504 131.338 173.528 131.32 173.549 131.299C175.754 129.094 177.495 126.521 178.771 123.581C180.046 120.64 180.684 117.483 180.684 114.11C180.684 110.737 180.046 107.58 178.771 104.639C178.627 104.309 178.457 104 178.302 103.68H166.702V131.359Z" fill="white"/>
<path d="M170.686 119.692C171.885 119.692 172.858 118.719 172.858 117.519C172.858 116.319 171.885 115.347 170.686 115.347C169.486 115.347 168.513 116.319 168.513 117.519C168.513 118.719 169.486 119.692 170.686 119.692Z" fill="#FF92D2"/>
<path d="M176.053 113.559C177.769 113.559 179.161 112.167 179.161 110.451C179.161 108.734 177.769 107.343 176.053 107.343C174.336 107.343 172.945 108.734 172.945 110.451C172.945 112.167 174.336 113.559 176.053 113.559Z" fill="black"/>
<path d="M172.351 107.917C172.164 107.917 171.975 107.851 171.825 107.716C171.501 107.425 171.474 106.927 171.765 106.603C172.857 105.387 174.42 104.69 176.053 104.69C176.488 104.69 176.841 105.042 176.841 105.478C176.841 105.913 176.488 106.266 176.053 106.266C174.866 106.266 173.731 106.772 172.938 107.656C172.782 107.829 172.567 107.917 172.351 107.917Z" fill="black"/>
<path d="M180.589 116.1H174.307C174.31 119.11 176.446 121.62 179.285 122.201C179.982 120.257 180.423 118.225 180.589 116.1Z" fill="#FF00C1"/>
<path d="M59.5693 163.279C59.5707 149.459 48.3747 138.247 34.5512 138.233C20.7276 138.219 9.50869 149.407 9.48171 163.228L59.5693 163.279Z" fill="#B6E9FF"/>
<path d="M64.9976 130.608C64.1679 128.691 63.0349 127.012 61.5991 125.573C60.3629 124.335 58.9483 123.321 57.3569 122.531C58.3973 119.841 58.9215 116.975 58.9247 113.932C58.9281 110.56 58.293 107.403 57.021 104.46C55.7482 101.518 54.01 98.9427 51.8074 96.7355C49.604 94.5275 47.032 92.7849 44.0932 91.5052C41.1536 90.2271 37.9976 89.5855 34.6243 89.582C31.2518 89.5786 28.0936 90.2137 25.1522 91.4857C22.2092 92.7594 19.6353 94.4967 17.4273 96.7001C15.2193 98.9027 13.4759 101.475 12.1978 104.414C10.9181 107.354 10.2773 110.51 10.2739 113.882C10.2707 116.92 10.7865 119.781 11.8186 122.469C10.1862 123.263 8.73889 124.289 7.47548 125.55C6.03622 126.986 4.89977 128.663 4.06665 130.578C3.23248 132.495 2.81478 134.552 2.81251 136.751C2.81026 138.949 3.22371 141.007 4.05395 142.925C4.88312 144.843 6.01611 146.522 7.45243 147.96C8.88874 149.4 10.5642 150.537 12.4809 151.37C14.3966 152.203 16.4544 152.621 18.6527 152.623C20.8456 152.626 48.1674 152.621 50.3657 152.623C52.5645 152.626 54.6227 152.212 56.5406 151.382C58.4579 150.553 60.1368 149.42 61.576 147.983C63.0148 146.548 64.1512 144.872 64.9849 142.955C65.818 141.039 66.2362 138.982 66.2385 136.783C66.2407 134.585 65.8267 132.527 64.9976 130.608Z" fill="url(#paint1_linear_735_47043)"/>
<path d="M203.259 7.53125L183.504 13.0079L188.981 32.7628L208.735 27.2861L203.259 7.53125Z" fill="#0025FF"/>
<path d="M52.2552 18.089L30.3937 7.77734L20.082 29.6388L41.9435 39.9505L52.2552 18.089Z" fill="#B924FF"/>
<path d="M141.459 37.8857C143.206 30.4559 138.604 23.0141 131.174 21.2599C123.745 19.5057 116.3 24.1031 114.539 31.5296L141.459 37.8857Z" fill="#B924FF"/>
<path d="M80.396 9.38982C81.129 9.709 81.7705 10.1436 82.32 10.6943C82.8694 11.2448 83.3029 11.8872 83.6204 12.6208C83.9376 13.3549 84.096 14.1424 84.0952 14.9835C84.0943 15.8249 83.9343 16.612 83.6155 17.3452C83.2965 18.0784 82.8617 18.7197 82.3112 19.269C81.7605 19.8186 81.1181 20.2523 80.3845 20.5696C79.6507 20.8871 78.8632 21.0453 78.0218 21.0444C77.1807 21.0435 76.3933 20.8837 75.6603 20.5647C74.9269 20.246 74.2859 19.8109 73.7363 19.2602C73.1867 18.7097 72.7532 18.0676 72.4359 17.3337C72.1183 16.5999 71.9601 15.8124 71.9609 14.971C71.9618 14.1299 72.1216 13.3427 72.4408 12.6093C72.7596 11.8764 73.1944 11.2349 73.7451 10.6855C74.2958 10.1359 74.9378 9.70263 75.6718 9.38496C76.4055 9.0677 77.1932 8.90929 78.0343 8.91016C78.8757 8.91102 79.6628 9.07105 80.396 9.38982Z" fill="#FF00C1"/>
<path d="M260.565 18.36C261.936 18.957 263.136 19.7699 264.164 20.7998C265.191 21.8294 266.002 23.0308 266.596 24.403C267.189 25.7758 267.485 27.2487 267.484 28.8219C267.482 30.3954 267.183 31.8677 266.587 33.2389C265.99 34.6102 265.177 35.8096 264.147 36.8371C263.117 37.8649 261.916 38.6761 260.544 39.2695C259.171 39.8632 257.698 40.1591 256.125 40.1575C254.552 40.1559 253.079 39.857 251.708 39.2604C250.336 38.6642 249.137 37.8505 248.109 36.8206C247.082 35.791 246.271 34.5899 245.677 33.2174C245.083 31.8449 244.787 30.3721 244.789 28.7985C244.791 27.2253 245.09 25.7531 245.687 24.3815C246.283 23.0106 247.096 21.8108 248.126 20.7833C249.156 19.7555 250.357 18.945 251.73 18.3509C253.102 17.7575 254.575 17.4613 256.148 17.4629C257.722 17.4645 259.194 17.7638 260.565 18.36Z" fill="#0025FF"/>
<path d="M256.238 37.6411C258.407 37.6411 260.167 35.8821 260.167 33.7122C260.167 31.5423 258.407 29.7832 256.238 29.7832C254.068 29.7832 252.309 31.5423 252.309 33.7122C252.309 35.8821 254.068 37.6411 256.238 37.6411Z" fill="white"/>
<path d="M205.692 6.61914L185.938 12.0958L191.414 31.8507L211.169 26.374L205.692 6.61914Z" stroke="black" stroke-miterlimit="10"/>
<path d="M54.6888 17.1769L32.8273 6.86523L22.5156 28.7267L44.3771 39.0384L54.6888 17.1769Z" stroke="black" stroke-miterlimit="10"/>
<path d="M143.889 36.9716C145.636 29.5419 141.034 22.1001 133.604 20.3459C126.174 18.5917 118.729 23.1891 116.969 30.6156L143.889 36.9716Z" stroke="black" stroke-miterlimit="10"/>
<path d="M82.8296 8.47771C83.5626 8.79689 84.2041 9.23153 84.7536 9.78223C85.303 10.3327 85.7365 10.9751 86.054 11.7087C86.3712 12.4428 86.5296 13.2303 86.5288 14.0714C86.5279 14.9128 86.3679 15.6999 86.0491 16.4331C85.7301 17.1663 85.2953 17.8076 84.7448 18.3569C84.1941 18.9065 83.5517 19.3402 82.8181 19.6575C82.0843 19.975 81.2968 20.1332 80.4554 20.1323C79.6143 20.1314 78.8269 19.9716 78.0939 19.6526C77.3605 19.3339 76.7195 18.8988 76.1699 18.3481C75.6203 17.7976 75.1868 17.1554 74.8695 16.4216C74.5519 15.6878 74.3937 14.9003 74.3945 14.0589C74.3954 13.2178 74.5552 12.4306 74.8744 11.6972C75.1932 10.9642 75.628 10.3228 76.1787 9.7734C76.7294 9.22384 77.3714 8.79052 78.1054 8.47285C78.8391 8.15559 79.6268 7.99718 80.4679 7.99805C81.3092 7.99892 82.0964 8.15894 82.8296 8.47771Z" stroke="black" stroke-miterlimit="10"/>
<path d="M262.999 17.4479C264.37 18.0449 265.569 18.8577 266.597 19.8877C267.625 20.9173 268.436 22.1187 269.029 23.4909C269.623 24.8637 269.919 26.3366 269.917 27.9098C269.916 29.4833 269.616 30.9556 269.02 32.3268C268.424 33.6981 267.61 34.8975 266.581 35.925C265.551 36.9528 264.349 37.764 262.977 38.3574C261.605 38.9511 260.132 39.247 258.558 39.2454C256.985 39.2438 255.512 38.9449 254.142 38.3483C252.77 37.7521 251.571 36.9384 250.543 35.9085C249.515 34.8789 248.704 33.6778 248.111 32.3053C247.517 30.9328 247.221 29.46 247.223 27.8864C247.224 26.3132 247.523 24.841 248.12 23.4693C248.716 22.0985 249.53 20.8987 250.56 19.8712C251.59 18.8434 252.79 18.0329 254.163 17.4388C255.535 16.8454 257.008 16.5492 258.582 16.5508C260.155 16.5524 261.627 16.8517 262.999 17.4479Z" stroke="black" stroke-miterlimit="10"/>
</g>
<defs>
<linearGradient id="paint0_linear_735_47043" x1="220.384" y1="95.7763" x2="220.384" y2="47.0312" gradientUnits="userSpaceOnUse">
<stop offset="0.180555" stop-color="#00D378"/>
<stop offset="0.885416"/>
</linearGradient>
<linearGradient id="paint1_linear_735_47043" x1="34.5255" y1="152.622" x2="34.5255" y2="89.5801" gradientUnits="userSpaceOnUse">
<stop offset="0.180555" stop-color="#E400FF"/>
<stop offset="0.885416"/>
</linearGradient>
<clipPath id="clip0_735_47043">
<rect width="290" height="163" fill="white"/>
</clipPath>
</defs>
</svg>
