<svg width="290" height="163" viewBox="0 0 290 163" fill="none" xmlns="http://www.w3.org/2000/svg">
<path d="M290 0H0V163H290V0Z" fill="#FFF7AE"/>
<mask id="mask0_764_43838" style="mask-type:alpha" maskUnits="userSpaceOnUse" x="0" y="0" width="290" height="163">
<path d="M290 0H0V163H290V0Z" fill="#F1D0C7"/>
</mask>
<g mask="url(#mask0_764_43838)">
<path d="M264.668 89.0352L222.403 100.753L234.12 143.018L276.386 131.301L264.668 89.0352Z" fill="#0025FF"/>
<path d="M238.978 141.681L238.845 141.199L226.994 98.4512L227.475 98.3184L270.223 86.4678L270.356 86.9492L282.207 129.697L281.726 129.83L238.978 141.681ZM228.224 99.1484L239.675 140.45L280.977 129L269.526 87.6982L228.224 99.1484Z" fill="black"/>
<path d="M98.7387 3.64876L51.9659 -18.413L29.9041 28.3597L76.6769 50.4215L98.7387 3.64876Z" fill="#B924FF"/>
<path d="M82.1225 49.1348L34.4458 26.646L56.9331 -21.0312L104.61 1.45752L82.1225 49.1348ZM35.7758 26.1685L81.644 47.8037L103.28 1.93506L57.4116 -19.7002L35.7758 26.1685Z" fill="black"/>
<path d="M73.0656 142.97C76.8032 127.074 66.9563 111.152 51.0605 107.399C35.1646 103.646 19.2363 113.482 15.4693 129.371L73.0656 142.97Z" fill="#B924FF"/>
<path d="M78.644 141.619L20.0747 127.79L20.1899 127.303C24.0132 111.174 40.2456 101.151 56.3823 104.96C72.5151 108.769 82.5532 124.995 78.7583 141.132L78.644 141.619ZM21.2827 127.047L77.896 140.415C81.2505 124.978 71.5864 109.577 56.1518 105.933C40.728 102.289 25.187 111.74 21.2827 127.047Z" fill="black"/>
<path d="M230.094 87.4896C231.662 88.1725 233.034 89.1024 234.21 90.2806C235.385 91.4584 236.313 92.8327 236.992 94.4024C237.671 95.9728 238.01 97.6577 238.008 99.4573C238.006 101.257 237.664 102.942 236.982 104.51C236.299 106.079 235.369 107.451 234.191 108.626C233.013 109.802 231.639 110.73 230.069 111.409C228.499 112.088 226.814 112.426 225.014 112.425C223.214 112.423 221.53 112.081 219.962 111.398C218.392 110.716 217.021 109.786 215.845 108.607C214.669 107.43 213.742 106.056 213.063 104.486C212.383 102.916 212.045 101.231 212.047 99.4306C212.049 97.631 212.39 95.9468 213.073 94.3777C213.755 92.8095 214.686 91.4371 215.864 90.2617C217.042 89.0859 218.416 88.1588 219.986 87.4792C221.556 86.8004 223.241 86.4615 225.041 86.4633C226.841 86.4652 228.525 86.8076 230.094 87.4896Z" fill="#FF00C1"/>
<path d="M230.236 110.972C230.23 110.972 230.225 110.972 230.219 110.972C228.362 110.971 226.595 110.611 224.969 109.905C223.35 109.201 221.914 108.227 220.698 107.009C219.483 105.792 218.512 104.354 217.811 102.731C217.107 101.105 216.751 99.3379 216.753 97.4775C216.755 95.6172 217.115 93.8496 217.821 92.2256C218.528 90.6035 219.502 89.167 220.718 87.9551C221.934 86.7412 223.374 85.7695 224.995 85.0674C226.616 84.3662 228.378 84.0107 230.232 84.0107C230.238 84.0107 230.243 84.0107 230.249 84.0107C232.107 84.0127 233.874 84.3721 235.499 85.0781C237.12 85.7832 238.557 86.7578 239.77 87.9746C240.984 89.1904 241.956 90.6299 242.658 92.252C243.361 93.8789 243.716 95.6465 243.714 97.5059C243.712 99.3672 243.353 101.134 242.646 102.757C241.942 104.377 240.967 105.813 239.751 107.027C238.533 108.243 237.093 109.215 235.474 109.915C233.854 110.616 232.091 110.972 230.236 110.972ZM230.232 85.0107C228.515 85.0107 226.886 85.3389 225.391 85.9854C223.886 86.6367 222.551 87.5381 221.424 88.6631C220.297 89.7861 219.394 91.1191 218.738 92.624C218.086 94.1221 217.755 95.7559 217.753 97.4795C217.751 99.2012 218.08 100.835 218.729 102.335C219.379 103.841 220.28 105.175 221.405 106.302C222.532 107.431 223.865 108.334 225.368 108.987C226.868 109.64 228.5 109.971 230.22 109.972C230.225 109.972 230.23 109.972 230.235 109.972C231.955 109.972 233.583 109.644 235.078 108.997C236.581 108.347 237.915 107.446 239.044 106.32C240.171 105.195 241.075 103.862 241.73 102.358C242.381 100.861 242.712 99.2275 242.714 97.5039C242.716 95.7832 242.388 94.1494 241.74 92.6484C241.088 91.1426 240.187 89.8076 239.063 88.6816C237.938 87.5537 236.605 86.6504 235.101 85.9951C233.601 85.3438 231.968 85.0127 230.247 85.0107C230.242 85.0107 230.237 85.0107 230.232 85.0107Z" fill="black"/>
<path d="M42.1808 47.7208C45.4789 49.157 48.3653 51.1127 50.8381 53.5906C53.31 56.0676 55.2606 58.958 56.6891 62.2591C58.1167 65.562 58.8294 69.1053 58.8255 72.8901C58.8216 76.6758 58.1016 80.2177 56.6672 83.5168C55.232 86.8158 53.2754 89.7013 50.7984 92.1732C48.3205 94.646 45.4301 96.5975 42.129 98.0251C38.827 99.4536 35.2837 100.165 31.498 100.162C27.7132 100.158 24.1703 99.4385 20.8722 98.0032C17.5723 96.5689 14.6877 94.6114 12.2149 92.1335C9.74209 89.6565 7.79144 86.767 6.36389 83.465C4.93451 80.163 4.22268 76.6197 4.22658 72.834C4.23047 69.0492 4.94959 65.5073 6.38576 62.2073C7.8201 58.9092 9.77669 56.0228 12.2546 53.5509C14.7325 51.0781 17.6211 49.1284 20.924 47.699C24.225 46.2714 27.7693 45.5587 31.5541 45.5626C35.3398 45.5665 38.8817 46.2865 42.1808 47.7208Z" fill="#FFE600"/>
<path d="M36.7298 43.6101L36.7597 44.6101C40.3883 44.6138 43.8299 45.3121 46.9881 46.6852C50.1579 48.0655 52.9668 49.9696 55.3369 52.3445C57.7079 54.7205 59.6059 57.5329 60.9778 60.7033C62.3446 63.8658 63.0358 67.3087 63.0321 70.9366C63.0284 74.5653 62.3301 78.0068 60.9568 81.1654C59.5789 84.3326 57.6752 87.1411 55.2986 89.5129C52.9205 91.8861 50.1078 93.7843 46.9386 95.1548C43.7878 96.5179 40.355 97.209 36.7056 97.209C33.0746 97.2053 29.6335 96.5071 26.4774 95.1336C23.3126 93.758 20.5039 91.854 18.1292 89.4745C15.7567 87.0979 13.8588 84.2856 12.4882 81.1153C11.1208 77.9567 10.4295 74.5139 10.4332 70.8825C10.4369 67.2522 11.1354 63.8108 12.5094 60.6537C13.8871 57.4858 15.7907 54.6774 18.1676 52.3063C20.5439 49.9348 23.3567 48.0366 26.5275 46.6644C29.6795 45.3013 33.112 44.6101 36.7298 44.6101V43.6101ZM36.7298 43.6101C32.9567 43.6101 29.4226 44.3229 26.1306 45.7465C22.8277 47.1759 19.9391 49.1256 17.4612 51.5984C14.9833 54.0704 13.0267 56.9567 11.5924 60.2549C10.1562 63.5548 9.43704 67.0967 9.4332 70.8815C9.42929 74.6672 10.1411 78.2106 11.5705 81.5125C12.998 84.8145 14.9487 87.704 17.4215 90.181C19.8943 92.6589 22.7789 94.6164 26.0788 96.0508C29.3769 97.486 32.9198 98.2051 36.7046 98.209C36.7149 98.209 36.7252 98.209 36.7356 98.209C40.5096 98.209 44.0428 97.4972 47.3356 96.0726C50.6367 94.6451 53.5271 92.6935 56.005 90.2207C58.482 87.7488 60.4386 84.8633 61.8738 81.5643C63.3082 78.2653 64.0282 74.7234 64.0321 70.9377C64.036 67.1529 63.3233 63.6095 61.8957 60.3066C60.4673 57.0055 58.5166 54.1151 56.0447 51.6381C53.5719 49.1602 50.6855 47.2045 47.3874 45.7684C44.0883 44.334 40.5464 43.614 36.7607 43.6101C36.7503 43.6101 36.7401 43.6101 36.7298 43.6101Z" fill="black"/>
<path d="M18.4718 91.2824C22.3798 91.2824 25.5479 88.1143 25.5479 84.2063C25.5479 80.2983 22.3798 77.1302 18.4718 77.1302C14.5637 77.1302 11.3957 80.2983 11.3957 84.2063C11.3957 88.1143 14.5637 91.2824 18.4718 91.2824Z" fill="#0025FF"/>
<path d="M204.573 13.3725L167.963 18.2853L172.876 54.8951L209.486 49.9822L204.573 13.3725Z" fill="#FFE600"/>
<path d="M208.921 12.5441L213.568 47.1716L178.941 51.8185L174.294 17.1909L208.921 12.5441ZM209.779 11.42L173.17 16.3328L178.082 52.9426L214.692 48.0298L209.779 11.42Z" fill="black"/>
<path d="M188.519 38.2313C190.924 38.2313 192.873 36.2819 192.873 33.8771C192.873 31.4724 190.924 29.5229 188.519 29.5229C186.114 29.5229 184.165 31.4724 184.165 33.8771C184.165 36.2819 186.114 38.2313 188.519 38.2313Z" fill="#FF00C1"/>
<path d="M261.655 27.3425C264.588 28.6197 267.155 30.3589 269.354 32.5625C271.552 34.7653 273.287 37.3358 274.557 40.2714C275.827 43.2087 276.46 46.3598 276.457 49.7257C276.454 53.0923 275.813 56.2422 274.538 59.176C273.261 62.1098 271.521 64.6759 269.318 66.8742C267.115 69.0733 264.544 70.8088 261.609 72.0784C258.672 73.3487 255.521 73.9817 252.154 73.9783C248.789 73.9748 245.638 73.3353 242.705 72.0589C239.77 70.7833 237.205 69.0425 235.006 66.8389C232.807 64.6361 231.072 62.0664 229.803 59.13C228.531 56.1935 227.898 53.0424 227.902 49.6757C227.905 46.3099 228.545 43.16 229.822 40.2254C231.098 37.2924 232.838 34.7255 235.041 32.5272C237.245 30.3281 239.814 28.5942 242.751 27.323C245.687 26.0535 248.839 25.4197 252.204 25.4231C255.571 25.4266 258.721 26.0669 261.655 27.3425Z" fill="#0025FF"/>
<path d="M257.387 72.5259C257.378 72.5259 257.37 72.5259 257.36 72.5259C253.94 72.5225 250.694 71.8628 247.712 70.5649C244.737 69.272 242.095 67.4805 239.859 65.2393C237.625 63.0029 235.839 60.3569 234.55 57.376C233.258 54.3916 232.605 51.144 232.609 47.7227C232.612 44.3032 233.272 41.0566 234.571 38.0732C235.865 35.0957 237.657 32.4541 239.894 30.2207C242.132 27.9873 244.779 26.2012 247.759 24.9116C250.737 23.6235 253.975 22.9707 257.384 22.9707C257.393 22.9707 257.402 22.9707 257.412 22.9707C260.83 22.9741 264.077 23.6338 267.061 24.9316C270.04 26.2285 272.682 28.02 274.914 30.2568C277.147 32.4946 278.933 35.1406 280.223 38.1201C281.515 41.1089 282.167 44.3564 282.164 47.7734C282.161 51.1904 281.501 54.437 280.204 57.4229C278.908 60.4009 277.116 63.043 274.878 65.2759C272.639 67.5107 269.993 69.2969 267.013 70.585C264.036 71.873 260.796 72.5259 257.387 72.5259ZM257.384 23.9707C254.113 23.9707 251.008 24.5962 248.156 25.8296C245.291 27.0688 242.749 28.7847 240.601 30.9287C238.452 33.0728 236.732 35.6104 235.488 38.4722C234.244 41.3296 233.612 44.4419 233.609 47.7236C233.605 51.0068 234.231 54.1211 235.468 56.979C236.707 59.8442 238.422 62.3857 240.566 64.5327C242.713 66.6846 245.251 68.4053 248.111 69.6479C250.966 70.8906 254.079 71.5225 257.362 71.5259C257.37 71.5259 257.378 71.5259 257.387 71.5259C260.66 71.5259 263.764 70.9004 266.617 69.667C269.48 68.4292 272.022 66.7134 274.171 64.5679C276.32 62.4243 278.04 59.8862 279.287 57.0239C280.529 54.165 281.161 51.0522 281.164 47.7725C281.167 44.4932 280.542 41.3794 279.305 38.5171C278.066 35.6533 276.35 33.1118 274.207 30.9629C272.063 28.8159 269.525 27.0952 266.663 25.8486C263.804 24.606 260.691 23.9741 257.41 23.9707C257.402 23.9707 257.393 23.9707 257.384 23.9707Z" fill="black"/>
<path d="M252.399 68.5931C257.042 68.5931 260.805 64.8296 260.805 60.1871C260.805 55.5445 257.042 51.781 252.399 51.781C247.757 51.781 243.993 55.5445 243.993 60.1871C243.993 64.8296 247.757 68.5931 252.399 68.5931Z" fill="white"/>
<path d="M202.376 181.001C202.347 149.188 176.549 123.407 144.729 123.407C112.909 123.407 87.1114 149.188 87.082 181.001H202.376Z" fill="#0025FF"/>
<path d="M144.782 162.141C146.761 162.141 148.365 160.537 148.365 158.558C148.365 156.58 146.761 154.976 144.782 154.976C142.804 154.976 141.2 156.58 141.2 158.558C141.2 160.537 142.804 162.141 144.782 162.141Z" fill="black"/>
<path d="M144.782 150.308L118.767 123.398H170.797L144.782 150.308Z" fill="white"/>
<path d="M166.583 15.8145C173.351 18.7533 179.275 22.7584 184.353 27.8356C189.428 32.911 193.435 38.8353 196.372 45.603C199.307 52.3745 200.776 59.6408 200.776 67.4037C200.776 75.1685 199.307 82.4348 196.372 89.2044C193.435 95.974 189.428 101.896 184.353 106.972C179.275 112.049 173.351 116.058 166.583 118.993C159.814 121.93 152.547 123.397 144.783 123.397C137.02 123.397 129.752 121.93 122.984 118.993C116.212 116.058 110.292 112.049 105.215 106.972C100.137 101.896 96.1303 95.974 93.1953 89.2044C90.2566 82.4348 88.7891 75.1685 88.7891 67.4037C88.7891 59.6408 90.2566 52.3745 93.1953 45.603C96.1303 38.8353 100.137 32.911 105.215 27.8356C110.292 22.7584 116.212 18.7533 122.984 15.8145C129.752 12.8795 137.02 11.4102 144.783 11.4102C152.547 11.4102 159.814 12.8795 166.583 15.8145Z" fill="black"/>
<path d="M176.639 43.3955H112.926V107.109H176.639V43.3955Z" fill="white"/>
<path d="M130.432 71.9846C130.439 79.9042 136.861 86.322 144.783 86.322C152.704 86.322 159.126 79.9042 159.133 71.9846H130.432Z" fill="#FF00C1"/>
<path d="M178.072 80.2527C180.833 80.2527 183.072 78.0139 183.072 75.2522C183.072 72.4905 180.833 70.2517 178.072 70.2517C175.31 70.2517 173.071 72.4905 173.071 75.2522C173.071 78.0139 175.31 80.2527 178.072 80.2527Z" fill="#FF92D2"/>
<path d="M111.493 80.2527C114.255 80.2527 116.494 78.0139 116.494 75.2522C116.494 72.4905 114.255 70.2517 111.493 70.2517C108.732 70.2517 106.493 72.4905 106.493 75.2522C106.493 78.0139 108.732 80.2527 111.493 80.2527Z" fill="#FF92D2"/>
<path d="M126.499 66.1355C130.45 66.1355 133.653 62.9324 133.653 58.9812C133.653 55.0301 130.45 51.827 126.499 51.827C122.548 51.827 119.345 55.0301 119.345 58.9812C119.345 62.9324 122.548 66.1355 126.499 66.1355Z" fill="black"/>
<path d="M163.701 66.1355C167.652 66.1355 170.855 62.9324 170.855 58.9812C170.855 55.0301 167.652 51.827 163.701 51.827C159.75 51.827 156.547 55.0301 156.547 58.9812C156.547 62.9324 159.75 66.1355 163.701 66.1355Z" fill="black"/>
<path d="M117.978 53.1497C117.547 53.1497 117.114 52.9967 116.767 52.6854C116.022 52.0163 115.96 50.8694 116.629 50.124C119.142 47.3252 122.74 45.7201 126.499 45.7201C127.501 45.7201 128.313 46.5321 128.313 47.534C128.313 48.5359 127.501 49.3479 126.499 49.3479C123.768 49.3479 121.155 50.5141 119.329 52.5477C118.97 52.9466 118.475 53.1497 117.978 53.1497Z" fill="black"/>
<path d="M172.199 53.1497C171.702 53.1497 171.207 52.9466 170.849 52.5477C169.023 50.5141 166.409 49.3479 163.678 49.3479C162.676 49.3479 161.864 48.5359 161.864 47.534C161.864 46.5321 162.676 45.7201 163.678 45.7201C167.437 45.7201 171.035 47.3252 173.548 50.124C174.217 50.8694 174.156 52.016 173.41 52.6854C173.064 52.9964 172.63 53.1497 172.199 53.1497Z" fill="black"/>
<path d="M126.501 70.9648C120.211 70.9648 115.094 65.8477 115.094 59.5576C115.094 53.2676 120.211 48.1504 126.501 48.1504C132.791 48.1504 137.908 53.2676 137.908 59.5576C137.908 65.8477 132.791 70.9648 126.501 70.9648ZM126.501 49.3597C120.878 49.3597 116.303 53.9345 116.303 59.5576C116.303 65.1807 120.878 69.7556 126.501 69.7556C132.124 69.7556 136.699 65.1807 136.699 59.5576C136.699 53.9345 132.124 49.3597 126.501 49.3597Z" fill="black"/>
<path d="M163.781 70.9648C157.491 70.9648 152.374 65.8477 152.374 59.5576C152.374 53.2676 157.491 48.1504 163.781 48.1504C170.071 48.1504 175.189 53.2676 175.189 59.5576C175.189 65.8477 170.071 70.9648 163.781 70.9648ZM163.781 49.3597C158.158 49.3597 153.583 53.9345 153.583 59.5576C153.583 65.1807 158.158 69.7556 163.781 69.7556C169.405 69.7556 173.979 65.1807 173.979 59.5576C173.979 53.9345 169.405 49.3597 163.781 49.3597Z" fill="black"/>
<path d="M153.367 56.4126C153.192 56.4126 153.018 56.3368 152.899 56.1906C150.952 53.8089 148.073 52.443 145 52.443C141.927 52.443 139.048 53.8089 137.1 56.1906C136.889 56.449 136.508 56.4875 136.249 56.2761C135.991 56.0647 135.953 55.6837 136.164 55.4253C138.342 52.7614 141.562 51.2338 145 51.2338C148.437 51.2338 151.657 52.7614 153.835 55.4253C154.047 55.6837 154.008 56.0647 153.75 56.2761C153.637 56.368 153.502 56.4126 153.367 56.4126Z" fill="black"/>
<path d="M115.529 57.9964C115.463 57.9964 115.396 57.9856 115.33 57.9624C109.287 55.8542 90.8988 49.4381 88.2161 52.2728C87.7709 52.743 87.8003 53.6013 88.3034 54.8238C88.4305 55.1325 88.2831 55.4858 87.9744 55.6129C87.6655 55.7406 87.3123 55.5926 87.1851 55.2839C86.4746 53.5574 86.5245 52.3004 87.3379 51.4414C88.9302 49.759 93.549 49.0831 115.729 56.8207C116.044 56.9308 116.21 57.2754 116.1 57.5907C116.013 57.8401 115.779 57.9964 115.529 57.9964Z" fill="black"/>
<path d="M174.47 57.9964C174.22 57.9964 173.986 57.8401 173.899 57.5907C173.789 57.2754 173.955 56.9308 174.271 56.8207C196.45 49.0828 201.069 49.7593 202.661 51.4414C203.475 52.3004 203.525 53.5574 202.814 55.2839C202.687 55.5928 202.334 55.7406 202.025 55.6129C201.716 55.4858 201.569 55.1325 201.696 54.8238C202.199 53.6013 202.228 52.743 201.783 52.2727C199.1 49.4383 180.712 55.8542 174.669 57.9624C174.603 57.9853 174.536 57.9964 174.47 57.9964Z" fill="black"/>
<path d="M149.324 140.331L150.579 142.802L160.461 137.783L159.207 135.312L149.324 140.331Z" fill="black"/>
<path d="M156.713 132.693L154.242 133.948L157.379 140.125L159.85 138.87L156.713 132.693Z" fill="black"/>
<path d="M156.794 134.982L156.037 135.367C155.052 135.867 153.848 135.474 153.348 134.489L152.963 133.732C152.463 132.747 152.856 131.543 153.841 131.043L154.598 130.659C155.583 130.158 156.787 130.551 157.287 131.536L157.671 132.293C158.172 133.278 157.779 134.482 156.794 134.982Z" fill="black"/>
<path d="M146.945 153.837C146.71 153.837 146.501 153.671 146.455 153.433C146.402 153.161 146.58 152.899 146.85 152.846C153.269 151.599 154.667 150.445 154.93 149.868C155.071 149.559 154.902 149.291 154.454 148.709C153.92 148.016 153.189 147.066 153.75 145.686C154.039 144.977 154.509 144.566 155.007 144.129C155.318 143.858 155.668 143.551 156.033 143.125C156.956 142.042 158.441 139.883 158.006 137.593C157.955 137.322 158.133 137.061 158.405 137.009C158.672 136.957 158.937 137.135 158.989 137.407C159.5 140.107 157.833 142.555 156.793 143.774C156.382 144.255 156.001 144.588 155.666 144.882C155.208 145.283 154.875 145.573 154.676 146.063C154.332 146.911 154.755 147.461 155.247 148.099C155.691 148.676 156.244 149.395 155.84 150.282C155.447 151.147 154.107 152.455 147.041 153.828C147.009 153.834 146.977 153.837 146.945 153.837Z" fill="black"/>
</g>
</svg>
