<svg width="290" height="163" viewBox="0 0 290 163" fill="none" xmlns="http://www.w3.org/2000/svg">
<path d="M290 0H0V163H290V0Z" fill="#F4B400"/>
<mask id="mask0_735_48952" style="mask-type:alpha" maskUnits="userSpaceOnUse" x="0" y="0" width="290" height="163">
<path d="M290 0H0V163H290V0Z" fill="#F4B400"/>
</mask>
<g mask="url(#mask0_735_48952)">
<path d="M284.949 -3.21123L255.405 4.97941L263.596 34.5237L293.14 26.3331L284.949 -3.21123Z" fill="#0025FF"/>
<path d="M266.886 33.7739L258.429 3.2666L288.937 -5.19141L297.395 25.3164L266.886 33.7739ZM259.66 3.96289L267.583 32.5435L296.164 24.6201L288.24 -3.96094L259.66 3.96289Z" fill="black"/>
<path d="M59.1164 12.5764L26.4216 -2.84519L11 29.8497L43.6949 45.2713L59.1164 12.5764Z" fill="#B924FF"/>
<path d="M47.5736 44.5718L13.974 28.7236L29.8217 -4.87549L63.4213 10.9727L47.5736 44.5718ZM15.3041 28.2461L47.0951 43.2407L62.0912 11.4502L30.3002 -3.54443L15.3041 28.2461Z" fill="black"/>
<path d="M192.524 42.1833C195.136 31.0718 188.253 19.9423 177.142 17.3188C166.03 14.6953 154.896 21.5709 152.263 32.6776L192.524 42.1833Z" fill="#B924FF"/>
<path d="M196.536 41.4199L155.301 31.6846L155.416 31.1978C158.109 19.8423 169.537 12.7881 180.897 15.4673C192.254 18.1489 199.321 29.5728 196.65 40.9326L196.536 41.4199ZM156.51 30.9429L195.786 40.2153C198.017 29.5547 191.325 18.957 180.666 16.4409C170.011 13.9233 159.282 20.4102 156.51 30.9429Z" fill="black"/>
<path d="M232.199 63.5686C233.295 64.0459 234.254 64.6959 235.076 65.5195C235.898 66.3428 236.546 67.3035 237.021 68.4007C237.495 69.4985 237.732 70.6762 237.731 71.9342C237.73 73.1925 237.49 74.3697 237.014 75.4662C236.537 76.5627 235.886 77.5218 235.063 78.3434C234.239 79.1653 233.279 79.814 232.181 80.2884C231.084 80.7632 229.906 80.9998 228.648 80.9985C227.39 80.9972 226.212 80.7582 225.116 80.2812C224.019 79.8044 223.061 79.1538 222.239 78.3302C221.417 77.5069 220.768 76.5465 220.294 75.449C219.819 74.3515 219.582 73.1738 219.584 71.9155C219.585 70.6576 219.824 69.4803 220.301 68.3835C220.778 67.2873 221.428 66.3279 222.252 65.5063C223.076 64.6844 224.036 64.0364 225.133 63.5613C226.231 63.0868 227.409 62.8499 228.667 62.8512C229.925 62.8525 231.102 63.0918 232.199 63.5686Z" fill="#FF00C1"/>
<path d="M232.299 80.1338C232.295 80.1338 232.291 80.1338 232.287 80.1338C230.965 80.1323 229.709 79.877 228.556 79.375C227.409 78.876 226.388 78.1841 225.525 77.3184C224.662 76.4546 223.971 75.4331 223.474 74.2822C222.975 73.1279 222.722 71.8726 222.723 70.5503C222.724 69.2295 222.98 67.9741 223.483 66.8188C223.982 65.6699 224.673 64.6499 225.537 63.7876C226.404 62.9248 227.425 62.2349 228.575 61.7373C229.728 61.2388 230.98 60.9863 232.294 60.9863C232.298 60.9863 232.302 60.9863 232.307 60.9863C233.627 60.9878 234.882 61.2432 236.037 61.7451C237.188 62.2471 238.209 62.939 239.07 63.8018C239.932 64.6655 240.622 65.687 241.12 66.8379C241.619 67.9927 241.871 69.248 241.87 70.5698C241.87 71.8911 241.614 73.1465 241.111 74.3013C240.612 75.4502 239.92 76.4702 239.056 77.3325C238.189 78.1963 237.167 78.8862 236.019 79.3828C234.867 79.8813 233.615 80.1338 232.299 80.1338ZM232.294 61.9863C231.117 61.9863 229.998 62.2114 228.971 62.6553C227.938 63.1025 227.02 63.7217 226.245 64.4956C225.469 65.2686 224.849 66.1846 224.4 67.2178C223.952 68.2471 223.724 69.3682 223.723 70.5513C223.722 71.7354 223.948 72.8574 224.392 73.8853C224.839 74.9199 225.458 75.8374 226.232 76.6118C227.007 77.3882 227.923 78.0093 228.954 78.458C229.983 78.9053 231.104 79.1323 232.288 79.1338C232.291 79.1338 232.295 79.1338 232.299 79.1338C233.478 79.1338 234.596 78.9087 235.622 78.4648C236.655 78.0186 237.573 77.3994 238.349 76.6245C239.124 75.8516 239.745 74.9355 240.194 73.9023C240.642 72.8735 240.87 71.7524 240.87 70.5688C240.871 69.3853 240.646 68.2632 240.202 67.2344C239.754 66.2002 239.135 65.2827 238.362 64.5083C237.59 63.7344 236.674 63.1133 235.639 62.6621C234.61 62.2153 233.489 61.9878 232.305 61.9863C232.302 61.9863 232.298 61.9863 232.294 61.9863Z" fill="black"/>
<path d="M266.327 96.0465C268.632 97.0504 270.65 98.4175 272.379 100.15C274.107 101.881 275.47 103.902 276.469 106.209C277.466 108.518 277.965 110.995 277.962 113.64C277.959 116.287 277.456 118.762 276.453 121.068C275.45 123.375 274.082 125.392 272.351 127.119C270.619 128.848 268.598 130.212 266.291 131.21C263.983 132.209 261.506 132.706 258.86 132.703C256.214 132.701 253.737 132.198 251.432 131.195C249.125 130.192 247.109 128.824 245.38 127.092C243.652 125.36 242.288 123.34 241.29 121.032C240.291 118.724 239.794 116.247 239.796 113.601C239.799 110.955 240.302 108.48 241.306 106.173C242.308 103.867 243.676 101.85 245.408 100.122C247.14 98.3933 249.159 97.0304 251.468 96.0312C253.776 95.0334 256.253 94.5352 258.899 94.5379C261.545 94.5406 264.021 95.0439 266.327 96.0465Z" fill="#FFE600"/>
<path d="M262.517 93.1731L262.537 94.1731C265.032 94.1756 267.398 94.6553 269.567 95.5986C271.748 96.5482 273.68 97.8579 275.31 99.4912C276.941 101.125 278.246 103.06 279.19 105.241C280.129 107.413 280.604 109.78 280.601 112.274C280.599 114.77 280.119 117.135 279.176 119.305C278.228 121.484 276.918 123.416 275.284 125.047C273.649 126.679 271.714 127.984 269.533 128.927C267.369 129.864 265.009 130.339 262.5 130.339C260.004 130.336 257.638 129.856 255.47 128.913C253.293 127.966 251.361 126.657 249.728 125.02C248.096 123.386 246.791 121.452 245.848 119.27C244.908 117.1 244.433 114.734 244.436 112.237C244.438 109.741 244.918 107.376 245.862 105.207C246.81 103.027 248.12 101.095 249.754 99.4649C251.388 97.834 253.323 96.5284 255.505 95.5843C257.67 94.6479 260.029 94.1731 262.517 94.1731V93.1731ZM262.517 93.1731C259.879 93.1731 257.409 93.6713 255.108 94.6664C252.799 95.6656 250.78 97.0285 249.048 98.757C247.316 100.485 245.948 102.503 244.945 104.808C243.941 107.115 243.439 109.591 243.436 112.236C243.433 114.882 243.931 117.359 244.93 119.667C245.928 121.976 247.291 123.995 249.02 125.727C250.748 127.459 252.765 128.827 255.072 129.83C257.377 130.833 259.853 131.336 262.499 131.339C262.506 131.339 262.513 131.339 262.521 131.339C265.159 131.339 267.629 130.841 269.93 129.845C272.238 128.847 274.258 127.483 275.99 125.755C277.722 124.027 279.089 122.01 280.093 119.704C281.095 117.398 281.599 114.922 281.601 112.275C281.604 109.63 281.106 107.153 280.108 104.844C279.109 102.537 277.746 100.516 276.018 98.7848C274.29 97.0527 272.272 95.6856 269.967 94.6817C267.66 93.6791 265.185 93.1758 262.538 93.1731C262.531 93.1731 262.524 93.1731 262.517 93.1731Z" fill="black"/>
<path d="M249.754 126.497C252.486 126.497 254.7 124.282 254.7 121.55C254.7 118.819 252.486 116.604 249.754 116.604C247.022 116.604 244.808 118.819 244.808 121.55C244.808 124.282 247.022 126.497 249.754 126.497Z" fill="#0025FF"/>
<path d="M102.767 116.373L77.1762 119.808L80.6103 145.398L106.201 141.964L102.767 116.373Z" fill="#FFE600"/>
<path d="M105.548 116.133L108.716 139.741L85.1079 142.91L81.9398 119.301L105.548 116.133ZM106.407 115.009L80.8157 118.443L84.2498 144.034L109.841 140.599L106.407 115.009Z" fill="black"/>
<path d="M91.5451 133.75C93.226 133.75 94.5887 132.388 94.5887 130.707C94.5887 129.026 93.226 127.663 91.5451 127.663C89.8641 127.663 88.5014 129.026 88.5014 130.707C88.5014 132.388 89.8641 133.75 91.5451 133.75Z" fill="#FF00C1"/>
<path d="M37.6543 85.9838C39.7045 86.8766 41.4988 88.0923 43.036 89.6327C44.5727 91.1725 45.7853 92.9692 46.6733 95.0213C47.5607 97.0745 48.0038 99.2772 48.0013 101.63C47.9989 103.983 47.5513 106.185 46.6597 108.236C45.7675 110.287 44.5512 112.08 43.0114 113.617C41.471 115.154 39.6742 116.367 37.6221 117.255C35.5695 118.143 33.3668 118.585 31.0135 118.583C28.6607 118.581 26.4583 118.133 24.4081 117.241C22.3567 116.35 20.5636 115.133 19.0264 113.592C17.4892 112.053 16.2766 110.256 15.3891 108.204C14.5006 106.151 14.0581 103.948 14.0605 101.595C14.0629 99.2423 14.51 97.0405 15.4027 94.9891C16.2944 92.9389 17.5107 91.1446 19.051 89.608C20.5914 88.0708 22.3871 86.8587 24.4403 85.9702C26.4923 85.0828 28.6956 84.6397 31.0484 84.6421C33.4017 84.6445 35.6035 85.0921 37.6543 85.9838Z" fill="#0025FF"/>
<path d="M34.6683 117.718C34.6625 117.718 34.6576 117.718 34.6527 117.718C32.2387 117.715 29.9496 117.25 27.848 116.334C25.7514 115.423 23.8891 114.161 22.3119 112.582C20.7377 111.004 19.4789 109.14 18.5697 107.038C17.6586 104.933 17.1976 102.642 17.1996 100.23C17.2025 97.8179 17.6683 95.5288 18.5844 93.4253C19.4974 91.3247 20.7601 89.4624 22.3383 87.8892C23.9135 86.3159 25.7787 85.0562 27.8812 84.146C29.9848 83.2378 32.2689 82.7769 34.6723 82.7769C34.6781 82.7769 34.683 82.7769 34.6879 82.7769C37.099 82.7798 39.3881 83.2456 41.4926 84.1597L41.4935 84.1606C43.5951 85.0757 45.4574 86.3394 47.0287 87.9146C48.6049 89.4937 49.8637 91.3579 50.7719 93.4585C51.682 95.564 52.143 97.854 52.141 100.265C52.1381 102.676 51.6723 104.965 50.7582 107.071C49.8441 109.169 48.5814 111.032 47.0043 112.606C45.4262 114.181 43.5609 115.44 41.4603 116.349C39.3598 117.257 37.0746 117.718 34.6683 117.718ZM34.6723 83.7769C32.4066 83.7769 30.2553 84.2095 28.2777 85.064C26.2914 85.9233 24.5307 87.1128 23.0443 88.5972C21.556 90.0815 20.3637 91.8394 19.5014 93.8237C18.64 95.8013 18.2025 97.9565 18.1996 100.231C18.1976 102.505 18.6312 104.663 19.4877 106.641C20.3471 108.626 21.5355 110.388 23.0189 111.875C24.5072 113.365 26.266 114.557 28.2465 115.417C30.223 116.278 32.3783 116.715 34.6537 116.718C34.6586 116.718 34.6635 116.718 34.6683 116.718C36.9369 116.718 39.0883 116.286 41.0639 115.431C43.0482 114.573 44.809 113.384 46.2973 111.899C47.7855 110.414 48.9779 108.655 49.8412 106.672C50.7006 104.693 51.1381 102.538 51.141 100.264C51.143 97.9907 50.7103 95.8345 49.8539 93.855C48.9955 91.8716 47.807 90.1099 46.3217 88.6216C44.8383 87.1353 43.0795 85.9429 41.0932 85.0767C39.1156 84.2173 36.9603 83.7798 34.6869 83.7769C34.682 83.7769 34.6771 83.7769 34.6723 83.7769Z" fill="black"/>
<path d="M31.1845 114.819C34.4297 114.819 37.0604 112.188 37.0604 108.943C37.0604 105.697 34.4297 103.067 31.1845 103.067C27.9393 103.067 25.3085 105.697 25.3085 108.943C25.3085 112.188 27.9393 114.819 31.1845 114.819Z" fill="white"/>
<path d="M135.272 144.176L94.9356 43.3266C92.4744 37.1732 95.4675 30.1896 101.621 27.7284L139.133 12.7246C145.287 10.2634 152.27 13.2566 154.731 19.4101L195.068 120.259C197.529 126.413 194.536 133.396 188.383 135.857L150.871 150.861C144.717 153.322 137.734 150.329 135.272 144.176Z" fill="white"/>
<path d="M145.044 138.46C144.451 136.979 145.172 135.298 146.653 134.706L180.296 121.249C181.777 120.657 183.458 121.377 184.05 122.859C184.643 124.34 183.922 126.021 182.441 126.613L148.798 140.069C147.317 140.662 145.636 139.941 145.044 138.46Z" fill="#B924FF"/>
<path d="M161.628 132.55C161.508 132.598 161.389 132.615 161.271 132.601C161.153 132.587 161.047 132.544 160.954 132.473C160.862 132.401 160.793 132.308 160.748 132.193C160.702 132.078 160.687 131.963 160.705 131.848C160.723 131.733 160.77 131.629 160.846 131.538C160.921 131.446 161.019 131.376 161.14 131.328C161.259 131.28 161.378 131.263 161.496 131.278C161.614 131.292 161.718 131.334 161.81 131.406C161.902 131.476 161.971 131.569 162.017 131.685C162.064 131.801 162.078 131.917 162.061 132.032C162.043 132.146 161.997 132.249 161.921 132.341C161.846 132.432 161.748 132.502 161.628 132.55ZM161.568 132.398C161.655 132.363 161.726 132.311 161.779 132.244C161.834 132.176 161.867 132.099 161.879 132.014C161.892 131.927 161.881 131.84 161.847 131.754C161.812 131.667 161.76 131.597 161.692 131.544C161.624 131.49 161.546 131.457 161.46 131.445C161.375 131.433 161.288 131.444 161.2 131.48C161.113 131.515 161.041 131.566 160.985 131.635C160.931 131.703 160.897 131.78 160.884 131.867C160.872 131.953 160.884 132.038 160.918 132.125C160.953 132.211 161.004 132.282 161.072 132.337C161.141 132.39 161.218 132.422 161.305 132.433C161.392 132.445 161.48 132.433 161.568 132.398ZM162.854 131.16L162.523 131.293L162.828 132.054L162.664 132.12L162.359 131.358L162.028 131.491L161.971 131.348L162.797 131.017L162.854 131.16ZM163.683 130.663L164.044 131.567L163.881 131.633L163.576 130.872L163.187 131.027L163.257 131.233C163.3 131.357 163.33 131.463 163.347 131.551C163.363 131.638 163.363 131.714 163.346 131.777C163.33 131.841 163.289 131.885 163.224 131.911C163.194 131.923 163.159 131.932 163.117 131.936L163.072 131.794C163.088 131.791 163.102 131.788 163.115 131.783C163.161 131.765 163.187 131.731 163.194 131.682C163.2 131.633 163.196 131.58 163.181 131.523C163.166 131.465 163.141 131.385 163.107 131.281L162.988 130.941L163.683 130.663ZM163.999 130.536L164.163 130.471L164.427 131.129L164.718 130.249L164.866 130.189L165.228 131.094L165.064 131.159L164.801 130.501L164.511 131.381L164.361 131.441L163.999 130.536ZM165.906 129.774L166.268 130.678L166.104 130.744L165.958 130.378C165.878 130.463 165.79 130.525 165.694 130.563C165.581 130.608 165.484 130.617 165.401 130.589C165.319 130.561 165.257 130.495 165.215 130.391L165.097 130.097L165.261 130.032L165.375 130.315C165.4 130.377 165.438 130.417 165.489 130.433C165.542 130.449 165.603 130.443 165.674 130.415C165.753 130.383 165.831 130.329 165.908 130.252L165.742 129.839L165.906 129.774ZM166.224 129.646L166.388 129.581L166.542 129.965L167.057 129.759L166.904 129.375L167.067 129.309L167.429 130.214L167.265 130.279L167.114 129.9L166.598 130.106L166.75 130.485L166.586 130.551L166.224 129.646ZM168.139 129.941C168.049 129.977 167.961 129.99 167.873 129.979C167.785 129.968 167.707 129.935 167.638 129.882C167.57 129.828 167.519 129.756 167.483 129.667C167.448 129.579 167.436 129.492 167.448 129.406C167.461 129.319 167.495 129.242 167.551 129.175C167.607 129.106 167.68 129.054 167.77 129.018C167.86 128.982 167.948 128.97 168.034 128.982C168.122 128.992 168.199 129.024 168.267 129.079C168.336 129.132 168.388 129.203 168.423 129.291C168.459 129.38 168.47 129.468 168.458 129.555C168.445 129.64 168.412 129.717 168.356 129.786C168.301 129.854 168.229 129.906 168.139 129.941ZM168.082 129.798C168.14 129.775 168.186 129.741 168.221 129.697C168.257 129.651 168.278 129.599 168.286 129.54C168.292 129.481 168.283 129.42 168.258 129.358C168.233 129.295 168.198 129.245 168.152 129.208C168.107 129.169 168.055 129.146 167.998 129.139C167.942 129.131 167.885 129.138 167.827 129.162C167.769 129.185 167.722 129.219 167.686 129.264C167.651 129.308 167.629 129.36 167.622 129.42C167.615 129.478 167.624 129.539 167.649 129.601C167.674 129.664 167.709 129.714 167.755 129.753C167.801 129.79 167.853 129.813 167.909 129.822C167.966 129.829 168.024 129.821 168.082 129.798Z" fill="white"/>
<mask id="mask1_735_48952" style="mask-type:alpha" maskUnits="userSpaceOnUse" x="94" y="11" width="102" height="141">
<path d="M135.272 144.174L94.9356 43.3247C92.4744 37.1712 95.4675 30.1877 101.621 27.7265L139.133 12.7227C145.287 10.2615 152.27 13.2546 154.731 19.4081L195.068 120.257C197.529 126.411 194.536 133.394 188.383 135.856L150.871 150.859C144.717 153.32 137.734 150.327 135.272 144.174Z" fill="white"/>
</mask>
<g mask="url(#mask1_735_48952)">
<path d="M159.159 117.188C181.391 108.296 192.205 83.0647 183.313 60.8325C174.421 38.6004 149.19 27.7862 126.958 36.6785C104.725 45.5707 93.9112 70.802 102.803 93.0341C111.696 115.266 136.927 126.08 159.159 117.188Z" fill="#E9F8FF"/>
<path d="M156.029 109.36C173.939 102.197 182.65 81.8715 175.487 63.9623C168.324 46.0531 147.998 37.3418 130.089 44.505C112.18 51.6681 103.469 71.9933 110.632 89.9025C117.795 107.812 138.12 116.523 156.029 109.36Z" fill="#B6E9FF"/>
<path d="M152.896 101.534C166.482 96.0998 173.091 80.6805 167.657 67.0943C162.223 53.508 146.804 46.8993 133.217 52.3334C119.631 57.7676 113.022 73.1867 118.456 86.773C123.891 100.359 139.31 106.968 152.896 101.534Z" fill="#5FB5FF"/>
<path d="M143.988 91.7313L125.376 83.7536C124.011 83.169 123.379 81.5894 123.964 80.2251C124.548 78.8614 126.128 78.2294 127.493 78.8139L141.166 84.6744L152.186 58.9613C152.771 57.5973 154.351 56.9653 155.715 57.55C157.079 58.1347 157.711 59.7143 157.126 61.0784L143.988 91.7313Z" fill="#E9F8FF"/>
</g>
<path d="M193.077 137.719L148.762 155.447C142.716 157.866 135.83 154.915 133.411 148.869L90.3451 41.219C87.9265 35.1733 90.8772 28.2873 96.923 25.8687L141.238 8.14007C147.284 5.72144 154.17 8.67216 156.589 14.7179L199.655 122.368C202.073 128.414 199.123 135.3 193.077 137.719ZM99.5031 32.3181C97.014 33.3139 95.7987 36.1495 96.7946 38.6388L139.861 146.289C140.857 148.778 143.693 149.994 146.182 148.998L190.497 131.269C192.986 130.273 194.201 127.438 193.205 124.949L150.139 17.298C149.143 14.8086 146.307 13.5937 143.818 14.5895L99.5031 32.3181Z" fill="black"/>
</g>
</svg>
