<svg width="290" height="163" viewBox="0 0 290 163" fill="none" xmlns="http://www.w3.org/2000/svg">
<g clip-path="url(#clip0_735_49176)">
<path d="M290 0H0V163H290V0Z" fill="#B6E9FF"/>
<path d="M145 224.5C216.797 224.5 275 166.297 275 94.5C275 22.7028 216.797 -35.5 145 -35.5C73.2028 -35.5 15 22.7028 15 94.5C15 166.297 73.2028 224.5 145 224.5Z" fill="#E9F8FF"/>
<path d="M145 199.738C203.122 199.738 250.238 152.621 250.238 94.5001C250.238 36.3786 203.122 -10.7382 145 -10.7382C86.8785 -10.7382 39.7619 36.3786 39.7619 94.5001C39.7619 152.621 86.8785 199.738 145 199.738Z" fill="#B6E9FF"/>
<path d="M145 174.976C189.446 174.976 225.476 138.946 225.476 94.5C225.476 50.0542 189.446 14.024 145 14.024C100.554 14.024 64.5238 50.0542 64.5238 94.5C64.5238 138.946 100.554 174.976 145 174.976Z" fill="#5FB5FF"/>
<path d="M95.4225 99.5508H87.6576V99.5534C84.6295 99.6084 82.1896 102.076 82.1836 105.117L95.4225 105.128C95.4225 105.124 95.4222 105.121 95.4222 105.117H95.4225V99.5508Z" fill="black"/>
<path d="M99.5586 99.5508H107.324V99.5534C110.352 99.6084 112.792 102.076 112.797 105.117L99.5586 105.128C99.5586 105.124 99.5589 105.121 99.5589 105.117H99.5586V99.5508Z" fill="black"/>
<path d="M95.9156 86.3359H85.2969V100.245H95.9156V86.3359Z" fill="#B6E9FF"/>
<path d="M109.681 86.3359H99.0625V100.245H109.681V86.3359Z" fill="#B6E9FF"/>
<path d="M114.547 86.3359H80.4336V88.7684H114.547V86.3359Z" fill="#0025FF"/>
<path d="M105.454 27.9952C107.9 29.0604 110.04 30.5108 111.874 32.3486C113.708 34.1857 115.154 36.3294 116.214 38.7776C117.273 41.2272 117.801 43.8552 117.798 46.6622C117.796 49.4699 117.261 52.0968 116.198 54.5435C115.133 56.9903 113.682 59.1303 111.845 60.9636C110.007 62.7976 107.864 64.245 105.415 65.3038C102.966 66.3632 100.338 66.8911 97.5307 66.8882C94.7237 66.8853 92.0961 66.352 89.6501 65.2875C87.2026 64.2238 85.0633 62.772 83.2293 60.9342C81.3953 59.0971 79.9486 56.9541 78.8899 54.5052C77.8297 52.0562 77.3018 49.4283 77.3047 46.6206C77.3076 43.8135 77.8409 41.1867 78.9061 38.7392C79.9699 36.2932 81.421 34.1525 83.2587 32.3192C85.0965 30.4852 87.2388 29.0391 89.6885 27.979C92.1367 26.9203 94.7654 26.3917 97.5724 26.3945C100.38 26.3974 103.007 26.9314 105.454 27.9952Z" fill="black"/>
<path d="M109.007 37.9609H85.9688V60.9993H109.007V37.9609Z" fill="white"/>
<path d="M92.3008 48.2988C92.3034 51.1625 94.6256 53.4831 97.4899 53.4831C100.354 53.4831 102.676 51.1625 102.679 48.2988H92.3008Z" fill="#FF00C1"/>
<path d="M109.527 51.2882C110.526 51.2882 111.335 50.4786 111.335 49.48C111.335 48.4814 110.526 47.6719 109.527 47.6719C108.528 47.6719 107.719 48.4814 107.719 49.48C107.719 50.4786 108.528 51.2882 109.527 51.2882Z" fill="#FF92D2"/>
<path d="M85.4527 51.2882C86.4513 51.2882 87.2608 50.4786 87.2608 49.48C87.2608 48.4814 86.4513 47.6719 85.4527 47.6719C84.4541 47.6719 83.6445 48.4814 83.6445 49.48C83.6445 50.4786 84.4541 51.2882 85.4527 51.2882Z" fill="#FF92D2"/>
<path d="M90.8799 46.1836C92.3086 46.1836 93.4668 45.0254 93.4668 43.5967C93.4668 42.168 92.3086 41.0098 90.8799 41.0098C89.4512 41.0098 88.293 42.168 88.293 43.5967C88.293 45.0254 89.4512 46.1836 90.8799 46.1836Z" fill="black"/>
<path d="M104.329 46.1836C105.758 46.1836 106.916 45.0254 106.916 43.5967C106.916 42.168 105.758 41.0098 104.329 41.0098C102.9 41.0098 101.742 42.168 101.742 43.5967C101.742 45.0254 102.9 46.1836 104.329 46.1836Z" fill="black"/>
<path d="M87.7976 41.4899C87.6412 41.4899 87.4842 41.4345 87.3587 41.3217C87.0887 41.0791 87.0663 40.6637 87.3089 40.3936C88.2178 39.3813 89.5189 38.8008 90.8786 38.8008C91.2416 38.8008 91.5358 39.095 91.5358 39.458C91.5358 39.821 91.2416 40.1152 90.8786 40.1152C89.8915 40.1152 88.9469 40.5368 88.2868 41.2718C88.157 41.4163 87.9777 41.4899 87.7976 41.4899Z" fill="black"/>
<path d="M107.402 41.4899C107.222 41.4899 107.043 41.4163 106.913 41.2718C106.253 40.5368 105.308 40.1152 104.321 40.1152C103.958 40.1152 103.664 39.821 103.664 39.458C103.664 39.095 103.958 38.8008 104.321 38.8008C105.681 38.8008 106.982 39.3813 107.891 40.3936C108.134 40.6636 108.111 41.0791 107.841 41.3217C107.716 41.4344 107.559 41.4899 107.402 41.4899Z" fill="black"/>
<path d="M118.334 87.7356C118.335 76.2322 109.017 66.9005 97.5107 66.8887C86.0049 66.8768 76.667 76.1893 76.6445 87.6927L118.334 87.7356Z" fill="#0025FF"/>
<path d="M77.9258 87.7344C77.9256 89.8862 80.5175 91.6318 82.342 91.634C84.1666 91.6363 84.5331 89.8942 84.5367 87.7424L77.9258 87.7344Z" fill="white"/>
<path d="M83.5039 87.7363C83.5039 89.3726 83.9397 90.7 84.4779 90.7017C85.0161 90.7034 85.4528 89.3787 85.4539 87.7424L83.5039 87.7363Z" fill="white"/>
<path d="M117.052 87.7344C117.053 89.8862 114.461 91.6318 112.636 91.634C110.812 91.6363 110.445 89.8942 110.441 87.7424L117.052 87.7344Z" fill="white"/>
<path d="M111.477 87.7363C111.477 89.3726 111.042 90.7 110.503 90.7017C109.965 90.7034 109.528 89.3787 109.527 87.7424L111.477 87.7363Z" fill="white"/>
<path d="M82.3481 91.8079C82.3465 91.8079 82.345 91.8079 82.3435 91.8079C80.538 91.8059 77.7536 90.0558 77.7539 87.7343C77.7539 87.6383 77.8318 87.5605 77.9277 87.5605C78.0237 87.5605 78.1014 87.6383 78.1014 87.7343C78.1011 89.8576 80.6749 91.4587 82.344 91.4604C82.3454 91.4604 82.3467 91.4604 82.3479 91.4604C83.1198 91.4604 83.649 91.1214 83.9658 90.4244C83.9904 90.3701 84.0411 90.3324 84.1003 90.3242C84.1587 90.3161 84.2184 90.3388 84.2568 90.3843C84.3119 90.4498 84.3951 90.5279 84.4784 90.5282C84.4785 90.5282 84.4787 90.5282 84.4787 90.5282C84.535 90.5282 84.596 90.496 84.6599 90.4322C84.958 90.1352 85.2792 89.1667 85.2801 87.7424C85.2801 87.6464 85.358 87.5687 85.4538 87.5687C85.4538 87.5687 85.4538 87.5687 85.454 87.5687C85.5499 87.5687 85.6276 87.6467 85.6276 87.7424C85.6267 89.0897 85.3432 90.2421 84.9053 90.6782C84.7738 90.8092 84.6304 90.8757 84.4789 90.8757C84.4784 90.8757 84.4779 90.8757 84.4773 90.8757C84.3728 90.8754 84.2719 90.8428 84.1757 90.7783C83.7903 91.4618 83.1766 91.8079 82.3481 91.8079Z" fill="black"/>
<path d="M112.635 91.8079C111.807 91.8079 111.193 91.4618 110.808 90.778C110.711 90.8428 110.593 90.8781 110.504 90.8757C110.353 90.8757 110.209 90.8092 110.078 90.6782C109.64 90.2421 109.356 89.0897 109.355 87.7424C109.355 87.6467 109.433 87.5687 109.529 87.5687C109.529 87.5687 109.529 87.5687 109.529 87.5687C109.625 87.5687 109.703 87.6464 109.703 87.7424C109.704 89.1667 110.025 90.1352 110.323 90.4322C110.387 90.496 110.448 90.5282 110.504 90.5282C110.504 90.5282 110.505 90.5282 110.505 90.5282C110.588 90.5279 110.671 90.4498 110.726 90.3843C110.764 90.3385 110.823 90.3154 110.883 90.3239C110.942 90.3317 110.993 90.3697 111.017 90.424C111.334 91.1214 111.863 91.4604 112.635 91.4604C112.637 91.4604 112.638 91.4604 112.639 91.4604C114.308 91.4587 116.882 89.8576 116.882 87.7343C116.882 87.6383 116.96 87.5605 117.056 87.5605C117.151 87.5605 117.229 87.6383 117.229 87.7343C117.229 90.0558 114.445 91.8059 112.64 91.8079C112.638 91.8079 112.637 91.8079 112.635 91.8079Z" fill="black"/>
<path d="M143.973 87.3652H136.208V87.3679C133.18 87.4229 130.74 89.8901 130.734 92.9313L143.973 92.9428C143.973 92.9389 143.973 92.9351 143.973 92.9313H143.973V87.3652Z" fill="black"/>
<path d="M148.457 87.3652H156.222V87.3679C159.25 87.4229 161.69 89.8901 161.696 92.9313L148.457 92.9428C148.457 92.9389 148.457 92.9351 148.457 92.9313H148.457V87.3652Z" fill="black"/>
<path d="M144.678 76.5918H137.324V88.0592H144.678V76.5918Z" fill="black"/>
<path d="M155.104 76.5918H147.75V88.0592H155.104V76.5918Z" fill="black"/>
<path d="M158.335 72.0742H134.094V80.058H158.335V72.0742Z" fill="black"/>
<path d="M154.117 15.8015C156.564 16.864 158.706 18.3122 160.541 20.148C162.377 21.9831 163.825 24.1252 164.887 26.5722C165.948 29.0206 166.48 31.6478 166.48 34.4547C166.48 37.2622 165.948 39.8895 164.887 42.3372C163.825 44.7849 162.377 46.9263 160.541 48.7614C158.706 50.5972 156.564 52.0467 154.117 53.1079C151.669 54.1698 149.042 54.7004 146.234 54.7004C143.427 54.7004 140.799 54.1698 138.352 53.1079C135.904 52.0467 133.763 50.5972 131.927 48.7614C130.091 46.9263 128.643 44.7849 127.581 42.3372C126.519 39.8895 125.988 37.2622 125.988 34.4547C125.988 31.6478 126.519 29.0206 127.581 26.5722C128.643 24.1252 130.091 21.9831 131.927 20.148C133.763 18.3122 135.904 16.864 138.352 15.8015C140.799 14.7403 143.427 14.209 146.234 14.209C149.042 14.209 151.669 14.7403 154.117 15.8015Z" fill="black"/>
<path d="M167.143 75.55C167.132 64.0003 157.766 54.6406 146.214 54.6406C134.662 54.6406 125.296 64.0003 125.285 75.55H167.143Z" fill="black"/>
<path d="M146.224 75.5288L139.414 54.6289H153.034L146.224 75.5288Z" fill="white"/>
<path d="M146.214 54.6465L149.713 75.5296H142.715L146.214 54.6465Z" fill="black"/>
<path d="M149.428 57.811L146.246 54.6289L143.064 57.811L146.246 60.993L149.428 57.811Z" fill="black"/>
<path d="M157.709 25.7715H134.719V48.7619H157.709V25.7715Z" fill="white"/>
<path d="M138.965 38.0566C138.969 42.058 142.213 45.3006 146.216 45.3006C150.218 45.3006 153.463 42.058 153.466 38.0566H138.965Z" fill="#FF00C1"/>
<path d="M158.226 39.0717C159.223 39.0717 160.031 38.2638 160.031 37.2673C160.031 36.2707 159.223 35.4629 158.226 35.4629C157.23 35.4629 156.422 36.2707 156.422 37.2673C156.422 38.2638 157.23 39.0717 158.226 39.0717Z" fill="#FF92D2"/>
<path d="M134.203 39.0717C135.199 39.0717 136.007 38.2638 136.007 37.2673C136.007 36.2707 135.199 35.4629 134.203 35.4629C133.206 35.4629 132.398 36.2707 132.398 37.2673C132.398 38.2638 133.206 39.0717 134.203 39.0717Z" fill="#FF92D2"/>
<path d="M139.617 33.9776C141.042 33.9776 142.198 32.8218 142.198 31.396C142.198 29.9703 141.042 28.8145 139.617 28.8145C138.191 28.8145 137.035 29.9703 137.035 31.396C137.035 32.8218 138.191 33.9776 139.617 33.9776Z" fill="black"/>
<path d="M153.042 33.9776C154.468 33.9776 155.624 32.8218 155.624 31.396C155.624 29.9703 154.468 28.8145 153.042 28.8145C151.617 28.8145 150.461 29.9703 150.461 31.396C150.461 32.8218 151.617 33.9776 153.042 33.9776Z" fill="black"/>
<path d="M136.542 29.293C136.386 29.293 136.23 29.2377 136.104 29.1251C135.835 28.8832 135.813 28.4685 136.055 28.199C136.962 27.1888 138.26 26.6094 139.617 26.6094C139.979 26.6094 140.273 26.903 140.273 27.2652C140.273 27.6275 139.979 27.9211 139.617 27.9211C138.632 27.9211 137.689 28.3418 137.031 29.0753C136.901 29.2196 136.722 29.293 136.542 29.293Z" fill="black"/>
<path d="M156.109 29.293C155.93 29.293 155.751 29.2196 155.621 29.0753C154.963 28.3418 154.02 27.9211 153.035 27.9211C152.673 27.9211 152.379 27.6275 152.379 27.2652C152.379 26.903 152.673 26.6094 153.035 26.6094C154.392 26.6094 155.69 27.1888 156.597 28.199C156.839 28.4685 156.817 28.8832 156.547 29.1251C156.422 29.2377 156.265 29.293 156.109 29.293Z" fill="black"/>
<path d="M139.035 36.1348C136.603 36.1348 134.625 34.1563 134.625 31.7246C134.625 29.2929 136.603 27.3145 139.035 27.3145C141.467 27.3145 143.445 29.2929 143.445 31.7246C143.445 34.1563 141.467 36.1348 139.035 36.1348ZM139.035 27.7517C136.844 27.7517 135.062 29.5339 135.062 31.7246C135.062 33.9153 136.844 35.6975 139.035 35.6975C141.226 35.6975 143.008 33.9153 143.008 31.7246C143.008 29.5339 141.226 27.7517 139.035 27.7517Z" fill="black"/>
<path d="M153.5 36.1348C151.068 36.1348 149.09 34.1563 149.09 31.7246C149.09 29.2929 151.068 27.3145 153.5 27.3145C155.932 27.3145 157.91 29.2929 157.91 31.7246C157.91 34.1563 155.932 36.1348 153.5 36.1348ZM153.5 27.7517C151.309 27.7517 149.527 29.5339 149.527 31.7246C149.527 33.9153 151.309 35.6975 153.5 35.6975C155.691 35.6975 157.473 33.9153 157.473 31.7246C157.473 29.5339 155.691 27.7517 153.5 27.7517Z" fill="black"/>
<path d="M149.462 30.4893C149.399 30.4893 149.336 30.4619 149.293 30.409C148.534 29.4812 147.412 28.949 146.215 28.949C145.018 28.949 143.897 29.4812 143.138 30.409C143.061 30.5026 142.924 30.5163 142.83 30.4399C142.737 30.3635 142.723 30.2257 142.799 30.1323C143.641 29.1024 144.886 28.5117 146.215 28.5117C147.544 28.5117 148.789 29.1024 149.631 30.1323C149.708 30.2257 149.694 30.3635 149.6 30.4399C149.56 30.4731 149.511 30.4893 149.462 30.4893Z" fill="black"/>
<path d="M126.652 75.5488C126.652 77.7007 129.244 79.4463 131.069 79.4485C132.893 79.4507 133.26 77.7087 133.263 75.5568L126.652 75.5488Z" fill="white"/>
<path d="M132.23 75.5508C132.23 77.1871 132.666 78.5145 133.204 78.5162C133.743 78.5179 134.179 77.1932 134.18 75.5569L132.23 75.5508Z" fill="white"/>
<path d="M165.779 75.5488C165.779 77.7007 163.187 79.4463 161.363 79.4485C159.538 79.4507 159.172 77.7087 159.168 75.5568L165.779 75.5488Z" fill="white"/>
<path d="M160.204 75.5508C160.204 77.1871 159.768 78.5145 159.23 78.5162C158.692 78.5179 158.255 77.1932 158.254 75.5569L160.204 75.5508Z" fill="white"/>
<path d="M131.071 79.6224C131.069 79.6224 131.068 79.6224 131.066 79.6224C129.261 79.6203 126.476 77.8703 126.477 75.5488C126.477 75.4527 126.554 75.375 126.65 75.375C126.746 75.375 126.824 75.4527 126.824 75.5488C126.824 77.6721 129.398 79.2732 131.067 79.2749C131.068 79.2749 131.069 79.2749 131.071 79.2749C131.842 79.2749 132.372 78.9358 132.688 78.2388C132.713 78.1845 132.764 78.1468 132.823 78.1387C132.881 78.1306 132.941 78.1533 132.979 78.1988C133.035 78.2643 133.118 78.3423 133.201 78.3427C133.201 78.3427 133.201 78.3427 133.201 78.3427C133.258 78.3427 133.319 78.3104 133.383 78.2466C133.681 77.9497 134.002 76.9812 134.003 75.5569C134.003 75.4609 134.081 75.3831 134.177 75.3831C134.177 75.3831 134.177 75.3831 134.177 75.3831C134.273 75.3831 134.35 75.4612 134.35 75.5569C134.349 76.9041 134.066 78.0566 133.628 78.4926C133.496 78.6236 133.353 78.6901 133.202 78.6901C133.201 78.6901 133.201 78.6901 133.2 78.6901C133.095 78.6898 132.995 78.6572 132.898 78.5928C132.513 79.2762 131.899 79.6224 131.071 79.6224Z" fill="black"/>
<path d="M161.358 79.6224C160.529 79.6224 159.916 79.2762 159.53 78.5924C159.434 78.6572 159.316 78.6925 159.227 78.6901C159.075 78.6901 158.932 78.6236 158.801 78.4926C158.363 78.0566 158.079 76.9041 158.078 75.5569C158.078 75.4612 158.156 75.3831 158.252 75.3831C158.252 75.3831 158.252 75.3831 158.252 75.3831C158.348 75.3831 158.426 75.4609 158.426 75.5569C158.426 76.9812 158.748 77.9497 159.046 78.2466C159.11 78.3104 159.171 78.3427 159.227 78.3427C159.227 78.3427 159.227 78.3427 159.227 78.3427C159.311 78.3423 159.394 78.2643 159.449 78.1988C159.487 78.153 159.545 78.1299 159.605 78.1384C159.664 78.1462 159.715 78.1842 159.74 78.2385C160.057 78.9358 160.586 79.2749 161.358 79.2749C161.359 79.2749 161.361 79.2749 161.362 79.2749C163.031 79.2732 165.605 77.6721 165.604 75.5488C165.604 75.4527 165.682 75.375 165.778 75.375C165.874 75.375 165.952 75.4527 165.952 75.5488C165.952 77.8703 163.168 79.6203 161.362 79.6224C161.361 79.6224 161.359 79.6224 161.358 79.6224Z" fill="black"/>
<path d="M188.454 99.5508H180.689V99.5534C177.661 99.6084 175.221 102.076 175.215 105.117L188.454 105.128C188.454 105.124 188.453 105.121 188.453 105.117H188.454V99.5508Z" fill="black"/>
<path d="M196.066 99.5508H203.831V99.5534C206.859 99.6084 209.299 102.076 209.305 105.117L196.066 105.128C196.066 105.124 196.067 105.121 196.067 105.117H196.066V99.5508Z" fill="black"/>
<path d="M189.197 88.7773H182.008V100.245H189.197V88.7773Z" fill="#0025FF"/>
<path d="M202.509 88.7773H195.32V100.245H202.509V88.7773Z" fill="#0025FF"/>
<path d="M203.483 84.2598H181.035V92.9472H203.483V84.2598Z" fill="#B6E9FF"/>
<path d="M213.015 87.736C213.004 76.2292 203.673 66.9043 192.164 66.9043C180.654 66.9043 171.323 76.2292 171.312 87.736H213.015Z" fill="#B6E9FF"/>
<path d="M192.183 76.6335L182.773 66.9004H201.593L192.183 76.6335Z" fill="white"/>
<path d="M200.068 27.9876C202.516 29.0505 204.659 30.4992 206.495 32.3356C208.331 34.1714 209.78 36.3142 210.842 38.7621C211.904 41.2114 212.436 43.8396 212.436 46.6475C212.436 49.456 211.904 52.0842 210.842 54.5328C209.78 56.9814 208.331 59.1235 206.495 60.9593C204.659 62.7957 202.516 64.2458 200.068 65.3073C197.619 66.3696 194.991 66.9004 192.183 66.9004C189.375 66.9004 186.746 66.3696 184.298 65.3073C181.849 64.2458 179.707 62.7957 177.871 60.9593C176.034 59.1235 174.585 56.9814 173.523 54.5328C172.46 52.0842 171.93 49.456 171.93 46.6475C171.93 43.8396 172.46 41.2114 173.523 38.7621C174.585 36.3142 176.034 34.1714 177.871 32.3356C179.707 30.4992 181.849 29.0505 184.298 27.9876C186.746 26.926 189.375 26.3945 192.183 26.3945C194.991 26.3945 197.619 26.926 200.068 27.9876Z" fill="black"/>
<path d="M203.705 37.9629H180.66V61.0082H203.705V37.9629Z" fill="white"/>
<path d="M186.992 48.3027C186.995 51.1672 189.318 53.4886 192.183 53.4886C195.048 53.4886 197.371 51.1672 197.374 48.3027H186.992Z" fill="#FF00C1"/>
<path d="M204.223 51.2951C205.222 51.2951 206.031 50.4853 206.031 49.4864C206.031 48.4875 205.222 47.6777 204.223 47.6777C203.224 47.6777 202.414 48.4875 202.414 49.4864C202.414 50.4853 203.224 51.2951 204.223 51.2951Z" fill="#FF92D2"/>
<path d="M180.141 51.2951C181.14 51.2951 181.949 50.4853 181.949 49.4864C181.949 48.4875 181.14 47.6777 180.141 47.6777C179.142 47.6777 178.332 48.4875 178.332 49.4864C178.332 50.4853 179.142 51.2951 180.141 51.2951Z" fill="#FF92D2"/>
<path d="M185.568 46.1871C186.997 46.1871 188.156 45.0286 188.156 43.5994C188.156 42.1703 186.997 41.0117 185.568 41.0117C184.139 41.0117 182.98 42.1703 182.98 43.5994C182.98 45.0286 184.139 46.1871 185.568 46.1871Z" fill="black"/>
<path d="M199.025 46.1871C200.454 46.1871 201.613 45.0286 201.613 43.5994C201.613 42.1703 200.454 41.0117 199.025 41.0117C197.596 41.0117 196.438 42.1703 196.438 43.5994C196.438 45.0286 197.596 46.1871 199.025 46.1871Z" fill="black"/>
<path d="M182.488 41.49C182.332 41.49 182.175 41.4346 182.05 41.3221C181.78 41.08 181.758 40.6652 182 40.3956C182.909 39.3833 184.21 38.8027 185.57 38.8027C185.932 38.8027 186.226 39.0965 186.226 39.4588C186.226 39.8212 185.932 40.1149 185.57 40.1149C184.582 40.1149 183.637 40.5368 182.976 41.2723C182.847 41.4166 182.668 41.49 182.488 41.49Z" fill="black"/>
<path d="M202.097 41.49C201.918 41.49 201.738 41.4166 201.609 41.2723C200.948 40.5368 200.003 40.1149 199.015 40.1149C198.653 40.1149 198.359 39.8212 198.359 39.4588C198.359 39.0965 198.653 38.8027 199.015 38.8027C200.375 38.8027 201.676 39.3833 202.585 40.3956C202.827 40.6652 202.805 41.08 202.535 41.3221C202.41 41.4346 202.253 41.49 202.097 41.49Z" fill="black"/>
<path d="M185.567 47.9357C183.292 47.9357 181.441 46.0847 181.441 43.8096C181.441 41.5345 183.292 39.6836 185.567 39.6836C187.843 39.6836 189.693 41.5345 189.693 43.8096C189.693 46.0847 187.843 47.9357 185.567 47.9357ZM185.567 40.121C183.534 40.121 181.879 41.7757 181.879 43.8096C181.879 45.8435 183.534 47.4983 185.567 47.4983C187.601 47.4983 189.256 45.8435 189.256 43.8096C189.256 41.7757 187.601 40.121 185.567 40.121Z" fill="black"/>
<path d="M199.052 47.9357C196.777 47.9357 194.926 46.0847 194.926 43.8096C194.926 41.5345 196.777 39.6836 199.052 39.6836C201.327 39.6836 203.178 41.5345 203.178 43.8096C203.178 46.0847 201.327 47.9357 199.052 47.9357ZM199.052 40.121C197.018 40.121 195.363 41.7757 195.363 43.8096C195.363 45.8435 197.018 47.4983 199.052 47.4983C201.086 47.4983 202.74 45.8435 202.74 43.8096C202.74 41.7757 201.086 40.121 199.052 40.121Z" fill="black"/>
<path d="M195.287 42.672C195.224 42.672 195.161 42.6446 195.118 42.5918C194.414 41.7303 193.372 41.2362 192.261 41.2362C191.149 41.2362 190.108 41.7303 189.404 42.5918C189.327 42.6853 189.189 42.6991 189.096 42.6226C189.002 42.5462 188.989 42.4084 189.065 42.3149C189.853 41.3514 191.018 40.7988 192.261 40.7988C193.504 40.7988 194.669 41.3514 195.457 42.3149C195.533 42.4084 195.519 42.5462 195.426 42.6226C195.385 42.6558 195.336 42.672 195.287 42.672Z" fill="black"/>
<path d="M181.6 43.244C181.576 43.244 181.552 43.2401 181.528 43.2318C179.342 42.4693 172.691 40.149 171.721 41.1738C171.56 41.3439 171.57 41.6543 171.752 42.0964C171.798 42.2081 171.745 42.336 171.633 42.3819C171.522 42.4278 171.394 42.3745 171.348 42.2629C171.091 41.6385 171.109 41.1838 171.403 40.8731C171.979 40.2646 173.65 40.02 181.672 42.8188C181.786 42.8586 181.846 42.9833 181.807 43.0974C181.775 43.1875 181.691 43.244 181.6 43.244Z" fill="black"/>
<path d="M202.918 43.244C202.828 43.244 202.743 43.1875 202.711 43.0973C202.672 42.9833 202.732 42.8586 202.846 42.8188C210.869 40.02 212.539 40.2647 213.115 40.873C213.409 41.1838 213.427 41.6384 213.17 42.2629C213.124 42.3746 212.996 42.4277 212.885 42.3819C212.773 42.336 212.72 42.2081 212.766 42.0964C212.948 41.6543 212.958 41.3438 212.797 41.1737C211.827 40.1489 205.176 42.4692 202.99 43.2318C202.966 43.2401 202.942 43.244 202.918 43.244Z" fill="black"/>
<path d="M172.598 87.7344C172.597 89.8862 175.189 91.6318 177.014 91.634C178.838 91.6363 179.205 89.8942 179.209 87.7424L172.598 87.7344Z" fill="white"/>
<path d="M178.176 87.7363C178.176 89.3726 178.612 90.7 179.15 90.7017C179.688 90.7034 180.125 89.3787 180.126 87.7424L178.176 87.7363Z" fill="white"/>
<path d="M211.724 87.7344C211.724 89.8862 209.132 91.6318 207.308 91.634C205.483 91.6363 205.117 89.8942 205.113 87.7424L211.724 87.7344Z" fill="white"/>
<path d="M206.149 87.7363C206.149 89.3726 205.713 90.7 205.175 90.7017C204.637 90.7034 204.2 89.3787 204.199 87.7424L206.149 87.7363Z" fill="white"/>
<path d="M177.02 91.8079C177.018 91.8079 177.017 91.8079 177.015 91.8079C175.21 91.8059 172.425 90.0558 172.426 87.7343C172.426 87.6383 172.504 87.5605 172.6 87.5605C172.696 87.5605 172.773 87.6383 172.773 87.7343C172.773 89.8576 175.347 91.4587 177.016 91.4604C177.017 91.4604 177.019 91.4604 177.02 91.4604C177.792 91.4604 178.321 91.1214 178.638 90.4244C178.662 90.3701 178.713 90.3324 178.772 90.3242C178.831 90.3161 178.89 90.3388 178.929 90.3843C178.984 90.4498 179.067 90.5279 179.15 90.5282C179.15 90.5282 179.151 90.5282 179.151 90.5282C179.207 90.5282 179.268 90.496 179.332 90.4322C179.63 90.1352 179.951 89.1667 179.952 87.7424C179.952 87.6464 180.03 87.5687 180.126 87.5687C180.126 87.5687 180.126 87.5687 180.126 87.5687C180.222 87.5687 180.299 87.6467 180.299 87.7424C180.299 89.0897 180.015 90.2421 179.577 90.6782C179.446 90.8092 179.302 90.8757 179.151 90.8757C179.15 90.8757 179.15 90.8757 179.149 90.8757C179.045 90.8754 178.944 90.8428 178.848 90.7783C178.462 91.4618 177.848 91.8079 177.02 91.8079Z" fill="black"/>
<path d="M207.307 91.8079C206.479 91.8079 205.865 91.4618 205.479 90.778C205.383 90.8428 205.265 90.8781 205.176 90.8757C205.025 90.8757 204.881 90.8092 204.75 90.6782C204.312 90.2421 204.028 89.0897 204.027 87.7424C204.027 87.6467 204.105 87.5687 204.201 87.5687C204.201 87.5687 204.201 87.5687 204.201 87.5687C204.297 87.5687 204.375 87.6464 204.375 87.7424C204.376 89.1667 204.697 90.1352 204.995 90.4322C205.059 90.496 205.12 90.5282 205.176 90.5282C205.176 90.5282 205.176 90.5282 205.177 90.5282C205.26 90.5279 205.343 90.4498 205.398 90.3843C205.436 90.3385 205.495 90.3154 205.554 90.3239C205.614 90.3317 205.665 90.3697 205.689 90.424C206.006 91.1214 206.535 91.4604 207.307 91.4604C207.308 91.4604 207.31 91.4604 207.311 91.4604C208.98 91.4587 211.554 89.8576 211.554 87.7343C211.554 87.6383 211.631 87.5605 211.727 87.5605C211.823 87.5605 211.901 87.6383 211.901 87.7343C211.901 90.0558 209.117 91.8059 207.311 91.8079C207.31 91.8079 207.309 91.8079 207.307 91.8079Z" fill="black"/>
<path d="M192.181 80.9008C192.898 80.9008 193.479 80.3197 193.479 79.6028C193.479 78.8859 192.898 78.3047 192.181 78.3047C191.464 78.3047 190.883 78.8859 190.883 79.6028C190.883 80.3197 191.464 80.9008 192.181 80.9008Z" fill="black"/>
<path d="M192.181 85.4086C192.898 85.4086 193.479 84.8275 193.479 84.1106C193.479 83.3937 192.898 82.8125 192.181 82.8125C191.464 82.8125 190.883 83.3937 190.883 84.1106C190.883 84.8275 191.464 85.4086 192.181 85.4086Z" fill="black"/>
<path d="M192.181 89.9165C192.898 89.9165 193.479 89.3353 193.479 88.6184C193.479 87.9015 192.898 87.3203 192.181 87.3203C191.464 87.3203 190.883 87.9015 190.883 88.6184C190.883 89.3353 191.464 89.9165 192.181 89.9165Z" fill="black"/>
<path d="M119.622 146.973H111.857V146.975C108.829 147.03 106.389 149.497 106.383 152.539L119.622 152.55C119.622 152.546 119.621 152.543 119.621 152.539H119.622V146.973Z" fill="black"/>
<path d="M121.324 146.973H129.089V146.975C132.117 147.03 134.557 149.497 134.563 152.539L121.324 152.55C121.324 152.546 121.324 152.543 121.324 152.539H121.324V146.973Z" fill="black"/>
<path d="M119.787 131.682H111.93V147.667H119.787V131.682Z" fill="#FFDC97"/>
<path d="M129.014 131.682H121.156V147.667H129.014V131.682Z" fill="#FFDC97"/>
<path d="M128.374 75.4089C130.821 76.4715 132.963 77.9196 134.799 79.7554C136.634 81.5905 138.083 83.7326 139.145 86.1796C140.206 88.628 140.738 91.2553 140.738 94.0621C140.738 96.8697 140.206 99.4969 139.145 101.945C138.083 104.392 136.634 106.534 134.799 108.369C132.963 110.205 130.821 111.654 128.374 112.715C125.927 113.777 123.299 114.308 120.492 114.308C117.685 114.308 115.057 113.777 112.61 112.715C110.162 111.654 108.021 110.205 106.185 108.369C104.349 106.534 102.9 104.392 101.839 101.945C100.777 99.4969 100.246 96.8697 100.246 94.0621C100.246 91.2553 100.777 88.628 101.839 86.1796C102.9 83.7326 104.349 81.5905 106.185 79.7554C108.021 77.9196 110.162 76.4715 112.61 75.4089C115.057 74.3477 117.685 73.8164 120.492 73.8164C123.299 73.8164 125.927 74.3477 128.374 75.4089Z" fill="black"/>
<path d="M132.01 85.3809H108.973V108.418H132.01V85.3809Z" fill="white"/>
<path d="M115.305 95.7188C115.307 98.5822 117.629 100.903 120.494 100.903C123.358 100.903 125.68 98.5822 125.682 95.7188H115.305Z" fill="#FF00C1"/>
<path d="M132.531 98.7079C133.529 98.7079 134.339 97.8984 134.339 96.8998C134.339 95.9013 133.529 95.0918 132.531 95.0918C131.532 95.0918 130.723 95.9013 130.723 96.8998C130.723 97.8984 131.532 98.7079 132.531 98.7079Z" fill="#FF92D2"/>
<path d="M108.456 98.7079C109.455 98.7079 110.265 97.8984 110.265 96.8998C110.265 95.9013 109.455 95.0918 108.456 95.0918C107.458 95.0918 106.648 95.9013 106.648 96.8998C106.648 97.8984 107.458 98.7079 108.456 98.7079Z" fill="#FF92D2"/>
<path d="M113.884 93.6032C115.312 93.6032 116.47 92.4451 116.47 91.0165C116.47 89.5878 115.312 88.4297 113.884 88.4297C112.455 88.4297 111.297 89.5878 111.297 91.0165C111.297 92.4451 112.455 93.6032 113.884 93.6032Z" fill="black"/>
<path d="M127.333 93.6032C128.762 93.6032 129.92 92.4451 129.92 91.0165C129.92 89.5878 128.762 88.4297 127.333 88.4297C125.904 88.4297 124.746 89.5878 124.746 91.0165C124.746 92.4451 125.904 93.6032 127.333 93.6032Z" fill="black"/>
<path d="M110.8 88.9071C110.644 88.9071 110.487 88.8517 110.362 88.7392C110.093 88.4971 110.07 88.0825 110.312 87.813C111.221 86.8011 112.522 86.2207 113.881 86.2207C114.243 86.2207 114.537 86.5143 114.537 86.8766C114.537 87.2388 114.243 87.5324 113.881 87.5324C112.894 87.5324 111.949 87.9541 111.288 88.6894C111.159 88.8336 110.98 88.9071 110.8 88.9071Z" fill="black"/>
<path d="M130.405 88.9071C130.225 88.9071 130.046 88.8336 129.917 88.6894C129.256 87.9541 128.311 87.5324 127.324 87.5324C126.962 87.5324 126.668 87.2388 126.668 86.8766C126.668 86.5143 126.962 86.2207 127.324 86.2207C128.683 86.2207 129.984 86.8011 130.892 87.813C131.134 88.0825 131.112 88.4971 130.843 88.7392C130.717 88.8516 130.561 88.9071 130.405 88.9071Z" fill="black"/>
<path d="M141.401 135.157C141.39 123.608 132.024 114.248 120.472 114.248C108.92 114.248 99.5536 123.608 99.543 135.157H141.401Z" fill="#0025FF"/>
<path d="M120.482 135.136L113.672 114.236H127.292L120.482 135.136Z" fill="#00D378"/>
<path d="M120.472 114.254L123.971 135.137H116.973L120.472 114.254Z" fill="#B924FF"/>
<path d="M120.502 114.236L117.32 117.418L120.502 120.6L123.684 117.418L120.502 114.236Z" fill="#B924FF"/>
<path d="M102.297 135.156C102.297 137.308 104.889 139.054 106.713 139.056C108.538 139.058 108.904 137.316 108.908 135.164L102.297 135.156Z" fill="white"/>
<path d="M107.875 135.158C107.875 136.795 108.311 138.122 108.849 138.124C109.387 138.125 109.824 136.801 109.825 135.164L107.875 135.158Z" fill="white"/>
<path d="M138.642 135.156C138.642 137.308 136.05 139.054 134.226 139.056C132.401 139.058 132.035 137.316 132.031 135.164L138.642 135.156Z" fill="white"/>
<path d="M133.067 135.158C133.067 136.795 132.631 138.122 132.093 138.124C131.555 138.125 131.118 136.801 131.117 135.164L133.067 135.158Z" fill="white"/>
<path d="M106.719 139.229C106.718 139.229 106.716 139.229 106.715 139.229C104.909 139.227 102.125 137.477 102.125 135.156C102.125 135.06 102.203 134.982 102.299 134.982C102.395 134.982 102.472 135.06 102.472 135.156C102.472 137.28 105.046 138.88 106.715 138.882C106.717 138.882 106.718 138.882 106.719 138.882C107.491 138.882 108.02 138.543 108.337 137.846C108.362 137.792 108.413 137.754 108.472 137.746C108.532 137.738 108.59 137.76 108.628 137.806C108.683 137.871 108.766 137.949 108.85 137.95C108.85 137.95 108.85 137.95 108.85 137.95C108.906 137.95 108.967 137.917 109.031 137.854C109.329 137.557 109.65 136.589 109.651 135.164C109.651 135.068 109.729 134.991 109.825 134.991C109.825 134.991 109.825 134.991 109.825 134.991C109.921 134.991 109.999 135.069 109.999 135.164C109.998 136.512 109.714 137.664 109.276 138.1C109.145 138.231 109.001 138.297 108.85 138.297C108.752 138.288 108.644 138.265 108.547 138.2C108.161 138.883 107.548 139.229 106.719 139.229Z" fill="black"/>
<path d="M134.225 139.229C133.396 139.229 132.783 138.883 132.397 138.2C132.301 138.265 132.211 138.308 132.094 138.297C131.943 138.297 131.799 138.231 131.668 138.1C131.23 137.664 130.946 136.511 130.945 135.164C130.945 135.069 131.023 134.991 131.119 134.991C131.119 134.991 131.119 134.991 131.119 134.991C131.215 134.991 131.293 135.068 131.293 135.164C131.294 136.589 131.615 137.557 131.913 137.854C131.977 137.917 132.038 137.95 132.094 137.95C132.094 137.95 132.094 137.95 132.095 137.95C132.178 137.949 132.261 137.871 132.316 137.806C132.354 137.76 132.412 137.738 132.473 137.746C132.532 137.754 132.583 137.792 132.607 137.846C132.924 138.543 133.453 138.882 134.225 138.882C134.226 138.882 134.228 138.882 134.229 138.882C135.898 138.88 138.472 137.28 138.472 135.156C138.472 135.06 138.549 134.982 138.645 134.982C138.741 134.982 138.819 135.06 138.819 135.156C138.819 137.477 136.035 139.227 134.229 139.229C134.228 139.229 134.226 139.229 134.225 139.229Z" fill="black"/>
<path d="M170.807 142.799L172.297 152.549H158.453L170.807 142.799Z" fill="black"/>
<path d="M173.494 142.799L172.004 152.549H185.848L173.494 142.799Z" fill="black"/>
<path d="M171.346 135.174H165.422V147.336H171.346V135.174Z" fill="black"/>
<path d="M178.882 135.174H172.957V147.336H178.882V135.174Z" fill="black"/>
<path d="M186.569 120.287H157.727V142.179H186.569V120.287Z" fill="#0025FF"/>
<mask id="mask0_735_49176" style="mask-type:alpha" maskUnits="userSpaceOnUse" x="157" y="120" width="30" height="23">
<path d="M186.569 120.287H157.727V142.179H186.569V120.287Z" fill="#0025FF"/>
</mask>
<g mask="url(#mask0_735_49176)">
<path d="M163.054 109.793H162.566V151.052H163.054V109.793Z" fill="black"/>
<path d="M164.19 109.793H163.703V151.052H164.19V109.793Z" fill="black"/>
<path d="M165.327 109.793H164.84V151.052H165.327V109.793Z" fill="black"/>
<path d="M171.257 109.793H170.77V151.052H171.257V109.793Z" fill="black"/>
<path d="M172.394 109.793H171.906V151.052H172.394V109.793Z" fill="black"/>
<path d="M173.53 109.793H173.043V151.052H173.53V109.793Z" fill="black"/>
<path d="M179.46 109.793H178.973V151.052H179.46V109.793Z" fill="black"/>
<path d="M180.597 109.793H180.109V151.052H180.597V109.793Z" fill="black"/>
<path d="M181.733 109.793H181.246V151.052H181.733V109.793Z" fill="black"/>
<path d="M195.336 121.325V120.838L148.96 120.838V121.325L195.336 121.325Z" fill="black"/>
<path d="M195.336 122.462V121.975L148.96 121.975V122.462L195.336 122.462Z" fill="black"/>
<path d="M195.336 123.599V123.111L148.96 123.111V123.599L195.336 123.599Z" fill="black"/>
<path d="M195.336 129.528V129.041H148.96V129.528H195.336Z" fill="black"/>
<path d="M195.336 130.665V130.178H148.96V130.665H195.336Z" fill="black"/>
<path d="M195.336 131.802V131.314H148.96V131.802H195.336Z" fill="black"/>
<path d="M195.336 137.731V137.244H148.96V137.731H195.336Z" fill="black"/>
<path d="M195.336 138.868V138.381H148.96V138.868H195.336Z" fill="black"/>
<path d="M195.336 140.005V139.518H148.96V140.005H195.336Z" fill="black"/>
</g>
<path d="M197.513 107.964C196.822 106.368 195.879 104.971 194.684 103.773C193.655 102.742 192.478 101.899 191.153 101.241C192.019 99.0019 192.455 96.6169 192.458 94.0841C192.461 91.2771 191.932 88.6491 190.874 86.1995C189.814 83.7513 188.367 81.6076 186.534 79.7705C184.7 77.9327 182.559 76.4823 180.113 75.4171C177.667 74.3533 175.04 73.8193 172.232 73.8164C169.425 73.8135 166.796 74.3422 164.348 75.4009C161.898 76.461 159.756 77.9071 157.918 79.7411C156.081 81.5744 154.629 83.7151 153.566 86.1612C152.5 88.6086 151.967 91.2354 151.964 94.0425C151.962 96.5706 152.391 98.9524 153.25 101.19C151.891 101.85 150.687 102.705 149.635 103.754C148.437 104.949 147.491 106.344 146.798 107.939C146.103 109.534 145.756 111.247 145.754 113.076C145.752 114.907 146.096 116.62 146.787 118.216C147.477 119.812 148.42 121.209 149.616 122.407C150.811 123.605 152.206 124.551 153.801 125.244C155.396 125.938 157.109 126.286 158.938 126.288C160.764 126.29 183.504 126.286 185.334 126.288C187.164 126.29 188.877 125.946 190.474 125.255C192.07 124.565 193.467 123.621 194.665 122.426C195.862 121.231 196.808 119.836 197.502 118.241C198.196 116.646 198.544 114.934 198.546 113.104C198.547 111.274 198.203 109.561 197.513 107.964Z" fill="url(#paint0_linear_735_49176)"/>
<path d="M183.667 85.3828H160.629V108.421H183.667V85.3828Z" fill="white"/>
<path d="M166.961 95.7207C166.964 98.5844 169.286 100.905 172.15 100.905C175.014 100.905 177.337 98.5844 177.339 95.7207H166.961Z" fill="#FF00C1"/>
<path d="M184.187 98.7101C185.186 98.7101 185.995 97.9005 185.995 96.9019C185.995 95.9033 185.186 95.0938 184.187 95.0938C183.188 95.0938 182.379 95.9033 182.379 96.9019C182.379 97.9005 183.188 98.7101 184.187 98.7101Z" fill="#FF92D2"/>
<path d="M160.113 98.7101C161.111 98.7101 161.921 97.9005 161.921 96.9019C161.921 95.9033 161.111 95.0938 160.113 95.0938C159.114 95.0938 158.305 95.9033 158.305 96.9019C158.305 97.9005 159.114 98.7101 160.113 98.7101Z" fill="#FF92D2"/>
<path d="M165.54 93.6055C166.969 93.6055 168.127 92.4473 168.127 91.0186C168.127 89.5898 166.969 88.4316 165.54 88.4316C164.111 88.4316 162.953 89.5898 162.953 91.0186C162.953 92.4473 164.111 93.6055 165.54 93.6055Z" fill="black"/>
<path d="M178.989 93.6055C180.418 93.6055 181.576 92.4473 181.576 91.0186C181.576 89.5898 180.418 88.4316 178.989 88.4316C177.561 88.4316 176.402 89.5898 176.402 91.0186C176.402 92.4473 177.561 93.6055 178.989 93.6055Z" fill="black"/>
<path d="M162.458 88.9119C162.301 88.9119 162.144 88.8564 162.019 88.7436C161.749 88.5012 161.726 88.0856 161.969 87.8156C162.878 86.8033 164.179 86.2227 165.539 86.2227C165.902 86.2227 166.196 86.5169 166.196 86.8799C166.196 87.2429 165.902 87.5371 165.539 87.5371C164.552 87.5371 163.607 87.9586 162.947 88.6937C162.817 88.8383 162.638 88.9119 162.458 88.9119Z" fill="black"/>
<path d="M182.062 88.9119C181.882 88.9119 181.703 88.8383 181.573 88.6937C180.913 87.9586 179.969 87.5371 178.981 87.5371C178.618 87.5371 178.324 87.2429 178.324 86.8799C178.324 86.5169 178.618 86.2227 178.981 86.2227C180.341 86.2227 181.642 86.8033 182.551 87.8156C182.794 88.0856 182.771 88.5012 182.501 88.7436C182.376 88.8564 182.219 88.9119 182.062 88.9119Z" fill="black"/>
<path d="M192.994 135.157C192.996 123.654 183.677 114.322 172.171 114.311C160.665 114.299 151.327 123.611 151.305 135.115L192.994 135.157Z" fill="black"/>
<path d="M152.586 135.156C152.586 137.308 155.178 139.054 157.002 139.056C158.827 139.058 159.193 137.316 159.197 135.164L152.586 135.156Z" fill="white"/>
<path d="M158.164 135.158C158.164 136.795 158.6 138.122 159.138 138.124C159.676 138.125 160.113 136.801 160.114 135.164L158.164 135.158Z" fill="white"/>
<path d="M191.712 135.156C191.713 137.308 189.121 139.054 187.296 139.056C185.472 139.058 185.105 137.316 185.102 135.164L191.712 135.156Z" fill="white"/>
<path d="M186.137 135.158C186.138 136.795 185.702 138.122 185.163 138.124C184.625 138.125 184.189 136.801 184.188 135.164L186.137 135.158Z" fill="white"/>
<path d="M157.008 139.23C157.007 139.23 157.005 139.23 157.004 139.23C155.198 139.228 152.414 137.478 152.414 135.156C152.414 135.06 152.492 134.982 152.588 134.982C152.684 134.982 152.762 135.06 152.762 135.156C152.761 137.279 155.335 138.881 157.004 138.882C157.006 138.882 157.007 138.882 157.008 138.882C157.78 138.882 158.309 138.543 158.626 137.846C158.651 137.792 158.701 137.754 158.76 137.746C158.819 137.738 158.879 137.761 158.917 137.806C158.972 137.872 159.055 137.95 159.139 137.95C159.139 137.95 159.139 137.95 159.139 137.95C159.195 137.95 159.256 137.918 159.32 137.854C159.618 137.557 159.939 136.589 159.94 135.164C159.94 135.068 160.018 134.991 160.114 134.991C160.114 134.991 160.114 134.991 160.114 134.991C160.21 134.991 160.288 135.069 160.288 135.164C160.287 136.512 160.003 137.664 159.565 138.1C159.434 138.231 159.291 138.298 159.139 138.298C159.139 138.298 159.138 138.298 159.138 138.298C159.033 138.297 158.932 138.265 158.836 138.2C158.45 138.884 157.837 139.23 157.008 139.23Z" fill="black"/>
<path d="M187.295 139.23C186.467 139.23 185.853 138.884 185.468 138.2C185.371 138.265 185.253 138.3 185.164 138.298C185.013 138.298 184.869 138.231 184.738 138.1C184.3 137.664 184.016 136.512 184.016 135.164C184.016 135.069 184.093 134.991 184.189 134.991C184.189 134.991 184.189 134.991 184.189 134.991C184.285 134.991 184.363 135.068 184.363 135.164C184.364 136.589 184.685 137.557 184.983 137.854C185.047 137.918 185.108 137.95 185.164 137.95C185.165 137.95 185.165 137.95 185.165 137.95C185.248 137.95 185.331 137.872 185.386 137.806C185.424 137.76 185.483 137.737 185.543 137.746C185.602 137.754 185.653 137.792 185.677 137.846C185.994 138.543 186.524 138.882 187.295 138.882C187.297 138.882 187.298 138.882 187.299 138.882C188.968 138.881 191.542 137.279 191.542 135.156C191.542 135.06 191.62 134.982 191.716 134.982C191.812 134.982 191.889 135.06 191.889 135.156C191.89 137.478 189.105 139.228 187.3 139.23C187.298 139.23 187.297 139.23 187.295 139.23Z" fill="black"/>
</g>
<defs>
<linearGradient id="paint0_linear_735_49176" x1="172.15" y1="126.288" x2="172.15" y2="73.8164" gradientUnits="userSpaceOnUse">
<stop offset="0.180555" stop-color="#B924FF"/>
<stop offset="0.885416"/>
</linearGradient>
<clipPath id="clip0_735_49176">
<rect width="290" height="163" fill="white"/>
</clipPath>
</defs>
</svg>
