<svg width="60" height="36" viewBox="0 0 60 36" fill="none" xmlns="http://www.w3.org/2000/svg">
<path d="M0 18C0 8.05887 8.05888 0 18 0H42C51.9411 0 60 8.05887 60 18V18C60 27.9411 51.9411 36 42 36H18C8.05888 36 0 27.9411 0 18V18Z" fill="#DBDBDB"/>
<path d="M23 15C23.5523 15 24 14.5523 24 14C24 13.4477 23.5523 13 23 13C22.4477 13 22 13.4477 22 14C22 14.5523 22.4477 15 23 15Z" fill="black"/>
<path d="M34.7887 11.2184H33.7887C33.7887 11.7707 34.2364 12.2184 34.7887 12.2184V11.2184ZM25.2113 11.2184V12.2184C25.7636 12.2184 26.2113 11.7707 26.2113 11.2184H25.2113ZM32.5 17.5C32.5 18.8807 31.3807 20 30 20V22C32.4853 22 34.5 19.9853 34.5 17.5H32.5ZM30 20C28.6193 20 27.5 18.8807 27.5 17.5H25.5C25.5 19.9853 27.5147 22 30 22V20ZM27.5 17.5C27.5 16.1193 28.6193 15 30 15V13C27.5147 13 25.5 15.0147 25.5 17.5H27.5ZM30 15C31.3807 15 32.5 16.1193 32.5 17.5H34.5C34.5 15.0147 32.4853 13 30 13V15ZM38.3099 10.2184H34.7887V12.2184H38.3099V10.2184ZM35.7887 11.2184V10.6638H33.7887V11.2184H35.7887ZM35.7887 10.6638C35.7887 9.17611 34.5712 8 33.0986 8V10C33.4964 10 33.7887 10.3102 33.7887 10.6638H35.7887ZM33.0986 8H26.9014V10H33.0986V8ZM26.9014 8C25.4288 8 24.2113 9.17611 24.2113 10.6638H26.2113C26.2113 10.3102 26.5036 10 26.9014 10V8ZM24.2113 10.6638V11.2184H26.2113V10.6638H24.2113ZM25.2113 10.2184H21.6901V12.2184H25.2113V10.2184ZM21.6901 10.2184C20.2175 10.2184 19 11.3945 19 12.8821H21C21 12.5286 21.2923 12.2184 21.6901 12.2184V10.2184ZM19 12.8821V23.3362H21V12.8821H19ZM19 23.3362C19 24.8239 20.2175 26 21.6901 26V24C21.2923 24 21 23.6898 21 23.3362H19ZM21.6901 26H38.3099V24H21.6901V26ZM38.3099 26C39.7825 26 41 24.8239 41 23.3362H39C39 23.6898 38.7077 24 38.3099 24V26ZM41 23.3362V12.8821H39V23.3362H41ZM41 12.8821C41 11.3945 39.7825 10.2184 38.3099 10.2184V12.2184C38.7077 12.2184 39 12.5286 39 12.8821H41Z" fill="black"/>
</svg>
