<svg width="60" height="36" viewBox="0 0 60 36" fill="none" xmlns="http://www.w3.org/2000/svg">
<rect width="60" height="36" rx="18" fill="#0025FF"/>
<mask id="mask0_1652_2894" style="mask-type:alpha" maskUnits="userSpaceOnUse" x="14" y="2" width="32" height="32">
<circle cx="30" cy="18" r="16" fill="#C4C4C4"/>
</mask>
<g mask="url(#mask0_1652_2894)">
<path d="M46 2H14V34H46V2Z" fill="#00D378"/>
<path d="M39.5147 34.0099C39.5151 28.7591 35.2615 24.4995 30.0095 24.4939C24.7575 24.4883 20.4951 28.7395 20.4847 33.9903L39.5147 34.0099Z" fill="#0025FF"/>
<path d="M33.6353 6.74053C34.7517 7.22693 35.7289 7.88893 36.5661 8.72773C37.4029 9.56613 38.0633 10.5449 38.5469 11.6625C39.0301 12.7805 39.2713 13.9801 39.2701 15.2617C39.2689 16.5433 39.0249 17.7425 38.5393 18.8593C38.0533 19.9761 37.3909 20.9529 36.5525 21.7897C35.7137 22.6269 34.7349 23.2877 33.6177 23.7709C32.4997 24.2545 31.3001 24.4953 30.0185 24.4941C28.7373 24.4929 27.5377 24.2493 26.4213 23.7633C25.3041 23.2777 24.3277 22.6149 23.4905 21.7761C22.6533 20.9377 21.9929 19.9593 21.5097 18.8413C21.0257 17.7233 20.7849 16.5237 20.7861 15.2421C20.7873 13.9609 21.0309 12.7617 21.5169 11.6445C22.0025 10.5281 22.6649 9.55093 23.5037 8.71413C24.3425 7.87693 25.3205 7.21693 26.4385 6.73293C27.5561 6.24973 28.7561 6.00853 30.0373 6.00973C31.3193 6.01093 32.5185 6.25493 33.6353 6.74053Z" fill="black"/>
<path d="M35.2584 11.289H24.742V21.8054H35.2584V11.289Z" fill="white"/>
<path d="M27.6312 16.0078C27.6324 17.315 28.6924 18.3742 30 18.3742C31.3076 18.3742 32.3676 17.315 32.3688 16.0078H27.6312Z" fill="#FF00C1"/>
<path d="M26.982 15.0426C27.6341 15.0426 28.1628 14.5139 28.1628 13.8618C28.1628 13.2096 27.6341 12.681 26.982 12.681C26.3299 12.681 25.8012 13.2096 25.8012 13.8618C25.8012 14.5139 26.3299 15.0426 26.982 15.0426Z" fill="black"/>
<path d="M33.1228 15.0426C33.7749 15.0426 34.3036 14.5139 34.3036 13.8618C34.3036 13.2096 33.7749 12.681 33.1228 12.681C32.4707 12.681 31.942 13.2096 31.942 13.8618C31.942 14.5139 32.4707 15.0426 33.1228 15.0426Z" fill="black"/>
<path d="M25.576 12.8997C25.5044 12.8997 25.4328 12.8745 25.3756 12.8229C25.2524 12.7121 25.242 12.5225 25.3528 12.3993C25.7676 11.9373 26.3616 11.6721 26.9824 11.6721C27.148 11.6721 27.2824 11.8065 27.2824 11.9721C27.2824 12.1377 27.148 12.2721 26.9824 12.2721C26.532 12.2721 26.1008 12.4645 25.7992 12.8001C25.74 12.8661 25.658 12.8997 25.576 12.8997Z" fill="black"/>
<path d="M34.5251 12.8997C34.4427 12.8997 34.3611 12.8661 34.3019 12.8001C34.0007 12.4645 33.5695 12.2721 33.1187 12.2721C32.9531 12.2721 32.8187 12.1377 32.8187 11.9721C32.8187 11.8065 32.9531 11.6721 33.1187 11.6721C33.7395 11.6721 34.3331 11.9373 34.7483 12.3993C34.8591 12.5225 34.8488 12.7121 34.7255 12.8229C34.6684 12.8741 34.5963 12.8997 34.5251 12.8997Z" fill="black"/>
</g>
</svg>
