<svg width="8" height="8" viewBox="0 0 8 8" fill="none" xmlns="http://www.w3.org/2000/svg">
<path d="M5.3649 7.77671C5.91718 7.77671 6.3649 7.32899 6.3649 6.77671C6.3649 6.22442 5.91718 5.77671 5.3649 5.77671L5.3649 7.77671ZM1.12226 6.7767H0.122257C0.122256 7.32899 0.569971 7.7767 1.12226 7.7767V6.7767ZM2.12226 2.53406C2.12226 1.98178 1.67454 1.53406 1.12226 1.53406C0.569971 1.53406 0.122256 1.98178 0.122256 2.53406L2.12226 2.53406ZM7.48394 1.82858C7.87444 1.43804 7.8744 0.804872 7.48386 0.41437C7.09331 0.0238687 6.46015 0.0239051 6.06964 0.414452L7.48394 1.82858ZM5.3649 5.77671L1.12226 5.7767L1.12226 7.7767L5.3649 7.77671L5.3649 5.77671ZM2.12226 6.7767L2.12226 2.53406L0.122256 2.53406L0.122257 6.7767L2.12226 6.7767ZM6.06964 0.414452L0.415109 6.06964L1.8294 7.48377L7.48394 1.82858L6.06964 0.414452Z" fill="#FF00C1"/>
</svg>
