<svg width="8" height="8" viewBox="0 0 8 8" fill="none" xmlns="http://www.w3.org/2000/svg">
<path d="M2.53354 0.121732C1.98126 0.121732 1.53354 0.569447 1.53354 1.12173C1.53354 1.67402 1.98126 2.12173 2.53354 2.12173L2.53354 0.121732ZM6.77618 1.12173H7.77618C7.77618 0.569448 7.32847 0.121733 6.77618 0.121733V1.12173ZM5.77618 5.36437C5.77618 5.91666 6.2239 6.36437 6.77618 6.36437C7.32847 6.36437 7.77618 5.91666 7.77618 5.36437L5.77618 5.36437ZM0.414499 6.06985C0.0239967 6.4604 0.0240331 7.09357 0.41458 7.48407C0.805127 7.87457 1.43829 7.87453 1.82879 7.48399L0.414499 6.06985ZM2.53354 2.12173L6.77618 2.12173L6.77618 0.121733L2.53354 0.121732L2.53354 2.12173ZM5.77618 1.12173L5.77618 5.36437L7.77618 5.36437L7.77618 1.12173L5.77618 1.12173ZM1.82879 7.48399L7.48333 1.8288L6.06903 0.414667L0.414499 6.06985L1.82879 7.48399Z" fill="#00D378"/>
</svg>
