<svg width="1440" height="726" viewBox="0 0 1440 726" fill="none" xmlns="http://www.w3.org/2000/svg">
<path d="M168.662 56.3C171.652 59.29 175.142 61.66 179.122 63.39C183.112 65.12 187.392 65.99 191.972 66C196.552 66 200.832 65.14 204.822 63.42C208.812 61.69 212.302 59.34 215.302 56.35C218.302 53.36 220.662 49.87 222.402 45.88C224.132 41.89 225.002 37.61 225.012 33.03C225.012 28.46 224.152 24.17 222.432 20.18C220.702 16.19 218.352 12.7 215.362 9.7C212.372 6.7 208.882 4.34 204.902 2.61C200.892 0.87 196.612 0 192.032 0C187.452 0 183.172 0.86 179.182 2.58C175.192 4.31 171.702 6.66 168.702 9.65C165.702 12.64 163.342 16.13 161.602 20.11C159.872 24.1 159.002 28.38 158.992 32.95C158.992 37.53 159.852 41.81 161.572 45.8C163.312 49.81 165.672 53.3 168.662 56.3ZM173.272 14.24L210.762 14.28L210.722 51.77L173.232 51.73L173.272 14.24Z" fill="#F7F7F7"/>
<path d="M93.0022 0H27.0022C27.0022 18.23 41.7722 33 60.0022 33C78.2322 33 93.0022 18.23 93.0022 0Z" fill="#F7F7F7"/>
<path d="M60.0022 66C78.2322 66 93.0022 51.23 93.0022 33H60.0022H27.0022C27.0022 51.23 41.7722 66 60.0022 66Z" fill="#F7F7F7"/>
<path d="M192.002 165C210.228 165 225.002 150.225 225.002 132C225.002 113.775 210.228 99 192.002 99C173.777 99 159.002 113.775 159.002 132C159.002 150.225 173.777 165 192.002 165Z" fill="#F7F7F7"/>
<path d="M225.002 165H192.002H159.002C159.002 183.23 173.772 198 192.002 198C210.232 198 225.002 183.23 225.002 165Z" fill="#F7F7F7"/>
<path d="M93.0022 132C93.0022 113.77 78.2322 99 60.0022 99C41.7722 99 27.0022 113.77 27.0022 132H60.0022H93.0022Z" fill="#F7F7F7"/>
<path d="M60.0022 66C41.7722 66 27.0022 80.77 27.0022 99H60.0022H93.0022C93.0022 80.77 78.2322 66 60.0022 66Z" fill="#F7F7F7"/>
<path d="M192.002 66C173.772 66 159.002 80.77 159.002 99H192.002H225.002C225.002 80.77 210.232 66 192.002 66Z" fill="#F7F7F7"/>
<path d="M93.0022 132H159.002C159.002 113.77 144.232 99 126.002 99C107.772 99 93.0022 113.77 93.0022 132Z" fill="#F7F7F7"/>
<path d="M126.002 99C144.232 99 159.002 84.23 159.002 66H126.002H93.0022C93.0022 84.23 107.772 99 126.002 99Z" fill="#F7F7F7"/>
<path d="M93.0022 66C111.232 66 126.002 51.23 126.002 33C126.002 14.77 111.232 0 93.0022 0V33V66Z" fill="#F7F7F7"/>
<path d="M159.002 33C159.002 14.77 144.232 0 126.002 0V33V66C144.232 66 159.002 51.23 159.002 33Z" fill="#F7F7F7"/>
<path d="M102.702 141.66C99.7022 144.65 97.3422 148.14 95.6022 152.12C93.8622 156.11 93.0022 160.39 92.9922 164.96C92.9922 169.54 93.8522 173.82 95.5722 177.81C97.3022 181.8 99.6522 185.29 102.642 188.29C105.632 191.28 109.122 193.65 113.102 195.38C117.092 197.11 121.372 197.98 125.952 197.99C130.532 197.99 134.812 197.13 138.802 195.41C142.792 193.68 146.282 191.33 149.282 188.34C152.282 185.35 154.642 181.86 156.382 177.87C158.112 173.88 158.982 169.6 158.992 165.02C158.992 160.45 158.132 156.16 156.412 152.17C154.682 148.18 152.332 144.69 149.342 141.69C146.352 138.69 142.862 136.33 138.882 134.6C134.892 132.86 130.612 131.99 126.032 131.99C121.452 131.99 117.172 132.85 113.182 134.57C109.192 136.31 105.702 138.67 102.702 141.66ZM144.762 146.28L144.722 183.77L107.232 183.73L107.272 146.24L144.762 146.28Z" fill="#F7F7F7"/>
<path d="M60.0022 165C60.0022 146.77 45.2322 132 27.0022 132V165V198C45.2322 198 60.0022 183.23 60.0022 165Z" fill="#F7F7F7"/>
<path d="M60.0022 198C78.2322 198 93.0022 183.23 93.0022 165C93.0022 146.77 78.2322 132 60.0022 132V165V198Z" fill="#F7F7F7"/>
<path d="M-5.99781 165C-24.2278 165 -38.9978 179.77 -38.9978 198H-5.99781H27.0022C27.0022 179.77 12.2322 165 -5.99781 165Z" fill="#F7F7F7"/>
<path d="M-5.99781 132C-24.2278 132 -38.9978 146.77 -38.9978 165H-5.99781H27.0022C27.0022 146.77 12.2322 132 -5.99781 132Z" fill="#F7F7F7"/>
<path d="M27.0022 396C27.0022 377.77 12.2322 363 -5.99781 363C-24.2278 363 -38.9978 377.77 -38.9978 396H-5.96782H27.0022Z" fill="#F7F7F7"/>
<path d="M-5.99781 330C-24.2278 330 -38.9978 344.77 -38.9978 363H-5.99781H27.0022C27.0022 344.77 12.2322 330 -5.99781 330Z" fill="#F7F7F7"/>
<path d="M27.0022 33C27.0022 14.77 12.232 0 -5.99805 0V33V66C12.232 66 27.0022 51.23 27.0022 33Z" fill="#F7F7F7"/>
<path d="M-5.99781 297C12.2322 297 27.0022 282.23 27.0022 264H-5.99781H-38.9978C-38.9978 282.23 -24.2278 297 -5.99781 297Z" fill="#F7F7F7"/>
<path d="M27.0022 297H-5.99781H-38.9978C-38.9978 315.23 -24.2278 330 -5.99781 330C12.2322 330 27.0022 315.23 27.0022 297Z" fill="#F7F7F7"/>
<path d="M-29.3378 122.3C-26.3478 125.29 -22.8578 127.66 -18.8778 129.39C-14.8878 131.12 -10.6078 131.99 -6.02781 132C-1.44781 132 2.83218 131.14 6.82219 129.42C10.8122 127.69 14.3022 125.34 17.3022 122.35C20.3022 119.36 22.6622 115.87 24.4022 111.88C26.1322 107.89 27.0022 103.61 27.0122 99.03C27.0122 94.46 26.1522 90.17 24.4322 86.18C22.7022 82.19 20.3522 78.7 17.3622 75.7C14.3722 72.7 10.8822 70.34 6.90219 68.61C2.89219 66.87 -1.38782 66 -5.96782 66C-10.5478 66 -14.8278 66.86 -18.8178 68.58C-22.8078 70.31 -26.2978 72.66 -29.2978 75.65C-32.2978 78.64 -34.6578 82.13 -36.3978 86.11C-38.1278 90.1 -38.9978 94.38 -39.0078 98.95C-39.0078 103.53 -38.1478 107.81 -36.4278 111.8C-34.6878 115.81 -32.3278 119.3 -29.3378 122.3ZM-24.7278 80.24L12.7622 80.28L12.7222 117.77L-24.7678 117.73L-24.7278 80.24Z" fill="#F7F7F7"/>
<path d="M27.0022 198C8.77218 198 -5.99805 212.77 -5.99805 231C-5.99805 249.23 8.77218 264 27.0022 264L27.002 231L27.0022 198Z" fill="#F7F7F7"/>
<path d="M93.0022 462C93.0022 443.77 78.2322 429 60.0022 429C41.7722 429 27.0022 443.77 27.0022 462H60.0022H93.0022Z" fill="#F7F7F7"/>
<path d="M60.0022 396C41.7722 396 27.0022 410.77 27.0022 429H60.0022H93.0022C93.0022 410.77 78.2322 396 60.0022 396Z" fill="#F7F7F7"/>
<path d="M60.0022 495C60.0022 476.77 45.2322 462 27.0022 462V495V528C45.2322 528 60.0022 513.23 60.0022 495Z" fill="#F7F7F7"/>
<path d="M60.0022 528C78.2322 528 93.0022 513.23 93.0022 495C93.0022 476.77 78.2322 462 60.0022 462V495V528Z" fill="#F7F7F7"/>
<path d="M159.002 495C159.002 513.23 173.772 528 192.002 528C210.232 528 225.002 513.23 225.002 495H192.002H159.002Z" fill="#F7F7F7"/>
<path d="M126.002 429C107.772 429 93.0022 443.77 93.0022 462H159.002C159.002 443.77 144.232 429 126.002 429Z" fill="#F7F7F7"/>
<path d="M159.002 396H126.002H93.0022C93.0022 414.23 107.772 429 126.002 429C144.232 429 159.002 414.23 159.002 396Z" fill="#F7F7F7"/>
<path d="M102.702 471.66C99.7022 474.65 97.3422 478.14 95.6022 482.13C93.8722 486.12 93.0022 490.4 92.9922 494.98C92.9922 499.55 93.8522 503.84 95.5722 507.83C97.3022 511.82 99.6522 515.31 102.642 518.31C105.632 521.31 109.122 523.67 113.102 525.4C117.092 527.14 121.372 528.01 125.952 528.01C130.532 528.01 134.812 527.15 138.802 525.43C142.792 523.7 146.282 521.35 149.282 518.36C152.282 515.37 154.642 511.88 156.382 507.89C158.122 503.9 158.982 499.62 158.992 495.05C158.992 490.47 158.132 486.19 156.412 482.2C154.682 478.21 152.332 474.72 149.342 471.72C146.352 468.73 142.862 466.36 138.882 464.63C134.892 462.9 130.612 462.03 126.032 462.02C121.452 462.02 117.172 462.88 113.182 464.6C109.192 466.31 105.702 468.67 102.702 471.66ZM144.762 476.27L144.722 513.76L107.232 513.72L107.272 476.23L144.762 476.27Z" fill="#F7F7F7"/>
<path d="M192.002 495C210.228 495 225.002 480.225 225.002 462C225.002 443.775 210.228 429 192.002 429C173.777 429 159.002 443.775 159.002 462C159.002 480.225 173.777 495 192.002 495Z" fill="#F7F7F7"/>
<path d="M192.002 396C173.772 396 159.002 410.77 159.002 429H192.002H225.002C225.002 410.77 210.232 396 192.002 396Z" fill="#F7F7F7"/>
<path d="M-5.99781 495C-24.2278 495 -38.9978 509.77 -38.9978 528H-5.99781H27.0022C27.0022 509.77 12.2322 495 -5.99781 495Z" fill="#F7F7F7"/>
<path d="M-5.99781 462C-24.2278 462 -38.9978 476.77 -38.9978 495H-5.99781H27.0022C27.0022 476.77 12.2322 462 -5.99781 462Z" fill="#F7F7F7"/>
<path d="M-29.2978 405.66C-32.2978 408.65 -34.6578 412.14 -36.3978 416.13C-38.1278 420.12 -38.9978 424.4 -39.0078 428.97C-39.0078 433.55 -38.1478 437.83 -36.4278 441.82C-34.6978 445.81 -32.3478 449.3 -29.3578 452.3C-26.3678 455.29 -22.8778 457.66 -18.8978 459.39C-14.9078 461.12 -10.6278 461.99 -6.04781 462C-1.46781 462 2.81218 461.14 6.80219 459.42C10.7922 457.69 14.2822 455.34 17.2822 452.35C20.2822 449.36 22.6422 445.87 24.3822 441.89C26.1122 437.9 26.9822 433.62 26.9922 429.04C26.9922 424.47 26.1322 420.18 24.4122 416.19C22.6822 412.2 20.3322 408.71 17.3422 405.71C14.3522 402.71 10.8622 400.35 6.88219 398.62C2.89219 396.87 -1.38782 396 -5.96782 396C-10.5478 396 -14.8278 396.86 -18.8178 398.58C-22.8078 400.31 -26.2978 402.67 -29.2978 405.66ZM12.7622 410.28L12.7222 447.77L-24.7678 447.73L-24.7278 410.24L12.7622 410.28Z" fill="#F7F7F7"/>
<path d="M168.662 386.3C171.652 389.3 175.142 391.66 179.132 393.4C183.122 395.13 187.402 396 191.982 396.01C196.562 396.01 200.842 395.15 204.832 393.43C208.822 391.7 212.312 389.35 215.312 386.36C218.312 383.37 220.672 379.88 222.402 375.9C224.142 371.91 225.012 367.63 225.012 363.05C225.012 358.47 224.152 354.19 222.432 350.2C220.702 346.21 218.352 342.72 215.362 339.72C212.372 336.72 208.882 334.36 204.902 332.62C200.912 330.89 196.632 330.02 192.062 330.01C187.482 330.01 183.202 330.87 179.212 332.59C175.222 334.32 171.732 336.67 168.732 339.66C165.742 342.65 163.372 346.14 161.642 350.12C159.912 354.11 159.042 358.39 159.032 362.97C159.032 367.54 159.892 371.83 161.612 375.82C163.312 379.81 165.672 383.3 168.662 386.3ZM173.272 344.24L210.762 344.28L210.722 381.77L173.232 381.73L173.272 344.24Z" fill="#F7F7F7"/>
<path d="M225.002 264V198C206.772 198 192.002 212.77 192.002 231C192.002 249.23 206.772 264 225.002 264Z" fill="#F7F7F7"/>
<path d="M192.002 264V231V198C173.772 198 159.002 212.77 159.002 231C159.002 249.23 173.772 264 192.002 264Z" fill="#F7F7F7"/>
<path d="M60.0022 330C41.7722 330 27.0022 344.77 27.0022 363C27.0022 381.23 41.7722 396 60.0022 396V363V330Z" fill="#F7F7F7"/>
<path d="M93.0022 264C111.232 264 126.002 249.23 126.002 231C126.002 212.77 111.232 198 93.0022 198V231V264Z" fill="#F7F7F7"/>
<path d="M159.002 231C159.002 212.77 144.232 198 126.002 198V231V264C144.232 264 159.002 249.23 159.002 231Z" fill="#F7F7F7"/>
<path d="M93.0022 396C111.228 396 126.002 381.225 126.002 363C126.002 344.775 111.228 330 93.0022 330C74.7768 330 60.0022 344.775 60.0022 363C60.0022 381.225 74.7768 396 93.0022 396Z" fill="#F7F7F7"/>
<path d="M159.002 363C159.002 344.77 144.232 330 126.002 330V363V396C144.232 396 159.002 381.23 159.002 363Z" fill="#F7F7F7"/>
<path d="M126.002 297C126.002 278.77 111.232 264 93.0022 264V330C111.232 330 126.002 315.23 126.002 297Z" fill="#F7F7F7"/>
<path d="M159.002 330V297V264C140.772 264 126.002 278.77 126.002 297C126.002 315.23 140.772 330 159.002 330Z" fill="#F7F7F7"/>
<path d="M192.002 297C210.232 297 225.002 282.23 225.002 264H192.002H159.002C159.002 282.23 173.772 297 192.002 297Z" fill="#F7F7F7"/>
<path d="M192.002 330C210.232 330 225.002 315.23 225.002 297H192.002H159.002C159.002 315.23 173.772 330 192.002 330Z" fill="#F7F7F7"/>
<path d="M83.3422 273.7C80.3522 270.7 76.8622 268.34 72.8822 266.6C68.8922 264.87 64.6122 264 60.0422 263.99C55.4622 263.99 51.1822 264.85 47.1922 266.57C43.2022 268.3 39.7122 270.65 36.7122 273.64C33.7222 276.63 31.3522 280.12 29.6222 284.1C27.8922 288.09 27.0222 292.37 27.0122 296.95C27.0122 301.52 27.8722 305.81 29.5922 309.8C31.3222 313.79 33.6722 317.28 36.6622 320.28C39.6522 323.28 43.1422 325.64 47.1322 327.38C51.1222 329.11 55.4022 329.98 59.9822 329.99C64.5622 329.99 68.8422 329.13 72.8322 327.41C76.8222 325.68 80.3122 323.33 83.3122 320.34C86.3122 317.35 88.6722 313.86 90.4022 309.88C92.1422 305.89 93.0122 301.61 93.0122 297.03C93.0122 292.45 92.1522 288.17 90.4322 284.18C88.6922 280.19 86.3322 276.7 83.3422 273.7ZM78.7222 315.76L41.2322 315.72L41.2722 278.23L78.7622 278.27L78.7222 315.76Z" fill="#F7F7F7"/>
<path d="M60.0022 231C78.2322 231 93.0022 216.23 93.0022 198H60.0022H27.0022C27.0022 216.23 41.7722 231 60.0022 231Z" fill="#F7F7F7"/>
<path d="M27.002 231C27.002 249.23 41.7722 264 60.0022 264C78.2322 264 93.0022 249.23 93.0022 231H60.0022H27.002Z" fill="#F7F7F7"/>
<path d="M-38.9978 726H27.0022C27.0022 707.77 12.2322 693 -5.99781 693C-24.2278 693 -38.9978 707.77 -38.9978 726Z" fill="#F7F7F7"/>
<path d="M-5.99781 660C-24.2278 660 -38.9978 674.77 -38.9978 693H-5.99781H27.0022C27.0022 674.77 12.2322 660 -5.99781 660Z" fill="#F7F7F7"/>
<path d="M-5.99781 627C12.2322 627 27.0022 612.23 27.0022 594H-5.99781H-38.9978C-38.9978 612.23 -24.2278 627 -5.99781 627Z" fill="#F7F7F7"/>
<path d="M-5.99781 660C12.2322 660 27.0022 645.23 27.0022 627H-5.99781H-38.9978C-38.9978 645.23 -24.2278 660 -5.99781 660Z" fill="#F7F7F7"/>
<path d="M-5.99805 561C-5.99805 579.23 8.77218 594 27.0022 594L27.002 561L27.0022 528C8.77218 528 -5.99805 542.77 -5.99805 561Z" fill="#F7F7F7"/>
<path d="M215.342 669.7C212.352 666.7 208.862 664.34 204.882 662.6C200.892 660.87 196.612 660 192.042 659.99C187.462 659.99 183.182 660.85 179.192 662.57C175.202 664.3 171.712 666.65 168.712 669.64C165.722 672.63 163.352 676.12 161.622 680.1C159.892 684.09 159.022 688.37 159.012 692.95C159.012 697.52 159.872 701.81 161.592 705.8C163.322 709.79 165.672 713.28 168.662 716.28C171.652 719.28 175.142 721.64 179.132 723.38C183.122 725.11 187.402 725.98 191.982 725.99C196.562 725.99 200.842 725.13 204.832 723.41C208.822 721.68 212.312 719.33 215.312 716.34C218.312 713.35 220.672 709.86 222.402 705.88C224.142 701.89 225.012 697.61 225.012 693.03C225.012 688.45 224.152 684.17 222.432 680.18C220.692 676.19 218.332 672.7 215.342 669.7ZM210.722 711.76L173.232 711.72L173.272 674.23L210.762 674.27L210.722 711.76Z" fill="#F7F7F7"/>
<path d="M225.002 528C206.772 528 192.002 542.77 192.002 561C192.002 579.23 206.772 594 225.002 594V528Z" fill="#F7F7F7"/>
<path d="M159.002 561C159.002 579.23 173.772 594 192.002 594V561V528C173.772 528 159.002 542.77 159.002 561Z" fill="#F7F7F7"/>
<path d="M93.0022 726C111.228 726 126.002 711.225 126.002 693C126.002 674.775 111.228 660 93.0022 660C74.7768 660 60.0022 674.775 60.0022 693C60.0022 711.225 74.7768 726 93.0022 726Z" fill="#F7F7F7"/>
<path d="M27.0022 693C27.0022 711.23 41.7722 726 60.0022 726V693V660C41.7722 660 27.0022 674.77 27.0022 693Z" fill="#F7F7F7"/>
<path d="M93.0022 528V561V594C111.232 594 126.002 579.23 126.002 561C126.002 542.77 111.232 528 93.0022 528Z" fill="#F7F7F7"/>
<path d="M126.002 528V561V594C144.232 594 159.002 579.23 159.002 561C159.002 542.77 144.232 528 126.002 528Z" fill="#F7F7F7"/>
<path d="M159.002 693C159.002 674.77 144.232 660 126.002 660V693V726C144.232 726 159.002 711.23 159.002 693Z" fill="#F7F7F7"/>
<path d="M93.0022 594V660C111.232 660 126.002 645.23 126.002 627C126.002 608.77 111.232 594 93.0022 594Z" fill="#F7F7F7"/>
<path d="M126.002 627C126.002 645.23 140.772 660 159.002 660V627V594C140.772 594 126.002 608.77 126.002 627Z" fill="#F7F7F7"/>
<path d="M159.002 594C159.002 612.23 173.772 627 192.002 627C210.232 627 225.002 612.23 225.002 594H192.002H159.002Z" fill="#F7F7F7"/>
<path d="M192.002 660C210.232 660 225.002 645.23 225.002 627H192.002H159.002C159.002 645.23 173.772 660 192.002 660Z" fill="#F7F7F7"/>
<path d="M83.3422 603.7C80.3522 600.7 76.8622 598.34 72.8822 596.6C68.8922 594.87 64.6122 594 60.0422 593.99C55.4622 593.99 51.1822 594.85 47.1922 596.57C43.2022 598.3 39.7122 600.65 36.7122 603.64C33.7222 606.63 31.3522 610.12 29.6222 614.1C27.8922 618.09 27.0222 622.37 27.0122 626.95C27.0122 631.52 27.8722 635.81 29.5922 639.8C31.3222 643.79 33.6722 647.28 36.6622 650.28C39.6522 653.28 43.1422 655.64 47.1322 657.38C51.1222 659.11 55.4022 659.98 59.9822 659.99C64.5622 659.99 68.8422 659.13 72.8322 657.41C76.8222 655.68 80.3122 653.33 83.3122 650.34C86.3122 647.35 88.6722 643.86 90.4022 639.88C92.1422 635.89 93.0122 631.61 93.0122 627.03C93.0122 622.45 92.1522 618.17 90.4322 614.18C88.6922 610.19 86.3322 606.7 83.3422 603.7ZM78.7222 645.76L41.2322 645.72L41.2722 608.23L78.7622 608.27L78.7222 645.76Z" fill="#F7F7F7"/>
<path d="M60.0022 561C78.2322 561 93.0022 546.23 93.0022 528H60.0022H27.0022C27.0022 546.23 41.7722 561 60.0022 561Z" fill="#F7F7F7"/>
<path d="M27.002 561C27.002 579.23 41.7722 594 60.0022 594C78.2322 594 93.0022 579.23 93.0022 561H60.0022H27.002Z" fill="#F7F7F7"/>
<path d="M498.662 56.3C501.652 59.29 505.142 61.66 509.122 63.39C513.112 65.12 517.392 65.99 521.972 66C526.542 66 530.832 65.14 534.822 63.42C538.812 61.69 542.302 59.34 545.302 56.35C548.302 53.36 550.662 49.87 552.402 45.88C554.132 41.89 555.002 37.61 555.012 33.03C555.012 28.46 554.152 24.17 552.432 20.18C550.702 16.19 548.352 12.7 545.362 9.7C542.372 6.7 538.882 4.34 534.902 2.61C530.892 0.87 526.612 0 522.032 0C517.452 0 513.172 0.86 509.182 2.58C505.192 4.31 501.702 6.66 498.702 9.65C495.702 12.64 493.342 16.13 491.602 20.11C489.872 24.1 489.002 28.38 488.992 32.95C488.992 37.53 489.852 41.81 491.572 45.8C493.312 49.81 495.672 53.3 498.662 56.3ZM503.272 14.24L540.762 14.28L540.722 51.77L503.232 51.73L503.272 14.24Z" fill="#F7F7F7"/>
<path d="M423.002 0H357.002C357.002 18.23 371.772 33 390.002 33C408.232 33 423.002 18.23 423.002 0Z" fill="#F7F7F7"/>
<path d="M390.002 66C408.232 66 423.002 51.23 423.002 33H390.002H357.002C357.002 51.23 371.772 66 390.002 66Z" fill="#F7F7F7"/>
<path d="M522.002 165C540.228 165 555.002 150.225 555.002 132C555.002 113.775 540.228 99 522.002 99C503.777 99 489.002 113.775 489.002 132C489.002 150.225 503.777 165 522.002 165Z" fill="#F7F7F7"/>
<path d="M555.002 165H522.002H489.002C489.002 183.23 503.772 198 522.002 198C540.232 198 555.002 183.23 555.002 165Z" fill="#F7F7F7"/>
<path d="M423.002 132C423.002 113.77 408.232 99 390.002 99C371.772 99 357.002 113.77 357.002 132H390.002H423.002Z" fill="#F7F7F7"/>
<path d="M390.002 66C371.772 66 357.002 80.77 357.002 99H390.002H423.002C423.002 80.77 408.232 66 390.002 66Z" fill="#F7F7F7"/>
<path d="M522.002 66C503.772 66 489.002 80.77 489.002 99H522.002H555.002C555.002 80.77 540.232 66 522.002 66Z" fill="#F7F7F7"/>
<path d="M423.002 132H489.002C489.002 113.77 474.232 99 456.002 99C437.772 99 423.002 113.77 423.002 132Z" fill="#F7F7F7"/>
<path d="M456.002 99C474.232 99 489.002 84.23 489.002 66H456.002H423.002C423.002 84.23 437.772 99 456.002 99Z" fill="#F7F7F7"/>
<path d="M423.002 66C441.232 66 456.002 51.23 456.002 33C456.002 14.77 441.232 0 423.002 0V33V66Z" fill="#F7F7F7"/>
<path d="M489.002 33C489.002 14.77 474.232 0 456.002 0V33V66C474.232 66 489.002 51.23 489.002 33Z" fill="#F7F7F7"/>
<path d="M432.702 141.66C429.702 144.65 427.342 148.14 425.602 152.12C423.872 156.11 423.002 160.39 422.992 164.96C422.992 169.54 423.852 173.82 425.572 177.81C427.302 181.8 429.652 185.29 432.642 188.29C435.632 191.28 439.122 193.65 443.102 195.38C447.092 197.11 451.372 197.98 455.952 197.99C460.522 197.99 464.812 197.13 468.802 195.41C472.792 193.68 476.282 191.33 479.282 188.34C482.282 185.35 484.642 181.86 486.382 177.87C488.112 173.88 488.982 169.6 488.992 165.02C488.992 160.45 488.132 156.16 486.412 152.17C484.682 148.18 482.332 144.69 479.342 141.69C476.352 138.69 472.862 136.33 468.882 134.6C464.892 132.86 460.612 131.99 456.032 131.99C451.452 131.99 447.172 132.85 443.182 134.57C439.192 136.31 435.702 138.67 432.702 141.66ZM474.762 146.28L474.722 183.77L437.232 183.73L437.272 146.24L474.762 146.28Z" fill="#F7F7F7"/>
<path d="M390.002 165C390.002 146.77 375.232 132 357.002 132V165V198C375.232 198 390.002 183.23 390.002 165Z" fill="#F7F7F7"/>
<path d="M390.002 198C408.232 198 423.002 183.23 423.002 165C423.002 146.77 408.232 132 390.002 132V165V198Z" fill="#F7F7F7"/>
<path d="M291.002 198V165V132C272.772 132 258.002 146.77 258.002 165C258.002 183.23 272.772 198 291.002 198Z" fill="#F7F7F7"/>
<path d="M258.002 198V165V132C239.772 132 225.002 146.77 225.002 165C225.002 183.23 239.772 198 258.002 198Z" fill="#F7F7F7"/>
<path d="M324.002 165C305.772 165 291.002 179.77 291.002 198H324.002H357.002C357.002 179.77 342.232 165 324.002 165Z" fill="#F7F7F7"/>
<path d="M357.002 165C357.002 146.77 342.232 132 324.002 132C305.772 132 291.002 146.77 291.002 165H324.002H357.002Z" fill="#F7F7F7"/>
<path d="M291.002 330C272.772 330 258.002 344.77 258.002 363C258.002 381.23 272.772 396 291.002 396V363V330Z" fill="#F7F7F7"/>
<path d="M225.002 363C225.002 381.23 239.772 396 258.002 396V363V330C239.772 330 225.002 344.77 225.002 363Z" fill="#F7F7F7"/>
<path d="M357.002 396C357.002 377.77 342.232 363 324.002 363C305.772 363 291.002 377.77 291.002 396H357.002Z" fill="#F7F7F7"/>
<path d="M357.002 363C357.002 344.77 342.232 330 324.002 330C305.772 330 291.002 344.77 291.002 363H324.002H357.002Z" fill="#F7F7F7"/>
<path d="M291.002 66C309.228 66 324.002 51.2254 324.002 33C324.002 14.7746 309.228 0 291.002 0C272.777 0 258.002 14.7746 258.002 33C258.002 51.2254 272.777 66 291.002 66Z" fill="#F7F7F7"/>
<path d="M258.002 0C239.772 0 225.002 14.77 225.002 33C225.002 51.23 239.772 66 258.002 66V33V0Z" fill="#F7F7F7"/>
<path d="M357.002 33C357.002 14.77 342.232 0 324.002 0V33V66C342.232 66 357.002 51.23 357.002 33Z" fill="#F7F7F7"/>
<path d="M324.002 297C342.232 297 357.002 282.23 357.002 264H324.002H291.002C291.002 282.23 305.772 297 324.002 297Z" fill="#F7F7F7"/>
<path d="M357.002 297H324.002H291.002C291.002 315.23 305.772 330 324.002 330C342.232 330 357.002 315.23 357.002 297Z" fill="#F7F7F7"/>
<path d="M258.002 297C239.772 297 225.002 311.77 225.002 330H258.002H291.002C291.002 311.77 276.232 297 258.002 297Z" fill="#F7F7F7"/>
<path d="M258.002 297C276.232 297 291.002 282.23 291.002 264H257.972H225.002C225.002 282.23 239.772 297 258.002 297Z" fill="#F7F7F7"/>
<path d="M300.662 122.3C303.652 125.29 307.142 127.66 311.122 129.39C315.112 131.12 319.392 131.99 323.972 132C328.552 132 332.832 131.14 336.822 129.42C340.812 127.69 344.302 125.34 347.302 122.35C350.302 119.36 352.662 115.87 354.402 111.88C356.132 107.89 357.002 103.61 357.012 99.03C357.012 94.46 356.152 90.17 354.432 86.18C352.702 82.19 350.352 78.7 347.362 75.7C344.372 72.7 340.882 70.34 336.902 68.61C332.912 66.87 328.632 66 324.052 66C319.472 66 315.192 66.86 311.202 68.58C307.212 70.31 303.722 72.66 300.722 75.65C297.722 78.64 295.362 82.13 293.622 86.11C291.892 90.1 291.022 94.38 291.012 98.95C291.012 103.53 291.872 107.81 293.592 111.8C295.312 115.81 297.672 119.3 300.662 122.3ZM305.272 80.24L342.762 80.28L342.722 117.77L305.232 117.73L305.272 80.24Z" fill="#F7F7F7"/>
<path d="M258.002 99C258.002 80.77 243.232 66 225.002 66V99V132C243.232 132 258.002 117.23 258.002 99Z" fill="#F7F7F7"/>
<path d="M291.002 99C291.002 80.77 276.232 66 258.002 66V99V132C276.232 132 291.002 117.23 291.002 99Z" fill="#F7F7F7"/>
<path d="M234.662 254.3C237.652 257.3 241.142 259.66 245.122 261.39C249.112 263.13 253.392 264 257.972 264C262.552 264 266.832 263.14 270.822 261.42C274.812 259.69 278.302 257.34 281.302 254.35C284.302 251.36 286.662 247.87 288.402 243.88C290.132 239.89 291.002 235.61 291.012 231.04C291.012 226.46 290.152 222.18 288.432 218.19C286.702 214.2 284.352 210.71 281.362 207.71C278.372 204.72 274.882 202.35 270.902 200.62C266.912 198.89 262.632 198.02 258.052 198.01C253.472 198.01 249.192 198.87 245.202 200.59C241.212 202.32 237.722 204.67 234.722 207.66C231.722 210.65 229.362 214.14 227.622 218.13C225.892 222.12 225.022 226.4 225.012 230.98C225.012 235.55 225.872 239.84 227.592 243.83C229.312 247.81 231.672 251.3 234.662 254.3ZM239.272 212.24L276.762 212.28L276.722 249.77L239.232 249.73L239.272 212.24Z" fill="#F7F7F7"/>
<path d="M324.002 231C324.002 249.23 338.772 264 357.002 264V231V198C338.772 198 324.002 212.77 324.002 231Z" fill="#F7F7F7"/>
<path d="M324.002 198C305.772 198 291.002 212.77 291.002 231C291.002 249.23 305.772 264 324.002 264V231V198Z" fill="#F7F7F7"/>
<path d="M390.002 429C371.772 429 357.002 443.77 357.002 462H390.002H423.002C423.002 443.77 408.232 429 390.002 429Z" fill="#F7F7F7"/>
<path d="M357.002 429H390.002H423.002C423.002 410.77 408.232 396 390.002 396C371.772 396 357.002 410.77 357.002 429Z" fill="#F7F7F7"/>
<path d="M390.002 495C390.002 476.77 375.232 462 357.002 462V495V528C375.232 528 390.002 513.23 390.002 495Z" fill="#F7F7F7"/>
<path d="M390.002 528C408.232 528 423.002 513.23 423.002 495C423.002 476.77 408.232 462 390.002 462V495V528Z" fill="#F7F7F7"/>
<path d="M489.002 495C489.002 513.23 503.772 528 522.002 528C540.232 528 555.002 513.23 555.002 495H522.002H489.002Z" fill="#F7F7F7"/>
<path d="M456.002 429C437.772 429 423.002 443.77 423.002 462H489.002C489.002 443.77 474.232 429 456.002 429Z" fill="#F7F7F7"/>
<path d="M456.002 429C474.232 429 489.002 414.23 489.002 396H456.002H423.002C423.002 414.23 437.772 429 456.002 429Z" fill="#F7F7F7"/>
<path d="M432.702 471.66C429.702 474.65 427.342 478.14 425.602 482.13C423.872 486.12 423.002 490.4 422.992 494.98C422.992 499.55 423.852 503.84 425.572 507.83C427.302 511.82 429.652 515.31 432.642 518.31C435.632 521.31 439.122 523.67 443.102 525.4C447.092 527.14 451.372 528.01 455.952 528.01C460.532 528.01 464.812 527.15 468.802 525.43C472.792 523.7 476.282 521.35 479.282 518.36C482.282 515.37 484.642 511.88 486.382 507.89C488.122 503.9 488.982 499.62 488.992 495.05C488.992 490.47 488.132 486.19 486.412 482.2C484.682 478.21 482.332 474.72 479.342 471.72C476.352 468.73 472.862 466.36 468.882 464.63C464.892 462.9 460.612 462.03 456.032 462.02C451.462 462.02 447.172 462.88 443.182 464.6C439.192 466.31 435.702 468.67 432.702 471.66ZM474.762 476.27L474.722 513.76L437.232 513.72L437.272 476.23L474.762 476.27Z" fill="#F7F7F7"/>
<path d="M522.002 495C540.228 495 555.002 480.225 555.002 462C555.002 443.775 540.228 429 522.002 429C503.777 429 489.002 443.775 489.002 462C489.002 480.225 503.777 495 522.002 495Z" fill="#F7F7F7"/>
<path d="M522.002 396C503.772 396 489.002 410.77 489.002 429H522.002H555.002C555.002 410.77 540.232 396 522.002 396Z" fill="#F7F7F7"/>
<path d="M291.002 462C272.772 462 258.002 476.77 258.002 495C258.002 513.23 272.772 528 291.002 528V495V462Z" fill="#F7F7F7"/>
<path d="M225.002 495C225.002 513.23 239.772 528 258.002 528V495V462C239.772 462 225.002 476.77 225.002 495Z" fill="#F7F7F7"/>
<path d="M225.002 396V429V462C243.232 462 258.002 447.23 258.002 429C258.002 410.77 243.232 396 225.002 396Z" fill="#F7F7F7"/>
<path d="M291.002 396C272.772 396 258.002 410.77 258.002 429C258.002 447.23 272.772 462 291.002 462V396Z" fill="#F7F7F7"/>
<path d="M324.002 495C305.772 495 291.002 509.77 291.002 528H324.002H357.002C357.002 509.77 342.232 495 324.002 495Z" fill="#F7F7F7"/>
<path d="M324.002 462C305.772 462 291.002 476.77 291.002 495H324.002H357.002C357.002 476.77 342.232 462 324.002 462Z" fill="#F7F7F7"/>
<path d="M300.702 405.66C297.702 408.65 295.342 412.14 293.602 416.13C291.872 420.12 291.002 424.4 290.992 428.97C290.992 433.55 291.852 437.83 293.572 441.82C295.302 445.81 297.652 449.3 300.642 452.3C303.632 455.29 307.122 457.66 311.102 459.39C315.092 461.12 319.372 461.99 323.952 462C328.532 462 332.812 461.14 336.802 459.42C340.792 457.69 344.282 455.34 347.282 452.35C350.282 449.36 352.642 445.87 354.382 441.89C356.112 437.9 356.982 433.62 356.992 429.04C356.992 424.47 356.132 420.18 354.412 416.19C352.682 412.2 350.332 408.71 347.342 405.71C344.352 402.71 340.862 400.35 336.882 398.62C332.892 396.88 328.612 396.01 324.032 396.01C319.452 396.01 315.172 396.87 311.182 398.59C307.192 400.31 303.702 402.67 300.702 405.66ZM342.762 410.28L342.722 447.77L305.232 447.73L305.272 410.24L342.762 410.28Z" fill="#F7F7F7"/>
<path d="M498.662 386.3C501.652 389.3 505.142 391.66 509.132 393.4C513.122 395.13 517.402 396 521.982 396.01C526.552 396.01 530.842 395.15 534.832 393.43C538.822 391.7 542.312 389.35 545.312 386.36C548.312 383.37 550.672 379.88 552.402 375.9C554.142 371.91 555.012 367.63 555.012 363.05C555.012 358.47 554.152 354.19 552.432 350.2C550.702 346.21 548.352 342.72 545.362 339.72C542.372 336.72 538.882 334.36 534.902 332.62C530.912 330.89 526.632 330.02 522.062 330.01C517.482 330.01 513.202 330.87 509.212 332.59C505.222 334.32 501.732 336.67 498.732 339.66C495.742 342.65 493.372 346.14 491.642 350.12C489.912 354.11 489.042 358.39 489.032 362.97C489.032 367.54 489.892 371.83 491.612 375.82C493.312 379.81 495.672 383.3 498.662 386.3ZM503.272 344.24L540.762 344.28L540.722 381.77L503.232 381.73L503.272 344.24Z" fill="#F7F7F7"/>
<path d="M555.002 264V198C536.772 198 522.002 212.77 522.002 231C522.002 249.23 536.772 264 555.002 264Z" fill="#F7F7F7"/>
<path d="M522.002 264V231V198C503.772 198 489.002 212.77 489.002 231C489.002 249.23 503.772 264 522.002 264Z" fill="#F7F7F7"/>
<path d="M423.002 396C441.228 396 456.002 381.225 456.002 363C456.002 344.775 441.228 330 423.002 330C404.777 330 390.002 344.775 390.002 363C390.002 381.225 404.777 396 423.002 396Z" fill="#F7F7F7"/>
<path d="M357.002 363C357.002 381.23 371.772 396 390.002 396V363V330C371.772 330 357.002 344.77 357.002 363Z" fill="#F7F7F7"/>
<path d="M423.002 264C441.232 264 456.002 249.23 456.002 231C456.002 212.77 441.232 198 423.002 198V231V264Z" fill="#F7F7F7"/>
<path d="M489.002 231C489.002 212.77 474.232 198 456.002 198V231V264C474.232 264 489.002 249.23 489.002 231Z" fill="#F7F7F7"/>
<path d="M489.002 363C489.002 344.77 474.232 330 456.002 330V363V396C474.232 396 489.002 381.23 489.002 363Z" fill="#F7F7F7"/>
<path d="M423.002 330C441.232 330 456.002 315.23 456.002 297C456.002 278.77 441.232 264 423.002 264V330Z" fill="#F7F7F7"/>
<path d="M489.002 330V297V264C470.772 264 456.002 278.77 456.002 297C456.002 315.23 470.772 330 489.002 330Z" fill="#F7F7F7"/>
<path d="M522.002 297C540.232 297 555.002 282.23 555.002 264H522.002H489.002C489.002 282.23 503.772 297 522.002 297Z" fill="#F7F7F7"/>
<path d="M522.002 330C540.232 330 555.002 315.23 555.002 297H522.002H489.002C489.002 315.23 503.772 330 522.002 330Z" fill="#F7F7F7"/>
<path d="M413.342 273.7C410.352 270.7 406.862 268.34 402.882 266.6C398.892 264.87 394.612 264 390.042 263.99C385.462 263.99 381.182 264.85 377.192 266.57C373.202 268.3 369.712 270.65 366.712 273.64C363.722 276.63 361.352 280.12 359.622 284.1C357.892 288.09 357.022 292.37 357.012 296.95C357.012 301.52 357.872 305.81 359.592 309.8C361.322 313.79 363.672 317.28 366.662 320.28C369.652 323.28 373.142 325.64 377.132 327.38C381.122 329.11 385.402 329.98 389.982 329.99C394.562 329.99 398.842 329.13 402.832 327.41C406.822 325.68 410.312 323.33 413.312 320.34C416.312 317.35 418.672 313.86 420.402 309.88C422.142 305.89 423.012 301.61 423.012 297.03C423.012 292.45 422.152 288.17 420.432 284.18C418.692 280.19 416.332 276.7 413.342 273.7ZM408.722 315.76L371.232 315.72L371.272 278.23L408.762 278.27L408.722 315.76Z" fill="#F7F7F7"/>
<path d="M390.002 231C408.232 231 423.002 216.23 423.002 198H390.002H357.002C357.002 216.23 371.772 231 390.002 231Z" fill="#F7F7F7"/>
<path d="M390.002 264C408.232 264 423.002 249.23 423.002 231H390.002H357.002C357.002 249.23 371.772 264 390.002 264Z" fill="#F7F7F7"/>
<path d="M291.002 660C272.772 660 258.002 674.77 258.002 693C258.002 711.23 272.772 726 291.002 726V693V660Z" fill="#F7F7F7"/>
<path d="M225.002 693C225.002 711.23 239.772 726 258.002 726V693V660C239.772 660 225.002 674.77 225.002 693Z" fill="#F7F7F7"/>
<path d="M291.002 726H357.002C357.002 707.77 342.232 693 324.002 693C305.772 693 291.002 707.77 291.002 726Z" fill="#F7F7F7"/>
<path d="M324.002 660C305.772 660 291.002 674.77 291.002 693H324.002H357.002C357.002 674.77 342.232 660 324.002 660Z" fill="#F7F7F7"/>
<path d="M291.002 594C291.002 612.23 305.772 627 324.002 627C342.232 627 357.002 612.23 357.002 594H324.002H291.002Z" fill="#F7F7F7"/>
<path d="M324.002 660C342.232 660 357.002 645.23 357.002 627H324.002H291.002C291.002 645.23 305.772 660 324.002 660Z" fill="#F7F7F7"/>
<path d="M258.002 627C239.772 627 225.002 641.77 225.002 660H258.002H291.002C291.002 641.77 276.232 627 258.002 627Z" fill="#F7F7F7"/>
<path d="M291.002 594H257.972H225.002C225.002 612.23 239.772 627 258.002 627C276.232 627 291.002 612.23 291.002 594Z" fill="#F7F7F7"/>
<path d="M281.302 584.34C284.302 581.35 286.662 577.86 288.402 573.87C290.132 569.88 291.002 565.6 291.012 561.03C291.012 556.45 290.152 552.17 288.432 548.18C286.702 544.19 284.352 540.7 281.362 537.7C278.372 534.71 274.882 532.34 270.902 530.61C266.912 528.88 262.632 528.01 258.052 528C253.472 528 249.192 528.86 245.202 530.58C241.212 532.31 237.722 534.66 234.722 537.65C231.722 540.64 229.362 544.13 227.622 548.12C225.892 552.11 225.022 556.39 225.012 560.97C225.012 565.54 225.872 569.83 227.592 573.82C229.322 577.81 231.672 581.3 234.662 584.3C237.652 587.3 241.142 589.66 245.122 591.39C249.112 593.13 253.392 594 257.972 594C262.552 594 266.832 593.14 270.822 591.42C274.812 589.69 278.302 587.33 281.302 584.34ZM239.242 579.72L239.282 542.23L276.772 542.27L276.732 579.76L239.242 579.72Z" fill="#F7F7F7"/>
<path d="M324.002 561C324.002 579.23 338.772 594 357.002 594V561V528C338.772 528 324.002 542.77 324.002 561Z" fill="#F7F7F7"/>
<path d="M291.002 561C291.002 579.23 305.772 594 324.002 594V561V528C305.772 528 291.002 542.77 291.002 561Z" fill="#F7F7F7"/>
<path d="M545.342 669.7C542.352 666.7 538.862 664.34 534.882 662.6C530.892 660.87 526.612 660 522.042 659.99C517.462 659.99 513.182 660.85 509.192 662.57C505.202 664.3 501.712 666.65 498.712 669.64C495.722 672.63 493.352 676.12 491.622 680.1C489.892 684.09 489.022 688.37 489.012 692.95C489.012 697.52 489.872 701.81 491.592 705.8C493.322 709.79 495.672 713.28 498.662 716.28C501.652 719.28 505.142 721.64 509.132 723.38C513.122 725.11 517.402 725.98 521.982 725.99C526.552 725.99 530.842 725.13 534.832 723.41C538.822 721.68 542.312 719.33 545.312 716.34C548.312 713.35 550.672 709.86 552.402 705.88C554.142 701.89 555.012 697.61 555.012 693.03C555.012 688.45 554.152 684.17 552.432 680.18C550.692 676.19 548.332 672.7 545.342 669.7ZM540.722 711.76L503.232 711.72L503.272 674.23L540.762 674.27L540.722 711.76Z" fill="#F7F7F7"/>
<path d="M555.002 528C536.772 528 522.002 542.77 522.002 561C522.002 579.23 536.772 594 555.002 594V528Z" fill="#F7F7F7"/>
<path d="M489.002 561C489.002 579.23 503.772 594 522.002 594V561V528C503.772 528 489.002 542.77 489.002 561Z" fill="#F7F7F7"/>
<path d="M423.002 726C441.228 726 456.002 711.225 456.002 693C456.002 674.775 441.228 660 423.002 660C404.777 660 390.002 674.775 390.002 693C390.002 711.225 404.777 726 423.002 726Z" fill="#F7F7F7"/>
<path d="M357.002 693C357.002 711.23 371.772 726 390.002 726V693V660C371.772 660 357.002 674.77 357.002 693Z" fill="#F7F7F7"/>
<path d="M423.002 528V561V594C441.232 594 456.002 579.23 456.002 561C456.002 542.77 441.232 528 423.002 528Z" fill="#F7F7F7"/>
<path d="M456.002 528V561V594C474.232 594 489.002 579.23 489.002 561C489.002 542.77 474.232 528 456.002 528Z" fill="#F7F7F7"/>
<path d="M489.002 693C489.002 674.77 474.232 660 456.002 660V693V726C474.232 726 489.002 711.23 489.002 693Z" fill="#F7F7F7"/>
<path d="M423.002 594V660C441.232 660 456.002 645.23 456.002 627C456.002 608.77 441.232 594 423.002 594Z" fill="#F7F7F7"/>
<path d="M456.002 627C456.002 645.23 470.772 660 489.002 660V627V594C470.772 594 456.002 608.77 456.002 627Z" fill="#F7F7F7"/>
<path d="M489.002 594C489.002 612.23 503.772 627 522.002 627C540.232 627 555.002 612.23 555.002 594H522.002H489.002Z" fill="#F7F7F7"/>
<path d="M522.002 660C540.232 660 555.002 645.23 555.002 627H522.002H489.002C489.002 645.23 503.772 660 522.002 660Z" fill="#F7F7F7"/>
<path d="M413.342 603.7C410.352 600.7 406.862 598.34 402.882 596.6C398.892 594.87 394.612 594 390.042 593.99C385.462 593.99 381.182 594.85 377.192 596.57C373.202 598.3 369.712 600.65 366.712 603.64C363.722 606.63 361.352 610.12 359.622 614.1C357.892 618.09 357.022 622.37 357.012 626.95C357.012 631.52 357.872 635.81 359.592 639.8C361.322 643.79 363.672 647.28 366.662 650.28C369.652 653.28 373.142 655.64 377.132 657.38C381.122 659.11 385.402 659.98 389.982 659.99C394.562 659.99 398.842 659.13 402.832 657.41C406.822 655.68 410.312 653.33 413.312 650.34C416.312 647.35 418.672 643.86 420.402 639.88C422.142 635.89 423.012 631.61 423.012 627.03C423.012 622.45 422.152 618.17 420.432 614.18C418.692 610.19 416.332 606.7 413.342 603.7ZM408.722 645.76L371.232 645.72L371.272 608.23L408.762 608.27L408.722 645.76Z" fill="#F7F7F7"/>
<path d="M390.002 561C408.232 561 423.002 546.23 423.002 528H390.002H357.002C357.002 546.23 371.772 561 390.002 561Z" fill="#F7F7F7"/>
<path d="M357.002 561C357.002 579.23 371.772 594 390.002 594C408.232 594 423.002 579.23 423.002 561H390.002H357.002Z" fill="#F7F7F7"/>
<path d="M828.662 56.3C831.652 59.29 835.142 61.66 839.122 63.39C843.112 65.12 847.392 65.99 851.972 66C856.542 66 860.832 65.14 864.822 63.42C868.812 61.69 872.302 59.34 875.302 56.35C878.302 53.36 880.662 49.87 882.402 45.88C884.132 41.89 885.002 37.61 885.012 33.03C885.012 28.46 884.152 24.17 882.432 20.18C880.702 16.19 878.352 12.7 875.362 9.7C872.372 6.7 868.882 4.34 864.902 2.61C860.892 0.87 856.612 0 852.032 0C847.452 0 843.172 0.86 839.182 2.58C835.192 4.31 831.702 6.66 828.702 9.65C825.702 12.64 823.342 16.13 821.602 20.11C819.872 24.1 819.002 28.38 818.992 32.95C818.992 37.53 819.852 41.81 821.572 45.8C823.312 49.81 825.672 53.3 828.662 56.3ZM833.272 14.24L870.762 14.28L870.722 51.77L833.232 51.73L833.272 14.24Z" fill="#F7F7F7"/>
<path d="M753.002 0H687.002C687.002 18.23 701.772 33 720.002 33C738.232 33 753.002 18.23 753.002 0Z" fill="#F7F7F7"/>
<path d="M720.002 66C738.232 66 753.002 51.23 753.002 33H720.002H687.002C687.002 51.23 701.772 66 720.002 66Z" fill="#F7F7F7"/>
<path d="M852.002 165C870.228 165 885.002 150.225 885.002 132C885.002 113.775 870.228 99 852.002 99C833.777 99 819.002 113.775 819.002 132C819.002 150.225 833.777 165 852.002 165Z" fill="#F7F7F7"/>
<path d="M885.002 165H852.002H819.002C819.002 183.23 833.772 198 852.002 198C870.232 198 885.002 183.23 885.002 165Z" fill="#F7F7F7"/>
<path d="M753.002 132C753.002 113.77 738.232 99 720.002 99C701.772 99 687.002 113.77 687.002 132H720.002H753.002Z" fill="#F7F7F7"/>
<path d="M720.002 66C701.772 66 687.002 80.77 687.002 99H720.002H753.002C753.002 80.77 738.232 66 720.002 66Z" fill="#F7F7F7"/>
<path d="M852.002 66C833.772 66 819.002 80.77 819.002 99H852.002H885.002C885.002 80.77 870.232 66 852.002 66Z" fill="#F7F7F7"/>
<path d="M753.002 132H819.002C819.002 113.77 804.232 99 786.002 99C767.772 99 753.002 113.77 753.002 132Z" fill="#F7F7F7"/>
<path d="M786.002 99C804.232 99 819.002 84.23 819.002 66H786.002H753.002C753.002 84.23 767.772 99 786.002 99Z" fill="#F7F7F7"/>
<path d="M753.002 66C771.232 66 786.002 51.23 786.002 33C786.002 14.77 771.232 0 753.002 0V33V66Z" fill="#F7F7F7"/>
<path d="M819.002 33C819.002 14.77 804.232 0 786.002 0V33V66C804.232 66 819.002 51.23 819.002 33Z" fill="#F7F7F7"/>
<path d="M762.702 141.66C759.702 144.65 757.342 148.14 755.602 152.12C753.872 156.11 753.002 160.39 752.992 164.96C752.992 169.54 753.852 173.82 755.572 177.81C757.302 181.8 759.652 185.29 762.642 188.29C765.632 191.28 769.122 193.65 773.102 195.38C777.092 197.11 781.372 197.98 785.952 197.99C790.522 197.99 794.812 197.13 798.802 195.41C802.792 193.68 806.282 191.33 809.282 188.34C812.282 185.35 814.642 181.86 816.382 177.87C818.112 173.88 818.982 169.6 818.992 165.02C818.992 160.45 818.132 156.16 816.412 152.17C814.682 148.18 812.332 144.69 809.342 141.69C806.352 138.69 802.862 136.33 798.882 134.6C794.892 132.86 790.612 131.99 786.032 131.99C781.452 131.99 777.172 132.85 773.182 134.57C769.192 136.31 765.702 138.67 762.702 141.66ZM804.762 146.28L804.722 183.77L767.232 183.73L767.272 146.24L804.762 146.28Z" fill="#F7F7F7"/>
<path d="M720.002 165C720.002 146.77 705.232 132 687.002 132V165V198C705.232 198 720.002 183.23 720.002 165Z" fill="#F7F7F7"/>
<path d="M720.002 198C738.232 198 753.002 183.23 753.002 165C753.002 146.77 738.232 132 720.002 132V165V198Z" fill="#F7F7F7"/>
<path d="M621.002 198V165V132C602.772 132 588.002 146.77 588.002 165C588.002 183.23 602.772 198 621.002 198Z" fill="#F7F7F7"/>
<path d="M588.002 198V165V132C569.772 132 555.002 146.77 555.002 165C555.002 183.23 569.772 198 588.002 198Z" fill="#F7F7F7"/>
<path d="M654.002 165C635.772 165 621.002 179.77 621.002 198H654.002H687.002C687.002 179.77 672.232 165 654.002 165Z" fill="#F7F7F7"/>
<path d="M687.002 165C687.002 146.77 672.232 132 654.002 132C635.772 132 621.002 146.77 621.002 165H654.002H687.002Z" fill="#F7F7F7"/>
<path d="M621.002 330C602.772 330 588.002 344.77 588.002 363C588.002 381.23 602.772 396 621.002 396V363V330Z" fill="#F7F7F7"/>
<path d="M555.002 363C555.002 381.23 569.772 396 588.002 396V363V330C569.772 330 555.002 344.77 555.002 363Z" fill="#F7F7F7"/>
<path d="M687.002 396C687.002 377.77 672.232 363 654.002 363C635.772 363 621.002 377.77 621.002 396H687.002Z" fill="#F7F7F7"/>
<path d="M687.002 363C687.002 344.77 672.232 330 654.002 330C635.772 330 621.002 344.77 621.002 363H654.002H687.002Z" fill="#F7F7F7"/>
<path d="M621.002 66C639.228 66 654.002 51.2254 654.002 33C654.002 14.7746 639.228 0 621.002 0C602.777 0 588.002 14.7746 588.002 33C588.002 51.2254 602.777 66 621.002 66Z" fill="#F7F7F7"/>
<path d="M588.002 0C569.772 0 555.002 14.77 555.002 33C555.002 51.23 569.772 66 588.002 66V33V0Z" fill="#F7F7F7"/>
<path d="M687.002 33C687.002 14.77 672.232 0 654.002 0V33V66C672.232 66 687.002 51.23 687.002 33Z" fill="#F7F7F7"/>
<path d="M654.002 297C672.232 297 687.002 282.23 687.002 264H654.002H621.002C621.002 282.23 635.772 297 654.002 297Z" fill="#F7F7F7"/>
<path d="M687.002 297H654.002H621.002C621.002 315.23 635.772 330 654.002 330C672.232 330 687.002 315.23 687.002 297Z" fill="#F7F7F7"/>
<path d="M588.002 297C569.772 297 555.002 311.77 555.002 330H588.002H621.002C621.002 311.77 606.232 297 588.002 297Z" fill="#F7F7F7"/>
<path d="M588.002 297C606.232 297 621.002 282.23 621.002 264H587.972H555.002C555.002 282.23 569.772 297 588.002 297Z" fill="#F7F7F7"/>
<path d="M630.662 122.3C633.652 125.29 637.142 127.66 641.122 129.39C645.112 131.12 649.392 131.99 653.972 132C658.542 132 662.832 131.14 666.822 129.42C670.812 127.69 674.302 125.34 677.302 122.35C680.302 119.36 682.662 115.87 684.402 111.88C686.132 107.89 687.002 103.61 687.012 99.03C687.012 94.46 686.152 90.17 684.432 86.18C682.702 82.19 680.352 78.7 677.362 75.7C674.372 72.7 670.882 70.34 666.902 68.61C662.912 66.87 658.632 66 654.052 66C649.472 66 645.192 66.86 641.202 68.58C637.212 70.31 633.722 72.66 630.722 75.65C627.722 78.64 625.362 82.13 623.622 86.11C621.892 90.1 621.022 94.38 621.012 98.95C621.012 103.53 621.872 107.81 623.592 111.8C625.312 115.81 627.672 119.3 630.662 122.3ZM635.272 80.24L672.762 80.28L672.722 117.77L635.232 117.73L635.272 80.24Z" fill="#F7F7F7"/>
<path d="M588.002 99C588.002 80.77 573.232 66 555.002 66V99V132C573.232 132 588.002 117.23 588.002 99Z" fill="#F7F7F7"/>
<path d="M621.002 99C621.002 80.77 606.232 66 588.002 66V99V132C606.232 132 621.002 117.23 621.002 99Z" fill="#F7F7F7"/>
<path d="M564.662 254.3C567.652 257.3 571.142 259.66 575.122 261.39C579.112 263.13 583.392 264 587.972 264C592.552 264 596.832 263.14 600.822 261.42C604.812 259.69 608.302 257.34 611.302 254.35C614.302 251.36 616.662 247.87 618.402 243.88C620.132 239.89 621.002 235.61 621.012 231.04C621.012 226.46 620.152 222.18 618.432 218.19C616.702 214.2 614.352 210.71 611.362 207.71C608.372 204.72 604.882 202.35 600.902 200.62C596.912 198.89 592.632 198.02 588.052 198.01C583.472 198.01 579.192 198.87 575.202 200.59C571.212 202.32 567.722 204.67 564.722 207.66C561.722 210.65 559.362 214.14 557.622 218.13C555.892 222.12 555.022 226.4 555.012 230.98C555.012 235.55 555.872 239.84 557.592 243.83C559.312 247.81 561.672 251.3 564.662 254.3ZM569.272 212.24L606.762 212.28L606.722 249.77L569.232 249.73L569.272 212.24Z" fill="#F7F7F7"/>
<path d="M654.002 198C635.772 198 621.002 212.77 621.002 231C621.002 249.23 635.772 264 654.002 264V231V198Z" fill="#F7F7F7"/>
<path d="M720.002 429C701.772 429 687.002 443.77 687.002 462H720.002H753.002C753.002 443.77 738.232 429 720.002 429Z" fill="#F7F7F7"/>
<path d="M687.002 429H720.002H753.002C753.002 410.77 738.232 396 720.002 396C701.772 396 687.002 410.77 687.002 429Z" fill="#F7F7F7"/>
<path d="M720.002 495C720.002 476.77 705.232 462 687.002 462V495V528C705.232 528 720.002 513.23 720.002 495Z" fill="#F7F7F7"/>
<path d="M720.002 528C738.232 528 753.002 513.23 753.002 495C753.002 476.77 738.232 462 720.002 462V495V528Z" fill="#F7F7F7"/>
<path d="M852.002 495C870.228 495 885.002 480.225 885.002 462C885.002 443.775 870.228 429 852.002 429C833.777 429 819.002 443.775 819.002 462C819.002 480.225 833.777 495 852.002 495Z" fill="#F7F7F7"/>
<path d="M819.002 495C819.002 513.23 833.772 528 852.002 528C870.232 528 885.002 513.23 885.002 495H852.002H819.002Z" fill="#F7F7F7"/>
<path d="M786.002 429C767.772 429 753.002 443.77 753.002 462H819.002C819.002 443.77 804.232 429 786.002 429Z" fill="#F7F7F7"/>
<path d="M786.002 429C804.232 429 819.002 414.23 819.002 396H786.002H753.002C753.002 414.23 767.772 429 786.002 429Z" fill="#F7F7F7"/>
<path d="M762.702 471.66C759.702 474.65 757.342 478.14 755.602 482.13C753.872 486.12 753.002 490.4 752.992 494.98C752.992 499.55 753.852 503.84 755.572 507.83C757.302 511.82 759.652 515.31 762.642 518.31C765.632 521.31 769.122 523.67 773.102 525.4C777.092 527.14 781.372 528.01 785.952 528.01C790.532 528.01 794.812 527.15 798.802 525.43C802.792 523.7 806.282 521.35 809.282 518.36C812.282 515.37 814.642 511.88 816.382 507.89C818.112 503.9 818.982 499.62 818.992 495.05C818.992 490.47 818.132 486.19 816.412 482.2C814.682 478.21 812.332 474.72 809.342 471.72C806.352 468.73 802.862 466.36 798.882 464.63C794.892 462.9 790.612 462.03 786.032 462.02C781.452 462.02 777.172 462.88 773.182 464.6C769.192 466.31 765.702 468.67 762.702 471.66ZM804.762 476.27L804.722 513.76L767.232 513.72L767.272 476.23L804.762 476.27Z" fill="#F7F7F7"/>
<path d="M852.002 396C833.772 396 819.002 410.77 819.002 429H852.002H885.002C885.002 410.77 870.232 396 852.002 396Z" fill="#F7F7F7"/>
<path d="M621.002 462C602.772 462 588.002 476.77 588.002 495C588.002 513.23 602.772 528 621.002 528V495V462Z" fill="#F7F7F7"/>
<path d="M555.002 495C555.002 513.23 569.772 528 588.002 528V495V462C569.772 462 555.002 476.77 555.002 495Z" fill="#F7F7F7"/>
<path d="M555.002 396V429V462C573.232 462 588.002 447.23 588.002 429C588.002 410.77 573.232 396 555.002 396Z" fill="#F7F7F7"/>
<path d="M621.002 396C602.772 396 588.002 410.77 588.002 429C588.002 447.23 602.772 462 621.002 462V396Z" fill="#F7F7F7"/>
<path d="M654.002 495C635.772 495 621.002 509.77 621.002 528H654.002H687.002C687.002 509.77 672.232 495 654.002 495Z" fill="#F7F7F7"/>
<path d="M654.002 462C635.772 462 621.002 476.77 621.002 495H654.002H687.002C687.002 476.77 672.232 462 654.002 462Z" fill="#F7F7F7"/>
<path d="M630.702 405.66C627.702 408.65 625.342 412.14 623.602 416.13C621.872 420.12 621.002 424.4 620.992 428.97C620.992 433.55 621.852 437.83 623.572 441.82C625.302 445.81 627.652 449.3 630.642 452.3C633.632 455.29 637.122 457.66 641.102 459.39C645.092 461.12 649.372 461.99 653.952 462C658.522 462 662.812 461.14 666.802 459.42C670.792 457.69 674.282 455.34 677.282 452.35C680.282 449.36 682.642 445.87 684.382 441.89C686.112 437.9 686.982 433.62 686.992 429.04C686.992 424.47 686.132 420.18 684.412 416.19C682.682 412.2 680.332 408.71 677.342 405.71C674.352 402.71 670.862 400.35 666.882 398.62C662.892 396.88 658.612 396.01 654.032 396.01C649.452 396.01 645.172 396.87 641.182 398.59C637.192 400.31 633.702 402.67 630.702 405.66ZM672.762 410.28L672.722 447.77L635.232 447.73L635.272 410.24L672.762 410.28Z" fill="#F7F7F7"/>
<path d="M828.662 386.3C831.652 389.3 835.142 391.66 839.132 393.4C843.122 395.13 847.402 396 851.982 396.01C856.552 396.01 860.842 395.15 864.832 393.43C868.822 391.7 872.312 389.35 875.312 386.36C878.312 383.37 880.672 379.88 882.402 375.9C884.142 371.91 885.012 367.63 885.012 363.05C885.012 358.47 884.152 354.19 882.432 350.2C880.702 346.21 878.352 342.72 875.362 339.72C872.372 336.72 868.882 334.36 864.902 332.62C860.912 330.89 856.632 330.02 852.062 330.01C847.482 330.01 843.202 330.87 839.212 332.59C835.222 334.32 831.732 336.67 828.732 339.66C825.742 342.65 823.372 346.14 821.642 350.12C819.912 354.11 819.042 358.39 819.032 362.97C819.032 367.54 819.892 371.83 821.612 375.82C823.312 379.81 825.672 383.3 828.662 386.3ZM833.272 344.24L870.762 344.28L870.722 381.77L833.232 381.73L833.272 344.24Z" fill="#F7F7F7"/>
<path d="M885.002 264V198C866.772 198 852.002 212.77 852.002 231C852.002 249.23 866.772 264 885.002 264Z" fill="#F7F7F7"/>
<path d="M852.002 264V231V198C833.772 198 819.002 212.77 819.002 231C819.002 249.23 833.772 264 852.002 264Z" fill="#F7F7F7"/>
<path d="M753.002 396C771.228 396 786.002 381.225 786.002 363C786.002 344.775 771.228 330 753.002 330C734.777 330 720.002 344.775 720.002 363C720.002 381.225 734.777 396 753.002 396Z" fill="#F7F7F7"/>
<path d="M687.002 363C687.002 381.23 701.772 396 720.002 396V363V330C701.772 330 687.002 344.77 687.002 363Z" fill="#F7F7F7"/>
<path d="M753.002 264C771.232 264 786.002 249.23 786.002 231C786.002 212.77 771.232 198 753.002 198V231V264Z" fill="#F7F7F7"/>
<path d="M819.002 231C819.002 212.77 804.232 198 786.002 198V231V264C804.232 264 819.002 249.23 819.002 231Z" fill="#F7F7F7"/>
<path d="M819.002 363C819.002 344.77 804.232 330 786.002 330V363V396C804.232 396 819.002 381.23 819.002 363Z" fill="#F7F7F7"/>
<path d="M753.002 330C771.232 330 786.002 315.23 786.002 297C786.002 278.77 771.232 264 753.002 264V330Z" fill="#F7F7F7"/>
<path d="M819.002 330V297V264C800.772 264 786.002 278.77 786.002 297C786.002 315.23 800.772 330 819.002 330Z" fill="#F7F7F7"/>
<path d="M852.002 297C870.232 297 885.002 282.23 885.002 264H852.002H819.002C819.002 282.23 833.772 297 852.002 297Z" fill="#F7F7F7"/>
<path d="M852.002 330C870.232 330 885.002 315.23 885.002 297H852.002H819.002C819.002 315.23 833.772 330 852.002 330Z" fill="#F7F7F7"/>
<path d="M743.342 273.7C740.352 270.7 736.862 268.34 732.882 266.6C728.892 264.87 724.612 264 720.042 263.99C715.462 263.99 711.182 264.85 707.192 266.57C703.202 268.3 699.712 270.65 696.712 273.64C693.722 276.63 691.352 280.12 689.622 284.1C687.892 288.09 687.022 292.37 687.012 296.95C687.012 301.52 687.872 305.81 689.592 309.8C691.322 313.79 693.672 317.28 696.662 320.28C699.652 323.28 703.142 325.64 707.132 327.38C711.122 329.11 715.402 329.98 719.982 329.99C724.552 329.99 728.842 329.13 732.832 327.41C736.822 325.68 740.312 323.33 743.312 320.34C746.312 317.35 748.672 313.86 750.402 309.88C752.142 305.89 753.012 301.61 753.012 297.03C753.012 292.45 752.152 288.17 750.432 284.18C748.692 280.19 746.332 276.7 743.342 273.7ZM738.722 315.76L701.232 315.72L701.272 278.23L738.762 278.27L738.722 315.76Z" fill="#F7F7F7"/>
<path d="M654.002 231C654.002 249.23 668.772 264 687.002 264V231C687.002 249.22 701.782 264 720.002 264C738.232 264 753.002 249.23 753.002 231H720.002H687.002V198C687.002 216.22 701.782 231 720.002 231C738.232 231 753.002 216.23 753.002 198H720.002H687.002C668.772 198 654.002 212.77 654.002 231Z" fill="#F7F7F7"/>
<path d="M621.002 660C602.772 660 588.002 674.77 588.002 693C588.002 711.23 602.772 726 621.002 726V693V660Z" fill="#F7F7F7"/>
<path d="M555.002 693C555.002 711.23 569.772 726 588.002 726V693V660C569.772 660 555.002 674.77 555.002 693Z" fill="#F7F7F7"/>
<path d="M621.002 726H687.002C687.002 707.77 672.232 693 654.002 693C635.772 693 621.002 707.77 621.002 726Z" fill="#F7F7F7"/>
<path d="M654.002 660C635.772 660 621.002 674.77 621.002 693H654.002H687.002C687.002 674.77 672.232 660 654.002 660Z" fill="#F7F7F7"/>
<path d="M621.002 594C621.002 612.23 635.772 627 654.002 627C672.232 627 687.002 612.23 687.002 594H654.002H621.002Z" fill="#F7F7F7"/>
<path d="M654.002 660C672.232 660 687.002 645.23 687.002 627H654.002H621.002C621.002 645.23 635.772 660 654.002 660Z" fill="#F7F7F7"/>
<path d="M588.002 627C569.772 627 555.002 641.77 555.002 660H588.002H621.002C621.002 641.77 606.232 627 588.002 627Z" fill="#F7F7F7"/>
<path d="M621.002 594H587.972H555.002C555.002 612.23 569.772 627 588.002 627C606.232 627 621.002 612.23 621.002 594Z" fill="#F7F7F7"/>
<path d="M611.302 584.34C614.302 581.35 616.662 577.86 618.402 573.87C620.132 569.88 621.002 565.6 621.012 561.03C621.012 556.45 620.152 552.17 618.432 548.18C616.702 544.19 614.352 540.7 611.362 537.7C608.372 534.71 604.882 532.34 600.902 530.61C596.912 528.88 592.632 528.01 588.052 528C583.472 528 579.192 528.86 575.202 530.58C571.212 532.31 567.722 534.66 564.722 537.65C561.722 540.64 559.362 544.13 557.622 548.12C555.892 552.11 555.022 556.39 555.012 560.97C555.012 565.54 555.872 569.83 557.592 573.82C559.322 577.81 561.672 581.3 564.662 584.3C567.652 587.3 571.142 589.66 575.122 591.39C579.112 593.13 583.392 594 587.972 594C592.552 594 596.832 593.14 600.822 591.42C604.812 589.69 608.302 587.33 611.302 584.34ZM569.242 579.72L569.282 542.23L606.772 542.27L606.732 579.76L569.242 579.72Z" fill="#F7F7F7"/>
<path d="M621.002 561C621.002 579.23 635.772 594 654.002 594V561V528C635.772 528 621.002 542.77 621.002 561Z" fill="#F7F7F7"/>
<path d="M875.342 669.7C872.352 666.7 868.862 664.34 864.882 662.6C860.892 660.87 856.612 660 852.042 659.99C847.462 659.99 843.182 660.85 839.192 662.57C835.202 664.3 831.712 666.65 828.712 669.64C825.722 672.63 823.352 676.12 821.622 680.1C819.892 684.09 819.022 688.37 819.012 692.95C819.012 697.52 819.872 701.81 821.592 705.8C823.322 709.79 825.672 713.28 828.662 716.28C831.652 719.28 835.142 721.64 839.132 723.38C843.122 725.11 847.402 725.98 851.982 725.99C856.552 725.99 860.842 725.13 864.832 723.41C868.822 721.68 872.312 719.33 875.312 716.34C878.312 713.35 880.672 709.86 882.402 705.88C884.142 701.89 885.012 697.61 885.012 693.03C885.012 688.45 884.152 684.17 882.432 680.18C880.692 676.19 878.332 672.7 875.342 669.7ZM870.722 711.76L833.232 711.72L833.272 674.23L870.762 674.27L870.722 711.76Z" fill="#F7F7F7"/>
<path d="M885.002 528C866.772 528 852.002 542.77 852.002 561C852.002 579.23 866.772 594 885.002 594V528Z" fill="#F7F7F7"/>
<path d="M819.002 561C819.002 579.23 833.772 594 852.002 594V561V528C833.772 528 819.002 542.77 819.002 561Z" fill="#F7F7F7"/>
<path d="M753.002 726C771.228 726 786.002 711.225 786.002 693C786.002 674.775 771.228 660 753.002 660C734.777 660 720.002 674.775 720.002 693C720.002 711.225 734.777 726 753.002 726Z" fill="#F7F7F7"/>
<path d="M687.002 693C687.002 711.23 701.772 726 720.002 726V693V660C701.772 660 687.002 674.77 687.002 693Z" fill="#F7F7F7"/>
<path d="M753.002 528V561V594C771.232 594 786.002 579.23 786.002 561C786.002 542.77 771.232 528 753.002 528Z" fill="#F7F7F7"/>
<path d="M786.002 528V561V594C804.232 594 819.002 579.23 819.002 561C819.002 542.77 804.232 528 786.002 528Z" fill="#F7F7F7"/>
<path d="M819.002 693C819.002 674.77 804.232 660 786.002 660V693V726C804.232 726 819.002 711.23 819.002 693Z" fill="#F7F7F7"/>
<path d="M753.002 594V660C771.232 660 786.002 645.23 786.002 627C786.002 608.77 771.232 594 753.002 594Z" fill="#F7F7F7"/>
<path d="M786.002 627C786.002 645.23 800.772 660 819.002 660V627V594C800.772 594 786.002 608.77 786.002 627Z" fill="#F7F7F7"/>
<path d="M819.002 594C819.002 612.23 833.772 627 852.002 627C870.232 627 885.002 612.23 885.002 594H852.002H819.002Z" fill="#F7F7F7"/>
<path d="M852.002 660C870.232 660 885.002 645.23 885.002 627H852.002H819.002C819.002 645.23 833.772 660 852.002 660Z" fill="#F7F7F7"/>
<path d="M743.342 603.7C740.352 600.7 736.862 598.34 732.882 596.6C728.892 594.87 724.612 594 720.042 593.99C715.462 593.99 711.182 594.85 707.192 596.57C703.202 598.3 699.712 600.65 696.712 603.64C693.722 606.63 691.352 610.12 689.622 614.1C687.892 618.09 687.022 622.37 687.012 626.95C687.012 631.52 687.872 635.81 689.592 639.8C691.322 643.79 693.672 647.28 696.662 650.28C699.652 653.28 703.142 655.64 707.132 657.38C711.122 659.11 715.402 659.98 719.982 659.99C724.552 659.99 728.842 659.13 732.832 657.41C736.822 655.68 740.312 653.33 743.312 650.34C746.312 647.35 748.672 643.86 750.402 639.88C752.142 635.89 753.012 631.61 753.012 627.03C753.012 622.45 752.152 618.17 750.432 614.18C748.692 610.19 746.332 606.7 743.342 603.7ZM738.722 645.76L701.232 645.72L701.272 608.23L738.762 608.27L738.722 645.76Z" fill="#F7F7F7"/>
<path d="M687.002 561V528C687.002 546.22 701.782 561 720.002 561C738.232 561 753.002 546.23 753.002 528H720.002H687.002C668.772 528 654.002 542.77 654.002 561C654.002 579.23 668.772 594 687.002 594V561C687.002 579.23 701.782 594 720.002 594C738.232 594 753.002 579.23 753.002 561H720.002H687.002Z" fill="#F7F7F7"/>
<path d="M1158.66 56.3C1161.65 59.29 1165.14 61.66 1169.12 63.39C1173.11 65.12 1177.39 65.99 1181.97 66C1186.54 66 1190.83 65.14 1194.82 63.42C1198.81 61.69 1202.3 59.34 1205.3 56.35C1208.3 53.36 1210.66 49.87 1212.4 45.88C1214.13 41.89 1215 37.61 1215.01 33.03C1215.01 28.46 1214.15 24.17 1212.43 20.18C1210.7 16.19 1208.35 12.7 1205.36 9.7C1202.37 6.7 1198.88 4.34 1194.9 2.61C1190.91 0.87 1186.63 0 1182.05 0C1177.47 0 1173.19 0.86 1169.2 2.58C1165.21 4.31 1161.72 6.66 1158.72 9.65C1155.72 12.64 1153.36 16.13 1151.62 20.11C1149.89 24.1 1149.02 28.38 1149.01 32.95C1149.01 37.53 1149.87 41.81 1151.59 45.8C1153.31 49.81 1155.67 53.3 1158.66 56.3ZM1163.27 14.24L1200.76 14.28L1200.72 51.77L1163.23 51.73L1163.27 14.24Z" fill="#F7F7F7"/>
<path d="M1083 0H1017C1017 18.23 1031.77 33 1050 33C1068.23 33 1083 18.23 1083 0Z" fill="#F7F7F7"/>
<path d="M1050 66C1068.23 66 1083 51.23 1083 33H1050H1017C1017 51.23 1031.77 66 1050 66Z" fill="#F7F7F7"/>
<path d="M1182 165C1200.23 165 1215 150.225 1215 132C1215 113.775 1200.23 99 1182 99C1163.78 99 1149 113.775 1149 132C1149 150.225 1163.78 165 1182 165Z" fill="#F7F7F7"/>
<path d="M1215 165H1182H1149C1149 183.23 1163.77 198 1182 198C1200.23 198 1215 183.23 1215 165Z" fill="#F7F7F7"/>
<path d="M1083 132C1083 113.77 1068.23 99 1050 99C1031.77 99 1017 113.77 1017 132H1050H1083Z" fill="#F7F7F7"/>
<path d="M1050 66C1031.77 66 1017 80.77 1017 99H1050H1083C1083 80.77 1068.23 66 1050 66Z" fill="#F7F7F7"/>
<path d="M1182 66C1163.77 66 1149 80.77 1149 99H1182H1215C1215 80.77 1200.23 66 1182 66Z" fill="#F7F7F7"/>
<path d="M1083 132H1149C1149 113.77 1134.23 99 1116 99C1097.77 99 1083 113.77 1083 132Z" fill="#F7F7F7"/>
<path d="M1116 99C1134.23 99 1149 84.23 1149 66H1116H1083C1083 84.23 1097.77 99 1116 99Z" fill="#F7F7F7"/>
<path d="M1083 66C1101.23 66 1116 51.23 1116 33C1116 14.77 1101.23 0 1083 0V33V66Z" fill="#F7F7F7"/>
<path d="M1149 33C1149 14.77 1134.23 0 1116 0V33V66C1134.23 66 1149 51.23 1149 33Z" fill="#F7F7F7"/>
<path d="M1092.7 141.66C1089.7 144.65 1087.34 148.14 1085.6 152.12C1083.87 156.11 1083 160.39 1082.99 164.96C1082.99 169.54 1083.85 173.82 1085.57 177.81C1087.3 181.8 1089.65 185.29 1092.64 188.29C1095.63 191.28 1099.12 193.65 1103.1 195.38C1107.09 197.11 1111.37 197.98 1115.95 197.99C1120.52 197.99 1124.81 197.13 1128.8 195.41C1132.79 193.68 1136.28 191.33 1139.28 188.34C1142.28 185.35 1144.64 181.86 1146.38 177.87C1148.11 173.88 1148.98 169.6 1148.99 165.02C1148.99 160.45 1148.13 156.16 1146.41 152.17C1144.68 148.18 1142.33 144.69 1139.34 141.69C1136.35 138.69 1132.86 136.33 1128.88 134.6C1124.89 132.86 1120.61 131.99 1116.03 131.99C1111.45 131.99 1107.17 132.85 1103.18 134.57C1099.19 136.31 1095.7 138.67 1092.7 141.66ZM1134.76 146.28L1134.72 183.77L1097.23 183.73L1097.27 146.24L1134.76 146.28Z" fill="#F7F7F7"/>
<path d="M1050 165C1050 146.77 1035.23 132 1017 132V165V198C1035.23 198 1050 183.23 1050 165Z" fill="#F7F7F7"/>
<path d="M1050 198C1068.23 198 1083 183.23 1083 165C1083 146.77 1068.23 132 1050 132V165V198Z" fill="#F7F7F7"/>
<path d="M951.002 198V165V132C932.772 132 918.002 146.77 918.002 165C918.002 183.23 932.772 198 951.002 198Z" fill="#F7F7F7"/>
<path d="M918.002 198V165V132C899.772 132 885.002 146.77 885.002 165C885.002 183.23 899.772 198 918.002 198Z" fill="#F7F7F7"/>
<path d="M984.002 165C965.772 165 951.002 179.77 951.002 198H984.002H1017C1017 179.77 1002.23 165 984.002 165Z" fill="#F7F7F7"/>
<path d="M1017 165C1017 146.77 1002.23 132 984.002 132C965.772 132 951.002 146.77 951.002 165H984.002H1017Z" fill="#F7F7F7"/>
<path d="M951.002 330C932.772 330 918.002 344.77 918.002 363C918.002 381.23 932.772 396 951.002 396V363V330Z" fill="#F7F7F7"/>
<path d="M885.002 363C885.002 381.23 899.772 396 918.002 396V363V330C899.772 330 885.002 344.77 885.002 363Z" fill="#F7F7F7"/>
<path d="M1017 396C1017 377.77 1002.23 363 984.002 363C965.772 363 951.002 377.77 951.002 396H1017Z" fill="#F7F7F7"/>
<path d="M1017 363C1017 344.77 1002.23 330 984.002 330C965.772 330 951.002 344.77 951.002 363H984.002H1017Z" fill="#F7F7F7"/>
<path d="M951.002 66C969.228 66 984.002 51.2254 984.002 33C984.002 14.7746 969.228 0 951.002 0C932.777 0 918.002 14.7746 918.002 33C918.002 51.2254 932.777 66 951.002 66Z" fill="#F7F7F7"/>
<path d="M918.002 0C899.772 0 885.002 14.77 885.002 33C885.002 51.23 899.772 66 918.002 66V33V0Z" fill="#F7F7F7"/>
<path d="M1017 33C1017 14.77 1002.23 0 984.002 0V33V66C1002.23 66 1017 51.23 1017 33Z" fill="#F7F7F7"/>
<path d="M984.002 297C1002.23 297 1017 282.23 1017 264H984.002H951.002C951.002 282.23 965.772 297 984.002 297Z" fill="#F7F7F7"/>
<path d="M1017 297H984.002H951.002C951.002 315.23 965.772 330 984.002 330C1002.23 330 1017 315.23 1017 297Z" fill="#F7F7F7"/>
<path d="M918.002 297C899.772 297 885.002 311.77 885.002 330H918.002H951.002C951.002 311.77 936.232 297 918.002 297Z" fill="#F7F7F7"/>
<path d="M918.002 297C936.232 297 951.002 282.23 951.002 264H917.972H885.002C885.002 282.23 899.772 297 918.002 297Z" fill="#F7F7F7"/>
<path d="M960.662 122.3C963.652 125.29 967.142 127.66 971.122 129.39C975.112 131.12 979.392 131.99 983.972 132C988.552 132 992.832 131.14 996.822 129.42C1000.81 127.69 1004.3 125.34 1007.3 122.35C1010.3 119.36 1012.66 115.87 1014.4 111.88C1016.13 107.89 1017 103.61 1017.01 99.03C1017.01 94.46 1016.15 90.17 1014.43 86.18C1012.7 82.19 1010.35 78.7 1007.36 75.7C1004.37 72.7 1000.88 70.34 996.902 68.61C992.912 66.87 988.632 66 984.052 66C979.472 66 975.192 66.86 971.202 68.58C967.212 70.31 963.722 72.66 960.722 75.65C957.722 78.64 955.362 82.13 953.622 86.11C951.892 90.1 951.022 94.38 951.012 98.95C951.012 103.53 951.872 107.81 953.592 111.8C955.312 115.81 957.672 119.3 960.662 122.3ZM965.272 80.24L1002.76 80.28L1002.72 117.77L965.232 117.73L965.272 80.24Z" fill="#F7F7F7"/>
<path d="M918.002 99C918.002 80.77 903.232 66 885.002 66V99V132C903.232 132 918.002 117.23 918.002 99Z" fill="#F7F7F7"/>
<path d="M951.002 99C951.002 80.77 936.232 66 918.002 66V99V132C936.232 132 951.002 117.23 951.002 99Z" fill="#F7F7F7"/>
<path d="M894.662 254.3C897.652 257.3 901.142 259.66 905.122 261.39C909.112 263.13 913.392 264 917.972 264C922.552 264 926.832 263.14 930.822 261.42C934.812 259.69 938.302 257.34 941.302 254.35C944.302 251.36 946.662 247.87 948.402 243.88C950.132 239.89 951.002 235.61 951.012 231.04C951.012 226.46 950.152 222.18 948.432 218.19C946.702 214.2 944.352 210.71 941.362 207.71C938.372 204.72 934.882 202.35 930.902 200.62C926.912 198.89 922.632 198.02 918.052 198.01C913.472 198.01 909.192 198.87 905.202 200.59C901.212 202.32 897.722 204.67 894.722 207.66C891.722 210.65 889.362 214.14 887.622 218.13C885.892 222.12 885.022 226.4 885.012 230.98C885.012 235.55 885.872 239.84 887.592 243.83C889.312 247.81 891.672 251.3 894.662 254.3ZM899.272 212.24L936.762 212.28L936.722 249.77L899.232 249.73L899.272 212.24Z" fill="#F7F7F7"/>
<path d="M984.002 231C984.002 249.23 998.772 264 1017 264V231V198C998.772 198 984.002 212.77 984.002 231Z" fill="#F7F7F7"/>
<path d="M984.002 198C965.772 198 951.002 212.77 951.002 231C951.002 249.23 965.772 264 984.002 264V231V198Z" fill="#F7F7F7"/>
<path d="M1050 429C1031.77 429 1017 443.77 1017 462H1050H1083C1083 443.77 1068.23 429 1050 429Z" fill="#F7F7F7"/>
<path d="M1017 429H1050H1083C1083 410.77 1068.23 396 1050 396C1031.77 396 1017 410.77 1017 429Z" fill="#F7F7F7"/>
<path d="M1050 495C1050 476.77 1035.23 462 1017 462V495V528C1035.23 528 1050 513.23 1050 495Z" fill="#F7F7F7"/>
<path d="M1050 528C1068.23 528 1083 513.23 1083 495C1083 476.77 1068.23 462 1050 462V495V528Z" fill="#F7F7F7"/>
<path d="M1182 495C1200.23 495 1215 480.225 1215 462C1215 443.775 1200.23 429 1182 429C1163.78 429 1149 443.775 1149 462C1149 480.225 1163.78 495 1182 495Z" fill="#F7F7F7"/>
<path d="M1149 495C1149 513.23 1163.77 528 1182 528C1200.23 528 1215 513.23 1215 495H1182H1149Z" fill="#F7F7F7"/>
<path d="M1083 462H1149C1149 443.77 1134.23 429 1116 429C1097.77 429 1083 443.77 1083 462Z" fill="#F7F7F7"/>
<path d="M1116 429C1134.23 429 1149 414.23 1149 396H1116H1083C1083 414.23 1097.77 429 1116 429Z" fill="#F7F7F7"/>
<path d="M1092.7 471.66C1089.7 474.65 1087.34 478.14 1085.6 482.13C1083.87 486.12 1083 490.4 1082.99 494.98C1082.99 499.55 1083.85 503.84 1085.57 507.83C1087.3 511.82 1089.65 515.31 1092.64 518.31C1095.63 521.31 1099.12 523.67 1103.1 525.4C1107.09 527.14 1111.37 528.01 1115.95 528.01C1120.53 528.01 1124.81 527.15 1128.8 525.43C1132.79 523.7 1136.28 521.35 1139.28 518.36C1142.28 515.37 1144.64 511.88 1146.38 507.89C1148.12 503.9 1148.98 499.62 1148.99 495.05C1148.99 490.47 1148.13 486.19 1146.41 482.2C1144.68 478.21 1142.33 474.72 1139.34 471.72C1136.35 468.73 1132.86 466.36 1128.88 464.63C1124.89 462.9 1120.61 462.03 1116.03 462.02C1111.45 462.02 1107.17 462.88 1103.18 464.6C1099.19 466.31 1095.7 468.67 1092.7 471.66ZM1134.76 476.27L1134.72 513.76L1097.23 513.72L1097.27 476.23L1134.76 476.27Z" fill="#F7F7F7"/>
<path d="M1182 396C1163.77 396 1149 410.77 1149 429H1182H1215C1215 410.77 1200.23 396 1182 396Z" fill="#F7F7F7"/>
<path d="M951.002 462C932.772 462 918.002 476.77 918.002 495C918.002 513.23 932.772 528 951.002 528V495V462Z" fill="#F7F7F7"/>
<path d="M885.002 495C885.002 513.23 899.772 528 918.002 528V495V462C899.772 462 885.002 476.77 885.002 495Z" fill="#F7F7F7"/>
<path d="M951.002 396C932.782 396 918.002 410.77 918.002 429C918.002 410.78 903.222 396 885.002 396V429V462C903.222 462 918.002 447.23 918.002 429C918.002 447.22 932.782 462 951.002 462V396Z" fill="#F7F7F7"/>
<path d="M984.002 495C965.772 495 951.002 509.77 951.002 528H984.002H1017C1017 509.77 1002.23 495 984.002 495Z" fill="#F7F7F7"/>
<path d="M984.002 462C965.772 462 951.002 476.77 951.002 495H984.002H1017C1017 476.77 1002.23 462 984.002 462Z" fill="#F7F7F7"/>
<path d="M960.702 405.66C957.702 408.65 955.342 412.14 953.602 416.13C951.872 420.12 951.002 424.4 950.992 428.97C950.992 433.55 951.852 437.83 953.572 441.82C955.302 445.81 957.652 449.3 960.642 452.3C963.632 455.29 967.122 457.66 971.102 459.39C975.092 461.12 979.372 461.99 983.952 462C988.532 462 992.812 461.14 996.802 459.42C1000.79 457.69 1004.28 455.34 1007.28 452.35C1010.28 449.36 1012.64 445.87 1014.38 441.89C1016.11 437.9 1016.98 433.62 1016.99 429.04C1016.99 424.47 1016.13 420.18 1014.41 416.19C1012.68 412.2 1010.33 408.71 1007.34 405.71C1004.35 402.71 1000.86 400.35 996.882 398.62C992.892 396.88 988.612 396.01 984.032 396.01C979.452 396.01 975.172 396.87 971.182 398.59C967.192 400.31 963.702 402.67 960.702 405.66ZM1002.76 410.28L1002.72 447.77L965.232 447.73L965.272 410.24L1002.76 410.28Z" fill="#F7F7F7"/>
<path d="M1205.34 339.7C1202.35 336.7 1198.86 334.34 1194.87 332.6C1190.88 330.87 1186.6 330 1182.03 329.99C1177.45 329.99 1173.17 330.85 1169.18 332.57C1165.19 334.3 1161.7 336.65 1158.7 339.64C1155.71 342.63 1153.34 346.12 1151.61 350.1C1149.88 354.09 1149.01 358.37 1149 362.95C1149 367.52 1149.86 371.81 1151.58 375.8C1153.31 379.79 1155.66 383.28 1158.65 386.28C1161.64 389.28 1165.13 391.64 1169.11 393.38C1173.1 395.11 1177.38 395.98 1181.96 395.99C1186.53 395.99 1190.82 395.13 1194.81 393.41C1198.8 391.68 1202.29 389.33 1205.29 386.34C1208.29 383.35 1210.65 379.86 1212.38 375.88C1214.12 371.89 1214.99 367.61 1214.99 363.03C1214.99 358.45 1214.13 354.17 1212.41 350.18C1210.69 346.19 1208.33 342.7 1205.34 339.7ZM1200.72 381.76L1163.23 381.72L1163.27 344.23L1200.76 344.27L1200.72 381.76Z" fill="#F7F7F7"/>
<path d="M1215 264V198C1196.77 198 1182 212.77 1182 231C1182 249.23 1196.77 264 1215 264Z" fill="#F7F7F7"/>
<path d="M1182 264V231V198C1163.77 198 1149 212.77 1149 231C1149 249.23 1163.77 264 1182 264Z" fill="#F7F7F7"/>
<path d="M1050 396V363V330C1031.77 330 1017 344.77 1017 363C1017 381.23 1031.77 396 1050 396Z" fill="#F7F7F7"/>
<path d="M1083 264C1101.23 264 1116 249.23 1116 231C1116 212.77 1101.23 198 1083 198V231V264Z" fill="#F7F7F7"/>
<path d="M1149 231C1149 212.77 1134.23 198 1116 198V231V264C1134.23 264 1149 249.23 1149 231Z" fill="#F7F7F7"/>
<path d="M1083 396C1101.23 396 1116 381.225 1116 363C1116 344.775 1101.23 330 1083 330C1064.78 330 1050 344.775 1050 363C1050 381.225 1064.78 396 1083 396Z" fill="#F7F7F7"/>
<path d="M1149 363C1149 344.77 1134.23 330 1116 330V363V396C1134.23 396 1149 381.23 1149 363Z" fill="#F7F7F7"/>
<path d="M1083 330C1101.22 330 1116 315.23 1116 297C1116 315.22 1130.78 330 1149 330V297V264C1130.78 264 1116 278.77 1116 297C1116 278.78 1101.22 264 1083 264V330Z" fill="#F7F7F7"/>
<path d="M1182 297C1200.23 297 1215 282.23 1215 264H1182H1149C1149 282.23 1163.77 297 1182 297Z" fill="#F7F7F7"/>
<path d="M1182 330C1200.23 330 1215 315.23 1215 297H1182H1149C1149 315.23 1163.77 330 1182 330Z" fill="#F7F7F7"/>
<path d="M1073.34 273.7C1070.35 270.7 1066.86 268.34 1062.87 266.6C1058.88 264.87 1054.6 264 1050.03 263.99C1045.45 263.99 1041.17 264.85 1037.18 266.57C1033.19 268.3 1029.7 270.65 1026.7 273.64C1023.71 276.63 1021.34 280.12 1019.61 284.1C1017.88 288.09 1017.01 292.37 1017 296.95C1017 301.52 1017.86 305.81 1019.58 309.8C1021.31 313.79 1023.66 317.28 1026.65 320.28C1029.64 323.28 1033.13 325.64 1037.11 327.38C1041.1 329.11 1045.38 329.98 1049.96 329.99C1054.53 329.99 1058.82 329.13 1062.81 327.41C1066.8 325.68 1070.29 323.33 1073.29 320.34C1076.29 317.35 1078.65 313.86 1080.38 309.88C1082.12 305.89 1082.99 301.61 1082.99 297.03C1082.99 292.45 1082.13 288.17 1080.41 284.18C1078.69 280.19 1076.33 276.7 1073.34 273.7ZM1068.72 315.76L1031.23 315.72L1031.27 278.23L1068.76 278.27L1068.72 315.76Z" fill="#F7F7F7"/>
<path d="M1050 231C1068.23 231 1083 216.23 1083 198H1050H1017C1017 216.23 1031.77 231 1050 231Z" fill="#F7F7F7"/>
<path d="M1050 264C1068.23 264 1083 249.23 1083 231H1050H1017C1017 249.23 1031.77 264 1050 264Z" fill="#F7F7F7"/>
<path d="M951.002 660C932.772 660 918.002 674.77 918.002 693C918.002 711.23 932.772 726 951.002 726V693V660Z" fill="#F7F7F7"/>
<path d="M885.002 693C885.002 711.23 899.772 726 918.002 726V693V660C899.772 660 885.002 674.77 885.002 693Z" fill="#F7F7F7"/>
<path d="M951.002 726H1017C1017 707.77 1002.23 693 984.002 693C965.772 693 951.002 707.77 951.002 726Z" fill="#F7F7F7"/>
<path d="M984.002 660C965.772 660 951.002 674.77 951.002 693H984.002H1017C1017 674.77 1002.23 660 984.002 660Z" fill="#F7F7F7"/>
<path d="M951.002 594C951.002 612.23 965.772 627 984.002 627C1002.23 627 1017 612.23 1017 594H984.002H951.002Z" fill="#F7F7F7"/>
<path d="M984.002 660C1002.23 660 1017 645.23 1017 627H984.002H951.002C951.002 645.23 965.772 660 984.002 660Z" fill="#F7F7F7"/>
<path d="M918.002 627C899.772 627 885.002 641.77 885.002 660H918.002H951.002C951.002 641.77 936.232 627 918.002 627Z" fill="#F7F7F7"/>
<path d="M951.002 594H917.972H885.002C885.002 612.23 899.772 627 918.002 627C936.232 627 951.002 612.23 951.002 594Z" fill="#F7F7F7"/>
<path d="M941.302 584.34C944.302 581.35 946.662 577.86 948.402 573.87C950.132 569.88 951.002 565.6 951.012 561.03C951.012 556.45 950.152 552.17 948.432 548.18C946.702 544.19 944.352 540.7 941.362 537.7C938.372 534.71 934.882 532.34 930.902 530.61C926.912 528.88 922.632 528.01 918.052 528C913.472 528 909.192 528.86 905.202 530.58C901.212 532.31 897.722 534.66 894.722 537.65C891.722 540.64 889.362 544.13 887.622 548.12C885.892 552.11 885.022 556.39 885.012 560.97C885.012 565.54 885.872 569.83 887.592 573.82C889.322 577.81 891.672 581.3 894.662 584.3C897.652 587.3 901.142 589.66 905.122 591.39C909.112 593.13 913.392 594 917.972 594C922.552 594 926.832 593.14 930.822 591.42C934.812 589.69 938.302 587.33 941.302 584.34ZM899.242 579.72L899.282 542.23L936.772 542.27L936.732 579.76L899.242 579.72Z" fill="#F7F7F7"/>
<path d="M984.002 561C984.002 579.23 998.772 594 1017 594V561V528C998.772 528 984.002 542.77 984.002 561Z" fill="#F7F7F7"/>
<path d="M951.002 561C951.002 579.23 965.772 594 984.002 594V561V528C965.772 528 951.002 542.77 951.002 561Z" fill="#F7F7F7"/>
<path d="M1205.34 669.7C1202.35 666.7 1198.86 664.34 1194.87 662.6C1190.88 660.87 1186.6 660 1182.03 659.99C1177.45 659.99 1173.17 660.85 1169.18 662.57C1165.19 664.3 1161.7 666.65 1158.7 669.64C1155.71 672.63 1153.34 676.12 1151.61 680.1C1149.88 684.09 1149.01 688.37 1149 692.95C1149 697.52 1149.86 701.81 1151.58 705.8C1153.31 709.79 1155.66 713.28 1158.65 716.28C1161.64 719.28 1165.13 721.64 1169.11 723.38C1173.1 725.11 1177.38 725.98 1181.96 725.99C1186.53 725.99 1190.82 725.13 1194.81 723.41C1198.8 721.68 1202.29 719.33 1205.29 716.34C1208.29 713.35 1210.65 709.86 1212.38 705.88C1214.12 701.89 1214.99 697.61 1214.99 693.03C1214.99 688.45 1214.13 684.17 1212.41 680.18C1210.69 676.19 1208.33 672.7 1205.34 669.7ZM1200.72 711.76L1163.23 711.72L1163.27 674.23L1200.76 674.27L1200.72 711.76Z" fill="#F7F7F7"/>
<path d="M1215 528C1196.77 528 1182 542.77 1182 561C1182 579.23 1196.77 594 1215 594V528Z" fill="#F7F7F7"/>
<path d="M1149 561C1149 579.23 1163.77 594 1182 594V561V528C1163.77 528 1149 542.77 1149 561Z" fill="#F7F7F7"/>
<path d="M1083 726C1101.23 726 1116 711.225 1116 693C1116 674.775 1101.23 660 1083 660C1064.78 660 1050 674.775 1050 693C1050 711.225 1064.78 726 1083 726Z" fill="#F7F7F7"/>
<path d="M1017 693C1017 711.23 1031.77 726 1050 726V693V660C1031.77 660 1017 674.77 1017 693Z" fill="#F7F7F7"/>
<path d="M1116 561C1116 542.77 1101.23 528 1083 528V561V594C1101.23 594 1116 579.23 1116 561Z" fill="#F7F7F7"/>
<path d="M1116 528V561V594C1134.23 594 1149 579.23 1149 561C1149 542.77 1134.23 528 1116 528Z" fill="#F7F7F7"/>
<path d="M1149 693C1149 674.77 1134.23 660 1116 660V693V726C1134.23 726 1149 711.23 1149 693Z" fill="#F7F7F7"/>
<path d="M1116 627C1116 608.78 1101.22 594 1083 594V660C1101.22 660 1116 645.23 1116 627C1116 645.23 1130.78 660 1149 660V627V594C1130.78 594 1116 608.77 1116 627Z" fill="#F7F7F7"/>
<path d="M1149 594C1149 612.23 1163.77 627 1182 627C1200.23 627 1215 612.23 1215 594H1182H1149Z" fill="#F7F7F7"/>
<path d="M1182 660C1200.23 660 1215 645.23 1215 627H1182H1149C1149 645.23 1163.77 660 1182 660Z" fill="#F7F7F7"/>
<path d="M1073.34 603.7C1070.35 600.7 1066.86 598.34 1062.87 596.6C1058.88 594.87 1054.6 594 1050.03 593.99C1045.45 593.99 1041.17 594.85 1037.18 596.57C1033.19 598.3 1029.7 600.65 1026.7 603.64C1023.71 606.63 1021.34 610.12 1019.61 614.1C1017.88 618.09 1017.01 622.37 1017 626.95C1017 631.52 1017.86 635.81 1019.58 639.8C1021.31 643.79 1023.66 647.28 1026.65 650.28C1029.64 653.28 1033.13 655.64 1037.11 657.38C1041.1 659.11 1045.38 659.98 1049.96 659.99C1054.53 659.99 1058.82 659.13 1062.81 657.41C1066.8 655.68 1070.29 653.33 1073.29 650.34C1076.29 647.35 1078.65 643.86 1080.38 639.88C1082.12 635.89 1082.99 631.61 1082.99 627.03C1082.99 622.45 1082.13 618.17 1080.41 614.18C1078.69 610.19 1076.33 606.7 1073.34 603.7ZM1068.72 645.76L1031.23 645.72L1031.27 608.23L1068.76 608.27L1068.72 645.76Z" fill="#F7F7F7"/>
<path d="M1017 528C1017 546.23 1031.77 561 1050 561C1068.23 561 1083 546.23 1083 528H1050H1017Z" fill="#F7F7F7"/>
<path d="M1017 561C1017 579.23 1031.77 594 1050 594C1068.23 594 1083 579.23 1083 561H1050H1017Z" fill="#F7F7F7"/>
<path d="M1413 0H1347C1347 18.23 1361.77 33 1380 33C1398.23 33 1413 18.23 1413 0Z" fill="#F7F7F7"/>
<path d="M1380 66C1398.23 66 1413 51.23 1413 33H1380H1347C1347 51.23 1361.77 66 1380 66Z" fill="#F7F7F7"/>
<path d="M1380 99C1361.77 99 1347 113.77 1347 132H1380H1413C1413 113.77 1398.23 99 1380 99Z" fill="#F7F7F7"/>
<path d="M1380 66C1361.77 66 1347 80.77 1347 99H1380H1413C1413 80.77 1398.23 66 1380 66Z" fill="#F7F7F7"/>
<path d="M1413 132H1479C1479 113.77 1464.23 99 1446 99C1427.77 99 1413 113.77 1413 132Z" fill="#F7F7F7"/>
<path d="M1446 99C1464.23 99 1479 84.23 1479 66H1446H1413C1413 84.23 1427.77 99 1446 99Z" fill="#F7F7F7"/>
<path d="M1413 66C1431.23 66 1446 51.23 1446 33C1446 14.77 1431.23 0 1413 0V33V66Z" fill="#F7F7F7"/>
<path d="M1422.7 141.66C1419.7 144.65 1417.34 148.14 1415.6 152.12C1413.87 156.11 1413 160.39 1412.99 164.96C1412.99 169.54 1413.85 173.82 1415.57 177.81C1417.3 181.8 1419.65 185.29 1422.64 188.29C1425.63 191.28 1429.12 193.65 1433.1 195.38C1437.09 197.11 1441.37 197.98 1445.95 197.99C1450.52 197.99 1454.81 197.13 1458.8 195.41C1462.79 193.68 1466.28 191.33 1469.28 188.34C1472.28 185.35 1474.64 181.86 1476.38 177.87C1478.11 173.88 1478.98 169.6 1478.99 165.02C1478.99 160.45 1478.13 156.16 1476.41 152.17C1474.68 148.18 1472.33 144.69 1469.34 141.69C1466.35 138.69 1462.86 136.33 1458.88 134.6C1454.89 132.86 1450.61 131.99 1446.03 131.99C1441.45 131.99 1437.17 132.85 1433.18 134.57C1429.19 136.31 1425.7 138.67 1422.7 141.66ZM1464.76 146.28L1464.72 183.77L1427.23 183.73L1427.27 146.24L1464.76 146.28Z" fill="#F7F7F7"/>
<path d="M1380 165C1380 146.77 1365.23 132 1347 132V165V198C1365.23 198 1380 183.23 1380 165Z" fill="#F7F7F7"/>
<path d="M1380 198C1398.23 198 1413 183.23 1413 165C1413 146.77 1398.23 132 1380 132V165V198Z" fill="#F7F7F7"/>
<path d="M1281 198V165V132C1262.77 132 1248 146.77 1248 165C1248 183.23 1262.77 198 1281 198Z" fill="#F7F7F7"/>
<path d="M1248 198V165V132C1229.77 132 1215 146.77 1215 165C1215 183.23 1229.77 198 1248 198Z" fill="#F7F7F7"/>
<path d="M1314 165C1295.77 165 1281 179.77 1281 198H1314H1347C1347 179.77 1332.23 165 1314 165Z" fill="#F7F7F7"/>
<path d="M1347 165C1347 146.77 1332.23 132 1314 132C1295.77 132 1281 146.77 1281 165H1314H1347Z" fill="#F7F7F7"/>
<path d="M1248 363C1248 381.23 1262.77 396 1281 396V363V330C1262.77 330 1248 344.77 1248 363Z" fill="#F7F7F7"/>
<path d="M1215 363C1215 381.23 1229.77 396 1248 396V363V330C1229.77 330 1215 344.77 1215 363Z" fill="#F7F7F7"/>
<path d="M1281 396H1347C1347 377.77 1332.23 363 1314 363C1295.77 363 1281 377.77 1281 396Z" fill="#F7F7F7"/>
<path d="M1281 363H1314H1347C1347 344.77 1332.23 330 1314 330C1295.77 330 1281 344.77 1281 363Z" fill="#F7F7F7"/>
<path d="M1281 66C1299.23 66 1314 51.2254 1314 33C1314 14.7746 1299.23 0 1281 0C1262.78 0 1248 14.7746 1248 33C1248 51.2254 1262.78 66 1281 66Z" fill="#F7F7F7"/>
<path d="M1248 0C1229.77 0 1215 14.77 1215 33C1215 51.23 1229.77 66 1248 66V33V0Z" fill="#F7F7F7"/>
<path d="M1347 33C1347 14.77 1332.23 0 1314 0V33V66C1332.23 66 1347 51.23 1347 33Z" fill="#F7F7F7"/>
<path d="M1281 264C1281 282.23 1295.77 297 1314 297C1332.23 297 1347 282.23 1347 264H1314H1281Z" fill="#F7F7F7"/>
<path d="M1314 330C1332.23 330 1347 315.23 1347 297H1314H1281C1281 315.23 1295.77 330 1314 330Z" fill="#F7F7F7"/>
<path d="M1215 330H1248H1281C1281 311.77 1266.23 297 1248 297C1229.77 297 1215 311.77 1215 330Z" fill="#F7F7F7"/>
<path d="M1215 264C1215 282.23 1229.77 297 1248 297C1266.23 297 1281 282.23 1281 264H1247.97H1215Z" fill="#F7F7F7"/>
<path d="M1290.66 122.3C1293.65 125.29 1297.14 127.66 1301.12 129.39C1305.11 131.12 1309.39 131.99 1313.97 132C1318.54 132 1322.83 131.14 1326.82 129.42C1330.81 127.69 1334.3 125.34 1337.3 122.35C1340.3 119.36 1342.66 115.87 1344.4 111.88C1346.13 107.89 1347 103.61 1347.01 99.03C1347.01 94.46 1346.15 90.17 1344.43 86.18C1342.7 82.19 1340.35 78.7 1337.36 75.7C1334.37 72.7 1330.88 70.34 1326.9 68.61C1322.91 66.87 1318.63 66 1314.05 66C1309.47 66 1305.19 66.86 1301.2 68.58C1297.21 70.31 1293.72 72.66 1290.72 75.65C1287.72 78.64 1285.36 82.13 1283.62 86.11C1281.89 90.1 1281.02 94.38 1281.01 98.95C1281.01 103.53 1281.87 107.81 1283.59 111.8C1285.31 115.81 1287.67 119.3 1290.66 122.3ZM1295.27 80.24L1332.76 80.28L1332.72 117.77L1295.23 117.73L1295.27 80.24Z" fill="#F7F7F7"/>
<path d="M1248 99C1248 80.77 1233.23 66 1215 66V99V132C1233.23 132 1248 117.23 1248 99Z" fill="#F7F7F7"/>
<path d="M1281 99C1281 80.77 1266.23 66 1248 66V99V132C1266.23 132 1281 117.23 1281 99Z" fill="#F7F7F7"/>
<path d="M1224.66 254.3C1227.65 257.3 1231.14 259.66 1235.12 261.39C1239.11 263.13 1243.39 264 1247.97 264C1252.55 264 1256.83 263.14 1260.82 261.42C1264.81 259.69 1268.3 257.34 1271.3 254.35C1274.3 251.36 1276.66 247.87 1278.4 243.88C1280.14 239.89 1281 235.61 1281.01 231.04C1281.01 226.46 1280.15 222.18 1278.43 218.19C1276.7 214.2 1274.35 210.71 1271.36 207.71C1268.37 204.72 1264.88 202.35 1260.9 200.62C1256.91 198.89 1252.63 198.02 1248.05 198.01C1243.47 198.01 1239.19 198.87 1235.2 200.59C1231.21 202.32 1227.72 204.67 1224.72 207.66C1221.72 210.65 1219.36 214.14 1217.62 218.13C1215.89 222.12 1215.02 226.4 1215.01 230.98C1215.01 235.55 1215.87 239.84 1217.59 243.83C1219.31 247.81 1221.67 251.3 1224.66 254.3ZM1229.27 212.24L1266.76 212.28L1266.72 249.77L1229.23 249.73L1229.27 212.24Z" fill="#F7F7F7"/>
<path d="M1314 231C1314 249.23 1328.77 264 1347 264V231V198C1328.77 198 1314 212.77 1314 231Z" fill="#F7F7F7"/>
<path d="M1281 231C1281 249.23 1295.77 264 1314 264V231V198C1295.77 198 1281 212.77 1281 231Z" fill="#F7F7F7"/>
<path d="M1347 462H1380H1413C1413 443.77 1398.23 429 1380 429C1361.77 429 1347 443.77 1347 462Z" fill="#F7F7F7"/>
<path d="M1347 429H1380H1413C1413 410.77 1398.23 396 1380 396C1361.77 396 1347 410.77 1347 429Z" fill="#F7F7F7"/>
<path d="M1380 495C1380 476.77 1365.23 462 1347 462V495V528C1365.23 528 1380 513.23 1380 495Z" fill="#F7F7F7"/>
<path d="M1380 528C1398.23 528 1413 513.23 1413 495C1413 476.77 1398.23 462 1380 462V495V528Z" fill="#F7F7F7"/>
<path d="M1413 462H1479C1479 443.77 1464.23 429 1446 429C1427.77 429 1413 443.77 1413 462Z" fill="#F7F7F7"/>
<path d="M1446 429C1464.23 429 1479 414.23 1479 396H1446H1413C1413 414.23 1427.77 429 1446 429Z" fill="#F7F7F7"/>
<path d="M1422.7 471.66C1419.7 474.65 1417.34 478.14 1415.6 482.13C1413.87 486.12 1413 490.4 1412.99 494.98C1412.99 499.55 1413.85 503.84 1415.57 507.83C1417.3 511.82 1419.65 515.31 1422.64 518.31C1425.63 521.31 1429.12 523.67 1433.1 525.4C1437.09 527.14 1441.37 528.01 1445.95 528.01C1450.53 528.01 1454.81 527.15 1458.8 525.43C1462.79 523.7 1466.28 521.35 1469.28 518.36C1472.28 515.37 1474.64 511.88 1476.38 507.89C1478.11 503.9 1478.98 499.62 1478.99 495.05C1478.99 490.47 1478.13 486.19 1476.41 482.2C1474.68 478.21 1472.33 474.72 1469.34 471.72C1466.35 468.73 1462.86 466.36 1458.88 464.63C1454.89 462.9 1450.61 462.03 1446.03 462.02C1441.45 462.02 1437.17 462.88 1433.18 464.6C1429.19 466.31 1425.7 468.67 1422.7 471.66ZM1464.76 476.27L1464.72 513.76L1427.23 513.72L1427.27 476.23L1464.76 476.27Z" fill="#F7F7F7"/>
<path d="M1248 495C1248 513.23 1262.77 528 1281 528V495V462C1262.77 462 1248 476.77 1248 495Z" fill="#F7F7F7"/>
<path d="M1215 495C1215 513.23 1229.77 528 1248 528V495V462C1229.77 462 1215 476.77 1215 495Z" fill="#F7F7F7"/>
<path d="M1248 429C1248 410.77 1233.23 396 1215 396V429V462C1233.23 462 1248 447.23 1248 429Z" fill="#F7F7F7"/>
<path d="M1248 429C1248 447.23 1262.77 462 1281 462V396C1262.77 396 1248 410.77 1248 429Z" fill="#F7F7F7"/>
<path d="M1314 495C1295.77 495 1281 509.77 1281 528H1314H1347C1347 509.77 1332.23 495 1314 495Z" fill="#F7F7F7"/>
<path d="M1347 495C1347 476.77 1332.23 462 1314 462C1295.77 462 1281 476.77 1281 495H1314H1347Z" fill="#F7F7F7"/>
<path d="M1290.7 405.66C1287.7 408.65 1285.34 412.14 1283.6 416.13C1281.87 420.12 1281 424.4 1280.99 428.97C1280.99 433.55 1281.85 437.83 1283.57 441.82C1285.3 445.81 1287.65 449.3 1290.64 452.3C1293.63 455.29 1297.12 457.66 1301.1 459.39C1305.09 461.12 1309.37 461.99 1313.95 462C1318.52 462 1322.81 461.14 1326.8 459.42C1330.79 457.69 1334.28 455.34 1337.28 452.35C1340.28 449.36 1342.64 445.87 1344.38 441.89C1346.11 437.9 1346.98 433.62 1346.99 429.04C1346.99 424.47 1346.13 420.18 1344.41 416.19C1342.68 412.2 1340.33 408.71 1337.34 405.71C1334.35 402.71 1330.86 400.35 1326.88 398.62C1322.89 396.88 1318.61 396.01 1314.03 396.01C1309.45 396.01 1305.17 396.87 1301.18 398.59C1297.19 400.31 1293.7 402.67 1290.7 405.66ZM1332.76 410.28L1332.72 447.77L1295.23 447.73L1295.27 410.24L1332.76 410.28Z" fill="#F7F7F7"/>
<path d="M1413 396C1431.23 396 1446 381.225 1446 363C1446 344.775 1431.23 330 1413 330C1394.78 330 1380 344.775 1380 363C1380 381.225 1394.78 396 1413 396Z" fill="#F7F7F7"/>
<path d="M1380 396V363V330C1361.77 330 1347 344.77 1347 363C1347 381.23 1361.77 396 1380 396Z" fill="#F7F7F7"/>
<path d="M1413 264C1431.23 264 1446 249.23 1446 231C1446 212.77 1431.23 198 1413 198V231V264Z" fill="#F7F7F7"/>
<path d="M1413 264L1413 330C1431.23 330 1446 315.23 1446 297C1446 278.77 1431.23 264 1413 264Z" fill="#F7F7F7"/>
<path d="M1403.34 273.7C1400.35 270.7 1396.86 268.34 1392.87 266.6C1388.88 264.87 1384.6 264 1380.03 263.99C1375.45 263.99 1371.17 264.85 1367.18 266.57C1363.19 268.3 1359.7 270.65 1356.7 273.64C1353.71 276.63 1351.34 280.12 1349.61 284.1C1347.88 288.09 1347.01 292.37 1347 296.95C1347 301.52 1347.86 305.81 1349.58 309.8C1351.31 313.79 1353.66 317.28 1356.65 320.28C1359.64 323.28 1363.13 325.64 1367.11 327.38C1371.1 329.11 1375.38 329.98 1379.96 329.99C1384.53 329.99 1388.82 329.13 1392.81 327.41C1396.8 325.68 1400.29 323.33 1403.29 320.34C1406.29 317.35 1408.65 313.86 1410.38 309.88C1412.12 305.89 1412.99 301.61 1412.99 297.03C1412.99 292.45 1412.13 288.17 1410.41 284.18C1408.69 280.19 1406.33 276.7 1403.34 273.7ZM1398.72 315.76L1361.23 315.72L1361.27 278.23L1398.76 278.27L1398.72 315.76Z" fill="#F7F7F7"/>
<path d="M1380 231C1398.23 231 1413 216.23 1413 198H1380H1347C1347 216.23 1361.77 231 1380 231Z" fill="#F7F7F7"/>
<path d="M1347 231C1347 249.23 1361.77 264 1380 264C1398.23 264 1413 249.23 1413 231H1380H1347Z" fill="#F7F7F7"/>
<path d="M1281 660C1262.77 660 1248 674.77 1248 693C1248 711.23 1262.77 726 1281 726V693V660Z" fill="#F7F7F7"/>
<path d="M1215 693C1215 711.23 1229.77 726 1248 726V693V660C1229.77 660 1215 674.77 1215 693Z" fill="#F7F7F7"/>
<path d="M1281 726H1347C1347 707.77 1332.23 693 1314 693C1295.77 693 1281 707.77 1281 726Z" fill="#F7F7F7"/>
<path d="M1314 660C1295.77 660 1281 674.77 1281 693H1314H1347C1347 674.77 1332.23 660 1314 660Z" fill="#F7F7F7"/>
<path d="M1281 594C1281 612.23 1295.77 627 1314 627C1332.23 627 1347 612.23 1347 594H1314H1281Z" fill="#F7F7F7"/>
<path d="M1314 660C1332.23 660 1347 645.23 1347 627H1314H1281C1281 645.23 1295.77 660 1314 660Z" fill="#F7F7F7"/>
<path d="M1248 627C1229.77 627 1215 641.77 1215 660H1248H1281C1281 641.77 1266.23 627 1248 627Z" fill="#F7F7F7"/>
<path d="M1281 594H1247.97H1215C1215 612.23 1229.77 627 1248 627C1266.23 627 1281 612.23 1281 594Z" fill="#F7F7F7"/>
<path d="M1271.3 584.34C1274.3 581.35 1276.66 577.86 1278.4 573.87C1280.14 569.88 1281 565.6 1281.01 561.03C1281.01 556.45 1280.15 552.17 1278.43 548.18C1276.7 544.19 1274.35 540.7 1271.36 537.7C1268.37 534.71 1264.88 532.34 1260.9 530.61C1256.91 528.88 1252.63 528.01 1248.05 528C1243.47 528 1239.19 528.86 1235.2 530.58C1231.21 532.31 1227.72 534.66 1224.72 537.65C1221.72 540.64 1219.36 544.13 1217.62 548.12C1215.89 552.11 1215.02 556.39 1215.01 560.97C1215.01 565.54 1215.87 569.83 1217.59 573.82C1219.32 577.81 1221.67 581.3 1224.66 584.3C1227.65 587.3 1231.14 589.66 1235.12 591.39C1239.11 593.13 1243.39 594 1247.97 594C1252.55 594 1256.83 593.14 1260.82 591.42C1264.81 589.69 1268.3 587.33 1271.3 584.34ZM1229.24 579.72L1229.28 542.23L1266.77 542.27L1266.73 579.76L1229.24 579.72Z" fill="#F7F7F7"/>
<path d="M1314 561C1314 579.23 1328.77 594 1347 594V561V528C1328.77 528 1314 542.77 1314 561Z" fill="#F7F7F7"/>
<path d="M1281 561C1281 579.23 1295.77 594 1314 594V561V528C1295.77 528 1281 542.77 1281 561Z" fill="#F7F7F7"/>
<path d="M1413 726C1431.23 726 1446 711.225 1446 693C1446 674.775 1431.23 660 1413 660C1394.78 660 1380 674.775 1380 693C1380 711.225 1394.78 726 1413 726Z" fill="#F7F7F7"/>
<path d="M1347 693C1347 711.23 1361.77 726 1380 726V693V660C1361.77 660 1347 674.77 1347 693Z" fill="#F7F7F7"/>
<path d="M1413 594C1431.23 594 1446 579.23 1446 561C1446 542.77 1431.23 528 1413 528V561V594Z" fill="#F7F7F7"/>
<path d="M1413 594L1413 660C1431.23 660 1446 645.23 1446 627C1446 608.77 1431.23 594 1413 594Z" fill="#F7F7F7"/>
<path d="M1403.34 603.7C1400.35 600.7 1396.86 598.34 1392.87 596.6C1388.88 594.87 1384.6 594 1380.03 593.99C1375.45 593.99 1371.17 594.85 1367.18 596.57C1363.19 598.3 1359.7 600.65 1356.7 603.64C1353.71 606.63 1351.34 610.12 1349.61 614.1C1347.88 618.09 1347.01 622.37 1347 626.95C1347 631.52 1347.86 635.81 1349.58 639.8C1351.31 643.79 1353.66 647.28 1356.65 650.28C1359.64 653.28 1363.13 655.64 1367.11 657.38C1371.1 659.11 1375.38 659.98 1379.96 659.99C1384.53 659.99 1388.82 659.13 1392.81 657.41C1396.8 655.68 1400.29 653.33 1403.29 650.34C1406.29 647.35 1408.65 643.86 1410.38 639.88C1412.12 635.89 1412.99 631.61 1412.99 627.03C1412.99 622.45 1412.13 618.17 1410.41 614.18C1408.69 610.19 1406.33 606.7 1403.34 603.7ZM1398.72 645.76L1361.23 645.72L1361.27 608.23L1398.76 608.27L1398.72 645.76Z" fill="#F7F7F7"/>
<path d="M1380 561C1398.23 561 1413 546.23 1413 528H1380H1347C1347 546.23 1361.77 561 1380 561Z" fill="#F7F7F7"/>
<path d="M1347 561C1347 579.23 1361.77 594 1380 594C1398.23 594 1413 579.23 1413 561H1380H1347Z" fill="#F7F7F7"/>
<path d="M1446 66C1464.23 66 1479 51.23 1479 33C1479 14.77 1464.23 0 1446 0V33L1446 66Z" fill="#F7F7F7"/>
<path d="M1446 264C1464.23 264 1479 249.23 1479 231C1479 212.77 1464.23 198 1446 198V231V264Z" fill="#F7F7F7"/>
<path d="M1446 264V330C1464.23 330 1479 315.23 1479 297C1479 278.77 1464.23 264 1446 264Z" fill="#F7F7F7"/>
<path d="M1446 330L1446 396C1464.23 396 1479 381.23 1479 363C1479 344.77 1464.23 330 1446 330Z" fill="#F7F7F7"/>
<path d="M1446 594C1464.23 594 1479 579.23 1479 561C1479 542.77 1464.23 528 1446 528V561V594Z" fill="#F7F7F7"/>
<path d="M1446 594V660C1464.23 660 1479 645.23 1479 627C1479 608.77 1464.23 594 1446 594Z" fill="#F7F7F7"/>
<path d="M1446 660V726C1464.23 726 1479 711.23 1479 693C1479 674.77 1464.23 660 1446 660Z" fill="#F7F7F7"/>
<path d="M-5.99805 33C-5.99805 14.77 -20.768 0 -38.998 0V66C-20.768 66 -5.99805 51.23 -5.99805 33Z" fill="#F7F7F7"/>
<path d="M-5.99781 198C-24.2278 198 -38.998 212.77 -38.998 231C-38.998 249.23 -24.2278 264 -5.99781 264L-5.99805 231L-5.99781 198Z" fill="#F7F7F7"/>
<path d="M-38.998 561C-38.998 579.23 -24.2278 594 -5.99781 594L-5.99805 561L-5.99781 528C-24.2278 528 -38.998 542.77 -38.998 561Z" fill="#F7F7F7"/>
</svg>
