<svg width="32" height="32" viewBox="0 0 32 32" fill="none" xmlns="http://www.w3.org/2000/svg">
<path d="M8 11.5547H24" stroke="#0025FF" stroke-width="2" stroke-linecap="round" stroke-linejoin="round"/>
<path d="M8 20.4453H24" stroke="#0025FF" stroke-width="2" stroke-linecap="round" stroke-linejoin="round"/>
<path d="M13.7769 13.7765C15.0042 13.7765 15.9991 12.7816 15.9991 11.5543C15.9991 10.327 15.0042 9.33203 13.7769 9.33203C12.5496 9.33203 11.5547 10.327 11.5547 11.5543C11.5547 12.7816 12.5496 13.7765 13.7769 13.7765Z" fill="white" stroke="#0025FF" stroke-width="2" stroke-linecap="round" stroke-linejoin="round"/>
<path d="M18.2222 22.6671C19.4495 22.6671 20.4444 21.6722 20.4444 20.4449C20.4444 19.2176 19.4495 18.2227 18.2222 18.2227C16.9949 18.2227 16 19.2176 16 20.4449C16 21.6722 16.9949 22.6671 18.2222 22.6671Z" fill="white" stroke="#0025FF" stroke-width="2" stroke-linecap="round" stroke-linejoin="round"/>
</svg>
