<svg width="20" height="20" viewBox="0 0 20 20" fill="none" xmlns="http://www.w3.org/2000/svg">
<rect width="20" height="20" rx="10" fill="#DBDBDB"/>
<path d="M9.35517 11.069C9.35517 10.7757 9.40283 10.519 9.49817 10.299C9.60083 10.0717 9.72183 9.881 9.86117 9.727C10.0078 9.573 10.1985 9.38967 10.4332 9.177C10.7265 8.92033 10.9428 8.70033 11.0822 8.517C11.2215 8.32633 11.2912 8.099 11.2912 7.835C11.2912 7.47567 11.1518 7.18967 10.8732 6.977C10.5945 6.757 10.2095 6.647 9.71817 6.647C8.86017 6.647 8.20383 6.93667 7.74917 7.516L6.94617 6.944C7.25417 6.548 7.6465 6.24367 8.12317 6.031C8.60717 5.81833 9.1645 5.712 9.79517 5.712C10.5945 5.712 11.2288 5.888 11.6982 6.24C12.1675 6.58467 12.4022 7.06133 12.4022 7.67C12.4022 7.97067 12.3508 8.23833 12.2482 8.473C12.1528 8.70033 12.0355 8.891 11.8962 9.045C11.7568 9.199 11.5698 9.38233 11.3352 9.595C11.0345 9.86633 10.8108 10.1047 10.6642 10.31C10.5248 10.5153 10.4552 10.7683 10.4552 11.069H9.35517ZM9.91617 13.566C9.71083 13.566 9.5385 13.5 9.39917 13.368C9.26717 13.2287 9.20117 13.06 9.20117 12.862C9.20117 12.664 9.26717 12.499 9.39917 12.367C9.5385 12.2277 9.71083 12.158 9.91617 12.158C10.1215 12.158 10.2902 12.2277 10.4222 12.367C10.5542 12.499 10.6202 12.664 10.6202 12.862C10.6202 13.06 10.5505 13.2287 10.4112 13.368C10.2792 13.5 10.1142 13.566 9.91617 13.566Z" fill="black"/>
</svg>
