<svg width="160" height="160" viewBox="0 0 160 160" fill="none" xmlns="http://www.w3.org/2000/svg">
<mask id="mask0_1142_3165" style="mask-type:alpha" maskUnits="userSpaceOnUse" x="0" y="0" width="160" height="160">
<circle cx="80" cy="80" r="80" fill="#C4C4C4"/>
</mask>
<g mask="url(#mask0_1142_3165)">
<path d="M160 0H0V160H160V0Z" fill="#00D378"/>
<path d="M127.574 160.049C127.576 133.795 106.308 112.497 80.0476 112.469C53.7876 112.441 32.4756 133.697 32.4236 159.951L127.574 160.049Z" fill="#0025FF"/>
<path d="M98.1766 23.7026C103.759 26.1346 108.645 29.4446 112.831 33.6386C117.015 37.8306 120.317 42.7246 122.735 48.3126C125.151 53.9026 126.357 59.9006 126.351 66.3087C126.345 72.7167 125.125 78.7127 122.697 84.2967C120.267 89.8807 116.955 94.7647 112.763 98.9487C108.569 103.135 103.675 106.439 98.0886 108.855C92.4986 111.273 86.5006 112.477 80.0926 112.471C73.6866 112.465 67.6886 111.247 62.1066 108.817C56.5206 106.389 51.6386 103.075 47.4526 98.8807C43.2666 94.6887 39.9646 89.7967 37.5486 84.2067C35.1286 78.6167 33.9246 72.6187 33.9306 66.2106C33.9366 59.8046 35.1546 53.8086 37.5846 48.2226C40.0126 42.6406 43.3246 37.7546 47.5186 33.5706C51.7126 29.3846 56.6026 26.0846 62.1926 23.6646C67.7806 21.2486 73.7806 20.0426 80.1866 20.0486C86.5966 20.0546 92.5926 21.2746 98.1766 23.7026Z" fill="black"/>
<path d="M106.292 46.4449H53.71V99.027H106.292V46.4449Z" fill="white"/>
<path d="M68.156 70.0389C68.162 76.5749 73.462 81.8709 80 81.8709C86.538 81.8709 91.8381 76.5749 91.8441 70.0389H68.156Z" fill="#FF00C1"/>
<path d="M64.91 65.2129C68.1707 65.2129 70.814 62.5696 70.814 59.3089C70.814 56.0482 68.1707 53.4049 64.91 53.4049C61.6493 53.4049 59.006 56.0482 59.006 59.3089C59.006 62.5696 61.6493 65.2129 64.91 65.2129Z" fill="black"/>
<path d="M95.614 65.2129C98.8747 65.2129 101.518 62.5696 101.518 59.3089C101.518 56.0482 98.8747 53.4049 95.614 53.4049C92.3533 53.4049 89.71 56.0482 89.71 59.3089C89.71 62.5696 92.3533 65.2129 95.614 65.2129Z" fill="black"/>
<path d="M57.8801 54.4987C57.5221 54.4987 57.1641 54.3727 56.8781 54.1147C56.2621 53.5607 56.2101 52.6127 56.7641 51.9967C58.8381 49.6867 61.8081 48.3607 64.9121 48.3607C65.7401 48.3607 66.4121 49.0327 66.4121 49.8607C66.4121 50.6887 65.7401 51.3607 64.9121 51.3607C62.6601 51.3607 60.5041 52.3227 58.9961 54.0007C58.7001 54.3307 58.2901 54.4987 57.8801 54.4987Z" fill="black"/>
<path d="M102.626 54.4987C102.214 54.4987 101.806 54.3307 101.51 54.0007C100.004 52.3227 97.8477 51.3607 95.5937 51.3607C94.7657 51.3607 94.0937 50.6887 94.0937 49.8607C94.0937 49.0327 94.7657 48.3607 95.5937 48.3607C98.6977 48.3607 101.666 49.6867 103.742 51.9967C104.296 52.6127 104.244 53.5607 103.628 54.1147C103.342 54.3707 102.982 54.4987 102.626 54.4987Z" fill="black"/>
</g>
</svg>
