<svg width="1440" height="841" viewBox="0 0 1440 841" fill="none" xmlns="http://www.w3.org/2000/svg">
<path d="M1440 0H0V841H1440V0Z" fill="url(#paint0_linear_771_43932)"/>
<path d="M1440 628H0V841H1440V628Z" fill="#DBDBDB"/>
<path d="M1440 651H0V663H1440V651Z" fill="#FFE600"/>
<path d="M1440 726H0V841H1440V726Z" fill="#B4B4B4"/>
<path d="M762 0H754V156H762V0Z" fill="white"/>
<path d="M1141.38 0H1133.38V156H1141.38V0Z" fill="white"/>
<path d="M1136.51 308H758.87C740.72 308 726 293.28 726 275.13V166.27C726 148.12 740.72 133.4 758.87 133.4H1136.51C1154.66 133.4 1169.38 148.12 1169.38 166.27V275.13C1169.38 293.28 1154.66 308 1136.51 308Z" fill="#0025FF"/>
<path d="M1133.67 290.541H761.72C751.06 290.541 742.41 281.901 742.41 271.231V170.171C742.41 159.511 751.05 150.861 761.72 150.861H1133.67C1144.33 150.861 1152.98 159.501 1152.98 170.171V271.231C1152.98 281.901 1144.33 290.541 1133.67 290.541Z" stroke="white" stroke-width="5" stroke-miterlimit="10"/>
<path d="M1136.68 183.301H758.7V258.111H1136.68V183.301Z" fill="#0025FF"/>
<path d="M982.57 258.1C982.56 247.5 973.97 238.91 963.36 238.91C952.76 238.91 944.16 247.5 944.15 258.1H982.57Z" fill="white"/>
<path d="M814.05 201.611L829.02 238.921H820.81L806.93 204.351H806.28L792.4 238.921H784.19L799.16 201.611H814.05Z" fill="white"/>
<path d="M842.46 224.241V230.711H868.18V238.921H834.25V201.611H868.23V209.771H842.46V216.041H854.8V224.251H842.46V224.241Z" fill="white"/>
<path d="M882.4 224.242V238.912H874.19V201.602H882.4V216.032H892.65L898.47 201.602H906.68L899.22 220.162L906.73 238.912H898.52L892.65 224.242H882.4Z" fill="white"/>
<path d="M931.901 209.771V238.921H923.741V209.771H910.961V201.561H944.741V209.771H931.901Z" fill="white"/>
<path d="M970.65 203.081C972.9 204.061 974.88 205.391 976.57 207.081C978.26 208.771 979.6 210.741 980.57 213.001C981.55 215.261 982.04 217.681 982.04 220.261C982.04 222.851 981.55 225.271 980.57 227.521C979.59 229.781 978.26 231.751 976.57 233.441C974.88 235.131 972.9 236.471 970.65 237.441C968.39 238.421 965.97 238.911 963.39 238.911C960.8 238.911 958.38 238.421 956.13 237.441C953.87 236.461 951.9 235.131 950.21 233.441C948.52 231.751 947.18 229.781 946.21 227.521C945.23 225.261 944.74 222.841 944.74 220.261C944.74 217.671 945.23 215.251 946.21 213.001C947.19 210.751 948.52 208.771 950.21 207.081C951.9 205.391 953.87 204.051 956.13 203.081C958.38 202.101 960.81 201.611 963.39 201.611C965.97 201.611 968.39 202.101 970.65 203.081ZM952.79 209.671V230.861H973.98V209.671H952.79Z" fill="white"/>
<path d="M1017.81 201.561H1025.97V238.821H1017.81V224.241H995.471V238.911H987.261V201.551H995.471V216.031H1017.81V201.561Z" fill="white"/>
<path d="M1071.68 238.921H1063.47V204.351H1062.82L1048.94 238.921H1032.92V201.611H1041.13V236.181H1041.83L1055.71 201.611H1071.68V238.921Z" fill="white"/>
<path d="M1086.85 224.242V238.912H1078.64V201.602H1086.85V216.032H1097.1L1102.92 201.602H1111.13L1103.67 220.162L1111.18 238.912H1102.97L1097.1 224.242H1086.85Z" fill="white"/>
<path d="M957.31 217.26C958.624 217.26 959.69 216.194 959.69 214.88C959.69 213.566 958.624 212.5 957.31 212.5C955.995 212.5 954.93 213.566 954.93 214.88C954.93 216.194 955.995 217.26 957.31 217.26Z" fill="white"/>
<path d="M969.699 217.26C971.014 217.26 972.079 216.194 972.079 214.88C972.079 213.566 971.014 212.5 969.699 212.5C968.385 212.5 967.319 213.566 967.319 214.88C967.319 216.194 968.385 217.26 969.699 217.26Z" fill="white"/>
<path d="M209.872 147.8V187H204.384V152.672H181.648V187H176.104V147.8H209.872ZM253.636 147.8V187H248.148V152.672H230.788L230.396 164.152C230.209 169.565 229.761 173.952 229.052 177.312C228.38 180.672 227.297 183.211 225.804 184.928C224.311 186.608 222.295 187.448 219.756 187.448C218.599 187.448 217.423 187.299 216.228 187L216.62 182.016C217.217 182.165 217.815 182.24 218.412 182.24C220.017 182.24 221.305 181.605 222.276 180.336C223.247 179.029 223.975 177.088 224.46 174.512C224.945 171.936 225.263 168.539 225.412 164.32L226.028 147.8H253.636ZM291.326 177.2H270.494L266.182 187H260.414L278.166 147.8H283.71L301.518 187H295.638L291.326 177.2ZM289.366 172.72L280.91 153.512L272.454 172.72H289.366ZM333.251 152.672H319.811V187H314.323V152.672H300.939V147.8H333.251V152.672ZM382.742 167.344C382.742 172.533 380.932 176.603 377.31 179.552C373.689 182.501 368.574 184.088 361.966 184.312V188.456H356.758V184.312C350.15 184.051 345.017 182.445 341.358 179.496C337.737 176.547 335.926 172.496 335.926 167.344C335.926 162.155 337.737 158.085 341.358 155.136C345.017 152.187 350.15 150.581 356.758 150.32V146.344H361.966V150.32C368.537 150.581 373.633 152.205 377.254 155.192C380.913 158.141 382.742 162.192 382.742 167.344ZM361.966 179.944C366.969 179.645 370.777 178.432 373.39 176.304C376.041 174.139 377.366 171.133 377.366 167.288C377.366 163.517 376.022 160.568 373.334 158.44C370.684 156.275 366.894 155.043 361.966 154.744V179.944ZM341.358 167.344C341.358 171.152 342.684 174.139 345.334 176.304C348.022 178.432 351.83 179.645 356.758 179.944V154.744C351.756 155.043 347.929 156.256 345.278 158.384C342.665 160.512 341.358 163.499 341.358 167.344ZM408.994 187.448C405.037 187.448 401.471 186.589 398.298 184.872C395.125 183.117 392.623 180.709 390.794 177.648C389.002 174.587 388.106 171.171 388.106 167.4C388.106 163.629 389.002 160.213 390.794 157.152C392.623 154.091 395.125 151.701 398.298 149.984C401.471 148.229 405.037 147.352 408.994 147.352C412.914 147.352 416.461 148.229 419.634 149.984C422.807 151.701 425.29 154.091 427.082 157.152C428.874 160.176 429.77 163.592 429.77 167.4C429.77 171.208 428.874 174.643 427.082 177.704C425.29 180.728 422.807 183.117 419.634 184.872C416.461 186.589 412.914 187.448 408.994 187.448ZM408.994 182.464C411.869 182.464 414.445 181.811 416.722 180.504C419.037 179.197 420.847 177.405 422.154 175.128C423.498 172.813 424.17 170.237 424.17 167.4C424.17 164.563 423.498 162.005 422.154 159.728C420.847 157.413 419.037 155.603 416.722 154.296C414.445 152.989 411.869 152.336 408.994 152.336C406.119 152.336 403.506 152.989 401.154 154.296C398.839 155.603 397.01 157.413 395.666 159.728C394.359 162.005 393.706 164.563 393.706 167.4C393.706 170.237 394.359 172.813 395.666 175.128C397.01 177.405 398.839 179.197 401.154 180.504C403.506 181.811 406.119 182.464 408.994 182.464ZM454.111 147.8C459.188 147.8 463.183 149.013 466.095 151.44C469.007 153.867 470.463 157.208 470.463 161.464C470.463 165.72 469.007 169.061 466.095 171.488C463.183 173.915 459.188 175.128 454.111 175.128H444.423V187H438.823V147.8H454.111ZM453.943 170.256C457.489 170.256 460.196 169.509 462.063 168.016C463.929 166.485 464.863 164.301 464.863 161.464C464.863 158.627 463.929 156.461 462.063 154.968C460.196 153.437 457.489 152.672 453.943 152.672H444.423V170.256H453.943ZM514.596 187L514.54 158.44L500.372 182.24H497.796L483.628 158.608V187H478.252V147.8H482.844L499.196 175.352L515.324 147.8H519.916L519.972 187H514.596ZM557.654 177.2H536.822L532.51 187H526.742L544.494 147.8H550.038L567.846 187H561.966L557.654 177.2ZM555.694 172.72L547.238 153.512L538.782 172.72H555.694ZM215.304 247.608V263.12H206.904V255H179.24V263.12H170.84L170.896 247.608H172.464C174.816 247.533 176.477 245.816 177.448 242.456C178.419 239.096 179.016 234.299 179.24 228.064L179.688 215.8H209.816V247.608H215.304ZM187.248 228.904C187.061 233.571 186.669 237.491 186.072 240.664C185.475 243.8 184.56 246.115 183.328 247.608H200.856V223.192H187.416L187.248 228.904ZM256.355 215.8V255H247.395V223.192H233.955L233.675 231.368C233.488 236.931 233.04 241.448 232.331 244.92C231.622 248.355 230.427 251.005 228.747 252.872C227.104 254.701 224.79 255.616 221.803 255.616C220.571 255.616 219.078 255.411 217.323 255L217.883 247.328C218.368 247.477 218.91 247.552 219.507 247.552C221.672 247.552 223.184 246.283 224.043 243.744C224.902 241.168 225.443 237.155 225.667 231.704L226.227 215.8H256.355ZM297.449 215.8V255H288.489V244.584H280.201L273.257 255H263.681L271.857 243.184C269.207 242.101 267.172 240.477 265.753 238.312C264.335 236.109 263.625 233.477 263.625 230.416C263.625 227.392 264.316 224.797 265.697 222.632C267.079 220.429 269.039 218.749 271.577 217.592C274.116 216.397 277.103 215.8 280.537 215.8H297.449ZM280.761 223.192C278.185 223.192 276.207 223.789 274.825 224.984C273.481 226.179 272.809 227.952 272.809 230.304C272.809 232.581 273.463 234.336 274.769 235.568C276.076 236.8 277.999 237.416 280.537 237.416H288.489V223.192H280.761ZM358.074 215.8V255H349.114V223.192H335.674L335.394 231.368C335.207 236.931 334.759 241.448 334.05 244.92C333.34 248.355 332.146 251.005 330.466 252.872C328.823 254.701 326.508 255.616 323.522 255.616C322.29 255.616 320.796 255.411 319.042 255L319.602 247.328C320.087 247.477 320.628 247.552 321.226 247.552C323.391 247.552 324.903 246.283 325.762 243.744C326.62 241.168 327.162 237.155 327.386 231.704L327.946 215.8H358.074ZM398.216 247.72V255H367.864V215.8H397.488V223.08H376.88V231.592H395.08V238.648H376.88V247.72H398.216ZM420.72 239.208H414.448V255H405.432V215.8H414.448V231.648H420.944L431.248 215.8H440.824L428 234.728L441.216 255H430.912L420.72 239.208ZM474.988 223.192H462.444V255H453.484V223.192H440.996V215.8H474.988V223.192ZM498.842 255.672C494.772 255.672 491.095 254.795 487.81 253.04C484.562 251.285 482.004 248.877 480.138 245.816C478.308 242.717 477.394 239.245 477.394 235.4C477.394 231.555 478.308 228.101 480.138 225.04C482.004 221.941 484.562 219.515 487.81 217.76C491.095 216.005 494.772 215.128 498.842 215.128C502.911 215.128 506.57 216.005 509.818 217.76C513.066 219.515 515.623 221.941 517.49 225.04C519.356 228.101 520.29 231.555 520.29 235.4C520.29 239.245 519.356 242.717 517.49 245.816C515.623 248.877 513.066 251.285 509.818 253.04C506.57 254.795 502.911 255.672 498.842 255.672ZM498.842 247.944C501.156 247.944 503.247 247.421 505.114 246.376C506.98 245.293 508.436 243.8 509.482 241.896C510.564 239.992 511.106 237.827 511.106 235.4C511.106 232.973 510.564 230.808 509.482 228.904C508.436 227 506.98 225.525 505.114 224.48C503.247 223.397 501.156 222.856 498.842 222.856C496.527 222.856 494.436 223.397 492.57 224.48C490.703 225.525 489.228 227 488.146 228.904C487.1 230.808 486.578 232.973 486.578 235.4C486.578 237.827 487.1 239.992 488.146 241.896C489.228 243.8 490.703 245.293 492.57 246.376C494.436 247.421 496.527 247.944 498.842 247.944ZM544.246 215.8C547.718 215.8 550.724 216.379 553.262 217.536C555.838 218.693 557.817 220.336 559.198 222.464C560.58 224.592 561.27 227.112 561.27 230.024C561.27 232.899 560.58 235.419 559.198 237.584C557.817 239.712 555.838 241.355 553.262 242.512C550.724 243.632 547.718 244.192 544.246 244.192H536.35V255H527.278V215.8H544.246ZM543.742 236.8C546.468 236.8 548.54 236.221 549.958 235.064C551.377 233.869 552.086 232.189 552.086 230.024C552.086 227.821 551.377 226.141 549.958 224.984C548.54 223.789 546.468 223.192 543.742 223.192H536.35V236.8H543.742ZM586.506 255.672C582.436 255.672 578.759 254.795 575.474 253.04C572.226 251.285 569.668 248.877 567.802 245.816C565.972 242.717 565.058 239.245 565.058 235.4C565.058 231.555 565.972 228.101 567.802 225.04C569.668 221.941 572.226 219.515 575.474 217.76C578.759 216.005 582.436 215.128 586.506 215.128C590.575 215.128 594.234 216.005 597.482 217.76C600.73 219.515 603.287 221.941 605.154 225.04C607.02 228.101 607.954 231.555 607.954 235.4C607.954 239.245 607.02 242.717 605.154 245.816C603.287 248.877 600.73 251.285 597.482 253.04C594.234 254.795 590.575 255.672 586.506 255.672ZM586.506 247.944C588.82 247.944 590.911 247.421 592.778 246.376C594.644 245.293 596.1 243.8 597.146 241.896C598.228 239.992 598.77 237.827 598.77 235.4C598.77 232.973 598.228 230.808 597.146 228.904C596.1 227 594.644 225.525 592.778 224.48C590.911 223.397 588.82 222.856 586.506 222.856C584.191 222.856 582.1 223.397 580.234 224.48C578.367 225.525 576.892 227 575.81 228.904C574.764 230.808 574.242 232.973 574.242 235.4C574.242 237.827 574.764 239.992 575.81 241.896C576.892 243.8 578.367 245.293 580.234 246.376C582.1 247.421 584.191 247.944 586.506 247.944ZM642.102 234.56C644.492 235.269 646.321 236.427 647.59 238.032C648.86 239.637 649.494 241.616 649.494 243.968C649.494 247.44 648.169 250.147 645.518 252.088C642.905 254.029 639.153 255 634.262 255H614.942V215.8H633.198C637.753 215.8 641.3 216.677 643.838 218.432C646.377 220.187 647.646 222.688 647.646 225.936C647.646 227.877 647.161 229.595 646.19 231.088C645.22 232.544 643.857 233.701 642.102 234.56ZM623.958 232.04H632.414C634.393 232.04 635.886 231.648 636.894 230.864C637.902 230.043 638.406 228.848 638.406 227.28C638.406 225.749 637.884 224.573 636.838 223.752C635.83 222.931 634.356 222.52 632.414 222.52H623.958V232.04ZM633.926 248.28C638.182 248.28 640.31 246.6 640.31 243.24C640.31 239.992 638.182 238.368 633.926 238.368H623.958V248.28H633.926ZM176.104 283.8H181.648V314.04L204.832 283.8H209.984V323H204.496V292.816L181.256 323H176.104V283.8ZM270.957 283.8V323H265.357V305.528H242.845V323H237.245V283.8H242.845V300.656H265.357V283.8H270.957ZM311.63 318.128V323H283.182V283.8H310.846V288.672H288.782V300.712H308.438V305.472H288.782V318.128H311.63ZM362.399 288.672H348.959V323H343.471V288.672H330.087V283.8H362.399V288.672ZM386.299 323.448C382.341 323.448 378.776 322.589 375.603 320.872C372.429 319.117 369.928 316.709 368.099 313.648C366.307 310.587 365.411 307.171 365.411 303.4C365.411 299.629 366.307 296.213 368.099 293.152C369.928 290.091 372.429 287.701 375.603 285.984C378.776 284.229 382.341 283.352 386.299 283.352C390.219 283.352 393.765 284.229 396.939 285.984C400.112 287.701 402.595 290.091 404.387 293.152C406.179 296.176 407.075 299.592 407.075 303.4C407.075 307.208 406.179 310.643 404.387 313.704C402.595 316.728 400.112 319.117 396.939 320.872C393.765 322.589 390.219 323.448 386.299 323.448ZM386.299 318.464C389.173 318.464 391.749 317.811 394.027 316.504C396.341 315.197 398.152 313.405 399.459 311.128C400.803 308.813 401.475 306.237 401.475 303.4C401.475 300.563 400.803 298.005 399.459 295.728C398.152 293.413 396.341 291.603 394.027 290.296C391.749 288.989 389.173 288.336 386.299 288.336C383.424 288.336 380.811 288.989 378.459 290.296C376.144 291.603 374.315 293.413 372.971 295.728C371.664 298.005 371.011 300.563 371.011 303.4C371.011 306.237 371.664 308.813 372.971 311.128C374.315 313.405 376.144 315.197 378.459 316.504C380.811 317.811 383.424 318.464 386.299 318.464ZM447.066 283.8V323H441.578V288.672H424.218L423.826 300.152C423.639 305.565 423.191 309.952 422.482 313.312C421.81 316.672 420.727 319.211 419.234 320.928C417.74 322.608 415.724 323.448 413.186 323.448C412.028 323.448 410.852 323.299 409.658 323L410.05 318.016C410.647 318.165 411.244 318.24 411.842 318.24C413.447 318.24 414.735 317.605 415.706 316.336C416.676 315.029 417.404 313.088 417.89 310.512C418.375 307.936 418.692 304.539 418.842 300.32L419.458 283.8H447.066ZM476.468 297.464C481.135 297.464 484.7 298.509 487.164 300.6C489.665 302.691 490.916 305.771 490.916 309.84C490.916 314.133 489.572 317.4 486.884 319.64C484.233 321.88 480.425 323 475.46 323H459.276V283.8H464.82V297.464H476.468ZM475.236 318.576C478.484 318.576 480.967 317.848 482.684 316.392C484.439 314.899 485.316 312.752 485.316 309.952C485.316 304.576 481.956 301.888 475.236 301.888H464.82V318.576H475.236ZM512.862 305.752H504.686V323H499.198V283.8H504.686V300.824H512.974L525.294 283.8H531.286L517.286 302.784L531.958 323H525.574L512.862 305.752ZM555.228 323.448C551.271 323.448 547.706 322.589 544.532 320.872C541.359 319.117 538.858 316.709 537.028 313.648C535.236 310.587 534.34 307.171 534.34 303.4C534.34 299.629 535.236 296.213 537.028 293.152C538.858 290.091 541.359 287.701 544.532 285.984C547.706 284.229 551.271 283.352 555.228 283.352C559.148 283.352 562.695 284.229 565.868 285.984C569.042 287.701 571.524 290.091 573.316 293.152C575.108 296.176 576.004 299.592 576.004 303.4C576.004 307.208 575.108 310.643 573.316 313.704C571.524 316.728 569.042 319.117 565.868 320.872C562.695 322.589 559.148 323.448 555.228 323.448ZM555.228 318.464C558.103 318.464 560.679 317.811 562.956 316.504C565.271 315.197 567.082 313.405 568.388 311.128C569.732 308.813 570.404 306.237 570.404 303.4C570.404 300.563 569.732 298.005 568.388 295.728C567.082 293.413 565.271 291.603 562.956 290.296C560.679 288.989 558.103 288.336 555.228 288.336C552.354 288.336 549.74 288.989 547.388 290.296C545.074 291.603 543.244 293.413 541.9 295.728C540.594 298.005 539.94 300.563 539.94 303.4C539.94 306.237 540.594 308.813 541.9 311.128C543.244 313.405 545.074 315.197 547.388 316.504C549.74 317.811 552.354 318.464 555.228 318.464Z" fill="#000620"/>
<path d="M252.48 614.283H269.48L271.48 629.124H224.48L227.48 614.283L251.48 617.251L252.48 614.283Z" fill="black"/>
<path d="M303.48 614.283H286.48L284.48 629.124H331.48L328.48 614.283L304.48 617.251L303.48 614.283Z" fill="black"/>
<path d="M273.46 582.623H242.9V615.272H273.46V582.623Z" fill="#00D378"/>
<path d="M313.071 582.623H282.511V615.272H313.071V582.623Z" fill="#00D378"/>
<path d="M327.07 569.762H228.9V599.442H327.07V569.762Z" fill="#0025FF"/>
<path d="M300.9 409.575C307.94 412.612 314.1 416.738 319.38 421.971C324.66 427.205 328.82 433.309 331.87 440.274C334.92 447.249 336.44 454.729 336.43 462.723C336.42 470.717 334.88 478.196 331.82 485.162C328.76 492.127 324.58 498.221 319.29 503.445C314 508.669 307.83 512.784 300.79 515.802C293.74 518.819 286.18 520.323 278.1 520.313C270.02 520.303 262.46 518.79 255.42 515.752C248.38 512.725 242.22 508.589 236.94 503.356C231.66 498.122 227.5 492.028 224.45 485.053C221.4 478.078 219.88 470.598 219.89 462.604C219.9 454.61 221.43 447.131 224.5 440.166C227.56 433.201 231.74 427.106 237.03 421.882C242.32 416.658 248.48 412.543 255.53 409.525C262.58 406.508 270.14 405.004 278.22 405.014C286.3 405.024 293.86 406.537 300.9 409.575Z" fill="black"/>
<path d="M311.13 437.939H244.83V503.534H311.13V437.939Z" fill="white"/>
<path d="M263.05 467.373C263.06 475.525 269.74 482.134 277.98 482.134C286.22 482.134 292.91 475.525 292.91 467.373H263.05Z" fill="#FF00C1"/>
<path d="M312.62 475.881C315.492 475.881 317.82 473.578 317.82 470.736C317.82 467.895 315.492 465.592 312.62 465.592C309.748 465.592 307.42 467.895 307.42 470.736C307.42 473.578 309.748 475.881 312.62 475.881Z" fill="#FF92D2"/>
<path d="M243.34 475.881C246.212 475.881 248.54 473.578 248.54 470.736C248.54 467.895 246.212 465.592 243.34 465.592C240.468 465.592 238.14 467.895 238.14 470.736C238.14 473.578 240.468 475.881 243.34 475.881Z" fill="#FF92D2"/>
<path d="M258.96 461.349C263.069 461.349 266.4 458.053 266.4 453.988C266.4 449.923 263.069 446.627 258.96 446.627C254.851 446.627 251.52 449.923 251.52 453.988C251.52 458.053 254.851 461.349 258.96 461.349Z" fill="black"/>
<path d="M297.669 461.349C301.778 461.349 305.109 458.053 305.109 453.988C305.109 449.923 301.778 446.627 297.669 446.627C293.56 446.627 290.229 449.923 290.229 453.988C290.229 458.053 293.56 461.349 297.669 461.349Z" fill="black"/>
<path d="M250.09 447.992C249.64 447.992 249.19 447.833 248.83 447.517C248.05 446.824 247.99 445.647 248.69 444.875C251.31 441.996 255.05 440.344 258.96 440.344C260 440.344 260.85 441.185 260.85 442.214C260.85 443.243 260 444.084 258.96 444.084C256.12 444.084 253.4 445.281 251.5 447.378C251.13 447.774 250.61 447.992 250.09 447.992Z" fill="black"/>
<path d="M306.51 447.992C305.99 447.992 305.48 447.784 305.1 447.368C303.2 445.271 300.48 444.074 297.64 444.074C296.6 444.074 295.75 443.233 295.75 442.204C295.75 441.175 296.6 440.334 297.64 440.334C301.55 440.334 305.3 441.986 307.91 444.865C308.61 445.637 308.54 446.814 307.77 447.507C307.41 447.833 306.96 447.992 306.51 447.992Z" fill="black"/>
<path d="M337.97 579.654C337.97 546.907 311.16 520.332 278.05 520.303C244.94 520.273 218.07 546.778 218 579.536L337.97 579.654Z" fill="#0025FF"/>
<path d="M221.69 579.654C221.69 585.778 229.15 590.755 234.4 590.755C239.65 590.765 240.71 585.798 240.72 579.674L221.69 579.654Z" fill="white"/>
<path d="M237.73 579.664C237.73 584.324 238.98 588.103 240.53 588.103C242.08 588.103 243.34 584.334 243.34 579.674L237.73 579.664Z" fill="white"/>
<path d="M334.28 579.654C334.28 585.778 326.82 590.755 321.57 590.755C316.32 590.765 315.26 585.798 315.25 579.674L334.28 579.654Z" fill="white"/>
<path d="M318.23 579.664C318.23 584.324 316.98 588.103 315.43 588.103C313.88 588.103 312.62 584.334 312.62 579.674L318.23 579.664Z" fill="white"/>
<path d="M471.268 614.283H488.268L490.268 629.124H443.268L446.268 614.283L470.268 617.251L471.268 614.283Z" fill="black"/>
<path d="M526.268 614.283H509.268L507.268 629.124H554.268L551.268 614.283L527.268 617.251L526.268 614.283Z" fill="black"/>
<path d="M489.958 582.623H469.268V615.272H489.958V582.623Z" fill="#0025FF"/>
<path d="M528.267 582.623H507.577V615.272H528.267V582.623Z" fill="#0025FF"/>
<path d="M531.068 569.762H466.468V594.496H531.068V569.762Z" fill="#B6E9FF"/>
<path d="M558.598 579.655C558.568 546.838 531.668 520.244 498.488 520.244C465.308 520.244 438.408 546.838 438.378 579.655H558.598Z" fill="#B6E9FF"/>
<path d="M498.538 560.205C500.603 560.205 502.278 558.548 502.278 556.505C502.278 554.461 500.603 552.805 498.538 552.805C496.472 552.805 494.798 554.461 494.798 556.505C494.798 558.548 496.472 560.205 498.538 560.205Z" fill="black"/>
<path d="M498.538 573.037C500.603 573.037 502.278 571.38 502.278 569.337C502.278 567.293 500.603 565.637 498.538 565.637C496.472 565.637 494.798 567.293 494.798 569.337C494.798 571.38 496.472 573.037 498.538 573.037Z" fill="black"/>
<path d="M498.538 547.996L471.418 520.234H525.668L498.538 547.996Z" fill="white"/>
<path d="M521.267 409.258C528.327 412.285 534.497 416.421 539.797 421.655C545.087 426.888 549.267 433.003 552.327 439.987C555.387 446.972 556.917 454.472 556.917 462.476C556.917 470.489 555.387 477.979 552.327 484.964C549.267 491.948 545.087 498.053 539.797 503.296C534.507 508.53 528.327 512.666 521.267 515.693C514.207 518.72 506.637 520.234 498.537 520.234C490.447 520.234 482.867 518.72 475.807 515.693C468.747 512.666 462.577 508.53 457.277 503.296C451.987 498.063 447.807 491.948 444.747 484.964C441.687 477.979 440.157 470.489 440.157 462.476C440.157 454.472 441.687 446.972 444.747 439.987C447.807 433.003 451.987 426.898 457.277 421.655C462.567 416.421 468.747 412.285 475.807 409.258C482.867 406.231 490.437 404.717 498.537 404.717C506.637 404.707 514.217 406.231 521.267 409.258Z" fill="black"/>
<path d="M531.757 437.701H465.327V503.424H531.757V437.701Z" fill="white"/>
<path d="M483.577 467.193C483.587 475.365 490.277 481.984 498.537 481.984C506.797 481.984 513.497 475.365 513.497 467.193H483.577Z" fill="#FF00C1"/>
<path d="M533.247 475.723C536.125 475.723 538.457 473.415 538.457 470.569C538.457 467.722 536.125 465.414 533.247 465.414C530.37 465.414 528.037 467.722 528.037 470.569C528.037 473.415 530.37 475.723 533.247 475.723Z" fill="#FF92D2"/>
<path d="M463.827 475.723C466.705 475.723 469.037 473.415 469.037 470.569C469.037 467.722 466.705 465.414 463.827 465.414C460.95 465.414 458.617 467.722 458.617 470.569C458.617 473.415 460.95 475.723 463.827 475.723Z" fill="#FF92D2"/>
<path d="M479.478 461.169C483.598 461.169 486.938 457.865 486.938 453.789C486.938 449.713 483.598 446.408 479.478 446.408C475.358 446.408 472.018 449.713 472.018 453.789C472.018 457.865 475.358 461.169 479.478 461.169Z" fill="black"/>
<path d="M518.268 461.169C522.388 461.169 525.728 457.865 525.728 453.789C525.728 449.713 522.388 446.408 518.268 446.408C514.148 446.408 510.808 449.713 510.808 453.789C510.808 457.865 514.148 461.169 518.268 461.169Z" fill="black"/>
<path d="M470.597 447.763C470.147 447.763 469.698 447.605 469.338 447.288C468.558 446.596 468.497 445.418 469.197 444.647C471.817 441.758 475.567 440.105 479.487 440.105C480.527 440.105 481.377 440.946 481.377 441.975C481.377 443.004 480.527 443.845 479.487 443.845C476.637 443.845 473.917 445.052 472.007 447.15C471.627 447.555 471.107 447.763 470.597 447.763Z" fill="black"/>
<path d="M527.128 447.763C526.608 447.763 526.098 447.555 525.718 447.14C523.818 445.042 521.088 443.835 518.238 443.835C517.198 443.835 516.348 442.995 516.348 441.966C516.348 440.937 517.198 440.096 518.238 440.096C522.158 440.096 525.908 441.748 528.528 444.637C529.228 445.409 529.158 446.586 528.388 447.278C528.028 447.615 527.578 447.763 527.128 447.763Z" fill="black"/>
<path d="M479.478 466.146C472.918 466.146 467.588 460.863 467.588 454.383C467.588 447.892 472.928 442.619 479.478 442.619C486.028 442.619 491.368 447.902 491.368 454.383C491.368 460.863 486.038 466.146 479.478 466.146ZM479.478 443.856C473.618 443.856 468.848 448.575 468.848 454.373C468.848 460.17 473.618 464.89 479.478 464.89C485.338 464.89 490.108 460.17 490.108 454.373C490.108 448.575 485.338 443.856 479.478 443.856Z" fill="black"/>
<path d="M518.348 466.146C511.788 466.146 506.458 460.863 506.458 454.383C506.458 447.892 511.798 442.619 518.348 442.619C524.898 442.619 530.238 447.902 530.238 454.383C530.238 460.863 524.908 466.146 518.348 466.146ZM518.348 443.856C512.488 443.856 507.718 448.575 507.718 454.373C507.718 460.17 512.488 464.89 518.348 464.89C524.208 464.89 528.978 460.17 528.978 454.373C528.978 448.575 524.208 443.856 518.348 443.856Z" fill="black"/>
<path d="M507.488 451.137C507.308 451.137 507.128 451.058 506.998 450.91C504.968 448.456 501.967 447.041 498.757 447.041C495.557 447.041 492.547 448.446 490.517 450.91C490.297 451.177 489.897 451.217 489.627 450.999C489.357 450.781 489.317 450.386 489.537 450.118C491.807 447.368 495.168 445.795 498.748 445.795C502.328 445.795 505.688 447.368 507.958 450.118C508.178 450.386 508.138 450.781 507.868 450.999C507.778 451.088 507.628 451.137 507.488 451.137Z" fill="black"/>
<path d="M468.038 452.77C467.968 452.77 467.898 452.76 467.828 452.731C461.528 450.554 442.358 443.935 439.558 446.864C439.098 447.349 439.128 448.239 439.648 449.496C439.778 449.812 439.628 450.178 439.308 450.307C438.988 450.436 438.618 450.287 438.488 449.971C437.748 448.19 437.798 446.894 438.648 446.003C440.308 444.272 445.128 443.569 468.248 451.553C468.578 451.662 468.748 452.018 468.638 452.345C468.548 452.612 468.298 452.77 468.038 452.77Z" fill="black"/>
<path d="M529.498 452.77C529.238 452.77 528.998 452.612 528.898 452.355C528.788 452.028 528.958 451.672 529.288 451.563C552.418 443.579 557.228 444.282 558.888 446.013C559.738 446.903 559.788 448.199 559.048 449.98C558.918 450.297 558.548 450.455 558.228 450.317C557.908 450.188 557.748 449.822 557.888 449.505C558.408 448.249 558.448 447.358 557.978 446.874C555.178 443.955 536.008 450.564 529.708 452.741C529.638 452.76 529.568 452.77 529.498 452.77Z" fill="black"/>
<path d="M498.538 585.869C500.603 585.869 502.278 584.212 502.278 582.169C502.278 580.125 500.603 578.469 498.538 578.469C496.472 578.469 494.798 580.125 494.798 582.169C494.798 584.212 496.472 585.869 498.538 585.869Z" fill="black"/>
<path d="M442.188 579.635C442.188 585.759 449.647 590.735 454.897 590.735C460.147 590.745 461.207 585.779 461.217 579.655L442.188 579.635Z" fill="white"/>
<path d="M458.237 579.635C458.237 584.295 459.487 588.074 461.037 588.074C462.587 588.074 463.847 584.305 463.847 579.645L458.237 579.635Z" fill="white"/>
<path d="M554.788 579.635C554.788 585.759 547.328 590.735 542.078 590.735C536.828 590.745 535.768 585.779 535.758 579.655L554.788 579.635Z" fill="white"/>
<path d="M538.738 579.635C538.738 584.295 537.488 588.074 535.938 588.074C534.388 588.074 533.128 584.305 533.128 579.645L538.738 579.635Z" fill="white"/>
<path d="M918.98 614.281H935.98L937.98 629.122H890.98L893.98 614.281L917.98 617.249L918.98 614.281Z" fill="black"/>
<path d="M961.98 614.281H944.98L942.98 629.122H989.98L986.98 614.281L962.98 617.249L961.98 614.281Z" fill="black"/>
<path d="M938.51 569.76H915.9V615.27H938.51V569.76Z" fill="#FFDC97"/>
<path d="M965.07 569.76H942.46V615.27H965.07V569.76Z" fill="#FFDC97"/>
<path d="M963.27 409.188C970.33 412.215 976.5 416.351 981.8 421.584C987.09 426.818 991.27 432.932 994.33 439.917C997.39 446.902 998.92 454.401 998.92 462.405C998.92 470.419 997.39 477.908 994.33 484.893C991.27 491.878 987.09 497.982 981.8 503.226C976.51 508.46 970.33 512.595 963.27 515.623C956.21 518.65 948.64 520.164 940.54 520.164C932.45 520.164 924.87 518.65 917.81 515.623C910.75 512.595 904.58 508.46 899.28 503.226C893.99 497.992 889.81 491.878 886.75 484.893C883.69 477.908 882.16 470.419 882.16 462.405C882.16 454.401 883.69 446.902 886.75 439.917C889.81 432.932 893.99 426.828 899.28 421.584C904.57 416.351 910.75 412.215 917.81 409.188C924.87 406.16 932.44 404.646 940.54 404.646C948.64 404.646 956.21 406.16 963.27 409.188Z" fill="black"/>
<path d="M973.75 437.641H907.32V503.364H973.75V437.641Z" fill="white"/>
<path d="M925.58 467.133C925.59 475.305 932.28 481.924 940.54 481.924C948.8 481.924 955.5 475.305 955.5 467.133H925.58Z" fill="#FF00C1"/>
<path d="M975.25 475.661C978.127 475.661 980.46 473.353 980.46 470.506C980.46 467.659 978.127 465.352 975.25 465.352C972.373 465.352 970.04 467.659 970.04 470.506C970.04 473.353 972.373 475.661 975.25 475.661Z" fill="#FF92D2"/>
<path d="M905.83 475.661C908.708 475.661 911.04 473.353 911.04 470.506C911.04 467.659 908.708 465.352 905.83 465.352C902.953 465.352 900.62 467.659 900.62 470.506C900.62 473.353 902.953 475.661 905.83 475.661Z" fill="#FF92D2"/>
<path d="M921.481 461.099C925.601 461.099 928.94 457.795 928.94 453.718C928.94 449.642 925.601 446.338 921.481 446.338C917.36 446.338 914.021 449.642 914.021 453.718C914.021 457.795 917.36 461.099 921.481 461.099Z" fill="black"/>
<path d="M960.271 461.099C964.391 461.099 967.731 457.795 967.731 453.718C967.731 449.642 964.391 446.338 960.271 446.338C956.151 446.338 952.811 449.642 952.811 453.718C952.811 457.795 956.151 461.099 960.271 461.099Z" fill="black"/>
<path d="M912.59 447.703C912.14 447.703 911.69 447.544 911.33 447.228C910.55 446.535 910.49 445.358 911.19 444.586C913.81 441.697 917.56 440.045 921.48 440.045C922.52 440.045 923.37 440.886 923.37 441.915C923.37 442.944 922.52 443.785 921.48 443.785C918.63 443.785 915.91 444.992 914 447.089C913.63 447.495 913.11 447.703 912.59 447.703Z" fill="black"/>
<path d="M969.131 447.703C968.611 447.703 968.101 447.495 967.721 447.079C965.821 444.982 963.091 443.775 960.241 443.775C959.201 443.775 958.351 442.934 958.351 441.905C958.351 440.876 959.201 440.035 960.241 440.035C964.161 440.035 967.911 441.687 970.531 444.576C971.231 445.348 971.161 446.525 970.391 447.218C970.031 447.544 969.581 447.703 969.131 447.703Z" fill="black"/>
<path d="M1000.84 579.654C1000.81 546.699 973.801 519.996 940.491 519.996C907.181 519.996 880.171 546.699 880.141 579.654H1000.84Z" fill="#0025FF"/>
<path d="M940.521 579.595L920.881 519.967H960.151L940.521 579.595Z" fill="#00D378"/>
<path d="M940.481 520.016L950.571 579.595H930.391L940.481 520.016Z" fill="#B924FF"/>
<path d="M940.563 519.964L931.385 529.045L940.563 538.125L949.741 529.045L940.563 519.964Z" fill="#B924FF"/>
<path d="M888.19 579.635C888.19 585.759 895.65 590.735 900.9 590.735C906.15 590.745 907.21 585.779 907.22 579.655L888.19 579.635Z" fill="white"/>
<path d="M904.23 579.635C904.23 584.295 905.48 588.074 907.03 588.074C908.58 588.074 909.84 584.305 909.84 579.645L904.23 579.635Z" fill="white"/>
<path d="M992.78 579.635C992.78 585.759 985.32 590.735 980.07 590.735C974.82 590.745 973.76 585.779 973.75 579.655L992.78 579.635Z" fill="white"/>
<path d="M976.73 579.635C976.73 584.295 975.48 588.074 973.93 588.074C972.38 588.074 971.12 584.305 971.12 579.645L976.73 579.635Z" fill="white"/>
<path d="M1129.19 614.281H1146.19L1148.19 629.122H1101.19L1104.19 614.281L1128.19 617.249L1129.19 614.281Z" fill="black"/>
<path d="M1193.19 614.281H1176.19L1174.19 629.122H1221.19L1218.19 614.281L1194.19 617.249L1193.19 614.281Z" fill="black"/>
<path d="M1159.22 569.76H1140.6L1128.6 615.27H1151.22L1159.22 569.76Z" fill="black"/>
<path d="M1181.77 569.76H1163.16L1171.16 615.27H1193.77L1181.77 569.76Z" fill="black"/>
<path d="M1196.07 569.76H1126.31V586.579H1196.07V569.76Z" fill="black"/>
<path d="M1183.98 409.188C1191.04 412.215 1197.21 416.351 1202.51 421.584C1207.8 426.818 1211.98 432.932 1215.04 439.917C1218.1 446.902 1219.63 454.401 1219.63 462.405C1219.63 470.419 1218.1 477.908 1215.04 484.893C1211.98 491.878 1207.8 497.982 1202.51 503.226C1197.22 508.46 1191.04 512.595 1183.98 515.623C1176.92 518.65 1169.35 520.164 1161.25 520.164C1153.16 520.164 1145.58 518.65 1138.52 515.623C1131.46 512.595 1125.29 508.46 1119.99 503.226C1114.7 497.992 1110.52 491.878 1107.46 484.893C1104.4 477.908 1102.87 470.419 1102.87 462.405C1102.87 454.401 1104.4 446.902 1107.46 439.917C1110.52 432.932 1114.7 426.828 1119.99 421.584C1125.28 416.351 1131.46 412.215 1138.52 409.188C1145.58 406.16 1153.15 404.646 1161.25 404.646C1169.34 404.646 1176.92 406.16 1183.98 409.188Z" fill="black"/>
<path d="M1221.54 579.654C1221.51 546.699 1194.5 519.996 1161.19 519.996C1127.88 519.996 1100.87 546.699 1100.84 579.654H1221.54Z" fill="black"/>
<path d="M1161.22 579.595L1141.58 519.967H1180.86L1161.22 579.595Z" fill="white"/>
<path d="M1161.19 520.016L1171.28 579.595H1151.1L1161.19 520.016Z" fill="black"/>
<path d="M1170.44 529.036L1161.26 519.955L1152.08 529.036L1161.26 538.116L1170.44 529.036Z" fill="black"/>
<path d="M1194.34 437.641H1128.04V503.235H1194.34V437.641Z" fill="white"/>
<path d="M1140.28 472.684C1140.29 484.101 1149.65 493.351 1161.19 493.351C1172.73 493.351 1182.09 484.101 1182.1 472.684H1140.28Z" fill="#FF00C1"/>
<path d="M1195.83 475.582C1198.7 475.582 1201.03 473.279 1201.03 470.438C1201.03 467.596 1198.7 465.293 1195.83 465.293C1192.96 465.293 1190.63 467.596 1190.63 470.438C1190.63 473.279 1192.96 475.582 1195.83 475.582Z" fill="#FF92D2"/>
<path d="M1126.55 475.582C1129.42 475.582 1131.75 473.279 1131.75 470.438C1131.75 467.596 1129.42 465.293 1126.55 465.293C1123.68 465.293 1121.35 467.596 1121.35 470.438C1121.35 473.279 1123.68 475.582 1126.55 475.582Z" fill="#FF92D2"/>
<path d="M1142.16 461.038C1146.27 461.038 1149.6 457.742 1149.6 453.677C1149.6 449.612 1146.27 446.316 1142.16 446.316C1138.05 446.316 1134.72 449.612 1134.72 453.677C1134.72 457.742 1138.05 461.038 1142.16 461.038Z" fill="black"/>
<path d="M1180.87 461.038C1184.98 461.038 1188.31 457.742 1188.31 453.677C1188.31 449.612 1184.98 446.316 1180.87 446.316C1176.76 446.316 1173.43 449.612 1173.43 453.677C1173.43 457.742 1176.76 461.038 1180.87 461.038Z" fill="black"/>
<path d="M1133.3 447.683C1132.85 447.683 1132.4 447.525 1132.04 447.208C1131.26 446.515 1131.2 445.338 1131.9 444.566C1134.52 441.687 1138.26 440.035 1142.17 440.035C1143.21 440.035 1144.06 440.876 1144.06 441.905C1144.06 442.934 1143.21 443.775 1142.17 443.775C1139.33 443.775 1136.61 444.972 1134.71 447.069C1134.33 447.475 1133.82 447.683 1133.3 447.683Z" fill="black"/>
<path d="M1189.72 447.683C1189.2 447.683 1188.69 447.475 1188.31 447.06C1186.41 444.962 1183.69 443.765 1180.85 443.765C1179.81 443.765 1178.96 442.924 1178.96 441.895C1178.96 440.866 1179.81 440.025 1180.85 440.025C1184.76 440.025 1188.51 441.678 1191.12 444.557C1191.82 445.328 1191.75 446.506 1190.98 447.198C1190.62 447.525 1190.17 447.683 1189.72 447.683Z" fill="black"/>
<path d="M1140.49 467.202C1133.48 467.202 1127.77 461.553 1127.77 454.618C1127.77 447.682 1133.48 442.033 1140.49 442.033C1147.5 442.033 1153.21 447.682 1153.21 454.618C1153.21 461.563 1147.5 467.202 1140.49 467.202ZM1140.49 443.29C1134.17 443.29 1129.03 448.375 1129.03 454.628C1129.03 460.88 1134.17 465.966 1140.49 465.966C1146.81 465.966 1151.95 460.88 1151.95 454.628C1151.95 448.375 1146.81 443.29 1140.49 443.29Z" fill="black"/>
<path d="M1182.2 467.202C1175.19 467.202 1169.48 461.553 1169.48 454.618C1169.48 447.682 1175.19 442.033 1182.2 442.033C1189.21 442.033 1194.92 447.682 1194.92 454.618C1194.92 461.563 1189.22 467.202 1182.2 467.202ZM1182.2 443.29C1175.88 443.29 1170.74 448.375 1170.74 454.628C1170.74 460.88 1175.88 465.966 1182.2 465.966C1188.52 465.966 1193.66 460.88 1193.66 454.628C1193.66 448.375 1188.52 443.29 1182.2 443.29Z" fill="black"/>
<path d="M1170.55 451.096C1170.37 451.096 1170.19 451.017 1170.06 450.869C1167.87 448.217 1164.64 446.704 1161.19 446.704C1157.74 446.704 1154.5 448.217 1152.32 450.869C1152.1 451.136 1151.7 451.176 1151.43 450.958C1151.16 450.74 1151.12 450.344 1151.34 450.077C1153.77 447.139 1157.36 445.457 1161.19 445.457C1165.02 445.457 1168.61 447.139 1171.04 450.077C1171.26 450.344 1171.22 450.74 1170.95 450.958C1170.83 451.047 1170.69 451.096 1170.55 451.096Z" fill="black"/>
<path d="M1104.89 579.635C1104.89 585.759 1112.35 590.735 1117.6 590.735C1122.85 590.745 1123.91 585.779 1123.92 579.655L1104.89 579.635Z" fill="white"/>
<path d="M1120.94 579.635C1120.94 584.295 1122.19 588.074 1123.74 588.074C1125.29 588.074 1126.55 584.305 1126.55 579.645L1120.94 579.635Z" fill="white"/>
<path d="M1217.49 579.635C1217.49 585.759 1210.03 590.735 1204.78 590.735C1199.53 590.745 1198.47 585.779 1198.46 579.655L1217.49 579.635Z" fill="white"/>
<path d="M1201.44 579.635C1201.44 584.295 1200.19 588.074 1198.64 588.074C1197.09 588.074 1195.83 584.305 1195.83 579.645L1201.44 579.635Z" fill="white"/>
<path d="M742.888 409.495C749.968 412.542 756.158 416.697 761.468 421.961C766.768 427.224 770.958 433.358 774.028 440.363C777.088 447.377 778.618 454.896 778.608 462.93C778.598 470.964 777.058 478.483 773.978 485.487C770.898 492.492 766.698 498.616 761.388 503.87C756.068 509.123 749.868 513.259 742.788 516.296C735.698 519.333 728.098 520.837 719.978 520.827C711.858 520.817 704.258 519.294 697.178 516.246C690.098 513.199 683.908 509.044 678.598 503.781C673.288 498.517 669.108 492.383 666.038 485.379C662.968 478.364 661.448 470.845 661.448 462.811C661.458 454.778 662.998 447.259 666.078 440.254C669.158 433.249 673.358 427.125 678.668 421.872C683.988 416.618 690.188 412.483 697.268 409.445C704.348 406.418 711.958 404.904 720.078 404.914C728.208 404.924 735.808 406.458 742.888 409.495Z" fill="black"/>
<path d="M698.598 616.418H712.968L714.658 628.963H674.928L677.468 616.418L697.758 618.931L698.598 616.418Z" fill="black"/>
<path d="M741.098 616.418H726.728L725.038 628.963H764.768L762.228 616.418L741.938 618.931L741.098 616.418Z" fill="black"/>
<path d="M717.038 582.623H696.348V617.251H717.038V582.623Z" fill="#0025FF"/>
<path d="M743.347 582.623H722.657V617.251H743.347V582.623Z" fill="#0025FF"/>
<path d="M742.508 409.445C749.538 412.463 755.698 416.588 760.978 421.802C766.248 427.016 770.418 433.111 773.468 440.076C776.518 447.041 778.048 454.511 778.048 462.495C778.048 470.479 776.518 477.948 773.468 484.913C770.418 491.879 766.248 497.963 760.978 503.187C755.698 508.411 749.548 512.526 742.508 515.544C735.468 518.561 727.918 520.075 719.848 520.075C711.778 520.075 704.228 518.561 697.188 515.544C690.148 512.526 683.998 508.401 678.718 503.187C673.438 497.973 669.278 491.879 666.228 484.913C663.178 477.948 661.648 470.479 661.648 462.495C661.648 454.511 663.178 447.041 666.228 440.076C669.278 433.121 673.448 427.026 678.718 421.802C683.998 416.579 690.148 412.463 697.188 409.445C704.218 406.428 711.778 404.914 719.848 404.914C727.918 404.914 735.468 406.428 742.508 409.445Z" fill="black"/>
<path d="M752.958 437.811H686.738V503.326H752.958V437.811Z" fill="white"/>
<path d="M698.968 472.814C698.978 484.222 708.328 493.452 719.848 493.452C731.378 493.452 740.718 484.212 740.728 472.814H698.968Z" fill="#FF00C1"/>
<path d="M754.448 475.713C757.32 475.713 759.648 473.41 759.648 470.568C759.648 467.727 757.32 465.424 754.448 465.424C751.576 465.424 749.248 467.727 749.248 470.568C749.248 473.41 751.576 475.713 754.448 475.713Z" fill="#FF92D2"/>
<path d="M685.248 475.713C688.12 475.713 690.448 473.41 690.448 470.568C690.448 467.727 688.12 465.424 685.248 465.424C682.376 465.424 680.048 467.727 680.048 470.568C680.048 473.41 682.376 475.713 685.248 475.713Z" fill="#FF92D2"/>
<path d="M700.848 461.198C704.957 461.198 708.288 457.903 708.288 453.837C708.288 449.772 704.957 446.477 700.848 446.477C696.739 446.477 693.408 449.772 693.408 453.837C693.408 457.903 696.739 461.198 700.848 461.198Z" fill="black"/>
<path d="M739.507 461.198C743.616 461.198 746.947 457.903 746.947 453.837C746.947 449.772 743.616 446.477 739.507 446.477C735.398 446.477 732.067 449.772 732.067 453.837C732.067 457.903 735.398 461.198 739.507 461.198Z" fill="black"/>
<path d="M691.988 447.843C691.538 447.843 691.088 447.685 690.728 447.368C689.948 446.676 689.888 445.498 690.588 444.727C693.198 441.848 696.938 440.195 700.848 440.195C701.888 440.195 702.738 441.036 702.738 442.065C702.738 443.094 701.888 443.935 700.848 443.935C698.008 443.935 695.298 445.132 693.398 447.22C693.028 447.635 692.508 447.843 691.988 447.843Z" fill="black"/>
<path d="M748.348 447.843C747.828 447.843 747.318 447.635 746.938 447.22C745.038 445.132 742.328 443.935 739.488 443.935C738.448 443.935 737.598 443.094 737.598 442.065C737.598 441.036 738.448 440.195 739.488 440.195C743.398 440.195 747.138 441.848 749.748 444.727C750.448 445.498 750.378 446.676 749.608 447.368C749.248 447.685 748.788 447.843 748.348 447.843Z" fill="black"/>
<path d="M780.128 579.655C780.098 546.739 753.118 520.066 719.848 520.066C686.578 520.066 659.598 546.739 659.568 579.655H678.348V600.432H761.348V579.655H780.128Z" fill="#0025FF"/>
<mask id="mask0_771_43932" style="mask-type:alpha" maskUnits="userSpaceOnUse" x="659" y="520" width="122" height="81">
<path d="M780.126 579.655C780.096 546.739 753.116 520.066 719.846 520.066C686.576 520.066 659.596 546.739 659.566 579.655H678.346V600.432H761.346V579.655H780.126Z" fill="#0025FF"/>
</mask>
<g mask="url(#mask0_771_43932)">
<path d="M670.07 509.926H668.67V627.392H670.07V509.926Z" fill="black"/>
<path d="M673.339 509.926H671.939V627.392H673.339V509.926Z" fill="black"/>
<path d="M676.61 509.926H675.21V627.392H676.61V509.926Z" fill="black"/>
<path d="M693.67 509.926H692.27V627.392H693.67V509.926Z" fill="black"/>
<path d="M696.94 509.926H695.54V627.392H696.94V509.926Z" fill="black"/>
<path d="M700.22 509.926H698.82V627.392H700.22V509.926Z" fill="black"/>
<path d="M717.28 509.926H715.88V627.392H717.28V509.926Z" fill="black"/>
<path d="M720.55 509.926H719.15V627.392H720.55V509.926Z" fill="black"/>
<path d="M723.82 509.926H722.42V627.392H723.82V509.926Z" fill="black"/>
<path d="M740.879 509.926H739.479V627.392H740.879V509.926Z" fill="black"/>
<path d="M744.16 509.926H742.76V627.392H744.16V509.926Z" fill="black"/>
<path d="M747.43 509.926H746.03V627.392H747.43V509.926Z" fill="black"/>
<path d="M764.49 509.926H763.09V627.392H764.49V509.926Z" fill="black"/>
<path d="M767.76 509.926H766.36V627.392H767.76V509.926Z" fill="black"/>
<path d="M771.03 509.926H769.63V627.392H771.03V509.926Z" fill="black"/>
<path d="M786.575 522.645V521.26H653.115V522.645H786.575Z" fill="black"/>
<path d="M786.577 525.881V524.496H653.117V525.881H786.577Z" fill="black"/>
<path d="M786.579 542.762V541.377H653.119V542.762H786.579Z" fill="black"/>
<path d="M786.581 545.998V544.613H653.121V545.998H786.581Z" fill="black"/>
<path d="M786.573 549.237V547.852H653.113V549.237H786.573Z" fill="black"/>
<path d="M786.575 566.116V564.73H653.115V566.116H786.575Z" fill="black"/>
<path d="M786.577 569.354V567.969H653.117V569.354H786.577Z" fill="black"/>
<path d="M786.579 572.59V571.205H653.119V572.59H786.579Z" fill="black"/>
<path d="M786.581 589.471V588.086H653.121V589.471H786.581Z" fill="black"/>
<path d="M786.573 592.707V591.322H653.113V592.707H786.573Z" fill="black"/>
<path d="M786.575 595.946V594.561H653.115V595.946H786.575Z" fill="black"/>
</g>
<path d="M719.908 560.143C721.979 560.143 723.658 558.482 723.658 556.433C723.658 554.384 721.979 552.723 719.908 552.723C717.837 552.723 716.158 554.384 716.158 556.433C716.158 558.482 717.837 560.143 719.908 560.143Z" fill="black"/>
<path d="M719.908 573.194C721.979 573.194 723.658 571.533 723.658 569.484C723.658 567.434 721.979 565.773 719.908 565.773C717.837 565.773 716.158 567.434 716.158 569.484C716.158 571.533 717.837 573.194 719.908 573.194Z" fill="black"/>
<path d="M719.908 547.094C721.979 547.094 723.658 545.433 723.658 543.384C723.658 541.335 721.979 539.674 719.908 539.674C717.837 539.674 716.158 541.335 716.158 543.384C716.158 545.433 717.837 547.094 719.908 547.094Z" fill="black"/>
<path d="M663.548 579.635C663.548 585.759 671.008 590.735 676.258 590.735C681.508 590.745 682.568 585.779 682.578 579.655L663.548 579.635Z" fill="white"/>
<path d="M679.598 579.635C679.598 584.295 680.848 588.074 682.398 588.074C683.948 588.074 685.208 584.305 685.208 579.645L679.598 579.635Z" fill="white"/>
<path d="M776.148 579.635C776.148 585.759 768.688 590.735 763.438 590.735C758.188 590.745 757.128 585.779 757.118 579.655L776.148 579.635Z" fill="white"/>
<path d="M760.098 579.635C760.098 584.295 758.848 588.074 757.298 588.074C755.748 588.074 754.488 584.305 754.488 579.645L760.098 579.635Z" fill="white"/>
<path d="M678.618 494.936L671.198 532.838L640.078 488.871L678.618 494.936Z" fill="black"/>
<path d="M761.078 494.936L768.498 532.838L799.618 488.871L761.078 494.936Z" fill="black"/>
<defs>
<linearGradient id="paint0_linear_771_43932" x1="720" y1="841" x2="720" y2="0" gradientUnits="userSpaceOnUse">
<stop stop-color="#ADD1F4"/>
<stop offset="1" stop-color="#6FAFE6"/>
</linearGradient>
</defs>
</svg>
