<svg width="240" height="316" viewBox="0 0 240 316" fill="none" xmlns="http://www.w3.org/2000/svg">
<rect width="240" height="316" rx="18" fill="#DBDBDB"/>
<path d="M120 165V102" stroke="#B4B4B4" stroke-width="6" stroke-miterlimit="10" stroke-linecap="round" stroke-linejoin="round"/>
<path d="M88 133H153" stroke="#B4B4B4" stroke-width="6" stroke-miterlimit="10" stroke-linecap="round" stroke-linejoin="round"/>
<circle cx="120" cy="134" r="49.5" stroke="#B4B4B4"/>
<path d="M91.8052 208.192C90.6639 208.192 89.6292 207.947 88.7012 207.456C87.7839 206.955 87.0585 206.267 86.5252 205.392C86.0025 204.507 85.7412 203.509 85.7412 202.4C85.7412 201.291 86.0025 200.299 86.5252 199.424C87.0585 198.539 87.7839 197.851 88.7012 197.36C89.6292 196.859 90.6692 196.608 91.8212 196.608C92.7919 196.608 93.6665 196.779 94.4452 197.12C95.2345 197.461 95.8959 197.952 96.4292 198.592L94.7652 200.128C94.0079 199.253 93.0692 198.816 91.9492 198.816C91.2559 198.816 90.6372 198.971 90.0932 199.28C89.5492 199.579 89.1225 200 88.8132 200.544C88.5145 201.088 88.3652 201.707 88.3652 202.4C88.3652 203.093 88.5145 203.712 88.8132 204.256C89.1225 204.8 89.5492 205.227 90.0932 205.536C90.6372 205.835 91.2559 205.984 91.9492 205.984C93.0692 205.984 94.0079 205.541 94.7652 204.656L96.4292 206.192C95.8959 206.843 95.2345 207.339 94.4452 207.68C93.6559 208.021 92.7759 208.192 91.8052 208.192ZM101.662 208.128C100.755 208.128 99.939 207.941 99.2137 207.568C98.499 207.184 97.939 206.656 97.5337 205.984C97.1284 205.312 96.9257 204.549 96.9257 203.696C96.9257 202.843 97.1284 202.08 97.5337 201.408C97.939 200.736 98.499 200.213 99.2137 199.84C99.939 199.456 100.755 199.264 101.662 199.264C102.568 199.264 103.379 199.456 104.094 199.84C104.808 200.213 105.368 200.736 105.774 201.408C106.179 202.08 106.382 202.843 106.382 203.696C106.382 204.549 106.179 205.312 105.774 205.984C105.368 206.656 104.808 207.184 104.094 207.568C103.379 207.941 102.568 208.128 101.662 208.128ZM101.662 206.08C102.302 206.08 102.824 205.867 103.23 205.44C103.646 205.003 103.854 204.421 103.854 203.696C103.854 202.971 103.646 202.395 103.23 201.968C102.824 201.531 102.302 201.312 101.662 201.312C101.022 201.312 100.494 201.531 100.078 201.968C99.6617 202.395 99.4537 202.971 99.4537 203.696C99.4537 204.421 99.6617 205.003 100.078 205.44C100.494 205.867 101.022 206.08 101.662 206.08ZM113.526 203.52C114.038 203.68 114.433 203.925 114.71 204.256C114.998 204.587 115.142 204.981 115.142 205.44C115.142 205.984 114.956 206.464 114.582 206.88C114.209 207.285 113.697 207.6 113.046 207.824C112.396 208.048 111.66 208.16 110.838 208.16C110.166 208.16 109.505 208.091 108.854 207.952C108.204 207.813 107.601 207.605 107.046 207.328L107.718 205.584C108.625 206.021 109.628 206.24 110.726 206.24C111.313 206.24 111.772 206.155 112.102 205.984C112.444 205.803 112.614 205.552 112.614 205.232C112.614 204.955 112.497 204.747 112.262 204.608C112.028 204.459 111.686 204.384 111.238 204.384H109.478V202.832H111.014C111.452 202.832 111.788 202.763 112.022 202.624C112.257 202.485 112.374 202.283 112.374 202.016C112.374 201.739 112.225 201.525 111.926 201.376C111.638 201.227 111.222 201.152 110.678 201.152C109.846 201.152 108.94 201.349 107.958 201.744L107.35 200.016C108.545 199.493 109.708 199.232 110.838 199.232C111.617 199.232 112.31 199.328 112.918 199.52C113.537 199.712 114.022 199.995 114.374 200.368C114.726 200.731 114.902 201.157 114.902 201.648C114.902 202.053 114.78 202.421 114.534 202.752C114.289 203.072 113.953 203.328 113.526 203.52ZM126.606 205.952V209.856H124.286V208H118.238V209.856H115.918V205.952H116.27C116.803 205.941 117.171 205.627 117.374 205.008C117.576 204.389 117.704 203.509 117.758 202.368L117.87 199.392H125.374V205.952H126.606ZM120.014 202.544C119.982 203.419 119.912 204.133 119.806 204.688C119.71 205.243 119.523 205.664 119.246 205.952H122.878V201.44H120.062L120.014 202.544ZM131.521 199.264C132.854 199.264 133.878 199.584 134.593 200.224C135.307 200.853 135.665 201.808 135.665 203.088V208H133.329V206.928C132.859 207.728 131.985 208.128 130.705 208.128C130.043 208.128 129.467 208.016 128.977 207.792C128.497 207.568 128.129 207.259 127.873 206.864C127.617 206.469 127.489 206.021 127.489 205.52C127.489 204.72 127.787 204.091 128.385 203.632C128.993 203.173 129.926 202.944 131.185 202.944H133.169C133.169 202.4 133.003 201.984 132.673 201.696C132.342 201.397 131.846 201.248 131.185 201.248C130.726 201.248 130.273 201.323 129.825 201.472C129.387 201.611 129.014 201.803 128.705 202.048L127.809 200.304C128.278 199.973 128.838 199.717 129.489 199.536C130.15 199.355 130.827 199.264 131.521 199.264ZM131.329 206.448C131.755 206.448 132.134 206.352 132.465 206.16C132.795 205.957 133.03 205.664 133.169 205.28V204.4H131.457C130.433 204.4 129.921 204.736 129.921 205.408C129.921 205.728 130.043 205.984 130.289 206.176C130.545 206.357 130.891 206.448 131.329 206.448ZM145.065 201.44H142.153V208H139.673V201.44H136.761V199.392H145.065V201.44ZM151.051 202.144C152.171 202.155 153.03 202.411 153.627 202.912C154.225 203.403 154.523 204.101 154.523 205.008C154.523 205.957 154.187 206.699 153.515 207.232C152.854 207.755 151.921 208.016 150.715 208.016L146.395 208V199.392H148.875V202.144H151.051ZM150.491 206.24C150.971 206.251 151.339 206.149 151.595 205.936C151.851 205.723 151.979 205.403 151.979 204.976C151.979 204.56 151.851 204.256 151.595 204.064C151.35 203.872 150.982 203.771 150.491 203.76L148.875 203.744V206.24H150.491ZM95.3154 219.392V228H92.8194V221.44H90.0994L90.0194 222.96C89.9767 224.091 89.87 225.029 89.6994 225.776C89.5287 226.523 89.2514 227.109 88.8674 227.536C88.4834 227.963 87.95 228.176 87.2674 228.176C86.9047 228.176 86.4727 228.112 85.9714 227.984L86.0994 225.936C86.27 225.957 86.3927 225.968 86.4674 225.968C86.8407 225.968 87.118 225.835 87.2994 225.568C87.4914 225.291 87.6194 224.944 87.6834 224.528C87.7474 224.101 87.7954 223.541 87.8274 222.848L87.9554 219.392H95.3154ZM106.084 223.728C106.084 223.76 106.068 223.984 106.036 224.4H99.5236C99.641 224.933 99.9183 225.355 100.356 225.664C100.793 225.973 101.337 226.128 101.988 226.128C102.436 226.128 102.83 226.064 103.172 225.936C103.524 225.797 103.849 225.584 104.148 225.296L105.476 226.736C104.665 227.664 103.481 228.128 101.924 228.128C100.953 228.128 100.094 227.941 99.3476 227.568C98.601 227.184 98.025 226.656 97.6196 225.984C97.2143 225.312 97.0116 224.549 97.0116 223.696C97.0116 222.853 97.209 222.096 97.6036 221.424C98.009 220.741 98.5583 220.213 99.2516 219.84C99.9556 219.456 100.74 219.264 101.604 219.264C102.446 219.264 103.209 219.445 103.892 219.808C104.574 220.171 105.108 220.693 105.492 221.376C105.886 222.048 106.084 222.832 106.084 223.728ZM101.62 221.152C101.054 221.152 100.58 221.312 100.196 221.632C99.8116 221.952 99.577 222.389 99.4916 222.944H103.732C103.646 222.4 103.412 221.968 103.028 221.648C102.644 221.317 102.174 221.152 101.62 221.152ZM111.789 224.736H110.493V228H107.997V219.392H110.493V222.736H111.837L114.173 219.392H116.829L113.821 223.52L117.037 228H114.093L111.789 224.736ZM127.959 225.952V229.888H125.639V228H118.263V219.392H120.743V225.952H124.215V219.392H126.711V225.952H127.959ZM129.528 219.392H132.008V224.512L136.2 219.392H138.488V228H136.008V222.88L131.832 228H129.528V219.392ZM149.032 219.264C149.906 219.264 150.69 219.456 151.384 219.84C152.077 220.213 152.621 220.736 153.016 221.408C153.41 222.08 153.608 222.843 153.608 223.696C153.608 224.549 153.41 225.312 153.016 225.984C152.621 226.656 152.077 227.184 151.384 227.568C150.69 227.941 149.906 228.128 149.032 228.128C148.274 228.128 147.581 227.989 146.952 227.712C146.322 227.424 145.8 227.024 145.384 226.512C144.968 225.989 144.69 225.392 144.552 224.72H143.368V228H140.888V219.392H143.368V222.56H144.568C144.813 221.557 145.336 220.757 146.136 220.16C146.936 219.563 147.901 219.264 149.032 219.264ZM149.032 226.08C149.64 226.08 150.141 225.867 150.536 225.44C150.941 225.003 151.144 224.421 151.144 223.696C151.144 222.96 150.941 222.379 150.536 221.952C150.141 221.525 149.64 221.312 149.032 221.312C148.413 221.312 147.901 221.525 147.496 221.952C147.101 222.379 146.904 222.96 146.904 223.696C146.904 224.421 147.101 225.003 147.496 225.44C147.901 225.867 148.413 226.08 149.032 226.08Z" fill="#B4B4B4"/>
</svg>
