<svg width="70" height="39" viewBox="0 0 70 39" fill="none" xmlns="http://www.w3.org/2000/svg">
<rect y="3" width="60" height="36" rx="18" fill="#00D378"/>
<path fill-rule="evenodd" clip-rule="evenodd" d="M26.338 13C24.5024 13 23 14.5074 23 16.3818V23.1737C23 25.0535 24.5015 26.5556 26.338 26.5556H35.3921C35.6409 26.5556 35.8807 26.6483 36.0647 26.8156L39.2817 29.7397V27.5055C39.2817 27.009 39.6459 26.5877 40.1372 26.516C41.7502 26.2805 43 24.8835 43 23.1737V16.3818C43 14.5021 41.4985 13 39.662 13H26.338ZM21 16.3818C21 13.4237 23.3771 11 26.338 11H39.662C42.622 11 45 13.4165 45 16.3818V23.1737C45 25.576 43.4396 27.6042 41.2817 28.2968V32C41.2817 32.3958 41.0482 32.7544 40.6863 32.9145C40.3243 33.0746 39.902 33.0062 39.6091 32.74L35.0055 28.5556H26.338C23.378 28.5556 21 26.139 21 23.1737V16.3818Z" fill="white"/>
<path d="M33.662 9H20.338C17.9397 9 16 10.9593 16 13.3818V20.1737C16 22.3834 17.6175 24.1987 19.7183 24.5055V29L24.6079 24.5556H33.662C36.0603 24.5556 38 22.5962 38 20.1737V13.3818C38 10.9656 36.0603 9 33.662 9Z" fill="#00D378"/>
<path fill-rule="evenodd" clip-rule="evenodd" d="M15 13.3818C15 10.4165 17.378 8 20.338 8H33.662C36.6229 8 39 10.4237 39 13.3818V20.1737C39 23.139 36.622 25.5556 33.662 25.5556H24.9945L20.3909 29.74C20.098 30.0062 19.6757 30.0746 19.3137 29.9145C18.9518 29.7544 18.7183 29.3958 18.7183 29V25.2968C16.5604 24.6042 15 22.576 15 20.1737V13.3818ZM20.338 10C18.5015 10 17 11.5021 17 13.3818V20.1737C17 21.8835 18.2498 23.2805 19.8628 23.516C20.3541 23.5877 20.7183 24.009 20.7183 24.5055V26.7397L23.9353 23.8156C24.1193 23.6483 24.3591 23.5556 24.6079 23.5556H33.662C35.4985 23.5556 37 22.0535 37 20.1737V13.3818C37 11.5074 35.4976 10 33.662 10H20.338Z" fill="white"/>
<path d="M27 18.0259C27.6904 18.0259 28.25 17.4662 28.25 16.7759C28.25 16.0855 27.6904 15.5259 27 15.5259C26.3096 15.5259 25.75 16.0855 25.75 16.7759C25.75 17.4662 26.3096 18.0259 27 18.0259Z" fill="white"/>
<path d="M31.5 18.0259C32.1904 18.0259 32.75 17.4662 32.75 16.7759C32.75 16.0855 32.1904 15.5259 31.5 15.5259C30.8096 15.5259 30.25 16.0855 30.25 16.7759C30.25 17.4662 30.8096 18.0259 31.5 18.0259Z" fill="white"/>
<path d="M22.5 18.0259C23.1904 18.0259 23.75 17.4662 23.75 16.7759C23.75 16.0855 23.1904 15.5259 22.5 15.5259C21.8096 15.5259 21.25 16.0855 21.25 16.7759C21.25 17.4662 21.8096 18.0259 22.5 18.0259Z" fill="white"/>
<circle cx="54.5" cy="8.5" r="8.5" fill="#0025FF"/>
<path d="M56.776 10.217V11H52.249V10.388L54.814 7.913C55.126 7.613 55.336 7.355 55.444 7.139C55.552 6.917 55.606 6.695 55.606 6.473C55.606 6.143 55.489 5.888 55.255 5.708C55.027 5.522 54.697 5.429 54.265 5.429C53.569 5.429 53.032 5.657 52.654 6.113L52.042 5.582C52.288 5.282 52.609 5.048 53.005 4.88C53.407 4.712 53.854 4.628 54.346 4.628C55.006 4.628 55.531 4.787 55.921 5.105C56.311 5.417 56.506 5.843 56.506 6.383C56.506 6.719 56.434 7.037 56.29 7.337C56.146 7.637 55.873 7.979 55.471 8.363L53.545 10.217H56.776Z" fill="white"/>
</svg>
