<svg width="160" height="160" viewBox="0 0 160 160" fill="none" xmlns="http://www.w3.org/2000/svg">
<mask id="mask0_1142_180" style="mask-type:alpha" maskUnits="userSpaceOnUse" x="0" y="0" width="160" height="160">
<circle cx="80" cy="80" r="80" fill="#C4C4C4"/>
</mask>
<g mask="url(#mask0_1142_180)">
<path d="M160 0H0V160H160V0Z" fill="#00D378"/>
<path d="M137.684 98.383C136.108 94.741 133.956 91.551 131.228 88.819C128.88 86.4649 126.192 84.5409 123.17 83.0389C125.146 77.9289 126.142 72.4848 126.148 66.7048C126.154 60.2988 124.948 54.3007 122.532 48.7087C120.114 43.1206 116.812 38.2286 112.628 34.0346C108.442 29.8405 103.556 26.5305 97.9741 24.0985C92.3901 21.6705 86.3941 20.4525 79.986 20.4445C73.58 20.4385 67.5799 21.6445 61.9919 24.0605C56.4018 26.4805 51.5118 29.7805 47.3178 33.9666C43.1237 38.1506 39.8117 43.0366 37.3837 48.6187C34.9517 54.2047 33.7357 60.2008 33.7297 66.6068C33.7237 72.3768 34.7037 77.8129 36.6637 82.9189C33.5617 84.4269 30.8137 86.3769 28.4136 88.771C25.6796 91.499 23.5196 94.683 21.9376 98.323C20.3536 101.965 19.5596 105.873 19.5556 110.049C19.5516 114.227 20.3376 118.135 21.9136 121.779C23.4896 125.423 25.6416 128.611 28.3696 131.343C31.0977 134.077 34.2817 136.237 37.9217 137.819C41.5617 139.403 45.4698 140.197 49.6458 140.201C53.8238 140.205 105.714 140.197 109.89 140.201C114.068 140.205 117.976 139.419 121.62 137.843C125.262 136.267 128.452 134.115 131.186 131.385C133.92 128.657 136.078 125.473 137.662 121.833C139.244 118.193 140.04 114.285 140.044 110.107C140.046 105.937 139.26 102.027 137.684 98.383Z" fill="#B924FF"/>
<path d="M106.292 46.4462H53.7096V99.0282H106.292V46.4462Z" fill="white"/>
<path d="M68.1556 70.0402C68.1616 76.5762 73.4616 81.8722 79.9996 81.8722C86.5376 81.8722 91.8376 76.5762 91.8436 70.0402H68.1556Z" fill="#FF00C1"/>
<path d="M64.9096 65.2142C68.1703 65.2142 70.8136 62.5709 70.8136 59.3102C70.8136 56.0495 68.1703 53.4062 64.9096 53.4062C61.6489 53.4062 59.0056 56.0495 59.0056 59.3102C59.0056 62.5709 61.6489 65.2142 64.9096 65.2142Z" fill="black"/>
<path d="M95.6136 65.2142C98.8743 65.2142 101.518 62.5709 101.518 59.3102C101.518 56.0495 98.8743 53.4062 95.6136 53.4062C92.3529 53.4062 89.7096 56.0495 89.7096 59.3102C89.7096 62.5709 92.3529 65.2142 95.6136 65.2142Z" fill="black"/>
<path d="M57.8796 54.5002C57.5216 54.5002 57.1636 54.3742 56.8776 54.1162C56.2616 53.5622 56.2096 52.6142 56.7636 51.9982C58.8376 49.6882 61.8076 48.3622 64.9116 48.3622C65.7396 48.3622 66.4116 49.0342 66.4116 49.8622C66.4116 50.6902 65.7396 51.3622 64.9116 51.3622C62.6596 51.3622 60.5036 52.3242 58.9956 54.0022C58.6996 54.3322 58.2896 54.5002 57.8796 54.5002Z" fill="black"/>
<path d="M102.626 54.5002C102.214 54.5002 101.806 54.3322 101.51 54.0022C100.004 52.3242 97.8476 51.3622 95.5936 51.3622C94.7656 51.3622 94.0936 50.6902 94.0936 49.8622C94.0936 49.0342 94.7656 48.3622 95.5936 48.3622C98.6976 48.3622 101.666 49.6882 103.742 51.9982C104.296 52.6142 104.244 53.5622 103.628 54.1162C103.342 54.3722 102.982 54.5002 102.626 54.5002Z" fill="black"/>
<path d="M127.574 160.05C127.576 133.796 106.308 112.498 80.0476 112.47C53.7876 112.442 32.4756 133.698 32.4236 159.952L127.574 160.05Z" fill="#0025FF"/>
</g>
</svg>
