<svg width="60" height="36" viewBox="0 0 60 36" fill="none" xmlns="http://www.w3.org/2000/svg">
<rect width="60" height="36" rx="18" fill="#DBDBDB"/>
<path d="M20 10V9C19.4477 9 19 9.44772 19 10H20ZM40 10H41C41 9.44772 40.5523 9 40 9V10ZM40 24V25C40.5523 25 41 24.5523 41 24H40ZM24 24V23C23.7348 23 23.4804 23.1054 23.2929 23.2929L24 24ZM20 28H19C19 28.4045 19.2436 28.7691 19.6173 28.9239C19.991 29.0787 20.4211 28.9931 20.7071 28.7071L20 28ZM20 11H40V9H20V11ZM39 10V24H41V10H39ZM21 24V10H19V24H21ZM40 23H24V25H40V23ZM23.2929 23.2929L19.2929 27.2929L20.7071 28.7071L24.7071 24.7071L23.2929 23.2929ZM21 28V24H19V28H21Z" fill="black"/>
<line x1="25" y1="15" x2="35" y2="15" stroke="black" stroke-width="2" stroke-linecap="round"/>
<line x1="25" y1="19" x2="35" y2="19" stroke="black" stroke-width="2" stroke-linecap="round"/>
</svg>
