<svg width="621" height="621" viewBox="0 0 621 621" fill="none" xmlns="http://www.w3.org/2000/svg">
<path d="M310.5 621C481.984 621 621 481.984 621 310.5C621 139.016 481.984 0 310.5 0C139.016 0 0 139.016 0 310.5C0 481.984 139.016 621 310.5 621Z" fill="#E9F8FF"/>
<path d="M310.502 569.889C453.761 569.889 569.895 453.755 569.895 310.496C569.895 167.238 453.761 51.1035 310.502 51.1035C167.243 51.1035 51.1089 167.238 51.1089 310.496C51.1089 453.755 167.243 569.889 310.502 569.889Z" fill="#B6E9FF"/>
<path d="M310.501 519.101C425.534 519.101 518.786 425.848 518.786 310.815C518.786 195.782 425.534 102.529 310.501 102.529C195.468 102.529 102.215 195.782 102.215 310.815C102.215 425.848 195.468 519.101 310.501 519.101Z" fill="#5FB5FF"/>
<path d="M173.545 324.465H152.098V324.471C143.73 324.621 136.992 331.438 136.974 339.841L173.545 339.871C173.545 339.859 173.545 339.847 173.545 339.841V324.465Z" fill="black"/>
<path d="M184.972 324.465H206.42V324.471C214.787 324.621 221.526 331.438 221.544 339.841L184.972 339.871C184.972 339.859 184.972 339.847 184.972 339.841V324.465Z" fill="black"/>
<path d="M174.916 287.965H145.582V326.388H174.916V287.965Z" fill="#B6E9FF"/>
<path d="M212.936 287.965H183.602V326.388H212.936V287.965Z" fill="#B6E9FF"/>
<path d="M226.377 287.955H132.141V294.676H226.377V287.955Z" fill="#0025FF"/>
<path d="M201.258 126.799C208.014 129.739 213.929 133.748 218.996 138.827C224.058 143.901 228.055 149.822 230.983 156.584C233.91 163.353 235.365 170.608 235.359 178.363C235.353 186.117 233.874 193.372 230.935 200.135C227.995 206.892 223.986 212.806 218.912 217.868C213.833 222.935 207.912 226.933 201.149 229.854C194.387 232.781 187.125 234.236 179.371 234.23C171.617 234.224 164.361 232.751 157.599 229.806C150.836 226.867 144.927 222.857 139.86 217.778C134.793 212.704 130.795 206.783 127.874 200.021C124.946 193.258 123.486 185.997 123.498 178.242C123.504 170.488 124.976 163.233 127.922 156.47C130.861 149.714 134.871 143.799 139.944 138.737C145.023 133.67 150.938 129.679 157.707 126.751C164.47 123.824 171.731 122.369 179.485 122.375C187.24 122.381 194.501 123.86 201.258 126.799Z" fill="black"/>
<path d="M211.077 154.352H147.438V217.991H211.077V154.352Z" fill="white"/>
<path d="M164.923 182.914C164.929 190.825 171.343 197.233 179.259 197.233C187.17 197.233 193.584 190.825 193.596 182.914H164.923Z" fill="#FF00C1"/>
<path d="M212.506 191.164C215.265 191.164 217.502 188.928 217.502 186.169C217.502 183.41 215.265 181.174 212.506 181.174C209.748 181.174 207.511 183.41 207.511 186.169C207.511 188.928 209.748 191.164 212.506 191.164Z" fill="#FF92D2"/>
<path d="M146.007 191.164C148.766 191.164 151.002 188.928 151.002 186.169C151.002 183.41 148.766 181.174 146.007 181.174C143.248 181.174 141.012 183.41 141.012 186.169C141.012 188.928 143.248 191.164 146.007 191.164Z" fill="#FF92D2"/>
<path d="M160.995 177.058C164.943 177.058 168.143 173.858 168.143 169.911C168.143 165.964 164.943 162.764 160.995 162.764C157.048 162.764 153.848 165.964 153.848 169.911C153.848 173.858 157.048 177.058 160.995 177.058Z" fill="black"/>
<path d="M198.15 177.058C202.097 177.058 205.297 173.858 205.297 169.911C205.297 165.964 202.097 162.764 198.15 162.764C194.203 162.764 191.003 165.964 191.003 169.911C191.003 173.858 194.203 177.058 198.15 177.058Z" fill="black"/>
<path d="M152.482 164.103C152.049 164.103 151.616 163.953 151.267 163.641C150.522 162.973 150.462 161.825 151.129 161.08C153.642 158.285 157.237 156.68 160.987 156.68C161.991 156.68 162.803 157.491 162.803 158.495C162.803 159.499 161.991 160.31 160.987 160.31C158.258 160.31 155.65 161.477 153.828 163.502C153.474 163.905 152.981 164.103 152.482 164.103Z" fill="black"/>
<path d="M206.641 164.103C206.142 164.103 205.649 163.899 205.289 163.502C203.467 161.471 200.858 160.31 198.129 160.31C197.125 160.31 196.314 159.499 196.314 158.495C196.314 157.491 197.125 156.68 198.129 156.68C201.886 156.68 205.481 158.285 207.988 161.08C208.655 161.825 208.595 162.973 207.849 163.641C207.507 163.953 207.074 164.103 206.641 164.103Z" fill="black"/>
<path d="M236.835 291.813C236.841 260.038 211.095 234.257 179.315 234.227C147.534 234.197 121.734 259.918 121.674 291.693L236.835 291.813Z" fill="#0025FF"/>
<path d="M125.218 291.852C125.218 297.797 132.378 302.618 137.415 302.624C142.452 302.63 143.468 297.815 143.48 291.876L125.218 291.852Z" fill="white"/>
<path d="M140.626 291.852C140.626 296.372 141.828 300.039 143.319 300.045C144.804 300.051 146.012 296.39 146.018 291.87L140.626 291.852Z" fill="white"/>
<path d="M233.304 291.852C233.304 297.797 226.145 302.618 221.108 302.624C216.07 302.63 215.055 297.815 215.042 291.876L233.304 291.852Z" fill="white"/>
<path d="M217.896 291.852C217.896 296.372 216.694 300.039 215.203 300.045C213.718 300.051 212.51 296.39 212.504 291.87L217.896 291.852Z" fill="white"/>
<path d="M137.43 303.074C137.424 303.074 137.424 303.074 137.418 303.074C132.428 303.068 124.74 298.235 124.74 291.821C124.74 291.556 124.957 291.34 125.221 291.34C125.486 291.34 125.702 291.556 125.702 291.821C125.702 297.688 132.813 302.112 137.424 302.112C137.43 302.112 137.43 302.112 137.436 302.112C139.57 302.112 141.03 301.174 141.902 299.25C141.968 299.1 142.112 298.998 142.275 298.974C142.437 298.95 142.599 299.016 142.708 299.142C142.858 299.323 143.092 299.539 143.321 299.539C143.477 299.539 143.645 299.449 143.82 299.275C144.643 298.457 145.533 295.776 145.533 291.845C145.533 291.58 145.749 291.364 146.014 291.364C146.278 291.364 146.495 291.58 146.495 291.845C146.495 295.566 145.707 298.752 144.499 299.954C144.138 300.314 143.741 300.501 143.321 300.501C143.321 300.501 143.321 300.501 143.315 300.501C143.026 300.501 142.75 300.411 142.479 300.23C141.409 302.118 139.714 303.074 137.43 303.074Z" fill="black"/>
<path d="M221.085 303.074C218.794 303.074 217.099 302.118 216.035 300.23C215.771 300.411 215.44 300.507 215.2 300.501C214.785 300.501 214.388 300.314 214.022 299.954C212.813 298.752 212.026 295.566 212.026 291.845C212.026 291.58 212.242 291.364 212.507 291.364C212.771 291.364 212.988 291.58 212.988 291.845C212.988 295.782 213.877 298.457 214.701 299.275C214.875 299.449 215.043 299.539 215.2 299.539C215.428 299.539 215.657 299.323 215.813 299.142C215.921 299.016 216.083 298.95 216.246 298.974C216.408 298.998 216.552 299.1 216.618 299.25C217.496 301.174 218.957 302.112 221.085 302.112C221.091 302.112 221.091 302.112 221.097 302.112C225.707 302.106 232.818 297.682 232.818 291.821C232.818 291.556 233.035 291.34 233.299 291.34C233.564 291.34 233.78 291.556 233.78 291.821C233.78 298.235 226.092 303.068 221.103 303.074C221.097 303.074 221.091 303.074 221.085 303.074Z" fill="black"/>
<path d="M307.662 290.795H286.214V290.801C277.846 290.951 271.108 297.768 271.09 306.171L307.662 306.201C307.662 306.189 307.662 306.177 307.662 306.171V290.795Z" fill="black"/>
<path d="M320.044 290.795H341.492V290.801C349.86 290.951 356.598 297.768 356.616 306.171L320.044 306.201C320.044 306.189 320.044 306.177 320.044 306.171V290.795Z" fill="black"/>
<path d="M309.609 261.029H289.297V292.708H309.609V261.029Z" fill="black"/>
<path d="M338.406 261.029H318.095V292.708H338.406V261.029Z" fill="black"/>
<path d="M347.336 248.566H280.372V270.621H347.336V248.566Z" fill="black"/>
<path d="M335.681 93.1169C342.444 96.0504 348.359 100.054 353.432 105.121C358.5 110.189 362.503 116.11 365.436 122.866C368.37 129.629 369.837 136.89 369.837 144.638C369.837 152.393 368.37 159.654 365.436 166.411C362.503 173.173 358.5 179.088 353.432 184.156C348.359 189.229 342.444 193.232 335.681 196.16C328.919 199.093 321.663 200.56 313.909 200.56C306.155 200.56 298.893 199.093 292.137 196.16C285.374 193.226 279.459 189.223 274.386 184.156C269.312 179.088 265.315 173.173 262.382 166.411C259.448 159.648 257.981 152.393 257.981 144.638C257.981 136.884 259.448 129.629 262.382 122.866C265.315 116.104 269.312 110.189 274.386 105.121C279.459 100.048 285.368 96.0504 292.137 93.1169C298.899 90.1835 306.155 88.7168 313.909 88.7168C321.663 88.7168 328.919 90.1835 335.681 93.1169Z" fill="black"/>
<path d="M371.664 258.171C371.634 226.264 345.762 200.41 313.849 200.41C281.936 200.41 256.064 226.264 256.034 258.171H371.664Z" fill="black"/>
<path d="M313.881 258.108L295.066 200.371H332.696L313.881 258.108Z" fill="white"/>
<path d="M313.848 200.408L323.514 258.097H304.182L313.848 200.408Z" fill="black"/>
<path d="M322.716 209.159L313.926 200.369L305.136 209.159L313.926 217.949L322.716 209.159Z" fill="black"/>
<path d="M345.6 120.672H282.092V184.179H345.6V120.672Z" fill="white"/>
<path d="M293.822 154.611C293.834 165.666 302.797 174.622 313.851 174.622C324.906 174.622 333.868 165.666 333.88 154.611H293.822Z" fill="#FF00C1"/>
<path d="M347.035 157.388C349.787 157.388 352.018 155.157 352.018 152.405C352.018 149.653 349.787 147.422 347.035 147.422C344.282 147.422 342.051 149.653 342.051 152.405C342.051 155.157 344.282 157.388 347.035 157.388Z" fill="#FF92D2"/>
<path d="M280.673 157.388C283.425 157.388 285.656 155.157 285.656 152.405C285.656 149.653 283.425 147.422 280.673 147.422C277.921 147.422 275.689 149.653 275.689 152.405C275.689 155.157 277.921 157.388 280.673 157.388Z" fill="#FF92D2"/>
<path d="M295.626 143.321C299.563 143.321 302.755 140.129 302.755 136.192C302.755 132.254 299.563 129.062 295.626 129.062C291.688 129.062 288.497 132.254 288.497 136.192C288.497 140.129 291.688 143.321 295.626 143.321Z" fill="black"/>
<path d="M332.708 143.321C336.645 143.321 339.837 140.129 339.837 136.192C339.837 132.254 336.645 129.062 332.708 129.062C328.77 129.062 325.579 132.254 325.579 136.192C325.579 140.129 328.77 143.321 332.708 143.321Z" fill="black"/>
<path d="M287.131 130.39C286.698 130.39 286.265 130.24 285.923 129.927C285.177 129.26 285.117 128.112 285.785 127.367C288.291 124.577 291.88 122.979 295.625 122.979C296.623 122.979 297.434 123.79 297.434 124.788C297.434 125.786 296.623 126.597 295.625 126.597C292.902 126.597 290.299 127.757 288.477 129.783C288.123 130.186 287.63 130.39 287.131 130.39Z" fill="black"/>
<path d="M341.177 130.402C340.678 130.402 340.185 130.197 339.83 129.801C338.009 127.775 335.406 126.615 332.683 126.615C331.685 126.615 330.874 125.803 330.874 124.805C330.874 123.808 331.685 122.996 332.683 122.996C336.434 122.996 340.016 124.595 342.523 127.384C343.19 128.13 343.13 129.272 342.385 129.945C342.042 130.252 341.609 130.402 341.177 130.402Z" fill="black"/>
<path d="M294.022 149.287C287.302 149.287 281.838 143.823 281.838 137.103C281.838 130.382 287.302 124.918 294.022 124.918C300.743 124.918 306.207 130.382 306.207 137.103C306.207 143.823 300.743 149.287 294.022 149.287ZM294.022 126.132C287.969 126.132 283.046 131.055 283.046 137.109C283.046 143.162 287.969 148.085 294.022 148.085C300.076 148.085 304.999 143.162 304.999 137.109C304.999 131.055 300.076 126.132 294.022 126.132Z" fill="black"/>
<path d="M333.982 149.287C327.262 149.287 321.798 143.823 321.798 137.103C321.798 130.382 327.262 124.918 333.982 124.918C340.703 124.918 346.167 130.382 346.167 137.103C346.161 143.823 340.697 149.287 333.982 149.287ZM333.982 126.132C327.929 126.132 323.006 131.055 323.006 137.109C323.006 143.162 327.929 148.085 333.982 148.085C340.036 148.085 344.959 143.162 344.959 137.109C344.959 131.055 340.03 126.132 333.982 126.132Z" fill="black"/>
<path d="M322.822 133.685C322.648 133.685 322.474 133.607 322.353 133.462C320.256 130.902 317.16 129.429 313.854 129.429C310.548 129.429 307.446 130.902 305.354 133.462C305.144 133.721 304.765 133.757 304.506 133.547C304.248 133.336 304.212 132.957 304.422 132.699C306.749 129.856 310.187 128.221 313.86 128.221C317.533 128.221 320.971 129.85 323.297 132.699C323.508 132.957 323.472 133.336 323.213 133.547C323.093 133.637 322.955 133.685 322.822 133.685Z" fill="black"/>
<path d="M259.817 258.172C259.817 264.117 266.977 268.938 272.014 268.944C277.051 268.95 278.067 264.135 278.079 258.196L259.817 258.172Z" fill="white"/>
<path d="M275.214 258.197C275.214 262.718 276.416 266.384 277.907 266.39C279.392 266.396 280.6 262.736 280.606 258.215L275.214 258.197Z" fill="white"/>
<path d="M367.898 258.172C367.898 264.117 360.739 268.938 355.701 268.944C350.664 268.95 349.648 264.135 349.636 258.196L367.898 258.172Z" fill="white"/>
<path d="M352.498 258.197C352.498 262.718 351.296 266.384 349.805 266.39C348.321 266.396 347.112 262.736 347.106 258.215L352.498 258.197Z" fill="white"/>
<path d="M272.018 269.417C272.012 269.417 272.012 269.417 272.006 269.417C267.017 269.411 259.329 264.578 259.329 258.164C259.329 257.9 259.545 257.684 259.809 257.684C260.074 257.684 260.29 257.9 260.29 258.164C260.29 264.031 267.402 268.456 272.012 268.456C272.018 268.456 272.018 268.456 272.024 268.456C274.158 268.456 275.619 267.518 276.49 265.594C276.557 265.444 276.701 265.342 276.863 265.318C277.025 265.294 277.188 265.36 277.296 265.486C277.446 265.666 277.681 265.883 277.909 265.883C278.065 265.883 278.234 265.793 278.408 265.618C279.231 264.801 280.121 262.12 280.121 258.189C280.121 257.924 280.338 257.708 280.602 257.708C280.866 257.708 281.083 257.924 281.083 258.189C281.083 261.909 280.295 265.095 279.087 266.298C278.727 266.658 278.33 266.845 277.909 266.845C277.909 266.845 277.909 266.845 277.903 266.845C277.614 266.845 277.338 266.754 277.067 266.574C276.003 268.462 274.308 269.417 272.018 269.417Z" fill="black"/>
<path d="M355.684 269.417C353.394 269.417 351.698 268.462 350.634 266.574C350.37 266.754 350.039 266.851 349.799 266.845C349.384 266.845 348.987 266.658 348.621 266.298C347.412 265.095 346.625 261.909 346.625 258.189C346.625 257.924 346.841 257.708 347.106 257.708C347.37 257.708 347.587 257.924 347.587 258.189C347.587 262.126 348.476 264.801 349.3 265.618C349.474 265.793 349.643 265.883 349.799 265.883C350.027 265.883 350.256 265.666 350.412 265.486C350.52 265.36 350.683 265.294 350.845 265.318C351.007 265.342 351.151 265.444 351.217 265.594C352.095 267.518 353.556 268.456 355.684 268.456C355.69 268.456 355.69 268.456 355.696 268.456C360.306 268.45 367.418 264.025 367.418 258.164C367.418 257.9 367.634 257.684 367.898 257.684C368.163 257.684 368.379 257.9 368.379 258.164C368.379 264.578 360.691 269.411 355.702 269.417C355.69 269.417 355.69 269.417 355.684 269.417Z" fill="black"/>
<path d="M430.537 324.465H409.089V324.471C400.721 324.621 393.983 331.438 393.965 339.841L430.537 339.871C430.537 339.859 430.537 339.847 430.537 339.841V324.465Z" fill="black"/>
<path d="M451.566 324.465H473.014V324.471C481.381 324.621 488.12 331.438 488.138 339.841L451.566 339.871C451.566 339.859 451.566 339.847 451.566 339.841V324.465Z" fill="black"/>
<path d="M432.594 294.699H412.733V326.378H432.594V294.699Z" fill="#0025FF"/>
<path d="M469.372 294.699H449.511V326.378H469.372V294.699Z" fill="#0025FF"/>
<path d="M472.06 282.227H410.049V306.223H472.06V282.227Z" fill="#B6E9FF"/>
<path d="M498.384 291.814C498.354 260.027 472.578 234.27 440.785 234.27C408.992 234.27 383.217 260.027 383.187 291.814H498.384Z" fill="#B6E9FF"/>
<path d="M440.835 261.144L414.843 234.256H466.833L440.835 261.144Z" fill="white"/>
<path d="M462.613 126.763C469.376 129.697 475.297 133.7 480.37 138.774C485.444 143.847 489.447 149.762 492.38 156.525C495.314 163.293 496.781 170.549 496.781 178.309C496.781 186.069 495.314 193.325 492.38 200.093C489.447 206.856 485.444 212.777 480.37 217.844C475.297 222.917 469.376 226.921 462.613 229.854C455.851 232.788 448.589 234.254 440.829 234.254C433.075 234.254 425.813 232.788 419.051 229.854C412.282 226.921 406.367 222.917 401.294 217.844C396.22 212.771 392.217 206.856 389.283 200.093C386.35 193.331 384.883 186.069 384.883 178.309C384.883 170.555 386.35 163.293 389.283 156.525C392.217 149.762 396.22 143.841 401.294 138.774C406.367 133.7 412.282 129.697 419.051 126.763C425.813 123.83 433.075 122.363 440.829 122.363C448.589 122.363 455.851 123.83 462.613 126.763Z" fill="black"/>
<path d="M472.658 154.322H409V217.98H472.658V154.322Z" fill="white"/>
<path d="M426.494 182.902C426.5 190.813 432.92 197.227 440.831 197.227C448.747 197.227 455.161 190.813 455.167 182.902H426.494Z" fill="#FF00C1"/>
<path d="M474.089 191.141C476.848 191.141 479.085 188.904 479.085 186.146C479.085 183.387 476.848 181.15 474.089 181.15C471.331 181.15 469.094 183.387 469.094 186.146C469.094 188.904 471.331 191.141 474.089 191.141Z" fill="#FF92D2"/>
<path d="M407.564 191.141C410.322 191.141 412.559 188.904 412.559 186.146C412.559 183.387 410.322 181.15 407.564 181.15C404.805 181.15 402.568 183.387 402.568 186.146C402.568 188.904 404.805 191.141 407.564 191.141Z" fill="#FF92D2"/>
<path d="M422.558 177.037C426.506 177.037 429.706 173.837 429.706 169.889C429.706 165.942 426.506 162.742 422.558 162.742C418.611 162.742 415.411 165.942 415.411 169.889C415.411 173.837 418.611 177.037 422.558 177.037Z" fill="black"/>
<path d="M459.73 177.037C463.678 177.037 466.877 173.837 466.877 169.889C466.877 165.942 463.678 162.742 459.73 162.742C455.783 162.742 452.583 165.942 452.583 169.889C452.583 173.837 455.783 177.037 459.73 177.037Z" fill="black"/>
<path d="M414.048 164.066C413.615 164.066 413.182 163.916 412.839 163.603C412.094 162.936 412.034 161.788 412.701 161.043C415.214 158.248 418.808 156.643 422.565 156.643C423.569 156.643 424.381 157.454 424.381 158.458C424.381 159.462 423.569 160.273 422.565 160.273C419.836 160.273 417.227 161.439 415.4 163.471C415.039 163.862 414.546 164.066 414.048 164.066Z" fill="black"/>
<path d="M468.22 164.072C467.721 164.072 467.228 163.868 466.873 163.471C465.046 161.439 462.437 160.273 459.708 160.273C458.704 160.273 457.893 159.462 457.893 158.458C457.893 157.454 458.704 156.643 459.708 156.643C463.465 156.643 467.06 158.248 469.566 161.043C470.233 161.788 470.173 162.936 469.428 163.603C469.085 163.916 468.653 164.072 468.22 164.072Z" fill="black"/>
<path d="M422.565 181.868C416.277 181.868 411.168 176.753 411.168 170.471C411.168 164.184 416.283 159.074 422.565 159.074C428.847 159.074 433.962 164.19 433.962 170.471C433.962 176.759 428.853 181.868 422.565 181.868ZM422.565 160.282C416.945 160.282 412.376 164.851 412.376 170.471C412.376 176.092 416.945 180.66 422.565 180.66C428.185 180.66 432.754 176.092 432.754 170.471C432.754 164.851 428.185 160.282 422.565 160.282Z" fill="black"/>
<path d="M459.816 181.868C453.528 181.868 448.419 176.753 448.419 170.471C448.419 164.184 453.534 159.074 459.816 159.074C466.098 159.074 471.213 164.19 471.213 170.471C471.213 176.759 466.098 181.868 459.816 181.868ZM459.816 160.282C454.196 160.282 449.627 164.851 449.627 170.471C449.627 176.092 454.196 180.66 459.816 180.66C465.436 180.66 470.005 176.092 470.005 170.471C470.005 164.851 465.436 160.282 459.816 160.282Z" fill="black"/>
<path d="M449.412 167.332C449.238 167.332 449.064 167.254 448.943 167.109C446.996 164.729 444.122 163.364 441.051 163.364C437.979 163.364 435.106 164.729 433.158 167.109C432.948 167.368 432.569 167.404 432.311 167.194C432.052 166.983 432.016 166.604 432.226 166.346C434.403 163.683 437.618 162.156 441.057 162.156C444.495 162.156 447.711 163.683 449.887 166.346C450.098 166.604 450.061 166.983 449.803 167.194C449.683 167.29 449.551 167.332 449.412 167.332Z" fill="black"/>
<path d="M411.602 168.9C411.536 168.9 411.47 168.888 411.403 168.864C405.368 166.76 386.992 160.346 384.311 163.177C383.866 163.646 383.897 164.506 384.395 165.726C384.522 166.033 384.377 166.387 384.065 166.514C383.758 166.64 383.404 166.496 383.277 166.183C382.568 164.458 382.616 163.201 383.428 162.342C385.021 160.659 389.631 159.986 411.794 167.716C412.107 167.824 412.275 168.173 412.167 168.485C412.083 168.744 411.848 168.9 411.602 168.9Z" fill="black"/>
<path d="M470.496 168.906C470.243 168.906 470.015 168.749 469.925 168.503C469.816 168.19 469.979 167.842 470.297 167.733C492.46 160.003 497.071 160.676 498.664 162.359C499.475 163.219 499.529 164.475 498.814 166.201C498.688 166.507 498.333 166.657 498.027 166.531C497.72 166.405 497.57 166.05 497.696 165.744C498.201 164.523 498.225 163.664 497.78 163.195C495.099 160.364 476.723 166.772 470.688 168.882C470.628 168.894 470.562 168.906 470.496 168.906Z" fill="black"/>
<path d="M386.74 291.846C386.74 297.791 393.899 302.612 398.936 302.618C403.974 302.624 404.99 297.809 405.002 291.87L386.74 291.846Z" fill="white"/>
<path d="M402.15 291.854C402.15 296.374 403.353 300.041 404.843 300.047C406.328 300.053 407.536 296.392 407.542 291.872L402.15 291.854Z" fill="white"/>
<path d="M494.829 291.846C494.829 297.791 487.669 302.612 482.632 302.618C477.595 302.624 476.579 297.809 476.567 291.87L494.829 291.846Z" fill="white"/>
<path d="M479.422 291.854C479.422 296.374 478.22 300.041 476.729 300.047C475.244 300.053 474.036 296.392 474.03 291.872L479.422 291.854Z" fill="white"/>
<path d="M398.957 303.074C398.951 303.074 398.951 303.074 398.945 303.074C393.956 303.068 386.268 298.235 386.268 291.821C386.268 291.556 386.484 291.34 386.748 291.34C387.013 291.34 387.229 291.556 387.229 291.821C387.229 297.688 394.341 302.112 398.951 302.112C398.957 302.112 398.957 302.112 398.963 302.112C401.097 302.112 402.558 301.174 403.429 299.25C403.495 299.1 403.64 298.998 403.802 298.974C403.964 298.95 404.127 299.016 404.235 299.142C404.385 299.323 404.62 299.539 404.848 299.539C405.004 299.539 405.173 299.449 405.347 299.275C406.17 298.457 407.06 295.776 407.06 291.845C407.06 291.58 407.276 291.364 407.541 291.364C407.805 291.364 408.022 291.58 408.022 291.845C408.022 295.566 407.234 298.752 406.026 299.954C405.665 300.314 405.269 300.501 404.848 300.501C404.848 300.501 404.848 300.501 404.842 300.501C404.553 300.501 404.277 300.411 404.006 300.23C402.936 302.118 401.241 303.074 398.957 303.074Z" fill="black"/>
<path d="M482.614 303.074C480.324 303.074 478.629 302.118 477.565 300.23C477.301 300.411 476.97 300.507 476.73 300.501C476.315 300.501 475.918 300.314 475.551 299.954C474.343 298.752 473.556 295.566 473.556 291.845C473.556 291.58 473.772 291.364 474.037 291.364C474.301 291.364 474.517 291.58 474.517 291.845C474.517 295.782 475.407 298.457 476.231 299.275C476.405 299.449 476.573 299.539 476.73 299.539C476.958 299.539 477.186 299.323 477.343 299.142C477.451 299.016 477.613 298.95 477.775 298.974C477.938 298.998 478.082 299.1 478.148 299.25C479.026 301.174 480.487 302.112 482.614 302.112C482.62 302.112 482.62 302.112 482.626 302.112C487.237 302.106 494.348 297.682 494.348 291.821C494.348 291.556 494.565 291.34 494.829 291.34C495.094 291.34 495.31 291.556 495.31 291.821C495.31 298.235 487.622 303.068 482.632 303.074C482.626 303.074 482.62 303.074 482.614 303.074Z" fill="black"/>
<path d="M440.833 272.945C442.815 272.945 444.422 271.338 444.422 269.356C444.422 267.374 442.815 265.768 440.833 265.768C438.851 265.768 437.245 267.374 437.245 269.356C437.245 271.338 438.851 272.945 440.833 272.945Z" fill="black"/>
<path d="M440.833 285.4C442.815 285.4 444.422 283.793 444.422 281.811C444.422 279.829 442.815 278.223 440.833 278.223C438.851 278.223 437.245 279.829 437.245 281.811C437.245 283.793 438.851 285.4 440.833 285.4Z" fill="black"/>
<path d="M440.833 297.849C442.815 297.849 444.422 296.242 444.422 294.261C444.422 292.279 442.815 290.672 440.833 290.672C438.851 290.672 437.245 292.279 437.245 294.261C437.245 296.242 438.851 297.849 440.833 297.849Z" fill="black"/>
<path d="M240.389 455.445H218.941V455.451C210.573 455.602 203.835 462.418 203.817 470.822L240.389 470.852C240.389 470.84 240.389 470.828 240.389 470.822V455.445Z" fill="black"/>
<path d="M245.095 455.445H266.542V455.451C274.91 455.602 281.648 462.418 281.666 470.822L245.095 470.852C245.095 470.84 245.095 470.828 245.095 470.822V455.445Z" fill="black"/>
<path d="M240.846 413.199H219.14V457.357H240.846V413.199Z" fill="#FFDC97"/>
<path d="M266.339 413.199H244.633V457.357H266.339V413.199Z" fill="#FFDC97"/>
<path d="M264.567 257.717C271.33 260.65 277.245 264.653 282.318 269.721C287.385 274.788 291.389 280.709 294.322 287.466C297.256 294.228 298.722 301.49 298.722 309.238C298.722 316.992 297.256 324.254 294.322 331.01C291.389 337.773 287.385 343.688 282.318 348.755C277.245 353.829 271.33 357.832 264.567 360.759C257.805 363.693 250.549 365.16 242.795 365.16C235.04 365.16 227.779 363.693 221.022 360.759C214.26 357.826 208.345 353.823 203.272 348.755C198.198 343.688 194.201 337.773 191.267 331.01C188.334 324.248 186.867 316.992 186.867 309.238C186.867 301.484 188.334 294.228 191.267 287.466C194.201 280.703 198.198 274.788 203.272 269.721C208.345 264.647 214.254 260.65 221.022 257.717C227.785 254.783 235.04 253.316 242.795 253.316C250.549 253.316 257.805 254.789 264.567 257.717Z" fill="black"/>
<path d="M274.614 285.268H210.974V348.907H274.614V285.268Z" fill="white"/>
<path d="M228.459 313.818C228.465 321.729 234.879 328.137 242.796 328.137C250.707 328.137 257.121 321.729 257.133 313.818H228.459Z" fill="#FF00C1"/>
<path d="M276.045 322.076C278.803 322.076 281.04 319.84 281.04 317.081C281.04 314.322 278.803 312.086 276.045 312.086C273.286 312.086 271.049 314.322 271.049 317.081C271.049 319.84 273.286 322.076 276.045 322.076Z" fill="#FF92D2"/>
<path d="M209.543 322.076C212.302 322.076 214.538 319.84 214.538 317.081C214.538 314.322 212.302 312.086 209.543 312.086C206.784 312.086 204.548 314.322 204.548 317.081C204.548 319.84 206.784 322.076 209.543 322.076Z" fill="#FF92D2"/>
<path d="M224.536 307.988C228.484 307.988 231.684 304.788 231.684 300.841C231.684 296.893 228.484 293.693 224.536 293.693C220.589 293.693 217.389 296.893 217.389 300.841C217.389 304.788 220.589 307.988 224.536 307.988Z" fill="black"/>
<path d="M261.69 307.988C265.638 307.988 268.837 304.788 268.837 300.841C268.837 296.893 265.638 293.693 261.69 293.693C257.743 293.693 254.543 296.893 254.543 300.841C254.543 304.788 257.743 307.988 261.69 307.988Z" fill="black"/>
<path d="M216.023 295.023C215.59 295.023 215.157 294.873 214.814 294.56C214.069 293.893 214.009 292.745 214.676 292C217.189 289.205 220.777 287.6 224.534 287.6C225.532 287.6 226.344 288.411 226.344 289.409C226.344 290.407 225.532 291.218 224.534 291.218C221.805 291.218 219.196 292.384 217.375 294.416C217.014 294.819 216.522 295.023 216.023 295.023Z" fill="black"/>
<path d="M270.178 295.017C269.679 295.017 269.187 294.813 268.832 294.416C267.011 292.384 264.396 291.218 261.673 291.218C260.675 291.218 259.863 290.407 259.863 289.409C259.863 288.411 260.675 287.6 261.673 287.6C265.43 287.6 269.018 289.205 271.531 292C272.198 292.745 272.138 293.887 271.393 294.56C271.044 294.861 270.611 295.017 270.178 295.017Z" fill="black"/>
<path d="M300.558 422.788C300.528 390.881 274.656 365.027 242.743 365.027C210.83 365.027 184.958 390.881 184.928 422.788H300.558Z" fill="#0025FF"/>
<path d="M242.772 422.729L223.957 364.998H261.581L242.772 422.729Z" fill="#00D378"/>
<mask id="mask0_1472_20357" style="mask-type:alpha" maskUnits="userSpaceOnUse" x="223" y="364" width="39" height="59">
<path d="M242.772 422.729L223.957 364.998H261.581L242.772 422.729Z" fill="#00D378"/>
</mask>
<g mask="url(#mask0_1472_20357)">
<path d="M242.734 365.072L252.4 422.755H233.068L242.734 365.072Z" fill="#B924FF"/>
<path d="M242.814 365.024L234.024 373.814L242.814 382.604L251.604 373.814L242.814 365.024Z" fill="#B924FF"/>
</g>
<path d="M192.535 422.84C192.535 428.785 199.694 433.606 204.732 433.612C209.769 433.618 210.785 428.803 210.797 422.864L192.535 422.84Z" fill="white"/>
<path d="M207.944 422.84C207.944 427.36 209.146 431.027 210.637 431.033C212.122 431.039 213.33 427.378 213.336 422.858L207.944 422.84Z" fill="white"/>
<path d="M292.939 422.84C292.939 428.785 285.78 433.606 280.742 433.612C275.705 433.618 274.689 428.803 274.677 422.864L292.939 422.84Z" fill="white"/>
<path d="M277.544 422.84C277.544 427.36 276.342 431.027 274.851 431.033C273.366 431.039 272.158 427.378 272.152 422.858L277.544 422.84Z" fill="white"/>
<path d="M204.747 434.054C204.741 434.054 204.741 434.054 204.735 434.054C199.745 434.048 192.057 429.215 192.057 422.801C192.057 422.537 192.274 422.32 192.538 422.32C192.803 422.32 193.019 422.537 193.019 422.801C193.019 428.668 200.13 433.086 204.741 433.092C204.747 433.092 204.747 433.092 204.753 433.092C206.887 433.092 208.347 432.155 209.219 430.231C209.285 430.081 209.429 429.978 209.592 429.954C209.76 429.93 209.916 429.997 210.024 430.123C210.175 430.303 210.403 430.519 210.638 430.519C210.794 430.519 210.962 430.429 211.136 430.255C211.96 429.437 212.85 426.763 212.85 422.825C212.85 422.561 213.066 422.344 213.331 422.344C213.595 422.344 213.811 422.561 213.811 422.825C213.811 426.546 213.024 429.732 211.816 430.934C211.455 431.295 211.058 431.481 210.638 431.481C210.367 431.457 210.066 431.391 209.802 431.211C208.732 433.098 207.037 434.054 204.747 434.054Z" fill="black"/>
<path d="M280.732 434.054C278.441 434.054 276.746 433.098 275.682 431.211C275.418 431.391 275.165 431.511 274.847 431.481C274.426 431.481 274.035 431.295 273.669 430.934C272.46 429.732 271.673 426.546 271.673 422.825C271.673 422.561 271.889 422.344 272.154 422.344C272.418 422.344 272.635 422.561 272.635 422.825C272.635 426.763 273.524 429.431 274.348 430.255C274.522 430.429 274.69 430.519 274.847 430.519C275.075 430.519 275.304 430.303 275.46 430.123C275.568 429.997 275.724 429.93 275.893 429.954C276.055 429.978 276.199 430.081 276.265 430.231C277.143 432.155 278.604 433.092 280.732 433.092C280.738 433.092 280.738 433.092 280.744 433.092C285.354 433.086 292.465 428.668 292.465 422.801C292.465 422.537 292.682 422.32 292.946 422.32C293.211 422.32 293.427 422.537 293.427 422.801C293.427 429.215 285.739 434.048 280.75 434.054C280.738 434.054 280.738 434.054 280.732 434.054Z" fill="black"/>
<path d="M381.783 443.91L385.901 470.846H347.658L381.783 443.91Z" fill="black"/>
<path d="M389.21 443.91L385.092 470.846H423.335L389.21 443.91Z" fill="black"/>
<path d="M383.272 422.84H366.903V456.436H383.272V422.84Z" fill="black"/>
<path d="M404.089 422.84H387.721V456.436H404.089V422.84Z" fill="black"/>
<path d="M425.329 381.73H345.658V442.208H425.329V381.73Z" fill="#0025FF"/>
<mask id="mask1_1472_20357" style="mask-type:alpha" maskUnits="userSpaceOnUse" x="345" y="381" width="81" height="62">
<path d="M425.33 381.73H345.658V442.208H425.33V381.73Z" fill="#0025FF"/>
</mask>
<g mask="url(#mask1_1472_20357)">
<path d="M360.363 352.719H359.017V466.69H360.363V352.719Z" fill="black"/>
<path d="M363.503 352.719H362.157V466.69H363.503V352.719Z" fill="black"/>
<path d="M366.647 352.719H365.3V466.69H366.647V352.719Z" fill="black"/>
<path d="M383.021 352.719H381.674V466.69H383.021V352.719Z" fill="black"/>
<path d="M386.165 352.719H384.819V466.69H386.165V352.719Z" fill="black"/>
<path d="M389.305 352.719H387.959V466.69H389.305V352.719Z" fill="black"/>
<path d="M405.684 352.719H404.337V466.69H405.684V352.719Z" fill="black"/>
<path d="M408.82 352.719H407.473V466.69H408.82V352.719Z" fill="black"/>
<path d="M411.963 352.719H410.617V466.69H411.963V352.719Z" fill="black"/>
<path d="M449.546 384.579V383.232H321.437V384.579H449.546Z" fill="black"/>
<path d="M449.541 387.737V386.391H321.432V387.737H449.541Z" fill="black"/>
<path d="M449.546 390.866V389.52H321.437V390.866H449.546Z" fill="black"/>
<path d="M449.546 407.259V405.912H321.437V407.259H449.546Z" fill="black"/>
<path d="M449.541 410.391V409.045H321.432V410.391H449.541Z" fill="black"/>
<path d="M449.546 413.532V412.186H321.437V413.532H449.546Z" fill="black"/>
<path d="M449.541 429.907V428.561H321.432V429.907H449.541Z" fill="black"/>
<path d="M449.546 433.057V431.711H321.437V433.057H449.546Z" fill="black"/>
<path d="M449.541 436.21V434.863H321.432V436.21H449.541Z" fill="black"/>
</g>
<path d="M455.553 347.696C453.648 343.29 451.039 339.425 447.739 336.119C444.895 333.269 441.643 330.943 437.983 329.122C440.375 322.936 441.577 316.348 441.589 309.351C441.595 301.597 440.135 294.335 437.213 287.573C434.286 280.81 430.288 274.889 425.227 269.816C420.16 264.736 414.245 260.733 407.488 257.788C400.732 254.848 393.47 253.375 385.716 253.363C377.961 253.357 370.7 254.818 363.937 257.739C357.169 260.667 351.254 264.664 346.175 269.726C341.095 274.787 337.092 280.702 334.152 287.458C331.213 294.221 329.734 301.476 329.728 309.231C329.722 316.216 330.906 322.792 333.281 328.971C329.53 330.799 326.2 333.155 323.296 336.052C319.984 339.353 317.375 343.206 315.458 347.612C313.54 352.018 312.578 356.749 312.572 361.804C312.566 366.859 313.516 371.59 315.428 376.002C317.333 380.415 319.942 384.274 323.242 387.58C326.542 390.892 330.395 393.501 334.801 395.418C339.208 397.336 343.938 398.298 348.994 398.298C354.037 398.304 416.853 398.292 421.909 398.298C426.964 398.304 431.695 397.354 436.107 395.442C440.513 393.537 444.378 390.928 447.684 387.628C450.991 384.328 453.605 380.475 455.523 376.069C457.441 371.662 458.402 366.932 458.402 361.876C458.414 356.839 457.459 352.108 455.553 347.696Z" fill="url(#paint0_linear_1472_20357)"/>
<path d="M417.31 285.32H353.67V348.96H417.31V285.32Z" fill="white"/>
<path d="M371.155 313.877C371.161 321.788 377.575 328.195 385.491 328.195C393.402 328.195 399.816 321.788 399.828 313.877H371.155Z" fill="#FF00C1"/>
<path d="M418.739 322.147C421.498 322.147 423.735 319.91 423.735 317.151C423.735 314.393 421.498 312.156 418.739 312.156C415.981 312.156 413.744 314.393 413.744 317.151C413.744 319.91 415.981 322.147 418.739 322.147Z" fill="#FF92D2"/>
<path d="M352.24 322.147C354.999 322.147 357.235 319.91 357.235 317.151C357.235 314.393 354.999 312.156 352.24 312.156C349.481 312.156 347.245 314.393 347.245 317.151C347.245 319.91 349.481 322.147 352.24 322.147Z" fill="#FF92D2"/>
<path d="M367.232 308.035C371.179 308.035 374.379 304.835 374.379 300.887C374.379 296.94 371.179 293.74 367.232 293.74C363.284 293.74 360.084 296.94 360.084 300.887C360.084 304.835 363.284 308.035 367.232 308.035Z" fill="black"/>
<path d="M404.386 308.035C408.333 308.035 411.533 304.835 411.533 300.887C411.533 296.94 408.333 293.74 404.386 293.74C400.438 293.74 397.238 296.94 397.238 300.887C397.238 304.835 400.438 308.035 404.386 308.035Z" fill="black"/>
<path d="M358.721 295.072C358.288 295.072 357.855 294.922 357.507 294.609C356.761 293.942 356.701 292.794 357.368 292.049C359.881 289.253 363.476 287.648 367.227 287.648C368.231 287.648 369.042 288.46 369.042 289.464C369.042 290.468 368.231 291.279 367.227 291.279C364.498 291.279 361.889 292.445 360.067 294.477C359.713 294.868 359.214 295.072 358.721 295.072Z" fill="black"/>
<path d="M412.871 295.074C412.372 295.074 411.879 294.87 411.518 294.473C409.697 292.441 407.088 291.275 404.359 291.275C403.355 291.275 402.543 290.464 402.543 289.46C402.543 288.456 403.355 287.645 404.359 287.645C408.116 287.645 411.71 289.25 414.217 292.045C414.884 292.79 414.824 293.938 414.079 294.605C413.736 294.918 413.303 295.074 412.871 295.074Z" fill="black"/>
<path d="M443.075 422.817C443.081 391.042 417.336 365.261 385.555 365.23C353.774 365.2 327.974 390.922 327.914 422.697L443.075 422.817Z" fill="black"/>
<path d="M331.457 422.838C331.457 428.783 338.616 433.604 343.653 433.61C348.69 433.616 349.706 428.801 349.718 422.862L331.457 422.838Z" fill="white"/>
<path d="M346.861 422.846C346.861 427.366 348.063 431.033 349.554 431.039C351.045 431.045 352.247 427.384 352.253 422.864L346.861 422.846Z" fill="white"/>
<path d="M439.534 422.838C439.534 428.783 432.375 433.604 427.338 433.61C422.3 433.616 421.284 428.801 421.272 422.862L439.534 422.838Z" fill="white"/>
<path d="M424.13 422.846C424.13 427.366 422.928 431.033 421.437 431.039C419.947 431.045 418.744 427.384 418.738 422.864L424.13 422.846Z" fill="white"/>
<path d="M343.666 434.07C343.66 434.07 343.66 434.07 343.654 434.07C338.665 434.064 330.977 429.231 330.977 422.817C330.977 422.552 331.193 422.336 331.457 422.336C331.722 422.336 331.938 422.552 331.938 422.817C331.938 428.684 339.05 433.108 343.66 433.108C343.666 433.108 343.666 433.108 343.672 433.108C345.806 433.108 347.267 432.17 348.138 430.247C348.204 430.096 348.349 429.994 348.511 429.97C348.673 429.946 348.836 430.012 348.944 430.138C349.094 430.319 349.329 430.535 349.557 430.535C349.713 430.535 349.882 430.445 350.056 430.271C350.879 429.453 351.769 426.772 351.769 422.841C351.769 422.576 351.985 422.36 352.25 422.36C352.514 422.36 352.731 422.576 352.731 422.841C352.731 426.562 351.943 429.748 350.735 430.95C350.374 431.311 349.978 431.497 349.557 431.497C349.557 431.497 349.557 431.497 349.551 431.497C349.262 431.497 348.986 431.407 348.715 431.226C347.651 433.114 345.956 434.07 343.666 434.07Z" fill="black"/>
<path d="M427.327 434.07C425.037 434.07 423.342 433.114 422.278 431.226C422.013 431.407 421.683 431.503 421.442 431.497C421.028 431.497 420.631 431.311 420.264 430.95C419.056 429.748 418.269 426.562 418.269 422.841C418.269 422.576 418.485 422.36 418.749 422.36C419.014 422.36 419.23 422.576 419.23 422.841C419.23 426.778 420.12 429.453 420.943 430.271C421.118 430.445 421.286 430.535 421.442 430.535C421.671 430.535 421.899 430.319 422.056 430.138C422.164 430.012 422.326 429.946 422.488 429.97C422.651 429.994 422.795 430.096 422.861 430.247C423.739 432.17 425.199 433.108 427.327 433.108C427.333 433.108 427.333 433.108 427.339 433.108C431.95 433.102 439.061 428.678 439.061 422.817C439.061 422.552 439.277 422.336 439.542 422.336C439.806 422.336 440.023 422.552 440.023 422.817C440.023 429.231 432.335 434.064 427.345 434.07C427.333 434.07 427.327 434.07 427.327 434.07Z" fill="black"/>
<defs>
<linearGradient id="paint0_linear_1472_20357" x1="385.492" y1="398.315" x2="385.492" y2="253.366" gradientUnits="userSpaceOnUse">
<stop offset="0.1806" stop-color="#B924FF"/>
<stop offset="0.8854"/>
</linearGradient>
</defs>
</svg>
