<svg width="16" height="16" viewBox="0 0 16 16" fill="none" xmlns="http://www.w3.org/2000/svg">
<circle cx="8" cy="8" r="8" fill="#DBDBDB"/>
<path d="M7.46487 6.17H8.52087V12H7.46487V6.17ZM7.99287 5.048C7.78753 5.048 7.6152 4.982 7.47587 4.85C7.34387 4.718 7.27787 4.55667 7.27787 4.366C7.27787 4.17533 7.34387 4.014 7.47587 3.882C7.6152 3.74267 7.78753 3.673 7.99287 3.673C8.1982 3.673 8.36687 3.739 8.49887 3.871C8.6382 3.99567 8.70787 4.15333 8.70787 4.344C8.70787 4.542 8.6382 4.71067 8.49887 4.85C8.36687 4.982 8.1982 5.048 7.99287 5.048Z" fill="black"/>
</svg>
