<svg width="60" height="36" viewBox="0 0 60 36" fill="none" xmlns="http://www.w3.org/2000/svg">
<path d="M0 18C0 8.05888 8.05888 0 18 0H42C51.9411 0 60 8.05888 60 18C60 27.9411 51.9411 36 42 36H18C8.05888 36 0 27.9411 0 18Z" fill="#0025FF"/>
<path d="M30 28C35.5228 28 40 23.5228 40 18C40 12.4772 35.5228 8 30 8C24.4772 8 20 12.4772 20 18C20 23.5228 24.4772 28 30 28Z" stroke="white" stroke-width="2" stroke-miterlimit="10" stroke-linecap="round" stroke-linejoin="round"/>
<path d="M35 13H25V23H35V13Z" stroke="white" stroke-width="2" stroke-miterlimit="10" stroke-linecap="round" stroke-linejoin="round"/>
</svg>
